%
M48
M72
T01C0.01969
T02C0.02362
T03C0.02756
T04C0.03150
T05C0.03200
T06C0.03600
T07C0.03937
T08C0.04000
T09C0.05512
T10C0.05906
T11C0.06000
T12C0.06299
T13C0.07874
T14C0.11024
T15C0.12598
%
T01
X196200Y54000
X174500Y110000
X151500Y132000
X148000Y135500
X138500Y149500
X160000Y157500
X165000Y157500
X190000Y137000
X235500Y129900
X253500Y117000
X242500Y114500
X244000Y109500
X240500Y105500
X236000Y103500
X231000Y103500
X250000Y96000
X252000Y99500
X253500Y105500
X253500Y110500
X269700Y55900
X227874Y163626
X223937Y163626
X223937Y167563
X223937Y171500
X220000Y171500
X216063Y171500
X216063Y167563
X220000Y167563
X220000Y163626
X216063Y163626
X212126Y163626
X212126Y167563
X212126Y171500
X212126Y175437
X216063Y175437
X220000Y175437
X223937Y175437
X227874Y175437
X227874Y171500
X227874Y167563
X227874Y179374
X223937Y179374
X220000Y179374
X216063Y179374
X212126Y179374
X239500Y191000
X134000Y205500
X131300Y209000
X127000Y170000
X105874Y257626
X105874Y261563
X105874Y265500
X101937Y265500
X98000Y265500
X94063Y265500
X94063Y261563
X98000Y261563
X101937Y261563
X101937Y257626
X98000Y257626
X94063Y257626
X90126Y257626
X90126Y261563
X90126Y265500
X90126Y269437
X94063Y269437
X98000Y269437
X101937Y269437
X101937Y273374
X98000Y273374
X94063Y273374
X90126Y273374
X105874Y273374
X105874Y269437
X129500Y301500
X176500Y302000
X177000Y298000
X188500Y302000
T02
X118500Y38000
X117500Y47000
X118000Y52000
X140500Y52000
X140000Y47000
X146000Y42500
X155000Y36500
X151500Y33000
X160500Y43500
X164000Y47000
X164000Y54000
X141500Y57000
X160000Y71500
X168000Y82000
X168000Y87000
X168000Y92000
X173000Y92000
X178000Y92000
X173000Y87000
X173000Y82000
X193500Y71500
X193500Y57000
X201500Y57000
X205500Y56000
X240000Y63500
X253500Y72500
X244500Y80000
X234000Y96000
X214000Y99500
X204500Y99500
X201000Y110000
X191000Y122000
X169000Y115500
X158500Y121500
X135000Y127000
X131500Y130500
X135000Y133500
X138000Y136500
X134000Y139500
X138500Y142000
X143000Y147000
X126000Y142000
X122000Y143500
X119000Y140000
X115500Y146000
X111000Y146000
X107500Y148500
X94500Y145000
X90500Y141500
X87000Y138000
X109000Y129000
X103350Y127063
X113500Y123000
X117000Y111500
X106000Y109000
X123000Y99000
X120000Y96000
X117000Y92500
X125000Y91000
X128400Y93900
X146000Y103900
X153000Y97000
X114000Y79500
X75000Y59500
X86000Y49000
X60000Y64500
X165500Y31500
X256000Y15000
X272563Y17760
X272563Y25240
X348000Y84500
X365500Y89500
X380500Y89500
X368000Y79500
X355500Y72000
X383000Y49500
X360500Y117000
X263000Y152000
X258000Y152000
X258000Y157000
X263000Y157000
X263000Y172000
X258000Y172000
X268000Y172000
X268000Y177000
X263000Y177000
X258000Y177000
X267500Y196500
X229000Y219500
X226000Y222500
X210500Y227000
X193000Y213000
X188000Y213000
X183000Y213000
X183000Y208000
X183000Y203000
X188000Y208000
X193000Y208000
X210000Y202250
X215500Y202250
X215500Y207250
X215500Y212250
X221000Y212250
X221000Y207250
X221000Y202250
X176500Y188500
X158500Y194000
X164000Y202500
X162000Y206500
X164000Y210500
X166500Y206500
X171000Y206500
X169000Y202500
X169000Y210500
X136500Y197000
X126600Y191700
X123500Y188500
X119000Y191500
X96000Y198000
X86500Y196000
X68000Y182000
X68000Y178000
X61000Y174300
X55500Y176000
X58000Y197000
X62000Y197000
X62000Y201000
X84500Y212500
X58000Y227000
X53000Y227000
X53000Y232000
X58000Y232000
X97250Y231750
X102250Y231750
X102250Y236750
X97250Y236750
X97250Y241750
X102250Y241750
X107250Y241750
X123500Y235500
X123500Y230500
X128500Y230500
X128500Y235500
X131000Y240500
X152500Y241500
X157000Y244500
X165500Y247000
X165500Y240500
X166000Y236000
X168000Y232000
X157000Y232000
X153500Y235000
X183000Y247000
X183000Y252000
X188000Y252000
X188000Y244500
X215500Y242500
X220000Y247500
X223500Y250500
X224500Y256000
X222000Y268500
X229000Y270500
X271000Y257000
X271000Y252000
X271000Y247000
X263500Y242500
X250008Y352118
X243315Y356055
X247646Y359795
X234260Y355268
X225598Y353693
X221661Y360780
X207488Y356843
X197646Y358417
X201976Y365504
X187803Y355661
X182291Y355465
X159063Y353299
X160638Y345622
X137409Y352906
X131110Y358417
X129929Y369047
X125205Y372394
X150008Y369047
X120283Y342669
X113394Y330858
X113787Y325740
X69102Y353496
X67921Y360976
X152764Y333811
X185441Y334795
X222449Y365898
X231110Y368654
X184000Y292500
X161500Y287500
X150000Y286000
X151000Y281000
X129500Y279500
X125500Y282500
X118000Y285500
X134500Y301000
X141500Y299500
X145000Y304000
X168000Y268500
X178000Y268500
X168000Y259500
X152000Y258500
X152000Y263500
X62000Y289500
X62000Y293500
X58000Y293500
X54000Y293500
X58000Y289500
X104000Y176000
X108000Y174500
X100500Y166000
X96400Y165400
X83000Y157000
X58000Y141000
X53000Y139500
X44500Y139500
X62500Y123100
X70500Y123100
X78500Y123100
X86500Y123100
X160500Y142500
X194000Y160500
X217500Y145500
X215000Y141500
X217500Y137500
X220000Y141500
X222500Y137500
X225000Y141500
X222500Y145500
X143000Y167000
X134000Y167500
X132000Y174500
X360500Y207000
T03
X233236Y335780
X230913Y330661
X225992Y335780
X223669Y330661
X218748Y335780
X216425Y330661
X211504Y335780
X238157Y330661
X78472Y330661
X80795Y335780
X85717Y330661
X88039Y335780
X92961Y330661
X95283Y335780
X100205Y330661
X73551Y335780
T04
X93937Y171000
X86063Y171000
X208500Y267500
X198500Y267500
X188500Y267500
X188500Y277500
X198500Y277500
X208500Y277500
X349063Y222000
X356937Y222000
T05
X181500Y16000
X191500Y16000
X201500Y16000
X211500Y16000
X221500Y16000
X231500Y16000
X241500Y16000
X330500Y82000
X330500Y72000
X330500Y59500
X330500Y49500
X241500Y46000
X231500Y46000
X221500Y46000
X211500Y46000
X201500Y46000
X191500Y46000
X181500Y46000
X49000Y80000
X49000Y70000
X49000Y90000
X49000Y100000
X49000Y110000
X49000Y120000
X150126Y326528
X160126Y326528
X355500Y102000
X375500Y102000
T06
X98000Y16500
X108000Y16500
X118000Y16500
X118000Y26500
X108000Y26500
X98000Y26500
X128000Y26500
X138000Y26500
X148000Y26500
X158000Y26500
X158000Y16500
X148000Y16500
X138000Y16500
X128000Y16500
T07
X209750Y309000
X209750Y299000
X106500Y300000
X106500Y310000
T08
X109500Y87000
X99500Y87000
X99500Y97000
X109500Y97000
X262500Y79000
X262500Y89000
X262500Y99000
X262500Y109000
X262500Y119000
X262500Y129000
X262500Y139000
X298000Y137000
X298000Y153732
X298000Y170465
X298000Y187197
X298000Y203929
X323000Y212000
X333000Y212000
X328000Y202000
X328000Y192000
X328000Y182000
X328000Y172000
X328000Y162000
X328000Y152000
X328000Y142000
X328000Y132000
X328000Y122000
X353000Y122000
X353000Y132000
X378000Y127000
X378000Y117000
X353000Y112000
X378000Y137000
X378000Y147000
X378000Y157000
X378000Y167000
X378000Y177000
X378000Y187000
X378000Y197000
X378000Y207000
X378000Y217000
X378000Y227000
X353000Y197000
X353000Y187000
X353000Y177000
X353000Y167000
X185500Y182500
X185500Y192500
X185500Y172500
X298000Y120268
X298000Y103535
X298000Y86803
X298000Y70071
X303000Y52000
X313000Y52000
X68000Y154000
X58000Y154000
X48000Y154000
X48000Y164000
X58000Y164000
X68000Y164000
X135126Y364047
X145126Y364047
X155126Y364047
X165126Y364047
X175126Y364047
X175126Y374047
X165126Y374047
X155126Y374047
X145126Y374047
X135126Y374047
X363000Y282000
X353000Y282000
X343000Y282000
X270000Y277000
X260000Y277000
X250000Y277000
X240000Y277000
X240000Y287000
X250000Y287000
X260000Y287000
X270000Y287000
T09
X300500Y239500
X338000Y239500
X375500Y239500
X375500Y264500
X338000Y264500
X300500Y264500
T10
X228039Y344441
X213709Y344441
X75756Y344441
X90087Y344441
T11
X45900Y18700
X87300Y18700
X87300Y40700
X45900Y40700
T12
X210700Y317600
X218500Y317600
X226500Y317500
X234300Y317500
X100600Y317500
X92900Y317500
X85100Y317600
X77400Y317600
T13
X284000Y357000
X244772Y339362
X202252Y339717
X106819Y339362
X64299Y339717
X392000Y357000
T14
X129000Y79500
X187000Y79500
X282300Y81800
X282100Y68100
X282100Y54700
X282100Y41700
X282400Y263100
X282300Y276000
X282300Y289800
X282100Y303400
T15
X298000Y29000
X378000Y29000
X259872Y186567
X259872Y257433
X298000Y313000
X247250Y304000
X378000Y313000
X69000Y304500
X56378Y257433
X56378Y186567
M30
