  0
SECTION
  2
HEADER
  9
$ACADVER
  1
AC1009
  9
$MEASUREMENT
 70
     1
  0
ENDSEC
  0
SECTION
  2
ENTITIES
  0
LWPOLYLINE
  8
0
 62
7
 90
5
 70
1
 10
51.850000
 20
87.961562
 10
52.598438
 20
87.961562
 10
52.598438
 20
89.258437
 10
51.101562
 20
89.258437
 10
51.101562
 20
87.961562
  0
LWPOLYLINE
  8
0
 62
7
 90
5
 70
1
 10
51.850000
 20
86.061562
 10
52.598438
 20
86.061562
 10
52.598438
 20
87.358437
 10
51.101562
 20
87.358437
 10
51.101562
 20
86.061562
  0
LWPOLYLINE
  8
0
 62
7
 90
5
 70
1
 10
53.550000
 20
88.258437
 10
52.801562
 20
88.258437
 10
52.801562
 20
86.961562
 10
54.298437
 20
86.961562
 10
54.298437
 20
88.258437
  0
LWPOLYLINE
  8
0
 62
7
 90
5
 70
1
 10
53.550000
 20
90.158438
 10
52.801562
 20
90.158438
 10
52.801562
 20
88.861563
 10
54.298437
 20
88.861563
 10
54.298437
 20
90.158438
  0
LWPOLYLINE
  8
0
 62
7
 90
5
 70
1
 10
53.546438
 20
15.240000
 10
53.546438
 20
16.038438
 10
52.249563
 20
16.038438
 10
52.249563
 20
14.441562
 10
53.546438
 20
14.441562
  0
LWPOLYLINE
  8
0
 62
7
 90
5
 70
1
 10
55.446438
 20
15.240000
 10
55.446438
 20
16.038438
 10
54.149563
 20
16.038438
 10
54.149563
 20
14.441562
 10
55.446438
 20
14.441562
  0
LWPOLYLINE
  8
0
 62
7
 90
5
 70
1
 10
46.351562
 20
89.460000
 10
46.351562
 20
88.711562
 10
47.648438
 20
88.711562
 10
47.648438
 20
90.208437
 10
46.351562
 20
90.208437
  0
LWPOLYLINE
  8
0
 62
7
 90
5
 70
1
 10
44.451563
 20
89.460000
 10
44.451563
 20
88.711562
 10
45.748438
 20
88.711562
 10
45.748438
 20
90.208437
 10
44.451563
 20
90.208437
  0
LWPOLYLINE
  8
0
 62
7
 90
5
 70
1
 10
46.351562
 20
91.460000
 10
46.351562
 20
90.711562
 10
47.648438
 20
90.711562
 10
47.648438
 20
92.208437
 10
46.351562
 20
92.208437
  0
LWPOLYLINE
  8
0
 62
7
 90
5
 70
1
 10
44.451563
 20
91.460000
 10
44.451563
 20
90.711562
 10
45.748438
 20
90.711562
 10
45.748438
 20
92.208437
 10
44.451563
 20
92.208437
  0
LWPOLYLINE
  8
0
 62
7
 90
5
 70
1
 10
53.848000
 20
11.050563
 10
54.481437
 20
11.050563
 10
54.481437
 20
13.587438
 10
53.214562
 20
13.587438
 10
53.214562
 20
11.050563
  0
LWPOLYLINE
  8
0
 62
7
 90
5
 70
1
 10
53.848000
 20
0.890562
 10
54.481437
 20
0.890562
 10
54.481437
 20
3.427437
 10
53.214562
 20
3.427437
 10
53.214562
 20
0.890562
  0
LWPOLYLINE
  8
0
 62
7
 90
5
 70
1
 10
57.658000
 20
11.050563
 10
58.291438
 20
11.050563
 10
58.291438
 20
13.587438
 10
57.024563
 20
13.587438
 10
57.024563
 20
11.050563
  0
LWPOLYLINE
  8
0
 62
7
 90
5
 70
1
 10
57.658000
 20
0.890562
 10
58.291438
 20
0.890562
 10
58.291438
 20
3.427437
 10
57.024563
 20
3.427437
 10
57.024563
 20
0.890562
  0
LWPOLYLINE
  8
0
 62
7
 90
5
 70
1
 10
39.907063
 20
59.610000
 10
39.907063
 20
58.986562
 10
42.903938
 20
58.986562
 10
42.903938
 20
60.233438
 10
39.907063
 20
60.233438
  0
LWPOLYLINE
  8
0
 62
7
 90
5
 70
1
 10
39.907063
 20
49.610000
 10
39.907063
 20
48.986562
 10
42.903938
 20
48.986562
 10
42.903938
 20
50.233438
 10
39.907063
 20
50.233438
  0
LWPOLYLINE
  8
0
 62
7
 90
5
 70
1
 10
39.907063
 20
51.610000
 10
39.907063
 20
50.986562
 10
42.903938
 20
50.986562
 10
42.903938
 20
52.233438
 10
39.907063
 20
52.233438
  0
LWPOLYLINE
  8
0
 62
7
 90
5
 70
1
 10
39.907063
 20
55.610000
 10
39.907063
 20
54.986562
 10
42.903938
 20
54.986562
 10
42.903938
 20
56.233438
 10
39.907063
 20
56.233438
  0
LWPOLYLINE
  8
0
 62
7
 90
5
 70
1
 10
39.907063
 20
57.610000
 10
39.907063
 20
56.986562
 10
42.903938
 20
56.986562
 10
42.903938
 20
58.233438
 10
39.907063
 20
58.233438
  0
LWPOLYLINE
  8
0
 62
7
 90
5
 70
1
 10
39.907063
 20
53.610000
 10
39.907063
 20
52.986562
 10
42.903938
 20
52.986562
 10
42.903938
 20
54.233438
 10
39.907063
 20
54.233438
  0
LWPOLYLINE
  8
0
 62
7
 90
5
 70
1
 10
21.116437
 20
49.610000
 10
21.116437
 20
50.233438
 10
18.119562
 20
50.233438
 10
18.119562
 20
48.986562
 10
21.116437
 20
48.986562
  0
LWPOLYLINE
  8
0
 62
7
 90
5
 70
1
 10
21.116437
 20
59.610000
 10
21.116437
 20
60.233438
 10
18.119562
 20
60.233438
 10
18.119562
 20
58.986562
 10
21.116437
 20
58.986562
  0
LWPOLYLINE
  8
0
 62
7
 90
5
 70
1
 10
21.116437
 20
57.610000
 10
21.116437
 20
58.233438
 10
18.119562
 20
58.233438
 10
18.119562
 20
56.986562
 10
21.116437
 20
56.986562
  0
LWPOLYLINE
  8
0
 62
7
 90
5
 70
1
 10
21.116437
 20
53.610000
 10
21.116437
 20
54.233438
 10
18.119562
 20
54.233438
 10
18.119562
 20
52.986562
 10
21.116437
 20
52.986562
  0
LWPOLYLINE
  8
0
 62
7
 90
5
 70
1
 10
21.116437
 20
51.610000
 10
21.116437
 20
52.233438
 10
18.119562
 20
52.233438
 10
18.119562
 20
50.986562
 10
21.116437
 20
50.986562
  0
LWPOLYLINE
  8
0
 62
7
 90
5
 70
1
 10
21.116437
 20
55.610000
 10
21.116437
 20
56.233438
 10
18.119562
 20
56.233438
 10
18.119562
 20
54.986562
 10
21.116437
 20
54.986562
  0
LWPOLYLINE
  8
0
 62
7
 90
5
 70
1
 10
46.228000
 20
46.781438
 10
41.229563
 20
46.781438
 10
41.229563
 20
36.784562
 10
51.226438
 20
36.784562
 10
51.226438
 20
46.781438
  0
LWPOLYLINE
  8
0
 62
7
 90
5
 70
1
 10
15.240000
 20
60.660563
 10
20.238437
 20
60.660563
 10
20.238438
 20
70.657438
 10
10.241563
 20
70.657438
 10
10.241562
 20
60.660563
  0
ENDSEC
  0
EOF
