  0
SECTION
  2
HEADER
  9
$ACADVER
  1
AC1009
  9
$MEASUREMENT
 70
     1
  0
ENDSEC
  0
SECTION
  2
ENTITIES
  0
LWPOLYLINE
  8
0
 62
7
 90
5
 70
1
 10
11.404600
 20
50.684137
 10
10.402862
 20
50.684137
 10
10.402862
 20
49.188662
 10
12.406338
 20
49.188662
 10
12.406338
 20
50.684137
  0
LWPOLYLINE
  8
0
 62
7
 90
5
 70
1
 10
11.404600
 20
52.970137
 10
10.402862
 20
52.970137
 10
10.402862
 20
51.474663
 10
12.406338
 20
51.474663
 10
12.406338
 20
52.970137
  0
LWPOLYLINE
  8
0
 62
7
 90
5
 70
1
 10
11.404600
 20
55.256138
 10
10.402862
 20
55.256138
 10
10.402862
 20
53.760663
 10
12.406338
 20
53.760663
 10
12.406338
 20
55.256138
  0
LWPOLYLINE
  8
0
 62
7
 90
5
 70
1
 10
5.105400
 20
54.100438
 10
4.103663
 20
54.100438
 10
4.103663
 20
50.293563
 10
6.107138
 20
50.293563
 10
6.107138
 20
54.100438
  0
LWPOLYLINE
  8
0
 62
7
 90
5
 70
1
 10
42.165563
 20
62.065000
 10
42.165563
 20
61.266562
 10
45.162438
 20
61.266562
 10
45.162438
 20
62.863437
 10
42.165563
 20
62.863437
  0
LWPOLYLINE
  8
0
 62
7
 90
5
 70
1
 10
47.745562
 20
59.780000
 10
47.745562
 20
56.881563
 10
53.942438
 20
56.881563
 10
53.942438
 20
62.678438
 10
47.745562
 20
62.678438
  0
LWPOLYLINE
  8
0
 62
7
 90
5
 70
1
 10
42.165563
 20
57.495000
 10
42.165563
 20
56.696562
 10
45.162438
 20
56.696562
 10
45.162438
 20
58.293437
 10
42.165563
 20
58.293437
  0
LWPOLYLINE
  8
0
 62
7
 90
5
 70
1
 10
18.552437
 20
9.144000
 10
18.552437
 20
9.642437
 10
16.555562
 20
9.642437
 10
16.555562
 20
8.645563
 10
18.552437
 20
8.645563
  0
LWPOLYLINE
  8
0
 62
7
 90
5
 70
1
 10
15.702438
 20
9.144000
 10
15.702438
 20
9.642437
 10
13.705563
 20
9.642437
 10
13.705563
 20
8.645563
 10
15.702438
 20
8.645563
  0
LWPOLYLINE
  8
0
 62
7
 90
5
 70
1
 10
33.909000
 20
58.536562
 10
34.407438
 20
58.536562
 10
34.407438
 20
60.533437
 10
33.410562
 20
60.533437
 10
33.410562
 20
58.536562
  0
LWPOLYLINE
  8
0
 62
7
 90
5
 70
1
 10
33.909000
 20
61.386562
 10
34.407438
 20
61.386562
 10
34.407438
 20
63.383437
 10
33.410562
 20
63.383437
 10
33.410562
 20
61.386562
  0
LWPOLYLINE
  8
0
 62
7
 90
5
 70
1
 10
13.726437
 20
46.482000
 10
13.726437
 20
46.980438
 10
11.729563
 20
46.980438
 10
11.729563
 20
45.983562
 10
13.726437
 20
45.983562
  0
LWPOLYLINE
  8
0
 62
7
 90
5
 70
1
 10
10.876437
 20
46.482000
 10
10.876437
 20
46.980438
 10
8.879563
 20
46.980438
 10
8.879563
 20
45.983562
 10
10.876437
 20
45.983562
  0
LWPOLYLINE
  8
0
 62
7
 90
5
 70
1
 10
57.150000
 20
57.723438
 10
56.651562
 20
57.723438
 10
56.651562
 20
54.926563
 10
57.648438
 20
54.926563
 10
57.648438
 20
57.723438
  0
LWPOLYLINE
  8
0
 62
7
 90
5
 70
1
 10
57.150000
 20
53.023438
 10
56.651562
 20
53.023438
 10
56.651562
 20
50.226562
 10
57.648438
 20
50.226562
 10
57.648438
 20
53.023438
  0
LWPOLYLINE
  8
0
 62
7
 90
5
 70
1
 10
11.749438
 20
32.512000
 10
11.749438
 20
33.010438
 10
8.952563
 20
33.010438
 10
8.952563
 20
32.013562
 10
11.749438
 20
32.013562
  0
LWPOLYLINE
  8
0
 62
7
 90
5
 70
1
 10
7.049437
 20
32.512000
 10
7.049437
 20
33.010438
 10
4.252562
 20
33.010438
 10
4.252562
 20
32.013562
 10
7.049437
 20
32.013562
  0
LWPOLYLINE
  8
0
 62
7
 90
5
 70
1
 10
15.954437
 20
15.976600
 10
15.954437
 20
16.725037
 10
14.657562
 20
16.725037
 10
14.657562
 20
15.228162
 10
15.954437
 20
15.228162
  0
LWPOLYLINE
  8
0
 62
7
 90
5
 70
1
 10
17.854437
 20
15.976600
 10
17.854437
 20
16.725037
 10
16.557562
 20
16.725037
 10
16.557562
 20
15.228162
 10
17.854437
 20
15.228162
  0
LWPOLYLINE
  8
0
 62
7
 90
5
 70
1
 10
5.725437
 20
12.192000
 10
5.725437
 20
12.690437
 10
3.728563
 20
12.690437
 10
3.728563
 20
11.693563
 10
5.725437
 20
11.693563
  0
LWPOLYLINE
  8
0
 62
7
 90
5
 70
1
 10
2.875437
 20
12.192000
 10
2.875437
 20
12.690437
 10
0.878563
 20
12.690437
 10
0.878563
 20
11.693563
 10
2.875437
 20
11.693563
  0
LWPOLYLINE
  8
0
 62
7
 90
5
 70
1
 10
16.081437
 20
18.415000
 10
16.081437
 20
19.163438
 10
14.784562
 20
19.163438
 10
14.784562
 20
17.666562
 10
16.081437
 20
17.666562
  0
LWPOLYLINE
  8
0
 62
7
 90
5
 70
1
 10
17.981437
 20
18.415000
 10
17.981437
 20
19.163438
 10
16.684562
 20
19.163438
 10
16.684562
 20
17.666562
 10
17.981437
 20
17.666562
  0
LWPOLYLINE
  8
0
 62
7
 90
5
 70
1
 10
51.028600
 20
16.589438
 10
50.280162
 20
16.589438
 10
50.280162
 20
15.292563
 10
51.777037
 20
15.292563
 10
51.777037
 20
16.589438
  0
LWPOLYLINE
  8
0
 62
7
 90
5
 70
1
 10
51.028600
 20
18.489438
 10
50.280162
 20
18.489438
 10
50.280162
 20
17.192563
 10
51.777037
 20
17.192563
 10
51.777037
 20
18.489438
  0
LWPOLYLINE
  8
0
 62
7
 90
5
 70
1
 10
49.199800
 20
15.236762
 10
49.948238
 20
15.236762
 10
49.948238
 20
16.533637
 10
48.451363
 20
16.533637
 10
48.451363
 20
15.236762
  0
LWPOLYLINE
  8
0
 62
7
 90
5
 70
1
 10
49.199800
 20
13.336763
 10
49.948238
 20
13.336763
 10
49.948238
 20
14.633638
 10
48.451363
 20
14.633638
 10
48.451363
 20
13.336763
  0
LWPOLYLINE
  8
0
 62
7
 90
5
 70
1
 10
42.624437
 20
14.224000
 10
42.624437
 20
14.972437
 10
41.327562
 20
14.972437
 10
41.327562
 20
13.475563
 10
42.624437
 20
13.475563
  0
LWPOLYLINE
  8
0
 62
7
 90
5
 70
1
 10
44.524437
 20
14.224000
 10
44.524437
 20
14.972437
 10
43.227562
 20
14.972437
 10
43.227562
 20
13.475563
 10
44.524437
 20
13.475563
  0
LWPOLYLINE
  8
0
 62
7
 90
5
 70
1
 10
52.752563
 20
31.623000
 10
52.752563
 20
30.874562
 10
54.049438
 20
30.874562
 10
54.049438
 20
32.371437
 10
52.752563
 20
32.371437
  0
LWPOLYLINE
  8
0
 62
7
 90
5
 70
1
 10
50.852562
 20
31.623000
 10
50.852562
 20
30.874562
 10
52.149437
 20
30.874562
 10
52.149437
 20
32.371437
 10
50.852562
 20
32.371437
  0
LWPOLYLINE
  8
0
 62
7
 90
5
 70
1
 10
55.419562
 20
5.461000
 10
55.419562
 20
4.712563
 10
56.716437
 20
4.712563
 10
56.716437
 20
6.209437
 10
55.419562
 20
6.209437
  0
LWPOLYLINE
  8
0
 62
7
 90
5
 70
1
 10
53.519562
 20
5.461000
 10
53.519562
 20
4.712563
 10
54.816437
 20
4.712563
 10
54.816437
 20
6.209437
 10
53.519562
 20
6.209437
  0
LWPOLYLINE
  8
0
 62
7
 90
5
 70
1
 10
47.117000
 20
19.764437
 10
46.368562
 20
19.764437
 10
46.368562
 20
18.467562
 10
47.865437
 20
18.467562
 10
47.865437
 20
19.764437
  0
LWPOLYLINE
  8
0
 62
7
 90
5
 70
1
 10
47.117000
 20
21.664437
 10
46.368562
 20
21.664437
 10
46.368562
 20
20.367562
 10
47.865437
 20
20.367562
 10
47.865437
 20
21.664437
  0
LWPOLYLINE
  8
0
 62
7
 90
5
 70
1
 10
58.547000
 20
7.413562
 10
59.295437
 20
7.413562
 10
59.295437
 20
8.710437
 10
57.798562
 20
8.710437
 10
57.798562
 20
7.413562
  0
LWPOLYLINE
  8
0
 62
7
 90
5
 70
1
 10
58.547000
 20
5.513562
 10
59.295437
 20
5.513562
 10
59.295437
 20
6.810437
 10
57.798562
 20
6.810437
 10
57.798562
 20
5.513562
  0
LWPOLYLINE
  8
0
 62
7
 90
5
 70
1
 10
33.655000
 20
73.040937
 10
32.906562
 20
73.040937
 10
32.906562
 20
71.744062
 10
34.403438
 20
71.744062
 10
34.403438
 20
73.040937
  0
LWPOLYLINE
  8
0
 62
7
 90
5
 70
1
 10
33.655000
 20
74.940938
 10
32.906562
 20
74.940938
 10
32.906562
 20
73.644063
 10
34.403438
 20
73.644063
 10
34.403438
 20
74.940938
  0
LWPOLYLINE
  8
0
 62
7
 90
5
 70
1
 10
16.510000
 20
28.495562
 10
17.258438
 20
28.495562
 10
17.258438
 20
29.792437
 10
15.761563
 20
29.792437
 10
15.761563
 20
28.495562
  0
LWPOLYLINE
  8
0
 62
7
 90
5
 70
1
 10
16.510000
 20
26.595562
 10
17.258438
 20
26.595562
 10
17.258438
 20
27.892437
 10
15.761563
 20
27.892437
 10
15.761563
 20
26.595562
  0
LWPOLYLINE
  8
0
 62
7
 90
5
 70
1
 10
19.986563
 20
15.748000
 10
19.986563
 20
14.999562
 10
21.283438
 20
14.999562
 10
21.283438
 20
16.496437
 10
19.986563
 20
16.496437
  0
LWPOLYLINE
  8
0
 62
7
 90
5
 70
1
 10
18.086562
 20
15.748000
 10
18.086562
 20
14.999562
 10
19.383437
 20
14.999562
 10
19.383437
 20
16.496437
 10
18.086562
 20
16.496437
  0
LWPOLYLINE
  8
0
 62
7
 90
5
 70
1
 10
30.901761
 20
27.345761
 10
30.372536
 20
27.874987
 10
29.455507
 20
26.957958
 10
30.513958
 20
25.899507
 10
31.430987
 20
26.816536
  0
LWPOLYLINE
  8
0
 62
7
 90
5
 70
1
 10
32.245265
 20
28.689265
 10
31.716039
 20
29.218490
 10
30.799010
 20
28.301461
 10
31.857461
 20
27.243010
 10
32.774490
 20
28.160039
  0
LWPOLYLINE
  8
0
 62
7
 90
5
 70
1
 10
31.328235
 20
44.871761
 10
30.799010
 20
44.342536
 10
31.716039
 20
43.425507
 10
32.774490
 20
44.483958
 10
31.857461
 20
45.400987
  0
LWPOLYLINE
  8
0
 62
7
 90
5
 70
1
 10
29.984732
 20
46.215265
 10
29.455507
 20
45.686039
 10
30.372536
 20
44.769010
 10
31.430987
 20
45.827461
 10
30.513958
 20
46.744490
  0
LWPOLYLINE
  8
0
 62
7
 90
5
 70
1
 10
19.517235
 20
44.536235
 10
20.046461
 20
44.007010
 10
20.963490
 20
44.924039
 10
19.905039
 20
45.982490
 10
18.988010
 20
45.065461
  0
LWPOLYLINE
  8
0
 62
7
 90
5
 70
1
 10
18.173732
 20
43.192732
 10
18.702958
 20
42.663507
 10
19.619987
 20
43.580536
 10
18.561536
 20
44.638987
 10
17.644507
 20
43.721958
  0
LWPOLYLINE
  8
0
 62
7
 90
5
 70
1
 10
18.923000
 20
12.779438
 10
18.174562
 20
12.779438
 10
18.174562
 20
11.482563
 10
19.671437
 20
11.482563
 10
19.671437
 20
12.779438
  0
LWPOLYLINE
  8
0
 62
7
 90
5
 70
1
 10
18.923000
 20
14.679438
 10
18.174562
 20
14.679438
 10
18.174562
 20
13.382563
 10
19.671437
 20
13.382563
 10
19.671437
 20
14.679438
  0
LWPOLYLINE
  8
0
 62
7
 90
5
 70
1
 10
39.068438
 20
37.211000
 10
39.068438
 20
37.959437
 10
37.771563
 20
37.959437
 10
37.771563
 20
36.462562
 10
39.068438
 20
36.462562
  0
LWPOLYLINE
  8
0
 62
7
 90
5
 70
1
 10
40.968438
 20
37.211000
 10
40.968438
 20
37.959437
 10
39.671563
 20
37.959437
 10
39.671563
 20
36.462562
 10
40.968438
 20
36.462562
  0
LWPOLYLINE
  8
0
 62
7
 90
5
 70
1
 10
38.989000
 20
34.464562
 10
39.737437
 20
34.464562
 10
39.737437
 20
35.761437
 10
38.240562
 20
35.761437
 10
38.240562
 20
34.464562
  0
LWPOLYLINE
  8
0
 62
7
 90
5
 70
1
 10
38.989000
 20
32.564563
 10
39.737437
 20
32.564563
 10
39.737437
 20
33.861438
 10
38.240562
 20
33.861438
 10
38.240562
 20
32.564563
  0
LWPOLYLINE
  8
0
 62
7
 90
5
 70
1
 10
42.037000
 20
36.332438
 10
41.538562
 20
36.332438
 10
41.538562
 20
34.335563
 10
42.535438
 20
34.335563
 10
42.535438
 20
36.332438
  0
LWPOLYLINE
  8
0
 62
7
 90
5
 70
1
 10
42.037000
 20
33.482438
 10
41.538562
 20
33.482438
 10
41.538562
 20
31.485563
 10
42.535438
 20
31.485563
 10
42.535438
 20
33.482438
  0
LWPOLYLINE
  8
0
 62
7
 90
5
 70
1
 10
26.797000
 20
71.326437
 10
26.048562
 20
71.326437
 10
26.048562
 20
70.029562
 10
27.545438
 20
70.029562
 10
27.545438
 20
71.326437
  0
LWPOLYLINE
  8
0
 62
7
 90
5
 70
1
 10
26.797000
 20
73.226438
 10
26.048562
 20
73.226438
 10
26.048562
 20
71.929563
 10
27.545438
 20
71.929563
 10
27.545438
 20
73.226438
  0
LWPOLYLINE
  8
0
 62
7
 90
5
 70
1
 10
27.892437
 20
67.437000
 10
27.892437
 20
68.185437
 10
26.595562
 20
68.185437
 10
26.595562
 20
66.688563
 10
27.892437
 20
66.688563
  0
LWPOLYLINE
  8
0
 62
7
 90
5
 70
1
 10
29.792437
 20
67.437000
 10
29.792437
 20
68.185437
 10
28.495562
 20
68.185437
 10
28.495562
 20
66.688563
 10
29.792437
 20
66.688563
  0
LWPOLYLINE
  8
0
 62
7
 90
5
 70
1
 10
20.944562
 20
75.946000
 10
20.944562
 20
75.447563
 10
22.941438
 20
75.447563
 10
22.941438
 20
76.444437
 10
20.944562
 20
76.444437
  0
LWPOLYLINE
  8
0
 62
7
 90
5
 70
1
 10
23.794562
 20
75.946000
 10
23.794562
 20
75.447563
 10
25.791438
 20
75.447563
 10
25.791438
 20
76.444437
 10
23.794562
 20
76.444437
  0
LWPOLYLINE
  8
0
 62
7
 90
5
 70
1
 10
34.544000
 20
43.608562
 10
35.292437
 20
43.608562
 10
35.292437
 20
44.905437
 10
33.795562
 20
44.905437
 10
33.795562
 20
43.608562
  0
LWPOLYLINE
  8
0
 62
7
 90
5
 70
1
 10
34.544000
 20
41.708562
 10
35.292437
 20
41.708562
 10
35.292437
 20
43.005437
 10
33.795562
 20
43.005437
 10
33.795562
 20
41.708562
  0
LWPOLYLINE
  8
0
 62
7
 90
5
 70
1
 10
33.187761
 20
29.804235
 10
33.716987
 20
30.333461
 10
32.799958
 20
31.250490
 10
31.741507
 20
30.192039
 10
32.658536
 20
29.275010
  0
LWPOLYLINE
  8
0
 62
7
 90
5
 70
1
 10
34.531265
 20
28.460732
 10
35.060490
 20
28.989958
 10
34.143461
 20
29.906987
 10
33.085010
 20
28.848536
 10
34.002039
 20
27.931507
  0
LWPOLYLINE
  8
0
 62
7
 90
5
 70
1
 10
39.243000
 20
23.288563
 10
39.991438
 20
23.288563
 10
39.991438
 20
24.585438
 10
38.494563
 20
24.585438
 10
38.494563
 20
23.288563
  0
LWPOLYLINE
  8
0
 62
7
 90
5
 70
1
 10
39.243000
 20
21.388562
 10
39.991438
 20
21.388562
 10
39.991438
 20
22.685437
 10
38.494563
 20
22.685437
 10
38.494563
 20
21.388562
  0
LWPOLYLINE
  8
0
 62
7
 90
5
 70
1
 10
85.423438
 20
15.875000
 10
85.423438
 20
16.623438
 10
84.126563
 20
16.623438
 10
84.126563
 20
15.126563
 10
85.423438
 20
15.126563
  0
LWPOLYLINE
  8
0
 62
7
 90
5
 70
1
 10
87.323437
 20
15.875000
 10
87.323437
 20
16.623438
 10
86.026562
 20
16.623438
 10
86.026562
 20
15.126563
 10
87.323437
 20
15.126563
  0
LWPOLYLINE
  8
0
 62
7
 90
5
 70
1
 10
5.990000
 20
87.998437
 10
5.241563
 20
87.998437
 10
5.241563
 20
86.701562
 10
6.738437
 20
86.701562
 10
6.738437
 20
87.998437
  0
LWPOLYLINE
  8
0
 62
7
 90
5
 70
1
 10
5.990000
 20
89.898438
 10
5.241563
 20
89.898438
 10
5.241563
 20
88.601562
 10
6.738437
 20
88.601562
 10
6.738437
 20
89.898438
  0
LWPOLYLINE
  8
0
 62
7
 90
5
 70
1
 10
37.030000
 20
85.698437
 10
36.281562
 20
85.698437
 10
36.281562
 20
84.401562
 10
37.778438
 20
84.401562
 10
37.778438
 20
85.698437
  0
LWPOLYLINE
  8
0
 62
7
 90
5
 70
1
 10
37.030000
 20
87.598438
 10
36.281562
 20
87.598438
 10
36.281562
 20
86.301563
 10
37.778438
 20
86.301563
 10
37.778438
 20
87.598438
  0
LWPOLYLINE
  8
0
 62
7
 90
5
 70
1
 10
34.580000
 20
86.278437
 10
33.831562
 20
86.278437
 10
33.831562
 20
84.981562
 10
35.328437
 20
84.981562
 10
35.328437
 20
86.278437
  0
LWPOLYLINE
  8
0
 62
7
 90
5
 70
1
 10
34.580000
 20
88.178438
 10
33.831562
 20
88.178438
 10
33.831562
 20
86.881563
 10
35.328437
 20
86.881563
 10
35.328437
 20
88.178438
  0
LWPOLYLINE
  8
0
 62
7
 90
5
 70
1
 10
49.951563
 20
91.560000
 10
49.951563
 20
90.811563
 10
51.248438
 20
90.811563
 10
51.248438
 20
92.308437
 10
49.951563
 20
92.308437
  0
LWPOLYLINE
  8
0
 62
7
 90
5
 70
1
 10
48.051563
 20
91.560000
 10
48.051563
 20
90.811563
 10
49.348438
 20
90.811563
 10
49.348438
 20
92.308437
 10
48.051563
 20
92.308437
  0
LWPOLYLINE
  8
0
 62
7
 90
5
 70
1
 10
15.367000
 20
49.217562
 10
16.065438
 20
49.217562
 10
16.065438
 20
50.614437
 10
14.668563
 20
50.614437
 10
14.668563
 20
49.217562
  0
LWPOLYLINE
  8
0
 62
7
 90
5
 70
1
 10
15.367000
 20
53.017563
 10
16.065438
 20
53.017563
 10
16.065438
 20
54.414437
 10
14.668563
 20
54.414437
 10
14.668563
 20
53.017563
  0
LWPOLYLINE
  8
0
 62
7
 90
5
 70
1
 10
29.151563
 20
55.499000
 10
29.151563
 20
54.800563
 10
30.548438
 20
54.800563
 10
30.548438
 20
56.197437
 10
29.151563
 20
56.197437
  0
LWPOLYLINE
  8
0
 62
7
 90
5
 70
1
 10
32.951563
 20
55.499000
 10
32.951563
 20
54.800563
 10
34.348437
 20
54.800563
 10
34.348437
 20
56.197437
 10
32.951563
 20
56.197437
  0
LWPOLYLINE
  8
0
 62
7
 90
5
 70
1
 10
5.773000
 20
23.838562
 10
6.521437
 20
23.838562
 10
6.521437
 20
24.235437
 10
5.024563
 20
24.235437
 10
5.024563
 20
23.838562
  0
LWPOLYLINE
  8
0
 62
7
 90
5
 70
1
 10
5.773000
 20
23.188562
 10
6.521437
 20
23.188562
 10
6.521437
 20
23.585438
 10
5.024563
 20
23.585438
 10
5.024563
 20
23.188562
  0
LWPOLYLINE
  8
0
 62
7
 90
5
 70
1
 10
5.773000
 20
22.538562
 10
6.521437
 20
22.538562
 10
6.521437
 20
22.935437
 10
5.024563
 20
22.935437
 10
5.024563
 20
22.538562
  0
LWPOLYLINE
  8
0
 62
7
 90
5
 70
1
 10
5.773000
 20
21.888562
 10
6.521437
 20
21.888562
 10
6.521437
 20
22.285438
 10
5.024563
 20
22.285438
 10
5.024563
 20
21.888562
  0
LWPOLYLINE
  8
0
 62
7
 90
5
 70
1
 10
5.773000
 20
21.238563
 10
6.521437
 20
21.238563
 10
6.521437
 20
21.635438
 10
5.024563
 20
21.635438
 10
5.024563
 20
21.238563
  0
LWPOLYLINE
  8
0
 62
7
 90
5
 70
1
 10
5.773000
 20
20.588562
 10
6.521437
 20
20.588562
 10
6.521437
 20
20.985437
 10
5.024563
 20
20.985437
 10
5.024563
 20
20.588562
  0
LWPOLYLINE
  8
0
 62
7
 90
5
 70
1
 10
5.773000
 20
19.938562
 10
6.521437
 20
19.938562
 10
6.521437
 20
20.335438
 10
5.024563
 20
20.335438
 10
5.024563
 20
19.938562
  0
LWPOLYLINE
  8
0
 62
7
 90
5
 70
1
 10
5.773000
 20
19.288562
 10
6.521437
 20
19.288562
 10
6.521437
 20
19.685437
 10
5.024563
 20
19.685437
 10
5.024563
 20
19.288562
  0
LWPOLYLINE
  8
0
 62
7
 90
5
 70
1
 10
5.773000
 20
18.638562
 10
6.521437
 20
18.638562
 10
6.521437
 20
19.035438
 10
5.024563
 20
19.035438
 10
5.024563
 20
18.638562
  0
LWPOLYLINE
  8
0
 62
7
 90
5
 70
1
 10
5.773000
 20
17.988563
 10
6.521437
 20
17.988563
 10
6.521437
 20
18.385438
 10
5.024563
 20
18.385438
 10
5.024563
 20
17.988563
  0
LWPOLYLINE
  8
0
 62
7
 90
5
 70
1
 10
5.773000
 20
17.338562
 10
6.521437
 20
17.338562
 10
6.521437
 20
17.735437
 10
5.024563
 20
17.735437
 10
5.024563
 20
17.338562
  0
LWPOLYLINE
  8
0
 62
7
 90
5
 70
1
 10
5.773000
 20
16.688562
 10
6.521437
 20
16.688562
 10
6.521437
 20
17.085438
 10
5.024563
 20
17.085438
 10
5.024563
 20
16.688562
  0
LWPOLYLINE
  8
0
 62
7
 90
5
 70
1
 10
5.773000
 20
16.038562
 10
6.521437
 20
16.038562
 10
6.521437
 20
16.435437
 10
5.024563
 20
16.435437
 10
5.024563
 20
16.038562
  0
LWPOLYLINE
  8
0
 62
7
 90
5
 70
1
 10
5.773000
 20
15.388562
 10
6.521437
 20
15.388562
 10
6.521437
 20
15.785438
 10
5.024563
 20
15.785438
 10
5.024563
 20
15.388562
  0
LWPOLYLINE
  8
0
 62
7
 90
5
 70
1
 10
13.023000
 20
15.388562
 10
13.771437
 20
15.388562
 10
13.771437
 20
15.785438
 10
12.274563
 20
15.785438
 10
12.274563
 20
15.388562
  0
LWPOLYLINE
  8
0
 62
7
 90
5
 70
1
 10
13.023000
 20
16.038562
 10
13.771437
 20
16.038562
 10
13.771437
 20
16.435437
 10
12.274563
 20
16.435437
 10
12.274563
 20
16.038562
  0
LWPOLYLINE
  8
0
 62
7
 90
5
 70
1
 10
13.023000
 20
16.688562
 10
13.771437
 20
16.688562
 10
13.771437
 20
17.085438
 10
12.274563
 20
17.085438
 10
12.274563
 20
16.688562
  0
LWPOLYLINE
  8
0
 62
7
 90
5
 70
1
 10
13.023000
 20
17.338562
 10
13.771437
 20
17.338562
 10
13.771437
 20
17.735437
 10
12.274563
 20
17.735437
 10
12.274563
 20
17.338562
  0
LWPOLYLINE
  8
0
 62
7
 90
5
 70
1
 10
13.023000
 20
17.988563
 10
13.771437
 20
17.988563
 10
13.771437
 20
18.385438
 10
12.274563
 20
18.385438
 10
12.274563
 20
17.988563
  0
LWPOLYLINE
  8
0
 62
7
 90
5
 70
1
 10
13.023000
 20
18.638562
 10
13.771437
 20
18.638562
 10
13.771437
 20
19.035438
 10
12.274563
 20
19.035438
 10
12.274563
 20
18.638562
  0
LWPOLYLINE
  8
0
 62
7
 90
5
 70
1
 10
13.023000
 20
19.288562
 10
13.771437
 20
19.288562
 10
13.771437
 20
19.685437
 10
12.274563
 20
19.685437
 10
12.274563
 20
19.288562
  0
LWPOLYLINE
  8
0
 62
7
 90
5
 70
1
 10
13.023000
 20
19.938562
 10
13.771437
 20
19.938562
 10
13.771437
 20
20.335438
 10
12.274563
 20
20.335438
 10
12.274563
 20
19.938562
  0
LWPOLYLINE
  8
0
 62
7
 90
5
 70
1
 10
13.023000
 20
20.588562
 10
13.771437
 20
20.588562
 10
13.771437
 20
20.985437
 10
12.274563
 20
20.985437
 10
12.274563
 20
20.588562
  0
LWPOLYLINE
  8
0
 62
7
 90
5
 70
1
 10
13.023000
 20
21.238563
 10
13.771437
 20
21.238563
 10
13.771437
 20
21.635438
 10
12.274563
 20
21.635438
 10
12.274563
 20
21.238563
  0
LWPOLYLINE
  8
0
 62
7
 90
5
 70
1
 10
13.023000
 20
21.888562
 10
13.771437
 20
21.888562
 10
13.771437
 20
22.285438
 10
12.274563
 20
22.285438
 10
12.274563
 20
21.888562
  0
LWPOLYLINE
  8
0
 62
7
 90
5
 70
1
 10
13.023000
 20
22.538562
 10
13.771437
 20
22.538562
 10
13.771437
 20
22.935437
 10
12.274563
 20
22.935437
 10
12.274563
 20
22.538562
  0
LWPOLYLINE
  8
0
 62
7
 90
5
 70
1
 10
13.023000
 20
23.188562
 10
13.771437
 20
23.188562
 10
13.771437
 20
23.585438
 10
12.274563
 20
23.585438
 10
12.274563
 20
23.188562
  0
LWPOLYLINE
  8
0
 62
7
 90
5
 70
1
 10
13.023000
 20
23.838562
 10
13.771437
 20
23.838562
 10
13.771437
 20
24.235437
 10
12.274563
 20
24.235437
 10
12.274563
 20
23.838562
  0
LWPOLYLINE
  8
0
 62
7
 90
5
 70
1
 10
85.785000
 20
18.713437
 10
84.686562
 20
18.713437
 10
84.686562
 20
18.116563
 10
86.883437
 20
18.116563
 10
86.883437
 20
18.713437
  0
LWPOLYLINE
  8
0
 62
7
 90
5
 70
1
 10
85.785000
 20
19.983437
 10
84.686562
 20
19.983437
 10
84.686562
 20
19.386563
 10
86.883437
 20
19.386563
 10
86.883437
 20
19.983437
  0
LWPOLYLINE
  8
0
 62
7
 90
5
 70
1
 10
85.785000
 20
21.253437
 10
84.686562
 20
21.253437
 10
84.686562
 20
20.656562
 10
86.883437
 20
20.656562
 10
86.883437
 20
21.253437
  0
LWPOLYLINE
  8
0
 62
7
 90
5
 70
1
 10
85.785000
 20
22.523438
 10
84.686562
 20
22.523438
 10
84.686562
 20
21.926563
 10
86.883437
 20
21.926563
 10
86.883437
 20
22.523438
  0
LWPOLYLINE
  8
0
 62
7
 90
5
 70
1
 10
80.585000
 20
22.523438
 10
79.486562
 20
22.523438
 10
79.486562
 20
21.926563
 10
81.683437
 20
21.926563
 10
81.683437
 20
22.523438
  0
LWPOLYLINE
  8
0
 62
7
 90
5
 70
1
 10
80.585000
 20
21.253437
 10
79.486562
 20
21.253437
 10
79.486562
 20
20.656562
 10
81.683437
 20
20.656562
 10
81.683437
 20
21.253437
  0
LWPOLYLINE
  8
0
 62
7
 90
5
 70
1
 10
80.585000
 20
19.983437
 10
79.486562
 20
19.983437
 10
79.486562
 20
19.386563
 10
81.683437
 20
19.386563
 10
81.683437
 20
19.983437
  0
LWPOLYLINE
  8
0
 62
7
 90
5
 70
1
 10
80.585000
 20
18.713437
 10
79.486562
 20
18.713437
 10
79.486562
 20
18.116563
 10
81.683437
 20
18.116563
 10
81.683437
 20
18.713437
  0
LWPOLYLINE
  8
0
 62
7
 90
5
 70
1
 10
53.086000
 20
12.525438
 10
52.337562
 20
12.525438
 10
52.337562
 20
11.228563
 10
53.834437
 20
11.228563
 10
53.834437
 20
12.525438
  0
LWPOLYLINE
  8
0
 62
7
 90
5
 70
1
 10
53.086000
 20
14.425437
 10
52.337562
 20
14.425437
 10
52.337562
 20
13.128562
 10
53.834437
 20
13.128562
 10
53.834437
 20
14.425437
  0
LWPOLYLINE
  8
0
 62
7
 90
5
 70
1
 10
49.022000
 20
19.764437
 10
48.273562
 20
19.764437
 10
48.273562
 20
18.467562
 10
49.770437
 20
18.467562
 10
49.770437
 20
19.764437
  0
LWPOLYLINE
  8
0
 62
7
 90
5
 70
1
 10
49.022000
 20
21.664437
 10
48.273562
 20
21.664437
 10
48.273562
 20
20.367562
 10
49.770437
 20
20.367562
 10
49.770437
 20
21.664437
  0
LWPOLYLINE
  8
0
 62
7
 90
5
 70
1
 10
80.978437
 20
13.335000
 10
80.978437
 20
14.083438
 10
79.681562
 20
14.083438
 10
79.681562
 20
12.586563
 10
80.978437
 20
12.586563
  0
LWPOLYLINE
  8
0
 62
7
 90
5
 70
1
 10
82.878438
 20
13.335000
 10
82.878438
 20
14.083438
 10
81.581563
 20
14.083438
 10
81.581563
 20
12.586563
 10
82.878438
 20
12.586563
  0
LWPOLYLINE
  8
0
 62
7
 90
5
 70
1
 10
54.356000
 20
8.715438
 10
53.607563
 20
8.715438
 10
53.607563
 20
7.418563
 10
55.104438
 20
7.418563
 10
55.104438
 20
8.715438
  0
LWPOLYLINE
  8
0
 62
7
 90
5
 70
1
 10
54.356000
 20
10.615438
 10
53.607563
 20
10.615438
 10
53.607563
 20
9.318563
 10
55.104438
 20
9.318563
 10
55.104438
 20
10.615438
  0
LWPOLYLINE
  8
0
 62
7
 90
5
 70
1
 10
53.768563
 20
33.782000
 10
53.768563
 20
33.033562
 10
55.065438
 20
33.033562
 10
55.065438
 20
34.530437
 10
53.768563
 20
34.530437
  0
LWPOLYLINE
  8
0
 62
7
 90
5
 70
1
 10
51.868563
 20
33.782000
 10
51.868563
 20
33.033562
 10
53.165438
 20
33.033562
 10
53.165438
 20
34.530437
 10
51.868563
 20
34.530437
  0
LWPOLYLINE
  8
0
 62
7
 90
5
 70
1
 10
52.149437
 20
29.845000
 10
52.149437
 20
30.593438
 10
50.852562
 20
30.593438
 10
50.852562
 20
29.096562
 10
52.149437
 20
29.096562
  0
LWPOLYLINE
  8
0
 62
7
 90
5
 70
1
 10
54.049438
 20
29.845000
 10
54.049438
 20
30.593438
 10
52.752563
 20
30.593438
 10
52.752563
 20
29.096562
 10
54.049438
 20
29.096562
  0
LWPOLYLINE
  8
0
 62
7
 90
5
 70
1
 10
43.259437
 20
25.273000
 10
43.259437
 20
26.021438
 10
41.962562
 20
26.021438
 10
41.962562
 20
24.524562
 10
43.259437
 20
24.524562
  0
LWPOLYLINE
  8
0
 62
7
 90
5
 70
1
 10
45.159438
 20
25.273000
 10
45.159438
 20
26.021438
 10
43.862563
 20
26.021438
 10
43.862563
 20
24.524562
 10
45.159438
 20
24.524562
  0
LWPOLYLINE
  8
0
 62
7
 90
5
 70
1
 10
42.291000
 20
20.780438
 10
41.542562
 20
20.780438
 10
41.542562
 20
19.483563
 10
43.039437
 20
19.483563
 10
43.039437
 20
20.780438
  0
LWPOLYLINE
  8
0
 62
7
 90
5
 70
1
 10
42.291000
 20
22.680438
 10
41.542562
 20
22.680438
 10
41.542562
 20
21.383563
 10
43.039437
 20
21.383563
 10
43.039437
 20
22.680438
  0
LWPOLYLINE
  8
0
 62
7
 90
5
 70
1
 10
44.704000
 20
20.780438
 10
43.955562
 20
20.780438
 10
43.955562
 20
19.483563
 10
45.452438
 20
19.483563
 10
45.452438
 20
20.780438
  0
LWPOLYLINE
  8
0
 62
7
 90
5
 70
1
 10
44.704000
 20
22.680438
 10
43.955562
 20
22.680438
 10
43.955562
 20
21.383563
 10
45.452438
 20
21.383563
 10
45.452438
 20
22.680438
  0
LWPOLYLINE
  8
0
 62
7
 90
5
 70
1
 10
6.223000
 20
26.876438
 10
5.474563
 20
26.876438
 10
5.474563
 20
25.579563
 10
6.971437
 20
25.579563
 10
6.971437
 20
26.876438
  0
LWPOLYLINE
  8
0
 62
7
 90
5
 70
1
 10
6.223000
 20
28.776438
 10
5.474563
 20
28.776438
 10
5.474563
 20
27.479563
 10
6.971437
 20
27.479563
 10
6.971437
 20
28.776438
  0
LWPOLYLINE
  8
0
 62
7
 90
5
 70
1
 10
10.287000
 20
26.876438
 10
9.538563
 20
26.876438
 10
9.538563
 20
25.579563
 10
11.035438
 20
25.579563
 10
11.035438
 20
26.876438
  0
LWPOLYLINE
  8
0
 62
7
 90
5
 70
1
 10
10.287000
 20
28.776438
 10
9.538563
 20
28.776438
 10
9.538563
 20
27.479563
 10
11.035438
 20
27.479563
 10
11.035438
 20
28.776438
  0
LWPOLYLINE
  8
0
 62
7
 90
5
 70
1
 10
12.319000
 20
26.876438
 10
11.570563
 20
26.876438
 10
11.570563
 20
25.579563
 10
13.067438
 20
25.579563
 10
13.067438
 20
26.876438
  0
LWPOLYLINE
  8
0
 62
7
 90
5
 70
1
 10
12.319000
 20
28.776438
 10
11.570563
 20
28.776438
 10
11.570563
 20
27.479563
 10
13.067438
 20
27.479563
 10
13.067438
 20
28.776438
  0
LWPOLYLINE
  8
0
 62
7
 90
5
 70
1
 10
8.255000
 20
26.876438
 10
7.506563
 20
26.876438
 10
7.506563
 20
25.579563
 10
9.003438
 20
25.579563
 10
9.003438
 20
26.876438
  0
LWPOLYLINE
  8
0
 62
7
 90
5
 70
1
 10
8.255000
 20
28.776438
 10
7.506563
 20
28.776438
 10
7.506563
 20
27.479563
 10
9.003438
 20
27.479563
 10
9.003438
 20
28.776438
  0
LWPOLYLINE
  8
0
 62
7
 90
5
 70
1
 10
33.020000
 20
69.199062
 10
33.768438
 20
69.199062
 10
33.768438
 20
70.495937
 10
32.271563
 20
70.495937
 10
32.271563
 20
69.199062
  0
LWPOLYLINE
  8
0
 62
7
 90
5
 70
1
 10
33.020000
 20
67.299063
 10
33.768438
 20
67.299063
 10
33.768438
 20
68.595938
 10
32.271563
 20
68.595938
 10
32.271563
 20
67.299063
  0
LWPOLYLINE
  8
0
 62
7
 90
5
 70
1
 10
35.560000
 20
69.199062
 10
36.308438
 20
69.199062
 10
36.308438
 20
70.495937
 10
34.811563
 20
70.495937
 10
34.811563
 20
69.199062
  0
LWPOLYLINE
  8
0
 62
7
 90
5
 70
1
 10
35.560000
 20
67.299063
 10
36.308438
 20
67.299063
 10
36.308438
 20
68.595938
 10
34.811563
 20
68.595938
 10
34.811563
 20
67.299063
  0
LWPOLYLINE
  8
0
 62
7
 90
5
 70
1
 10
33.274000
 20
25.098437
 10
32.525562
 20
25.098437
 10
32.525562
 20
23.801562
 10
34.022438
 20
23.801562
 10
34.022438
 20
25.098437
  0
LWPOLYLINE
  8
0
 62
7
 90
5
 70
1
 10
33.274000
 20
26.998438
 10
32.525562
 20
26.998438
 10
32.525562
 20
25.701563
 10
34.022438
 20
25.701563
 10
34.022438
 20
26.998438
  0
LWPOLYLINE
  8
0
 62
7
 90
5
 70
1
 10
37.338000
 20
23.447437
 10
36.589562
 20
23.447437
 10
36.589562
 20
22.150562
 10
38.086438
 20
22.150562
 10
38.086438
 20
23.447437
  0
LWPOLYLINE
  8
0
 62
7
 90
5
 70
1
 10
37.338000
 20
25.347438
 10
36.589562
 20
25.347438
 10
36.589562
 20
24.050563
 10
38.086438
 20
24.050563
 10
38.086438
 20
25.347438
  0
LWPOLYLINE
  8
0
 62
7
 90
5
 70
1
 10
58.721562
 20
40.259000
 10
58.721562
 20
39.460563
 10
60.018437
 20
39.460563
 10
60.018437
 20
41.057437
 10
58.721562
 20
41.057437
  0
LWPOLYLINE
  8
0
 62
7
 90
5
 70
1
 10
56.821562
 20
40.259000
 10
56.821562
 20
39.460563
 10
58.118437
 20
39.460563
 10
58.118437
 20
41.057437
 10
56.821562
 20
41.057437
  0
LWPOLYLINE
  8
0
 62
7
 90
5
 70
1
 10
58.848562
 20
10.033000
 10
58.848562
 20
9.234562
 10
60.145437
 20
9.234562
 10
60.145437
 20
10.831437
 10
58.848562
 20
10.831437
  0
LWPOLYLINE
  8
0
 62
7
 90
5
 70
1
 10
56.948563
 20
10.033000
 10
56.948563
 20
9.234562
 10
58.245438
 20
9.234562
 10
58.245438
 20
10.831437
 10
56.948563
 20
10.831437
  0
LWPOLYLINE
  8
0
 62
7
 90
5
 70
1
 10
86.026562
 20
13.335000
 10
86.026562
 20
12.586563
 10
87.323437
 20
12.586563
 10
87.323437
 20
14.083438
 10
86.026562
 20
14.083438
  0
LWPOLYLINE
  8
0
 62
7
 90
5
 70
1
 10
84.126563
 20
13.335000
 10
84.126563
 20
12.586563
 10
85.423438
 20
12.586563
 10
85.423438
 20
14.083438
 10
84.126563
 20
14.083438
  0
LWPOLYLINE
  8
0
 62
7
 90
5
 70
1
 10
78.105000
 20
16.208438
 10
77.356563
 20
16.208438
 10
77.356563
 20
14.911563
 10
78.853437
 20
14.911563
 10
78.853437
 20
16.208438
  0
LWPOLYLINE
  8
0
 62
7
 90
5
 70
1
 10
78.105000
 20
18.108438
 10
77.356563
 20
18.108438
 10
77.356563
 20
16.811563
 10
78.853437
 20
16.811563
 10
78.853437
 20
18.108438
  0
LWPOLYLINE
  8
0
 62
7
 90
5
 70
1
 10
78.406563
 20
10.160000
 10
78.406563
 20
9.411563
 10
79.703438
 20
9.411563
 10
79.703438
 20
10.908437
 10
78.406563
 20
10.908437
  0
LWPOLYLINE
  8
0
 62
7
 90
5
 70
1
 10
76.506563
 20
10.160000
 10
76.506563
 20
9.411563
 10
77.803438
 20
9.411563
 10
77.803438
 20
10.908437
 10
76.506563
 20
10.908437
  0
LWPOLYLINE
  8
0
 62
7
 90
5
 70
1
 10
11.651563
 20
88.460000
 10
11.651563
 20
87.661562
 10
12.948438
 20
87.661562
 10
12.948438
 20
89.258437
 10
11.651563
 20
89.258437
  0
LWPOLYLINE
  8
0
 62
7
 90
5
 70
1
 10
9.751563
 20
88.460000
 10
9.751563
 20
87.661562
 10
11.048438
 20
87.661562
 10
11.048438
 20
89.258437
 10
9.751563
 20
89.258437
  0
LWPOLYLINE
  8
0
 62
7
 90
5
 70
1
 10
42.451563
 20
87.460000
 10
42.451563
 20
86.661562
 10
43.748438
 20
86.661562
 10
43.748438
 20
88.258437
 10
42.451563
 20
88.258437
  0
LWPOLYLINE
  8
0
 62
7
 90
5
 70
1
 10
40.551563
 20
87.460000
 10
40.551563
 20
86.661562
 10
41.848438
 20
86.661562
 10
41.848438
 20
88.258437
 10
40.551563
 20
88.258437
  0
LWPOLYLINE
  8
0
 62
7
 90
5
 70
1
 10
17.951563
 20
89.260000
 10
17.951563
 20
88.461562
 10
19.248438
 20
88.461562
 10
19.248438
 20
90.058438
 10
17.951563
 20
90.058438
  0
LWPOLYLINE
  8
0
 62
7
 90
5
 70
1
 10
16.051562
 20
89.260000
 10
16.051562
 20
88.461562
 10
17.348437
 20
88.461562
 10
17.348437
 20
90.058438
 10
16.051562
 20
90.058438
  0
LWPOLYLINE
  8
0
 62
7
 90
5
 70
1
 10
21.150000
 20
82.058437
 10
20.351562
 20
82.058437
 10
20.351562
 20
80.761562
 10
21.948437
 20
80.761562
 10
21.948437
 20
82.058437
  0
LWPOLYLINE
  8
0
 62
7
 90
5
 70
1
 10
21.150000
 20
83.958438
 10
20.351562
 20
83.958438
 10
20.351562
 20
82.661563
 10
21.948437
 20
82.661563
 10
21.948437
 20
83.958438
  0
LWPOLYLINE
  8
0
 62
7
 90
5
 70
1
 10
38.550000
 20
81.558437
 10
37.751562
 20
81.558437
 10
37.751562
 20
80.261562
 10
39.348437
 20
80.261562
 10
39.348437
 20
81.558437
  0
LWPOLYLINE
  8
0
 62
7
 90
5
 70
1
 10
38.550000
 20
83.458438
 10
37.751562
 20
83.458438
 10
37.751562
 20
82.161563
 10
39.348437
 20
82.161563
 10
39.348437
 20
83.458438
  0
LWPOLYLINE
  8
0
 62
7
 90
5
 70
1
 10
26.791071
 20
27.284649
 10
26.253360
 20
27.822359
 10
26.040044
 20
27.609043
 10
27.115465
 20
26.533622
 10
27.328781
 20
26.746938
  0
LWPOLYLINE
  8
0
 62
7
 90
5
 70
1
 10
27.144624
 20
27.638202
 10
26.606913
 20
28.175912
 10
26.393597
 20
27.962596
 10
27.469018
 20
26.887175
 10
27.682334
 20
27.100491
  0
LWPOLYLINE
  8
0
 62
7
 90
5
 70
1
 10
27.498177
 20
27.991755
 10
26.960466
 20
28.529466
 10
26.747150
 20
28.316149
 10
27.822571
 20
27.240728
 10
28.035887
 20
27.454045
  0
LWPOLYLINE
  8
0
 62
7
 90
5
 70
1
 10
27.851730
 20
28.345308
 10
27.314020
 20
28.883019
 10
27.100703
 20
28.669702
 10
28.176124
 20
27.594281
 10
28.389441
 20
27.807598
  0
LWPOLYLINE
  8
0
 62
7
 90
5
 70
1
 10
28.205283
 20
28.698861
 10
27.667573
 20
29.236572
 10
27.454256
 20
29.023255
 10
28.529677
 20
27.947834
 10
28.742994
 20
28.161151
  0
LWPOLYLINE
  8
0
 62
7
 90
5
 70
1
 10
28.558836
 20
29.052418
 10
28.021126
 20
29.590128
 10
27.807809
 20
29.376812
 10
28.883230
 20
28.301391
 10
29.096547
 20
28.514707
  0
LWPOLYLINE
  8
0
 62
7
 90
5
 70
1
 10
28.912389
 20
29.405971
 10
28.374679
 20
29.943681
 10
28.161363
 20
29.730365
 10
29.236784
 20
28.654944
 10
29.450100
 20
28.868260
  0
LWPOLYLINE
  8
0
 62
7
 90
5
 70
1
 10
29.265946
 20
29.759524
 10
28.728235
 20
30.297234
 10
28.514919
 20
30.083918
 10
29.590340
 20
29.008497
 10
29.803656
 20
29.221813
  0
LWPOLYLINE
  8
0
 62
7
 90
5
 70
1
 10
29.619499
 20
30.113077
 10
29.081788
 20
30.650787
 10
28.868472
 20
30.437471
 10
29.943893
 20
29.362050
 10
30.157209
 20
29.575366
  0
LWPOLYLINE
  8
0
 62
7
 90
5
 70
1
 10
29.973052
 20
30.466630
 10
29.435341
 20
31.004341
 10
29.222025
 20
30.791024
 10
30.297446
 20
29.715603
 10
30.510762
 20
29.928920
  0
LWPOLYLINE
  8
0
 62
7
 90
5
 70
1
 10
30.326605
 20
30.820183
 10
29.788895
 20
31.357894
 10
29.575578
 20
31.144577
 10
30.650999
 20
30.069156
 10
30.864316
 20
30.282473
  0
LWPOLYLINE
  8
0
 62
7
 90
5
 70
1
 10
30.680158
 20
31.173736
 10
30.142448
 20
31.711447
 10
29.929131
 20
31.498130
 10
31.004552
 20
30.422709
 10
31.217869
 20
30.636026
  0
LWPOLYLINE
  8
0
 62
7
 90
5
 70
1
 10
31.033711
 20
31.527289
 10
30.496001
 20
32.065000
 10
30.282684
 20
31.851684
 10
31.358105
 20
30.776263
 10
31.571422
 20
30.989579
  0
LWPOLYLINE
  8
0
 62
7
 90
5
 70
1
 10
31.387264
 20
31.880843
 10
30.849554
 20
32.418553
 10
30.636238
 20
32.205237
 10
31.711659
 20
31.129816
 10
31.924975
 20
31.343132
  0
LWPOLYLINE
  8
0
 62
7
 90
5
 70
1
 10
31.740818
 20
32.234396
 10
31.203107
 20
32.772106
 10
30.989791
 20
32.558790
 10
32.065212
 20
31.483369
 10
32.278528
 20
31.696685
  0
LWPOLYLINE
  8
0
 62
7
 90
5
 70
1
 10
32.094371
 20
32.587949
 10
31.556660
 20
33.125659
 10
31.343344
 20
32.912343
 10
32.418765
 20
31.836922
 10
32.632081
 20
32.050238
  0
LWPOLYLINE
  8
0
 62
7
 90
5
 70
1
 10
32.447924
 20
32.941502
 10
31.910213
 20
33.479212
 10
31.696897
 20
33.265896
 10
32.772318
 20
32.190475
 10
32.985634
 20
32.403791
  0
LWPOLYLINE
  8
0
 62
7
 90
5
 70
1
 10
32.801477
 20
33.295058
 10
32.263766
 20
33.832769
 10
32.050450
 20
33.619452
 10
33.125871
 20
32.544031
 10
33.339187
 20
32.757348
  0
LWPOLYLINE
  8
0
 62
7
 90
5
 70
1
 10
33.155030
 20
33.648611
 10
32.617320
 20
34.186322
 10
32.404003
 20
33.973005
 10
33.479424
 20
32.897584
 10
33.692741
 20
33.110901
  0
LWPOLYLINE
  8
0
 62
7
 90
5
 70
1
 10
33.508586
 20
34.002164
 10
32.970876
 20
34.539875
 10
32.757559
 20
34.326559
 10
33.832980
 20
33.251138
 10
34.046297
 20
33.464454
  0
LWPOLYLINE
  8
0
 62
7
 90
5
 70
1
 10
33.862139
 20
34.355718
 10
33.324429
 20
34.893428
 10
33.111113
 20
34.680112
 10
34.186534
 20
33.604691
 10
34.399850
 20
33.818007
  0
LWPOLYLINE
  8
0
 62
7
 90
5
 70
1
 10
34.215693
 20
34.709271
 10
33.677982
 20
35.246981
 10
33.464666
 20
35.033665
 10
34.540087
 20
33.958244
 10
34.753403
 20
34.171560
  0
LWPOLYLINE
  8
0
 62
7
 90
5
 70
1
 10
34.569246
 20
35.062824
 10
34.031535
 20
35.600534
 10
33.818219
 20
35.387218
 10
34.893640
 20
34.311797
 10
35.106956
 20
34.525113
  0
LWPOLYLINE
  8
0
 62
7
 90
5
 70
1
 10
34.922799
 20
35.416377
 10
34.385088
 20
35.954087
 10
34.171772
 20
35.740771
 10
35.247193
 20
34.665350
 10
35.460509
 20
34.878666
  0
LWPOLYLINE
  8
0
 62
7
 90
5
 70
1
 10
35.276777
 20
35.770355
 10
34.739066
 20
36.308066
 10
34.525750
 20
36.094749
 10
35.601171
 20
35.019328
 10
35.814487
 20
35.232645
  0
LWPOLYLINE
  8
0
 62
7
 90
5
 70
1
 10
35.276777
 20
37.889642
 10
35.814487
 20
38.427352
 10
35.601171
 20
38.640669
 10
34.525750
 20
37.565248
 10
34.739066
 20
37.351931
  0
LWPOLYLINE
  8
0
 62
7
 90
5
 70
1
 10
34.922799
 20
38.243620
 10
35.460509
 20
38.781330
 10
35.247193
 20
38.994647
 10
34.171772
 20
37.919226
 10
34.385088
 20
37.705909
  0
LWPOLYLINE
  8
0
 62
7
 90
5
 70
1
 10
34.569246
 20
38.597173
 10
35.106956
 20
39.134884
 10
34.893640
 20
39.348200
 10
33.818219
 20
38.272779
 10
34.031535
 20
38.059463
  0
LWPOLYLINE
  8
0
 62
7
 90
5
 70
1
 10
34.215693
 20
38.950726
 10
34.753403
 20
39.488437
 10
34.540087
 20
39.701753
 10
33.464666
 20
38.626332
 10
33.677982
 20
38.413016
  0
LWPOLYLINE
  8
0
 62
7
 90
5
 70
1
 10
33.862139
 20
39.304279
 10
34.399850
 20
39.841990
 10
34.186534
 20
40.055306
 10
33.111113
 20
38.979885
 10
33.324429
 20
38.766569
  0
LWPOLYLINE
  8
0
 62
7
 90
5
 70
1
 10
33.508586
 20
39.657832
 10
34.046297
 20
40.195543
 10
33.832980
 20
40.408859
 10
32.757559
 20
39.333438
 10
32.970876
 20
39.120122
  0
LWPOLYLINE
  8
0
 62
7
 90
5
 70
1
 10
33.155030
 20
40.011386
 10
33.692741
 20
40.549096
 10
33.479424
 20
40.762412
 10
32.404003
 20
39.686991
 10
32.617320
 20
39.473675
  0
LWPOLYLINE
  8
0
 62
7
 90
5
 70
1
 10
32.801477
 20
40.364939
 10
33.339187
 20
40.902649
 10
33.125871
 20
41.115966
 10
32.050450
 20
40.040545
 10
32.263766
 20
39.827228
  0
LWPOLYLINE
  8
0
 62
7
 90
5
 70
1
 10
32.447924
 20
40.718495
 10
32.985634
 20
41.256205
 10
32.772318
 20
41.469522
 10
31.696897
 20
40.394101
 10
31.910213
 20
40.180784
  0
LWPOLYLINE
  8
0
 62
7
 90
5
 70
1
 10
32.094371
 20
41.072048
 10
32.632081
 20
41.609759
 10
32.418765
 20
41.823075
 10
31.343344
 20
40.747654
 10
31.556660
 20
40.534338
  0
LWPOLYLINE
  8
0
 62
7
 90
5
 70
1
 10
31.740818
 20
41.425601
 10
32.278528
 20
41.963312
 10
32.065212
 20
42.176628
 10
30.989791
 20
41.101207
 10
31.203107
 20
40.887891
  0
LWPOLYLINE
  8
0
 62
7
 90
5
 70
1
 10
31.033711
 20
42.132707
 10
31.571422
 20
42.670418
 10
31.358105
 20
42.883734
 10
30.282684
 20
41.808313
 10
30.496001
 20
41.594997
  0
LWPOLYLINE
  8
0
 62
7
 90
5
 70
1
 10
30.680158
 20
42.486261
 10
31.217869
 20
43.023971
 10
31.004552
 20
43.237287
 10
29.929131
 20
42.161866
 10
30.142448
 20
41.948550
  0
LWPOLYLINE
  8
0
 62
7
 90
5
 70
1
 10
30.326605
 20
42.839814
 10
30.864316
 20
43.377524
 10
30.650999
 20
43.590841
 10
29.575578
 20
42.515420
 10
29.788895
 20
42.302103
  0
LWPOLYLINE
  8
0
 62
7
 90
5
 70
1
 10
29.973052
 20
43.193367
 10
30.510762
 20
43.731077
 10
30.297446
 20
43.944394
 10
29.222025
 20
42.868973
 10
29.435341
 20
42.655656
  0
LWPOLYLINE
  8
0
 62
7
 90
5
 70
1
 10
29.619499
 20
43.546920
 10
30.157209
 20
44.084630
 10
29.943893
 20
44.297947
 10
28.868472
 20
43.222526
 10
29.081788
 20
43.009209
  0
LWPOLYLINE
  8
0
 62
7
 90
5
 70
1
 10
29.265946
 20
43.900473
 10
29.803656
 20
44.438184
 10
29.590340
 20
44.651500
 10
28.514919
 20
43.576079
 10
28.728235
 20
43.362763
  0
LWPOLYLINE
  8
0
 62
7
 90
5
 70
1
 10
28.912389
 20
44.254026
 10
29.450100
 20
44.791737
 10
29.236784
 20
45.005053
 10
28.161363
 20
43.929632
 10
28.374679
 20
43.716316
  0
LWPOLYLINE
  8
0
 62
7
 90
5
 70
1
 10
28.558836
 20
44.607579
 10
29.096547
 20
45.145290
 10
28.883230
 20
45.358606
 10
27.807809
 20
44.283185
 10
28.021126
 20
44.069869
  0
LWPOLYLINE
  8
0
 62
7
 90
5
 70
1
 10
28.205283
 20
44.961136
 10
28.742994
 20
45.498846
 10
28.529677
 20
45.712162
 10
27.454256
 20
44.636741
 10
27.667573
 20
44.423425
  0
LWPOLYLINE
  8
0
 62
7
 90
5
 70
1
 10
27.851730
 20
45.314689
 10
28.389441
 20
45.852399
 10
28.176124
 20
46.065716
 10
27.100703
 20
44.990295
 10
27.314020
 20
44.776978
  0
LWPOLYLINE
  8
0
 62
7
 90
5
 70
1
 10
27.498177
 20
45.668242
 10
28.035887
 20
46.205952
 10
27.822571
 20
46.419269
 10
26.747150
 20
45.343848
 10
26.960466
 20
45.130531
  0
LWPOLYLINE
  8
0
 62
7
 90
5
 70
1
 10
27.144624
 20
46.021795
 10
27.682334
 20
46.559505
 10
27.469018
 20
46.772822
 10
26.393597
 20
45.697401
 10
26.606913
 20
45.484084
  0
LWPOLYLINE
  8
0
 62
7
 90
5
 70
1
 10
26.791071
 20
46.375348
 10
27.328781
 20
46.913059
 10
27.115465
 20
47.126375
 10
26.040044
 20
46.050954
 10
26.253360
 20
45.837638
  0
LWPOLYLINE
  8
0
 62
7
 90
5
 70
1
 10
24.458043
 20
46.589089
 10
23.920332
 20
47.126800
 10
23.707016
 20
46.913484
 10
24.782437
 20
45.838063
 10
24.995753
 20
46.051379
  0
LWPOLYLINE
  8
0
 62
7
 90
5
 70
1
 10
24.104064
 20
46.235111
 10
23.566354
 20
46.772822
 10
23.353038
 20
46.559505
 10
24.428459
 20
45.484084
 10
24.641775
 20
45.697401
  0
LWPOLYLINE
  8
0
 62
7
 90
5
 70
1
 10
23.750511
 20
45.881558
 10
23.212801
 20
46.419269
 10
22.999484
 20
46.205952
 10
24.074905
 20
45.130531
 10
24.288222
 20
45.343848
  0
LWPOLYLINE
  8
0
 62
7
 90
5
 70
1
 10
23.396958
 20
45.528005
 10
22.859248
 20
46.065716
 10
22.645931
 20
45.852399
 10
23.721352
 20
44.776978
 10
23.934669
 20
44.990295
  0
LWPOLYLINE
  8
0
 62
7
 90
5
 70
1
 10
23.043405
 20
45.174452
 10
22.505695
 20
45.712162
 10
22.292378
 20
45.498846
 10
23.367799
 20
44.423425
 10
23.581116
 20
44.636741
  0
LWPOLYLINE
  8
0
 62
7
 90
5
 70
1
 10
22.689852
 20
44.820896
 10
22.152141
 20
45.358606
 10
21.938825
 20
45.145290
 10
23.014246
 20
44.069869
 10
23.227562
 20
44.283185
  0
LWPOLYLINE
  8
0
 62
7
 90
5
 70
1
 10
22.336299
 20
44.467343
 10
21.798588
 20
45.005053
 10
21.585272
 20
44.791737
 10
22.660693
 20
43.716316
 10
22.874009
 20
43.929632
  0
LWPOLYLINE
  8
0
 62
7
 90
5
 70
1
 10
21.982746
 20
44.113789
 10
21.445035
 20
44.651500
 10
21.231719
 20
44.438184
 10
22.307140
 20
43.362763
 10
22.520456
 20
43.576079
  0
LWPOLYLINE
  8
0
 62
7
 90
5
 70
1
 10
21.629189
 20
43.760236
 10
21.091479
 20
44.297947
 10
20.878163
 20
44.084630
 10
21.953584
 20
43.009209
 10
22.166900
 20
43.222526
  0
LWPOLYLINE
  8
0
 62
7
 90
5
 70
1
 10
21.275636
 20
43.406683
 10
20.737926
 20
43.944394
 10
20.524609
 20
43.731077
 10
21.600030
 20
42.655656
 10
21.813347
 20
42.868973
  0
LWPOLYLINE
  8
0
 62
7
 90
5
 70
1
 10
20.922083
 20
43.053130
 10
20.384373
 20
43.590841
 10
20.171056
 20
43.377524
 10
21.246477
 20
42.302103
 10
21.459794
 20
42.515420
  0
LWPOLYLINE
  8
0
 62
7
 90
5
 70
1
 10
20.568530
 20
42.699577
 10
20.030820
 20
43.237287
 10
19.817503
 20
43.023971
 10
20.892924
 20
41.948550
 10
21.106241
 20
42.161866
  0
LWPOLYLINE
  8
0
 62
7
 90
5
 70
1
 10
20.214977
 20
42.346024
 10
19.677266
 20
42.883734
 10
19.463950
 20
42.670418
 10
20.539371
 20
41.594997
 10
20.752687
 20
41.808313
  0
LWPOLYLINE
  8
0
 62
7
 90
5
 70
1
 10
19.861424
 20
41.992471
 10
19.323713
 20
42.530181
 10
19.110397
 20
42.316865
 10
20.185818
 20
41.241444
 10
20.399134
 20
41.454760
  0
LWPOLYLINE
  8
0
 62
7
 90
5
 70
1
 10
19.507871
 20
41.638918
 10
18.970160
 20
42.176628
 10
18.756844
 20
41.963312
 10
19.832265
 20
40.887891
 10
20.045581
 20
41.101207
  0
LWPOLYLINE
  8
0
 62
7
 90
5
 70
1
 10
19.154318
 20
41.285364
 10
18.616607
 20
41.823075
 10
18.403291
 20
41.609759
 10
19.478712
 20
40.534338
 10
19.692028
 20
40.747654
  0
LWPOLYLINE
  8
0
 62
7
 90
5
 70
1
 10
18.800764
 20
40.931811
 10
18.263054
 20
41.469522
 10
18.049738
 20
41.256205
 10
19.125159
 20
40.180784
 10
19.338475
 20
40.394101
  0
LWPOLYLINE
  8
0
 62
7
 90
5
 70
1
 10
18.447211
 20
40.578255
 10
17.909501
 20
41.115966
 10
17.696184
 20
40.902649
 10
18.771605
 20
39.827228
 10
18.984922
 20
40.040545
  0
LWPOLYLINE
  8
0
 62
7
 90
5
 70
1
 10
18.093658
 20
40.224702
 10
17.555948
 20
40.762412
 10
17.342631
 20
40.549096
 10
18.418052
 20
39.473675
 10
18.631369
 20
39.686991
  0
LWPOLYLINE
  8
0
 62
7
 90
5
 70
1
 10
17.740105
 20
39.871149
 10
17.202395
 20
40.408859
 10
16.989078
 20
40.195543
 10
18.064499
 20
39.120122
 10
18.277816
 20
39.333438
  0
LWPOLYLINE
  8
0
 62
7
 90
5
 70
1
 10
17.386549
 20
39.517596
 10
16.848838
 20
40.055306
 10
16.635522
 20
39.841990
 10
17.710943
 20
38.766569
 10
17.924259
 20
38.979885
  0
LWPOLYLINE
  8
0
 62
7
 90
5
 70
1
 10
17.032996
 20
39.164043
 10
16.495285
 20
39.701753
 10
16.281969
 20
39.488437
 10
17.357390
 20
38.413016
 10
17.570706
 20
38.626332
  0
LWPOLYLINE
  8
0
 62
7
 90
5
 70
1
 10
16.679443
 20
38.810489
 10
16.141732
 20
39.348200
 10
15.928416
 20
39.134884
 10
17.003837
 20
38.059463
 10
17.217153
 20
38.272779
  0
LWPOLYLINE
  8
0
 62
7
 90
5
 70
1
 10
16.325889
 20
38.456936
 10
15.788179
 20
38.994647
 10
15.574863
 20
38.781330
 10
16.650284
 20
37.705909
 10
16.863600
 20
37.919226
  0
LWPOLYLINE
  8
0
 62
7
 90
5
 70
1
 10
15.972336
 20
38.103383
 10
15.434626
 20
38.641094
 10
15.221309
 20
38.427777
 10
16.296730
 20
37.352356
 10
16.510047
 20
37.565673
  0
LWPOLYLINE
  8
0
 62
7
 90
5
 70
1
 10
15.972336
 20
35.556614
 10
16.510047
 20
36.094324
 10
16.296730
 20
36.307641
 10
15.221309
 20
35.232220
 10
15.434626
 20
35.018903
  0
LWPOLYLINE
  8
0
 62
7
 90
5
 70
1
 10
16.325889
 20
35.203061
 10
16.863600
 20
35.740771
 10
16.650284
 20
35.954087
 10
15.574863
 20
34.878666
 10
15.788179
 20
34.665350
  0
LWPOLYLINE
  8
0
 62
7
 90
5
 70
1
 10
16.679443
 20
34.849507
 10
17.217153
 20
35.387218
 10
17.003837
 20
35.600534
 10
15.928416
 20
34.525113
 10
16.141732
 20
34.311797
  0
LWPOLYLINE
  8
0
 62
7
 90
5
 70
1
 10
17.032996
 20
34.495954
 10
17.570706
 20
35.033665
 10
17.357390
 20
35.246981
 10
16.281969
 20
34.171560
 10
16.495285
 20
33.958244
  0
LWPOLYLINE
  8
0
 62
7
 90
5
 70
1
 10
17.386549
 20
34.142401
 10
17.924259
 20
34.680112
 10
17.710943
 20
34.893428
 10
16.635522
 20
33.818007
 10
16.848838
 20
33.604691
  0
LWPOLYLINE
  8
0
 62
7
 90
5
 70
1
 10
17.740105
 20
33.788848
 10
18.277816
 20
34.326559
 10
18.064499
 20
34.539875
 10
16.989078
 20
33.464454
 10
17.202395
 20
33.251138
  0
LWPOLYLINE
  8
0
 62
7
 90
5
 70
1
 10
18.093658
 20
33.435295
 10
18.631369
 20
33.973005
 10
18.418052
 20
34.186322
 10
17.342631
 20
33.110901
 10
17.555948
 20
32.897584
  0
LWPOLYLINE
  8
0
 62
7
 90
5
 70
1
 10
18.447211
 20
33.081742
 10
18.984922
 20
33.619452
 10
18.771605
 20
33.832769
 10
17.696184
 20
32.757348
 10
17.909501
 20
32.544031
  0
LWPOLYLINE
  8
0
 62
7
 90
5
 70
1
 10
18.800764
 20
32.728186
 10
19.338475
 20
33.265896
 10
19.125159
 20
33.479212
 10
18.049738
 20
32.403791
 10
18.263054
 20
32.190475
  0
LWPOLYLINE
  8
0
 62
7
 90
5
 70
1
 10
19.154318
 20
32.374632
 10
19.692028
 20
32.912343
 10
19.478712
 20
33.125659
 10
18.403291
 20
32.050238
 10
18.616607
 20
31.836922
  0
LWPOLYLINE
  8
0
 62
7
 90
5
 70
1
 10
19.507871
 20
32.021079
 10
20.045581
 20
32.558790
 10
19.832265
 20
32.772106
 10
18.756844
 20
31.696685
 10
18.970160
 20
31.483369
  0
LWPOLYLINE
  8
0
 62
7
 90
5
 70
1
 10
19.861424
 20
31.667526
 10
20.399134
 20
32.205237
 10
20.185818
 20
32.418553
 10
19.110397
 20
31.343132
 10
19.323713
 20
31.129816
  0
LWPOLYLINE
  8
0
 62
7
 90
5
 70
1
 10
20.214977
 20
31.313973
 10
20.752687
 20
31.851684
 10
20.539371
 20
32.065000
 10
19.463950
 20
30.989579
 10
19.677266
 20
30.776263
  0
LWPOLYLINE
  8
0
 62
7
 90
5
 70
1
 10
20.568530
 20
30.960420
 10
21.106241
 20
31.498130
 10
20.892924
 20
31.711447
 10
19.817503
 20
30.636026
 10
20.030820
 20
30.422709
  0
LWPOLYLINE
  8
0
 62
7
 90
5
 70
1
 10
20.922083
 20
30.606867
 10
21.459794
 20
31.144577
 10
21.246477
 20
31.357894
 10
20.171056
 20
30.282473
 10
20.384373
 20
30.069156
  0
LWPOLYLINE
  8
0
 62
7
 90
5
 70
1
 10
21.275636
 20
30.253314
 10
21.813347
 20
30.791024
 10
21.600030
 20
31.004341
 10
20.524609
 20
29.928920
 10
20.737926
 20
29.715603
  0
LWPOLYLINE
  8
0
 62
7
 90
5
 70
1
 10
21.629189
 20
29.899761
 10
22.166900
 20
30.437471
 10
21.953584
 20
30.650787
 10
20.878163
 20
29.575366
 10
21.091479
 20
29.362050
  0
LWPOLYLINE
  8
0
 62
7
 90
5
 70
1
 10
21.982746
 20
29.546207
 10
22.520456
 20
30.083918
 10
22.307140
 20
30.297234
 10
21.231719
 20
29.221813
 10
21.445035
 20
29.008497
  0
LWPOLYLINE
  8
0
 62
7
 90
5
 70
1
 10
22.336299
 20
29.192654
 10
22.874009
 20
29.730365
 10
22.660693
 20
29.943681
 10
21.585272
 20
28.868260
 10
21.798588
 20
28.654944
  0
LWPOLYLINE
  8
0
 62
7
 90
5
 70
1
 10
22.689852
 20
28.839101
 10
23.227562
 20
29.376812
 10
23.014246
 20
29.590128
 10
21.938825
 20
28.514707
 10
22.152141
 20
28.301391
  0
LWPOLYLINE
  8
0
 62
7
 90
5
 70
1
 10
23.043405
 20
28.485545
 10
23.581116
 20
29.023255
 10
23.367799
 20
29.236572
 10
22.292378
 20
28.161151
 10
22.505695
 20
27.947834
  0
LWPOLYLINE
  8
0
 62
7
 90
5
 70
1
 10
23.396958
 20
28.131992
 10
23.934669
 20
28.669702
 10
23.721352
 20
28.883019
 10
22.645931
 20
27.807598
 10
22.859248
 20
27.594281
  0
LWPOLYLINE
  8
0
 62
7
 90
5
 70
1
 10
23.750511
 20
27.778439
 10
24.288222
 20
28.316149
 10
24.074905
 20
28.529466
 10
22.999484
 20
27.454045
 10
23.212801
 20
27.240728
  0
LWPOLYLINE
  8
0
 62
7
 90
5
 70
1
 10
24.104064
 20
27.424886
 10
24.641775
 20
27.962596
 10
24.428459
 20
28.175912
 10
23.353038
 20
27.100491
 10
23.566354
 20
26.887175
  0
LWPOLYLINE
  8
0
 62
7
 90
5
 70
1
 10
24.458043
 20
27.070907
 10
24.995753
 20
27.608618
 10
24.782437
 20
27.821934
 10
23.707016
 20
26.746513
 10
23.920332
 20
26.533197
  0
LWPOLYLINE
  8
0
 62
7
 90
5
 70
1
 10
31.387264
 20
41.779154
 10
31.924975
 20
42.316865
 10
31.711659
 20
42.530181
 10
30.636238
 20
41.454760
 10
30.849554
 20
41.241444
  0
LWPOLYLINE
  8
0
 62
7
 90
5
 70
1
 10
7.264400
 20
9.447237
 10
7.062762
 20
9.447237
 10
7.062762
 20
7.926362
 10
7.466038
 20
7.926362
 10
7.466038
 20
9.447237
  0
LWPOLYLINE
  8
0
 62
7
 90
5
 70
1
 10
6.604000
 20
9.447237
 10
6.402362
 20
9.447237
 10
6.402362
 20
7.926362
 10
6.805638
 20
7.926362
 10
6.805638
 20
9.447237
  0
LWPOLYLINE
  8
0
 62
7
 90
5
 70
1
 10
8.534400
 20
9.447237
 10
8.332762
 20
9.447237
 10
8.332762
 20
7.926362
 10
8.736038
 20
7.926362
 10
8.736038
 20
9.447237
  0
LWPOLYLINE
  8
0
 62
7
 90
5
 70
1
 10
4.953000
 20
9.447237
 10
4.383063
 20
9.447237
 10
4.383063
 20
7.926362
 10
5.522938
 20
7.926362
 10
5.522938
 20
9.447237
  0
LWPOLYLINE
  8
0
 62
7
 90
5
 70
1
 10
9.575800
 20
9.447237
 10
9.005862
 20
9.447237
 10
9.005862
 20
7.926362
 10
10.145737
 20
7.926362
 10
10.145737
 20
9.447237
  0
LWPOLYLINE
  8
0
 62
7
 90
5
 70
1
 10
7.924800
 20
9.447237
 10
7.723162
 20
9.447237
 10
7.723162
 20
7.926362
 10
8.126437
 20
7.926362
 10
8.126437
 20
9.447237
  0
LWPOLYLINE
  8
0
 62
7
 90
5
 70
1
 10
5.994400
 20
9.447237
 10
5.792762
 20
9.447237
 10
5.792762
 20
7.926362
 10
6.196038
 20
7.926362
 10
6.196038
 20
9.447237
  0
LWPOLYLINE
  8
0
 62
7
 90
5
 70
1
 10
45.439038
 20
17.399000
 10
45.439038
 20
17.549838
 10
44.984963
 20
17.549838
 10
44.984963
 20
17.248162
 10
45.439038
 20
17.248162
  0
LWPOLYLINE
  8
0
 62
7
 90
5
 70
1
 10
45.439038
 20
16.891000
 10
45.439038
 20
17.041837
 10
44.984963
 20
17.041837
 10
44.984963
 20
16.740162
 10
45.439038
 20
16.740162
  0
LWPOLYLINE
  8
0
 62
7
 90
5
 70
1
 10
45.439038
 20
16.383000
 10
45.439038
 20
16.533838
 10
44.984963
 20
16.533838
 10
44.984963
 20
16.232162
 10
45.439038
 20
16.232162
  0
LWPOLYLINE
  8
0
 62
7
 90
5
 70
1
 10
45.439038
 20
15.875000
 10
45.439038
 20
16.025838
 10
44.984963
 20
16.025838
 10
44.984963
 20
15.724163
 10
45.439038
 20
15.724163
  0
LWPOLYLINE
  8
0
 62
7
 90
5
 70
1
 10
45.569162
 20
15.367000
 10
45.569162
 20
15.139963
 10
45.870838
 20
15.139963
 10
45.870838
 20
15.594038
 10
45.569162
 20
15.594038
  0
LWPOLYLINE
  8
0
 62
7
 90
5
 70
1
 10
46.077163
 20
15.367000
 10
46.077163
 20
15.139963
 10
46.378838
 20
15.139963
 10
46.378838
 20
15.594038
 10
46.077163
 20
15.594038
  0
LWPOLYLINE
  8
0
 62
7
 90
5
 70
1
 10
46.585162
 20
15.367000
 10
46.585162
 20
15.139963
 10
46.886837
 20
15.139963
 10
46.886837
 20
15.594038
 10
46.585162
 20
15.594038
  0
LWPOLYLINE
  8
0
 62
7
 90
5
 70
1
 10
47.093162
 20
15.367000
 10
47.093162
 20
15.139963
 10
47.394838
 20
15.139963
 10
47.394838
 20
15.594038
 10
47.093162
 20
15.594038
  0
LWPOLYLINE
  8
0
 62
7
 90
5
 70
1
 10
47.524963
 20
15.875000
 10
47.524963
 20
15.724163
 10
47.979038
 20
15.724163
 10
47.979038
 20
16.025838
 10
47.524963
 20
16.025838
  0
LWPOLYLINE
  8
0
 62
7
 90
5
 70
1
 10
47.524963
 20
16.383000
 10
47.524963
 20
16.232162
 10
47.979038
 20
16.232162
 10
47.979038
 20
16.533838
 10
47.524963
 20
16.533838
  0
LWPOLYLINE
  8
0
 62
7
 90
5
 70
1
 10
47.524963
 20
16.891000
 10
47.524963
 20
16.740162
 10
47.979038
 20
16.740162
 10
47.979038
 20
17.041837
 10
47.524963
 20
17.041837
  0
LWPOLYLINE
  8
0
 62
7
 90
5
 70
1
 10
47.524963
 20
17.399000
 10
47.524963
 20
17.248162
 10
47.979038
 20
17.248162
 10
47.979038
 20
17.549838
 10
47.524963
 20
17.549838
  0
LWPOLYLINE
  8
0
 62
7
 90
5
 70
1
 10
47.394838
 20
17.907000
 10
47.394838
 20
18.134038
 10
47.093162
 20
18.134038
 10
47.093162
 20
17.679962
 10
47.394838
 20
17.679962
  0
LWPOLYLINE
  8
0
 62
7
 90
5
 70
1
 10
46.886837
 20
17.907000
 10
46.886837
 20
18.134038
 10
46.585162
 20
18.134038
 10
46.585162
 20
17.679962
 10
46.886837
 20
17.679962
  0
LWPOLYLINE
  8
0
 62
7
 90
5
 70
1
 10
46.378838
 20
17.907000
 10
46.378838
 20
18.134038
 10
46.077163
 20
18.134038
 10
46.077163
 20
17.679962
 10
46.378838
 20
17.679962
  0
LWPOLYLINE
  8
0
 62
7
 90
5
 70
1
 10
45.870838
 20
17.907000
 10
45.870838
 20
18.134038
 10
45.569162
 20
18.134038
 10
45.569162
 20
17.679962
 10
45.870838
 20
17.679962
  0
LWPOLYLINE
  8
0
 62
7
 90
5
 70
1
 10
50.993000
 20
20.865438
 10
50.719563
 20
20.865438
 10
50.719563
 20
19.868562
 10
51.266438
 20
19.868562
 10
51.266438
 20
20.865438
  0
LWPOLYLINE
  8
0
 62
7
 90
5
 70
1
 10
51.943000
 20
20.865438
 10
51.669562
 20
20.865438
 10
51.669562
 20
19.868562
 10
52.216437
 20
19.868562
 10
52.216437
 20
20.865438
  0
LWPOLYLINE
  8
0
 62
7
 90
5
 70
1
 10
52.893000
 20
20.865438
 10
52.619563
 20
20.865438
 10
52.619563
 20
19.868562
 10
53.166438
 20
19.868562
 10
53.166438
 20
20.865438
  0
LWPOLYLINE
  8
0
 62
7
 90
5
 70
1
 10
52.893000
 20
23.565438
 10
52.619563
 20
23.565438
 10
52.619563
 20
22.568562
 10
53.166438
 20
22.568562
 10
53.166438
 20
23.565438
  0
LWPOLYLINE
  8
0
 62
7
 90
5
 70
1
 10
51.943000
 20
23.565438
 10
51.669562
 20
23.565438
 10
51.669562
 20
22.568562
 10
52.216437
 20
22.568562
 10
52.216437
 20
23.565438
  0
LWPOLYLINE
  8
0
 62
7
 90
5
 70
1
 10
50.993000
 20
23.565438
 10
50.719563
 20
23.565438
 10
50.719563
 20
22.568562
 10
51.266438
 20
22.568562
 10
51.266438
 20
23.565438
  0
LWPOLYLINE
  8
0
 62
7
 90
5
 70
1
 10
31.031562
 20
76.517500
 10
31.031562
 20
76.119062
 10
32.228437
 20
76.119062
 10
32.228437
 20
76.915937
 10
31.031562
 20
76.915937
  0
LWPOLYLINE
  8
0
 62
7
 90
5
 70
1
 10
28.481562
 20
76.517500
 10
28.481562
 20
76.119062
 10
30.478438
 20
76.119062
 10
30.478438
 20
76.915937
 10
28.481562
 20
76.915937
  0
LWPOLYLINE
  8
0
 62
7
 90
5
 70
1
 10
13.456437
 20
14.513000
 10
13.456437
 20
14.886437
 10
12.559562
 20
14.886437
 10
12.559562
 20
14.139563
 10
13.456437
 20
14.139563
  0
LWPOLYLINE
  8
0
 62
7
 90
5
 70
1
 10
13.456437
 20
12.213000
 10
13.456437
 20
12.586437
 10
12.559562
 20
12.586437
 10
12.559562
 20
11.839562
 10
13.456437
 20
11.839562
  0
LWPOLYLINE
  8
0
 62
7
 90
5
 70
1
 10
17.256438
 20
13.313000
 10
17.256438
 20
13.811438
 10
16.359562
 20
13.811438
 10
16.359562
 20
12.814563
 10
17.256438
 20
12.814563
  0
LWPOLYLINE
  8
0
 62
7
 90
5
 70
1
 10
46.228000
 20
38.031438
 10
46.029563
 20
38.031438
 10
46.029563
 20
37.034562
 10
46.426437
 20
37.034562
 10
46.426437
 20
38.031438
  0
LWPOLYLINE
  8
0
 62
7
 90
5
 70
1
 10
46.228000
 20
44.281438
 10
43.729563
 20
44.281438
 10
43.729563
 20
39.284562
 10
48.726438
 20
39.284562
 10
48.726438
 20
44.281438
  0
LWPOLYLINE
  8
0
 62
7
 90
5
 70
1
 10
42.476438
 20
39.383000
 10
42.476438
 20
39.581437
 10
41.479563
 20
39.581437
 10
41.479563
 20
39.184563
 10
42.476438
 20
39.184563
  0
LWPOLYLINE
  8
0
 62
7
 90
5
 70
1
 10
42.476438
 20
44.183000
 10
42.476438
 20
44.381437
 10
41.479563
 20
44.381437
 10
41.479563
 20
43.984563
 10
42.476438
 20
43.984563
  0
LWPOLYLINE
  8
0
 62
7
 90
5
 70
1
 10
49.979563
 20
44.183000
 10
49.979563
 20
43.984563
 10
50.976438
 20
43.984563
 10
50.976438
 20
44.381437
 10
49.979563
 20
44.381437
  0
LWPOLYLINE
  8
0
 62
7
 90
5
 70
1
 10
49.979563
 20
39.383000
 10
49.979563
 20
39.184563
 10
50.976438
 20
39.184563
 10
50.976438
 20
39.581437
 10
49.979563
 20
39.581437
  0
LWPOLYLINE
  8
0
 62
7
 90
5
 70
1
 10
48.628000
 20
38.031438
 10
48.429563
 20
38.031438
 10
48.429563
 20
37.034562
 10
48.826437
 20
37.034562
 10
48.826437
 20
38.031438
  0
LWPOLYLINE
  8
0
 62
7
 90
5
 70
1
 10
43.828000
 20
38.031438
 10
43.629563
 20
38.031438
 10
43.629563
 20
37.034562
 10
44.026438
 20
37.034562
 10
44.026438
 20
38.031438
  0
LWPOLYLINE
  8
0
 62
7
 90
5
 70
1
 10
43.028000
 20
38.031438
 10
42.829563
 20
38.031438
 10
42.829563
 20
37.034562
 10
43.226437
 20
37.034562
 10
43.226437
 20
38.031438
  0
LWPOLYLINE
  8
0
 62
7
 90
5
 70
1
 10
47.828000
 20
38.031438
 10
47.629563
 20
38.031438
 10
47.629563
 20
37.034562
 10
48.026438
 20
37.034562
 10
48.026438
 20
38.031438
  0
LWPOLYLINE
  8
0
 62
7
 90
5
 70
1
 10
49.979563
 20
40.983000
 10
49.979563
 20
40.784562
 10
50.976438
 20
40.784562
 10
50.976438
 20
41.181437
 10
49.979563
 20
41.181437
  0
LWPOLYLINE
  8
0
 62
7
 90
5
 70
1
 10
49.979563
 20
41.783000
 10
49.979563
 20
41.584563
 10
50.976438
 20
41.584563
 10
50.976438
 20
41.981437
 10
49.979563
 20
41.981437
  0
LWPOLYLINE
  8
0
 62
7
 90
5
 70
1
 10
49.979563
 20
42.583000
 10
49.979563
 20
42.384563
 10
50.976438
 20
42.384563
 10
50.976438
 20
42.781437
 10
49.979563
 20
42.781437
  0
LWPOLYLINE
  8
0
 62
7
 90
5
 70
1
 10
49.979563
 20
43.383000
 10
49.979563
 20
43.184563
 10
50.976438
 20
43.184563
 10
50.976438
 20
43.581437
 10
49.979563
 20
43.581437
  0
LWPOLYLINE
  8
0
 62
7
 90
5
 70
1
 10
42.476438
 20
43.383000
 10
42.476438
 20
43.581437
 10
41.479563
 20
43.581437
 10
41.479563
 20
43.184563
 10
42.476438
 20
43.184563
  0
LWPOLYLINE
  8
0
 62
7
 90
5
 70
1
 10
42.476438
 20
42.583000
 10
42.476438
 20
42.781437
 10
41.479563
 20
42.781437
 10
41.479563
 20
42.384563
 10
42.476438
 20
42.384563
  0
LWPOLYLINE
  8
0
 62
7
 90
5
 70
1
 10
42.476438
 20
41.783000
 10
42.476438
 20
41.981437
 10
41.479563
 20
41.981437
 10
41.479563
 20
41.584563
 10
42.476438
 20
41.584563
  0
LWPOLYLINE
  8
0
 62
7
 90
5
 70
1
 10
42.476438
 20
40.983000
 10
42.476438
 20
41.181437
 10
41.479563
 20
41.181437
 10
41.479563
 20
40.784562
 10
42.476438
 20
40.784562
  0
LWPOLYLINE
  8
0
 62
7
 90
5
 70
1
 10
48.628000
 20
37.859562
 10
48.866438
 20
37.859562
 10
48.866438
 20
38.806438
 10
48.389562
 20
38.806438
 10
48.389562
 20
37.859562
  0
LWPOLYLINE
  8
0
 62
7
 90
5
 70
1
 10
47.828000
 20
37.859562
 10
48.066438
 20
37.859562
 10
48.066438
 20
38.806438
 10
47.589562
 20
38.806438
 10
47.589562
 20
37.859562
  0
LWPOLYLINE
  8
0
 62
7
 90
5
 70
1
 10
47.028000
 20
37.859562
 10
47.266438
 20
37.859562
 10
47.266438
 20
38.806438
 10
46.789562
 20
38.806438
 10
46.789562
 20
37.859562
  0
LWPOLYLINE
  8
0
 62
7
 90
5
 70
1
 10
46.228000
 20
37.859562
 10
46.466438
 20
37.859562
 10
46.466438
 20
38.806438
 10
45.989562
 20
38.806438
 10
45.989562
 20
37.859562
  0
LWPOLYLINE
  8
0
 62
7
 90
5
 70
1
 10
45.428000
 20
37.859562
 10
45.666438
 20
37.859562
 10
45.666438
 20
38.806438
 10
45.189562
 20
38.806438
 10
45.189562
 20
37.859562
  0
LWPOLYLINE
  8
0
 62
7
 90
5
 70
1
 10
44.628000
 20
37.859562
 10
44.866438
 20
37.859562
 10
44.866438
 20
38.806438
 10
44.389562
 20
38.806438
 10
44.389562
 20
37.859562
  0
LWPOLYLINE
  8
0
 62
7
 90
5
 70
1
 10
43.828000
 20
37.859562
 10
44.066438
 20
37.859562
 10
44.066438
 20
38.806438
 10
43.589562
 20
38.806438
 10
43.589562
 20
37.859562
  0
LWPOLYLINE
  8
0
 62
7
 90
5
 70
1
 10
49.578000
 20
38.831437
 10
49.179563
 20
38.831437
 10
49.179563
 20
38.034562
 10
49.976438
 20
38.034562
 10
49.976438
 20
38.831437
  0
LWPOLYLINE
  8
0
 62
7
 90
5
 70
1
 10
43.828000
 20
45.706437
 10
43.589562
 20
45.706437
 10
43.589562
 20
44.759562
 10
44.066438
 20
44.759562
 10
44.066438
 20
45.706437
  0
LWPOLYLINE
  8
0
 62
7
 90
5
 70
1
 10
44.628000
 20
45.706437
 10
44.389562
 20
45.706437
 10
44.389562
 20
44.759562
 10
44.866438
 20
44.759562
 10
44.866438
 20
45.706437
  0
LWPOLYLINE
  8
0
 62
7
 90
5
 70
1
 10
45.428000
 20
45.706437
 10
45.189562
 20
45.706437
 10
45.189562
 20
44.759562
 10
45.666438
 20
44.759562
 10
45.666438
 20
45.706437
  0
LWPOLYLINE
  8
0
 62
7
 90
5
 70
1
 10
46.228000
 20
45.706437
 10
45.989562
 20
45.706437
 10
45.989562
 20
44.759562
 10
46.466438
 20
44.759562
 10
46.466438
 20
45.706437
  0
LWPOLYLINE
  8
0
 62
7
 90
5
 70
1
 10
47.028000
 20
45.706437
 10
46.789562
 20
45.706437
 10
46.789562
 20
44.759562
 10
47.266438
 20
44.759562
 10
47.266438
 20
45.706437
  0
LWPOLYLINE
  8
0
 62
7
 90
5
 70
1
 10
47.828000
 20
45.706437
 10
47.589562
 20
45.706437
 10
47.589562
 20
44.759562
 10
48.066438
 20
44.759562
 10
48.066438
 20
45.706437
  0
LWPOLYLINE
  8
0
 62
7
 90
5
 70
1
 10
48.628000
 20
45.706437
 10
48.389562
 20
45.706437
 10
48.389562
 20
44.759562
 10
48.866438
 20
44.759562
 10
48.866438
 20
45.706437
  0
LWPOLYLINE
  8
0
 62
7
 90
5
 70
1
 10
50.151438
 20
44.183000
 10
50.151438
 20
44.421438
 10
49.204562
 20
44.421438
 10
49.204562
 20
43.944562
 10
50.151438
 20
43.944562
  0
LWPOLYLINE
  8
0
 62
7
 90
5
 70
1
 10
50.151438
 20
43.383000
 10
50.151438
 20
43.621438
 10
49.204562
 20
43.621438
 10
49.204562
 20
43.144562
 10
50.151438
 20
43.144562
  0
LWPOLYLINE
  8
0
 62
7
 90
5
 70
1
 10
50.151438
 20
42.583000
 10
50.151438
 20
42.821438
 10
49.204562
 20
42.821438
 10
49.204562
 20
42.344562
 10
50.151438
 20
42.344562
  0
LWPOLYLINE
  8
0
 62
7
 90
5
 70
1
 10
50.151438
 20
41.783000
 10
50.151438
 20
42.021438
 10
49.204562
 20
42.021438
 10
49.204562
 20
41.544562
 10
50.151438
 20
41.544562
  0
LWPOLYLINE
  8
0
 62
7
 90
5
 70
1
 10
50.151438
 20
40.983000
 10
50.151438
 20
41.221438
 10
49.204562
 20
41.221438
 10
49.204562
 20
40.744562
 10
50.151438
 20
40.744562
  0
LWPOLYLINE
  8
0
 62
7
 90
5
 70
1
 10
50.151438
 20
40.183000
 10
50.151438
 20
40.421438
 10
49.204562
 20
40.421438
 10
49.204562
 20
39.944562
 10
50.151438
 20
39.944562
  0
LWPOLYLINE
  8
0
 62
7
 90
5
 70
1
 10
50.151438
 20
39.383000
 10
50.151438
 20
39.621438
 10
49.204562
 20
39.621438
 10
49.204562
 20
39.144562
 10
50.151438
 20
39.144562
  0
LWPOLYLINE
  8
0
 62
7
 90
5
 70
1
 10
42.878000
 20
44.734563
 10
43.276438
 20
44.734563
 10
43.276438
 20
45.531438
 10
42.479563
 20
45.531438
 10
42.479563
 20
44.734563
  0
LWPOLYLINE
  8
0
 62
7
 90
5
 70
1
 10
42.304562
 20
39.383000
 10
42.304562
 20
39.144562
 10
43.251438
 20
39.144562
 10
43.251438
 20
39.621438
 10
42.304562
 20
39.621438
  0
LWPOLYLINE
  8
0
 62
7
 90
5
 70
1
 10
42.304562
 20
40.183000
 10
42.304562
 20
39.944562
 10
43.251438
 20
39.944562
 10
43.251438
 20
40.421438
 10
42.304562
 20
40.421438
  0
LWPOLYLINE
  8
0
 62
7
 90
5
 70
1
 10
42.304562
 20
40.983000
 10
42.304562
 20
40.744562
 10
43.251438
 20
40.744562
 10
43.251438
 20
41.221438
 10
42.304562
 20
41.221438
  0
LWPOLYLINE
  8
0
 62
7
 90
5
 70
1
 10
42.304562
 20
41.783000
 10
42.304562
 20
41.544562
 10
43.251438
 20
41.544562
 10
43.251438
 20
42.021438
 10
42.304562
 20
42.021438
  0
LWPOLYLINE
  8
0
 62
7
 90
5
 70
1
 10
42.304562
 20
42.583000
 10
42.304562
 20
42.344562
 10
43.251438
 20
42.344562
 10
43.251438
 20
42.821438
 10
42.304562
 20
42.821438
  0
LWPOLYLINE
  8
0
 62
7
 90
5
 70
1
 10
42.304562
 20
43.383000
 10
42.304562
 20
43.144562
 10
43.251438
 20
43.144562
 10
43.251438
 20
43.621438
 10
42.304562
 20
43.621438
  0
LWPOLYLINE
  8
0
 62
7
 90
5
 70
1
 10
42.304562
 20
44.183000
 10
42.304562
 20
43.944562
 10
43.251438
 20
43.944562
 10
43.251438
 20
44.421438
 10
42.304562
 20
44.421438
  0
LWPOLYLINE
  8
0
 62
7
 90
5
 70
1
 10
49.428000
 20
38.031438
 10
49.229563
 20
38.031438
 10
49.229563
 20
37.034562
 10
49.626437
 20
37.034562
 10
49.626437
 20
38.031438
  0
LWPOLYLINE
  8
0
 62
7
 90
5
 70
1
 10
49.979563
 20
38.583000
 10
49.979563
 20
38.384563
 10
50.976438
 20
38.384563
 10
50.976438
 20
38.781437
 10
49.979563
 20
38.781437
  0
LWPOLYLINE
  8
0
 62
7
 90
5
 70
1
 10
49.979563
 20
38.583000
 10
49.979563
 20
38.384563
 10
50.976438
 20
38.384563
 10
50.976438
 20
38.781437
 10
49.979563
 20
38.781437
  0
LWPOLYLINE
  8
0
 62
7
 90
5
 70
1
 10
49.578000
 20
38.821438
 10
49.189563
 20
38.821438
 10
49.189563
 20
38.044562
 10
49.966438
 20
38.044562
 10
49.966438
 20
38.821438
  0
LWPOLYLINE
  8
0
 62
7
 90
5
 70
1
 10
49.179563
 20
45.133000
 10
49.179563
 20
44.734563
 10
49.976438
 20
44.734563
 10
49.976438
 20
45.531438
 10
49.179563
 20
45.531438
  0
LWPOLYLINE
  8
0
 62
7
 90
5
 70
1
 10
49.979563
 20
44.983000
 10
49.979563
 20
44.784562
 10
50.976438
 20
44.784562
 10
50.976438
 20
45.181437
 10
49.979563
 20
45.181437
  0
LWPOLYLINE
  8
0
 62
7
 90
5
 70
1
 10
49.428000
 20
45.534562
 10
49.626437
 20
45.534562
 10
49.626437
 20
46.531438
 10
49.229563
 20
46.531438
 10
49.229563
 20
45.534562
  0
LWPOLYLINE
  8
0
 62
7
 90
5
 70
1
 10
49.428000
 20
45.534562
 10
49.626437
 20
45.534562
 10
49.626437
 20
46.531438
 10
49.229563
 20
46.531438
 10
49.229563
 20
45.534562
  0
LWPOLYLINE
  8
0
 62
7
 90
5
 70
1
 10
49.189563
 20
45.133000
 10
49.189563
 20
44.744563
 10
49.966438
 20
44.744563
 10
49.966438
 20
45.521438
 10
49.189563
 20
45.521438
  0
LWPOLYLINE
  8
0
 62
7
 90
5
 70
1
 10
43.028000
 20
45.534562
 10
43.226437
 20
45.534562
 10
43.226437
 20
46.531438
 10
42.829563
 20
46.531438
 10
42.829563
 20
45.534562
  0
LWPOLYLINE
  8
0
 62
7
 90
5
 70
1
 10
42.476438
 20
44.983000
 10
42.476438
 20
45.181437
 10
41.479563
 20
45.181437
 10
41.479563
 20
44.784562
 10
42.476438
 20
44.784562
  0
LWPOLYLINE
  8
0
 62
7
 90
5
 70
1
 10
42.476438
 20
44.983000
 10
42.476438
 20
45.181437
 10
41.479563
 20
45.181437
 10
41.479563
 20
44.784562
 10
42.476438
 20
44.784562
  0
LWPOLYLINE
  8
0
 62
7
 90
5
 70
1
 10
42.878000
 20
44.744563
 10
43.266438
 20
44.744563
 10
43.266438
 20
45.521438
 10
42.489562
 20
45.521438
 10
42.489562
 20
44.744563
  0
LWPOLYLINE
  8
0
 62
7
 90
5
 70
1
 10
43.276438
 20
38.433000
 10
43.276438
 20
38.831437
 10
42.479563
 20
38.831437
 10
42.479563
 20
38.034562
 10
43.276438
 20
38.034562
  0
LWPOLYLINE
  8
0
 62
7
 90
5
 70
1
 10
42.476438
 20
38.583000
 10
42.476438
 20
38.781437
 10
41.479563
 20
38.781437
 10
41.479563
 20
38.384563
 10
42.476438
 20
38.384563
  0
LWPOLYLINE
  8
0
 62
7
 90
5
 70
1
 10
43.028000
 20
38.031438
 10
42.829563
 20
38.031438
 10
42.829563
 20
37.034562
 10
43.226437
 20
37.034562
 10
43.226437
 20
38.031438
  0
LWPOLYLINE
  8
0
 62
7
 90
5
 70
1
 10
43.266438
 20
38.433000
 10
43.266438
 20
38.821438
 10
42.489562
 20
38.821438
 10
42.489562
 20
38.044562
 10
43.266438
 20
38.044562
  0
LWPOLYLINE
  8
0
 62
7
 90
5
 70
1
 10
48.628000
 20
45.534562
 10
48.826437
 20
45.534562
 10
48.826437
 20
46.531438
 10
48.429563
 20
46.531438
 10
48.429563
 20
45.534562
  0
LWPOLYLINE
  8
0
 62
7
 90
5
 70
1
 10
47.828000
 20
45.534562
 10
48.026438
 20
45.534562
 10
48.026438
 20
46.531438
 10
47.629563
 20
46.531438
 10
47.629563
 20
45.534562
  0
LWPOLYLINE
  8
0
 62
7
 90
5
 70
1
 10
47.028000
 20
45.534562
 10
47.226437
 20
45.534562
 10
47.226437
 20
46.531438
 10
46.829563
 20
46.531438
 10
46.829563
 20
45.534562
  0
LWPOLYLINE
  8
0
 62
7
 90
5
 70
1
 10
45.428000
 20
45.534562
 10
45.626437
 20
45.534562
 10
45.626437
 20
46.531438
 10
45.229563
 20
46.531438
 10
45.229563
 20
45.534562
  0
LWPOLYLINE
  8
0
 62
7
 90
5
 70
1
 10
44.628000
 20
45.534562
 10
44.826437
 20
45.534562
 10
44.826437
 20
46.531438
 10
44.429563
 20
46.531438
 10
44.429563
 20
45.534562
  0
LWPOLYLINE
  8
0
 62
7
 90
5
 70
1
 10
43.828000
 20
45.534562
 10
44.026438
 20
45.534562
 10
44.026438
 20
46.531438
 10
43.629563
 20
46.531438
 10
43.629563
 20
45.534562
  0
LWPOLYLINE
  8
0
 62
7
 90
5
 70
1
 10
46.228000
 20
45.534562
 10
46.426437
 20
45.534562
 10
46.426437
 20
46.531438
 10
46.029563
 20
46.531438
 10
46.029563
 20
45.534562
  0
LWPOLYLINE
  8
0
 62
7
 90
5
 70
1
 10
44.628000
 20
38.031438
 10
44.429563
 20
38.031438
 10
44.429563
 20
37.034562
 10
44.826437
 20
37.034562
 10
44.826437
 20
38.031438
  0
LWPOLYLINE
  8
0
 62
7
 90
5
 70
1
 10
45.428000
 20
38.031438
 10
45.229563
 20
38.031438
 10
45.229563
 20
37.034562
 10
45.626437
 20
37.034562
 10
45.626437
 20
38.031438
  0
LWPOLYLINE
  8
0
 62
7
 90
5
 70
1
 10
47.028000
 20
38.031438
 10
46.829563
 20
38.031438
 10
46.829563
 20
37.034562
 10
47.226437
 20
37.034562
 10
47.226437
 20
38.031438
  0
LWPOLYLINE
  8
0
 62
7
 90
5
 70
1
 10
49.979563
 20
40.183000
 10
49.979563
 20
39.984563
 10
50.976438
 20
39.984563
 10
50.976438
 20
40.381437
 10
49.979563
 20
40.381437
  0
LWPOLYLINE
  8
0
 62
7
 90
5
 70
1
 10
42.476438
 20
40.183000
 10
42.476438
 20
40.381437
 10
41.479563
 20
40.381437
 10
41.479563
 20
39.984563
 10
42.476438
 20
39.984563
  0
LWPOLYLINE
  8
0
 62
7
 90
5
 70
1
 10
15.240000
 20
69.410563
 10
15.438438
 20
69.410563
 10
15.438438
 20
70.407438
 10
15.041562
 20
70.407438
 10
15.041562
 20
69.410563
  0
LWPOLYLINE
  8
0
 62
7
 90
5
 70
1
 10
15.240000
 20
63.160563
 10
17.738437
 20
63.160563
 10
17.738437
 20
68.157438
 10
12.741563
 20
68.157438
 10
12.741563
 20
63.160563
  0
LWPOLYLINE
  8
0
 62
7
 90
5
 70
1
 10
18.991562
 20
68.059000
 10
18.991562
 20
67.860563
 10
19.988437
 20
67.860563
 10
19.988437
 20
68.257437
 10
18.991562
 20
68.257437
  0
LWPOLYLINE
  8
0
 62
7
 90
5
 70
1
 10
18.991562
 20
63.259000
 10
18.991562
 20
63.060563
 10
19.988437
 20
63.060563
 10
19.988437
 20
63.457437
 10
18.991562
 20
63.457437
  0
LWPOLYLINE
  8
0
 62
7
 90
5
 70
1
 10
11.488437
 20
63.259000
 10
11.488437
 20
63.457437
 10
10.491563
 20
63.457437
 10
10.491563
 20
63.060563
 10
11.488437
 20
63.060563
  0
LWPOLYLINE
  8
0
 62
7
 90
5
 70
1
 10
11.488437
 20
68.059000
 10
11.488437
 20
68.257437
 10
10.491563
 20
68.257437
 10
10.491563
 20
67.860563
 10
11.488437
 20
67.860563
  0
LWPOLYLINE
  8
0
 62
7
 90
5
 70
1
 10
12.840000
 20
69.410563
 10
13.038438
 20
69.410563
 10
13.038438
 20
70.407438
 10
12.641562
 20
70.407438
 10
12.641562
 20
69.410563
  0
LWPOLYLINE
  8
0
 62
7
 90
5
 70
1
 10
17.640000
 20
69.410563
 10
17.838438
 20
69.410563
 10
17.838438
 20
70.407438
 10
17.441562
 20
70.407438
 10
17.441562
 20
69.410563
  0
LWPOLYLINE
  8
0
 62
7
 90
5
 70
1
 10
18.440000
 20
69.410563
 10
18.638438
 20
69.410563
 10
18.638438
 20
70.407438
 10
18.241563
 20
70.407438
 10
18.241563
 20
69.410563
  0
LWPOLYLINE
  8
0
 62
7
 90
5
 70
1
 10
13.640000
 20
69.410563
 10
13.838438
 20
69.410563
 10
13.838438
 20
70.407438
 10
13.441562
 20
70.407438
 10
13.441562
 20
69.410563
  0
LWPOLYLINE
  8
0
 62
7
 90
5
 70
1
 10
11.488437
 20
66.459000
 10
11.488437
 20
66.657438
 10
10.491563
 20
66.657438
 10
10.491563
 20
66.260563
 10
11.488437
 20
66.260563
  0
LWPOLYLINE
  8
0
 62
7
 90
5
 70
1
 10
11.488437
 20
65.659000
 10
11.488437
 20
65.857438
 10
10.491563
 20
65.857438
 10
10.491563
 20
65.460563
 10
11.488437
 20
65.460563
  0
LWPOLYLINE
  8
0
 62
7
 90
5
 70
1
 10
11.488437
 20
64.859000
 10
11.488437
 20
65.057437
 10
10.491563
 20
65.057437
 10
10.491563
 20
64.660562
 10
11.488437
 20
64.660562
  0
LWPOLYLINE
  8
0
 62
7
 90
5
 70
1
 10
11.488437
 20
64.059000
 10
11.488437
 20
64.257437
 10
10.491563
 20
64.257437
 10
10.491563
 20
63.860563
 10
11.488437
 20
63.860563
  0
LWPOLYLINE
  8
0
 62
7
 90
5
 70
1
 10
18.991562
 20
64.059000
 10
18.991562
 20
63.860563
 10
19.988437
 20
63.860563
 10
19.988437
 20
64.257437
 10
18.991562
 20
64.257437
  0
LWPOLYLINE
  8
0
 62
7
 90
5
 70
1
 10
18.991562
 20
64.859000
 10
18.991562
 20
64.660562
 10
19.988437
 20
64.660562
 10
19.988437
 20
65.057437
 10
18.991562
 20
65.057437
  0
LWPOLYLINE
  8
0
 62
7
 90
5
 70
1
 10
18.991562
 20
65.659000
 10
18.991562
 20
65.460563
 10
19.988437
 20
65.460563
 10
19.988437
 20
65.857438
 10
18.991562
 20
65.857438
  0
LWPOLYLINE
  8
0
 62
7
 90
5
 70
1
 10
18.991562
 20
66.459000
 10
18.991562
 20
66.260563
 10
19.988437
 20
66.260563
 10
19.988437
 20
66.657438
 10
18.991562
 20
66.657438
  0
LWPOLYLINE
  8
0
 62
7
 90
5
 70
1
 10
12.840000
 20
69.582437
 10
12.601562
 20
69.582437
 10
12.601562
 20
68.635562
 10
13.078437
 20
68.635562
 10
13.078437
 20
69.582437
  0
LWPOLYLINE
  8
0
 62
7
 90
5
 70
1
 10
13.640000
 20
69.582437
 10
13.401563
 20
69.582437
 10
13.401563
 20
68.635562
 10
13.878438
 20
68.635562
 10
13.878438
 20
69.582437
  0
LWPOLYLINE
  8
0
 62
7
 90
5
 70
1
 10
14.440000
 20
69.582437
 10
14.201562
 20
69.582437
 10
14.201562
 20
68.635562
 10
14.678437
 20
68.635562
 10
14.678437
 20
69.582437
  0
LWPOLYLINE
  8
0
 62
7
 90
5
 70
1
 10
15.240000
 20
69.582437
 10
15.001563
 20
69.582437
 10
15.001563
 20
68.635562
 10
15.478438
 20
68.635562
 10
15.478438
 20
69.582437
  0
LWPOLYLINE
  8
0
 62
7
 90
5
 70
1
 10
16.040000
 20
69.582437
 10
15.801562
 20
69.582437
 10
15.801562
 20
68.635562
 10
16.278437
 20
68.635562
 10
16.278437
 20
69.582437
  0
LWPOLYLINE
  8
0
 62
7
 90
5
 70
1
 10
16.840000
 20
69.582437
 10
16.601562
 20
69.582437
 10
16.601562
 20
68.635562
 10
17.078437
 20
68.635562
 10
17.078437
 20
69.582437
  0
LWPOLYLINE
  8
0
 62
7
 90
5
 70
1
 10
17.640000
 20
69.582437
 10
17.401563
 20
69.582437
 10
17.401563
 20
68.635562
 10
17.878438
 20
68.635562
 10
17.878438
 20
69.582437
  0
LWPOLYLINE
  8
0
 62
7
 90
5
 70
1
 10
11.890000
 20
68.610563
 10
12.288438
 20
68.610563
 10
12.288438
 20
69.407438
 10
11.491563
 20
69.407438
 10
11.491563
 20
68.610563
  0
LWPOLYLINE
  8
0
 62
7
 90
5
 70
1
 10
17.640000
 20
61.735563
 10
17.878438
 20
61.735563
 10
17.878438
 20
62.682438
 10
17.401563
 20
62.682438
 10
17.401563
 20
61.735563
  0
LWPOLYLINE
  8
0
 62
7
 90
5
 70
1
 10
16.840000
 20
61.735563
 10
17.078437
 20
61.735563
 10
17.078437
 20
62.682438
 10
16.601562
 20
62.682438
 10
16.601562
 20
61.735563
  0
LWPOLYLINE
  8
0
 62
7
 90
5
 70
1
 10
16.040000
 20
61.735563
 10
16.278437
 20
61.735563
 10
16.278437
 20
62.682438
 10
15.801562
 20
62.682438
 10
15.801562
 20
61.735563
  0
LWPOLYLINE
  8
0
 62
7
 90
5
 70
1
 10
15.240000
 20
61.735563
 10
15.478438
 20
61.735563
 10
15.478438
 20
62.682438
 10
15.001563
 20
62.682438
 10
15.001563
 20
61.735563
  0
LWPOLYLINE
  8
0
 62
7
 90
5
 70
1
 10
14.440000
 20
61.735563
 10
14.678437
 20
61.735563
 10
14.678437
 20
62.682438
 10
14.201562
 20
62.682438
 10
14.201562
 20
61.735563
  0
LWPOLYLINE
  8
0
 62
7
 90
5
 70
1
 10
13.640000
 20
61.735563
 10
13.878438
 20
61.735563
 10
13.878438
 20
62.682438
 10
13.401563
 20
62.682438
 10
13.401563
 20
61.735563
  0
LWPOLYLINE
  8
0
 62
7
 90
5
 70
1
 10
12.840000
 20
61.735563
 10
13.078437
 20
61.735563
 10
13.078437
 20
62.682438
 10
12.601562
 20
62.682438
 10
12.601562
 20
61.735563
  0
LWPOLYLINE
  8
0
 62
7
 90
5
 70
1
 10
11.316562
 20
63.259000
 10
11.316562
 20
63.020562
 10
12.263437
 20
63.020562
 10
12.263437
 20
63.497438
 10
11.316562
 20
63.497438
  0
LWPOLYLINE
  8
0
 62
7
 90
5
 70
1
 10
11.316562
 20
64.059000
 10
11.316562
 20
63.820562
 10
12.263437
 20
63.820562
 10
12.263437
 20
64.297438
 10
11.316562
 20
64.297438
  0
LWPOLYLINE
  8
0
 62
7
 90
5
 70
1
 10
11.316562
 20
64.859000
 10
11.316562
 20
64.620562
 10
12.263437
 20
64.620562
 10
12.263437
 20
65.097437
 10
11.316562
 20
65.097437
  0
LWPOLYLINE
  8
0
 62
7
 90
5
 70
1
 10
11.316562
 20
65.659000
 10
11.316562
 20
65.420563
 10
12.263437
 20
65.420563
 10
12.263437
 20
65.897438
 10
11.316562
 20
65.897438
  0
LWPOLYLINE
  8
0
 62
7
 90
5
 70
1
 10
11.316562
 20
66.459000
 10
11.316562
 20
66.220562
 10
12.263437
 20
66.220562
 10
12.263437
 20
66.697438
 10
11.316562
 20
66.697438
  0
LWPOLYLINE
  8
0
 62
7
 90
5
 70
1
 10
11.316562
 20
67.259000
 10
11.316562
 20
67.020562
 10
12.263437
 20
67.020562
 10
12.263437
 20
67.497438
 10
11.316562
 20
67.497438
  0
LWPOLYLINE
  8
0
 62
7
 90
5
 70
1
 10
11.316562
 20
68.059000
 10
11.316562
 20
67.820562
 10
12.263437
 20
67.820562
 10
12.263437
 20
68.297438
 10
11.316562
 20
68.297438
  0
LWPOLYLINE
  8
0
 62
7
 90
5
 70
1
 10
18.590000
 20
62.707437
 10
18.191562
 20
62.707437
 10
18.191562
 20
61.910562
 10
18.988437
 20
61.910562
 10
18.988437
 20
62.707437
  0
LWPOLYLINE
  8
0
 62
7
 90
5
 70
1
 10
19.163438
 20
68.059000
 10
19.163438
 20
68.297438
 10
18.216563
 20
68.297438
 10
18.216563
 20
67.820562
 10
19.163438
 20
67.820562
  0
LWPOLYLINE
  8
0
 62
7
 90
5
 70
1
 10
19.163438
 20
67.259000
 10
19.163438
 20
67.497438
 10
18.216563
 20
67.497438
 10
18.216563
 20
67.020562
 10
19.163438
 20
67.020562
  0
LWPOLYLINE
  8
0
 62
7
 90
5
 70
1
 10
19.163438
 20
66.459000
 10
19.163438
 20
66.697438
 10
18.216563
 20
66.697438
 10
18.216563
 20
66.220562
 10
19.163438
 20
66.220562
  0
LWPOLYLINE
  8
0
 62
7
 90
5
 70
1
 10
19.163438
 20
65.659000
 10
19.163438
 20
65.897438
 10
18.216563
 20
65.897438
 10
18.216563
 20
65.420563
 10
19.163438
 20
65.420563
  0
LWPOLYLINE
  8
0
 62
7
 90
5
 70
1
 10
19.163438
 20
64.859000
 10
19.163438
 20
65.097437
 10
18.216563
 20
65.097437
 10
18.216563
 20
64.620562
 10
19.163438
 20
64.620562
  0
LWPOLYLINE
  8
0
 62
7
 90
5
 70
1
 10
19.163438
 20
64.059000
 10
19.163438
 20
64.297438
 10
18.216563
 20
64.297438
 10
18.216563
 20
63.820562
 10
19.163438
 20
63.820562
  0
LWPOLYLINE
  8
0
 62
7
 90
5
 70
1
 10
19.163438
 20
63.259000
 10
19.163438
 20
63.497438
 10
18.216563
 20
63.497438
 10
18.216563
 20
63.020562
 10
19.163438
 20
63.020562
  0
LWPOLYLINE
  8
0
 62
7
 90
5
 70
1
 10
12.040000
 20
69.410563
 10
12.238437
 20
69.410563
 10
12.238437
 20
70.407438
 10
11.841562
 20
70.407438
 10
11.841562
 20
69.410563
  0
LWPOLYLINE
  8
0
 62
7
 90
5
 70
1
 10
11.488437
 20
68.859000
 10
11.488437
 20
69.057437
 10
10.491563
 20
69.057437
 10
10.491563
 20
68.660562
 10
11.488437
 20
68.660562
  0
LWPOLYLINE
  8
0
 62
7
 90
5
 70
1
 10
11.488437
 20
68.859000
 10
11.488437
 20
69.057437
 10
10.491563
 20
69.057437
 10
10.491563
 20
68.660562
 10
11.488437
 20
68.660562
  0
LWPOLYLINE
  8
0
 62
7
 90
5
 70
1
 10
11.890000
 20
68.620563
 10
12.278438
 20
68.620563
 10
12.278438
 20
69.397437
 10
11.501563
 20
69.397437
 10
11.501563
 20
68.620563
  0
LWPOLYLINE
  8
0
 62
7
 90
5
 70
1
 10
12.288438
 20
62.309000
 10
12.288438
 20
62.707437
 10
11.491563
 20
62.707437
 10
11.491563
 20
61.910562
 10
12.288438
 20
61.910562
  0
LWPOLYLINE
  8
0
 62
7
 90
5
 70
1
 10
11.488437
 20
62.459000
 10
11.488437
 20
62.657438
 10
10.491563
 20
62.657438
 10
10.491563
 20
62.260563
 10
11.488437
 20
62.260563
  0
LWPOLYLINE
  8
0
 62
7
 90
5
 70
1
 10
12.040000
 20
61.907438
 10
11.841562
 20
61.907438
 10
11.841562
 20
60.910562
 10
12.238437
 20
60.910562
 10
12.238437
 20
61.907438
  0
LWPOLYLINE
  8
0
 62
7
 90
5
 70
1
 10
12.040000
 20
61.907438
 10
11.841562
 20
61.907438
 10
11.841562
 20
60.910562
 10
12.238437
 20
60.910562
 10
12.238437
 20
61.907438
  0
LWPOLYLINE
  8
0
 62
7
 90
5
 70
1
 10
12.278438
 20
62.309000
 10
12.278438
 20
62.697437
 10
11.501563
 20
62.697437
 10
11.501563
 20
61.920562
 10
12.278438
 20
61.920562
  0
LWPOLYLINE
  8
0
 62
7
 90
5
 70
1
 10
18.440000
 20
61.907438
 10
18.241563
 20
61.907438
 10
18.241563
 20
60.910562
 10
18.638438
 20
60.910562
 10
18.638438
 20
61.907438
  0
LWPOLYLINE
  8
0
 62
7
 90
5
 70
1
 10
18.991562
 20
62.459000
 10
18.991562
 20
62.260563
 10
19.988437
 20
62.260563
 10
19.988437
 20
62.657438
 10
18.991562
 20
62.657438
  0
LWPOLYLINE
  8
0
 62
7
 90
5
 70
1
 10
18.991562
 20
62.459000
 10
18.991562
 20
62.260563
 10
19.988437
 20
62.260563
 10
19.988437
 20
62.657438
 10
18.991562
 20
62.657438
  0
LWPOLYLINE
  8
0
 62
7
 90
5
 70
1
 10
18.590000
 20
62.697437
 10
18.201563
 20
62.697437
 10
18.201563
 20
61.920562
 10
18.978437
 20
61.920562
 10
18.978437
 20
62.697437
  0
LWPOLYLINE
  8
0
 62
7
 90
5
 70
1
 10
18.191562
 20
69.009000
 10
18.191562
 20
68.610563
 10
18.988437
 20
68.610563
 10
18.988437
 20
69.407438
 10
18.191562
 20
69.407438
  0
LWPOLYLINE
  8
0
 62
7
 90
5
 70
1
 10
18.991562
 20
68.859000
 10
18.991562
 20
68.660562
 10
19.988437
 20
68.660562
 10
19.988437
 20
69.057437
 10
18.991562
 20
69.057437
  0
LWPOLYLINE
  8
0
 62
7
 90
5
 70
1
 10
18.440000
 20
69.410563
 10
18.638438
 20
69.410563
 10
18.638438
 20
70.407438
 10
18.241563
 20
70.407438
 10
18.241563
 20
69.410563
  0
LWPOLYLINE
  8
0
 62
7
 90
5
 70
1
 10
18.201563
 20
69.009000
 10
18.201563
 20
68.620563
 10
18.978437
 20
68.620563
 10
18.978437
 20
69.397437
 10
18.201563
 20
69.397437
  0
LWPOLYLINE
  8
0
 62
7
 90
5
 70
1
 10
12.840000
 20
61.907438
 10
12.641562
 20
61.907438
 10
12.641562
 20
60.910562
 10
13.038438
 20
60.910562
 10
13.038438
 20
61.907438
  0
LWPOLYLINE
  8
0
 62
7
 90
5
 70
1
 10
13.640000
 20
61.907438
 10
13.441562
 20
61.907438
 10
13.441562
 20
60.910562
 10
13.838438
 20
60.910562
 10
13.838438
 20
61.907438
  0
LWPOLYLINE
  8
0
 62
7
 90
5
 70
1
 10
14.440000
 20
61.907438
 10
14.241562
 20
61.907438
 10
14.241562
 20
60.910562
 10
14.638438
 20
60.910562
 10
14.638438
 20
61.907438
  0
LWPOLYLINE
  8
0
 62
7
 90
5
 70
1
 10
16.040000
 20
61.907438
 10
15.841562
 20
61.907438
 10
15.841562
 20
60.910562
 10
16.238437
 20
60.910562
 10
16.238437
 20
61.907438
  0
LWPOLYLINE
  8
0
 62
7
 90
5
 70
1
 10
16.840000
 20
61.907438
 10
16.641562
 20
61.907438
 10
16.641562
 20
60.910562
 10
17.038438
 20
60.910562
 10
17.038438
 20
61.907438
  0
LWPOLYLINE
  8
0
 62
7
 90
5
 70
1
 10
17.640000
 20
61.907438
 10
17.441562
 20
61.907438
 10
17.441562
 20
60.910562
 10
17.838438
 20
60.910562
 10
17.838438
 20
61.907438
  0
LWPOLYLINE
  8
0
 62
7
 90
5
 70
1
 10
15.240000
 20
61.907438
 10
15.041562
 20
61.907438
 10
15.041562
 20
60.910562
 10
15.438438
 20
60.910562
 10
15.438438
 20
61.907438
  0
LWPOLYLINE
  8
0
 62
7
 90
5
 70
1
 10
16.840000
 20
69.410563
 10
17.038438
 20
69.410563
 10
17.038438
 20
70.407438
 10
16.641562
 20
70.407438
 10
16.641562
 20
69.410563
  0
LWPOLYLINE
  8
0
 62
7
 90
5
 70
1
 10
16.040000
 20
69.410563
 10
16.238437
 20
69.410563
 10
16.238437
 20
70.407438
 10
15.841562
 20
70.407438
 10
15.841562
 20
69.410563
  0
LWPOLYLINE
  8
0
 62
7
 90
5
 70
1
 10
14.440000
 20
69.410563
 10
14.638438
 20
69.410563
 10
14.638438
 20
70.407438
 10
14.241562
 20
70.407438
 10
14.241562
 20
69.410563
  0
LWPOLYLINE
  8
0
 62
7
 90
5
 70
1
 10
11.488437
 20
67.259000
 10
11.488437
 20
67.457437
 10
10.491563
 20
67.457437
 10
10.491563
 20
67.060563
 10
11.488437
 20
67.060563
  0
LWPOLYLINE
  8
0
 62
7
 90
5
 70
1
 10
18.991562
 20
67.259000
 10
18.991562
 20
67.060563
 10
19.988437
 20
67.060563
 10
19.988437
 20
67.457437
 10
18.991562
 20
67.457437
  0
LWPOLYLINE
  8
0
 62
7
 90
5
 70
1
 10
21.685437
 20
12.180000
 10
21.685437
 20
12.318437
 10
20.838563
 20
12.318437
 10
20.838563
 20
12.041562
 10
21.685437
 20
12.041562
  0
LWPOLYLINE
  8
0
 62
7
 90
5
 70
1
 10
21.987000
 20
13.578437
 10
21.848562
 20
13.578437
 10
21.848562
 20
12.731562
 10
22.125437
 20
12.731562
 10
22.125437
 20
13.578437
  0
LWPOLYLINE
  8
0
 62
7
 90
5
 70
1
 10
22.487000
 20
13.578437
 10
22.348562
 20
13.578437
 10
22.348562
 20
12.731562
 10
22.625437
 20
12.731562
 10
22.625437
 20
13.578437
  0
LWPOLYLINE
  8
0
 62
7
 90
5
 70
1
 10
22.987000
 20
13.578437
 10
22.848562
 20
13.578437
 10
22.848562
 20
12.731562
 10
23.125437
 20
12.731562
 10
23.125437
 20
13.578437
  0
LWPOLYLINE
  8
0
 62
7
 90
5
 70
1
 10
23.487000
 20
13.578437
 10
23.348562
 20
13.578437
 10
23.348562
 20
12.731562
 10
23.625437
 20
12.731562
 10
23.625437
 20
13.578437
  0
LWPOLYLINE
  8
0
 62
7
 90
5
 70
1
 10
23.987000
 20
13.578437
 10
23.848562
 20
13.578437
 10
23.848562
 20
12.731562
 10
24.125437
 20
12.731562
 10
24.125437
 20
13.578437
  0
LWPOLYLINE
  8
0
 62
7
 90
5
 70
1
 10
25.135437
 20
12.180000
 10
25.135437
 20
12.318437
 10
24.288563
 20
12.318437
 10
24.288563
 20
12.041562
 10
25.135437
 20
12.041562
  0
LWPOLYLINE
  8
0
 62
7
 90
5
 70
1
 10
25.135437
 20
10.680000
 10
25.135437
 20
10.818437
 10
24.288563
 20
10.818437
 10
24.288563
 20
10.541562
 10
25.135437
 20
10.541562
  0
LWPOLYLINE
  8
0
 62
7
 90
5
 70
1
 10
23.987000
 20
10.128438
 10
23.848562
 20
10.128438
 10
23.848562
 20
9.281562
 10
24.125437
 20
9.281562
 10
24.125437
 20
10.128438
  0
LWPOLYLINE
  8
0
 62
7
 90
5
 70
1
 10
23.487000
 20
10.128438
 10
23.348562
 20
10.128438
 10
23.348562
 20
9.281562
 10
23.625437
 20
9.281562
 10
23.625437
 20
10.128438
  0
LWPOLYLINE
  8
0
 62
7
 90
5
 70
1
 10
22.987000
 20
10.128438
 10
22.848562
 20
10.128438
 10
22.848562
 20
9.281562
 10
23.125437
 20
9.281562
 10
23.125437
 20
10.128438
  0
LWPOLYLINE
  8
0
 62
7
 90
5
 70
1
 10
22.487000
 20
10.128438
 10
22.348562
 20
10.128438
 10
22.348562
 20
9.281562
 10
22.625437
 20
9.281562
 10
22.625437
 20
10.128438
  0
LWPOLYLINE
  8
0
 62
7
 90
5
 70
1
 10
21.987000
 20
10.128438
 10
21.848562
 20
10.128438
 10
21.848562
 20
9.281562
 10
22.125437
 20
9.281562
 10
22.125437
 20
10.128438
  0
LWPOLYLINE
  8
0
 62
7
 90
5
 70
1
 10
21.685437
 20
10.680000
 10
21.685437
 20
10.818437
 10
20.838563
 20
10.818437
 10
20.838563
 20
10.541562
 10
21.685437
 20
10.541562
  0
LWPOLYLINE
  8
0
 62
7
 90
5
 70
1
 10
24.010437
 20
11.430000
 10
24.010437
 20
12.453437
 10
21.963562
 20
12.453437
 10
21.963562
 20
10.406562
 10
24.010437
 20
10.406562
  0
LWPOLYLINE
  8
0
 62
7
 90
5
 70
1
 10
27.908437
 20
12.180000
 10
27.908437
 20
12.318437
 10
27.061563
 20
12.318437
 10
27.061563
 20
12.041562
 10
27.908437
 20
12.041562
  0
LWPOLYLINE
  8
0
 62
7
 90
5
 70
1
 10
28.210000
 20
13.578437
 10
28.071563
 20
13.578437
 10
28.071563
 20
12.731562
 10
28.348437
 20
12.731562
 10
28.348437
 20
13.578437
  0
LWPOLYLINE
  8
0
 62
7
 90
5
 70
1
 10
28.710000
 20
13.578437
 10
28.571563
 20
13.578437
 10
28.571563
 20
12.731562
 10
28.848437
 20
12.731562
 10
28.848437
 20
13.578437
  0
LWPOLYLINE
  8
0
 62
7
 90
5
 70
1
 10
29.210000
 20
13.578437
 10
29.071563
 20
13.578437
 10
29.071563
 20
12.731562
 10
29.348437
 20
12.731562
 10
29.348437
 20
13.578437
  0
LWPOLYLINE
  8
0
 62
7
 90
5
 70
1
 10
29.710000
 20
13.578437
 10
29.571563
 20
13.578437
 10
29.571563
 20
12.731562
 10
29.848437
 20
12.731562
 10
29.848437
 20
13.578437
  0
LWPOLYLINE
  8
0
 62
7
 90
5
 70
1
 10
30.210000
 20
13.578437
 10
30.071563
 20
13.578437
 10
30.071563
 20
12.731562
 10
30.348437
 20
12.731562
 10
30.348437
 20
13.578437
  0
LWPOLYLINE
  8
0
 62
7
 90
5
 70
1
 10
31.358437
 20
12.180000
 10
31.358437
 20
12.318437
 10
30.511563
 20
12.318437
 10
30.511563
 20
12.041562
 10
31.358437
 20
12.041562
  0
LWPOLYLINE
  8
0
 62
7
 90
5
 70
1
 10
31.358437
 20
10.680000
 10
31.358437
 20
10.818437
 10
30.511563
 20
10.818437
 10
30.511563
 20
10.541562
 10
31.358437
 20
10.541562
  0
LWPOLYLINE
  8
0
 62
7
 90
5
 70
1
 10
30.210000
 20
10.128438
 10
30.071563
 20
10.128438
 10
30.071563
 20
9.281562
 10
30.348437
 20
9.281562
 10
30.348437
 20
10.128438
  0
LWPOLYLINE
  8
0
 62
7
 90
5
 70
1
 10
29.710000
 20
10.128438
 10
29.571563
 20
10.128438
 10
29.571563
 20
9.281562
 10
29.848437
 20
9.281562
 10
29.848437
 20
10.128438
  0
LWPOLYLINE
  8
0
 62
7
 90
5
 70
1
 10
29.210000
 20
10.128438
 10
29.071563
 20
10.128438
 10
29.071563
 20
9.281562
 10
29.348437
 20
9.281562
 10
29.348437
 20
10.128438
  0
LWPOLYLINE
  8
0
 62
7
 90
5
 70
1
 10
28.710000
 20
10.128438
 10
28.571563
 20
10.128438
 10
28.571563
 20
9.281562
 10
28.848437
 20
9.281562
 10
28.848437
 20
10.128438
  0
LWPOLYLINE
  8
0
 62
7
 90
5
 70
1
 10
28.210000
 20
10.128438
 10
28.071563
 20
10.128438
 10
28.071563
 20
9.281562
 10
28.348437
 20
9.281562
 10
28.348437
 20
10.128438
  0
LWPOLYLINE
  8
0
 62
7
 90
5
 70
1
 10
27.908437
 20
10.680000
 10
27.908437
 20
10.818437
 10
27.061563
 20
10.818437
 10
27.061563
 20
10.541562
 10
27.908437
 20
10.541562
  0
LWPOLYLINE
  8
0
 62
7
 90
5
 70
1
 10
30.233438
 20
11.430000
 10
30.233438
 20
12.453437
 10
28.186563
 20
12.453437
 10
28.186563
 20
10.406562
 10
30.233438
 20
10.406562
  0
LWPOLYLINE
  8
0
 62
7
 90
5
 70
1
 10
33.750437
 20
14.466000
 10
33.750437
 20
14.604437
 10
32.903562
 20
14.604437
 10
32.903562
 20
14.327562
 10
33.750437
 20
14.327562
  0
LWPOLYLINE
  8
0
 62
7
 90
5
 70
1
 10
34.052000
 20
15.864438
 10
33.913562
 20
15.864438
 10
33.913562
 20
15.017563
 10
34.190438
 20
15.017563
 10
34.190438
 20
15.864438
  0
LWPOLYLINE
  8
0
 62
7
 90
5
 70
1
 10
34.552000
 20
15.864438
 10
34.413562
 20
15.864438
 10
34.413562
 20
15.017563
 10
34.690438
 20
15.017563
 10
34.690438
 20
15.864438
  0
LWPOLYLINE
  8
0
 62
7
 90
5
 70
1
 10
35.052000
 20
15.864438
 10
34.913562
 20
15.864438
 10
34.913562
 20
15.017563
 10
35.190438
 20
15.017563
 10
35.190438
 20
15.864438
  0
LWPOLYLINE
  8
0
 62
7
 90
5
 70
1
 10
35.552000
 20
15.864438
 10
35.413562
 20
15.864438
 10
35.413562
 20
15.017563
 10
35.690438
 20
15.017563
 10
35.690438
 20
15.864438
  0
LWPOLYLINE
  8
0
 62
7
 90
5
 70
1
 10
36.052000
 20
15.864438
 10
35.913562
 20
15.864438
 10
35.913562
 20
15.017563
 10
36.190438
 20
15.017563
 10
36.190438
 20
15.864438
  0
LWPOLYLINE
  8
0
 62
7
 90
5
 70
1
 10
37.200437
 20
14.466000
 10
37.200437
 20
14.604437
 10
36.353563
 20
14.604437
 10
36.353563
 20
14.327562
 10
37.200437
 20
14.327562
  0
LWPOLYLINE
  8
0
 62
7
 90
5
 70
1
 10
37.200437
 20
12.966000
 10
37.200437
 20
13.104437
 10
36.353563
 20
13.104437
 10
36.353563
 20
12.827562
 10
37.200437
 20
12.827562
  0
LWPOLYLINE
  8
0
 62
7
 90
5
 70
1
 10
36.052000
 20
12.414438
 10
35.913562
 20
12.414438
 10
35.913562
 20
11.567562
 10
36.190438
 20
11.567562
 10
36.190438
 20
12.414438
  0
LWPOLYLINE
  8
0
 62
7
 90
5
 70
1
 10
35.552000
 20
12.414438
 10
35.413562
 20
12.414438
 10
35.413562
 20
11.567562
 10
35.690438
 20
11.567562
 10
35.690438
 20
12.414438
  0
LWPOLYLINE
  8
0
 62
7
 90
5
 70
1
 10
35.052000
 20
12.414438
 10
34.913562
 20
12.414438
 10
34.913562
 20
11.567562
 10
35.190438
 20
11.567562
 10
35.190438
 20
12.414438
  0
LWPOLYLINE
  8
0
 62
7
 90
5
 70
1
 10
34.552000
 20
12.414438
 10
34.413562
 20
12.414438
 10
34.413562
 20
11.567562
 10
34.690438
 20
11.567562
 10
34.690438
 20
12.414438
  0
LWPOLYLINE
  8
0
 62
7
 90
5
 70
1
 10
34.052000
 20
12.414438
 10
33.913562
 20
12.414438
 10
33.913562
 20
11.567562
 10
34.190438
 20
11.567562
 10
34.190438
 20
12.414438
  0
LWPOLYLINE
  8
0
 62
7
 90
5
 70
1
 10
33.750437
 20
12.966000
 10
33.750437
 20
13.104437
 10
32.903562
 20
13.104437
 10
32.903562
 20
12.827562
 10
33.750437
 20
12.827562
  0
LWPOLYLINE
  8
0
 62
7
 90
5
 70
1
 10
36.075437
 20
13.716000
 10
36.075437
 20
14.739437
 10
34.028562
 20
14.739437
 10
34.028562
 20
12.692562
 10
36.075437
 20
12.692562
  0
LWPOLYLINE
  8
0
 62
7
 90
5
 70
1
 10
26.511563
 20
83.750000
 10
26.511563
 20
83.151562
 10
27.908438
 20
83.151562
 10
27.908438
 20
84.348438
 10
26.511563
 20
84.348438
  0
LWPOLYLINE
  8
0
 62
7
 90
5
 70
1
 10
31.591562
 20
83.750000
 10
31.591562
 20
83.151562
 10
32.988437
 20
83.151562
 10
32.988437
 20
84.348438
 10
31.591562
 20
84.348438
  0
LWPOLYLINE
  8
0
 62
7
 90
5
 70
1
 10
26.511563
 20
87.450000
 10
26.511563
 20
86.851562
 10
27.908438
 20
86.851562
 10
27.908438
 20
88.048438
 10
26.511563
 20
88.048438
  0
LWPOLYLINE
  8
0
 62
7
 90
5
 70
1
 10
31.591562
 20
87.450000
 10
31.591562
 20
86.851562
 10
32.988437
 20
86.851562
 10
32.988437
 20
88.048438
 10
31.591562
 20
88.048438
  0
LWPOLYLINE
  8
0
 62
7
 90
5
 70
1
 10
48.807037
 20
89.622000
 10
48.807037
 20
89.772837
 10
48.352962
 20
89.772837
 10
48.352962
 20
89.471163
 10
48.807037
 20
89.471163
  0
LWPOLYLINE
  8
0
 62
7
 90
5
 70
1
 10
48.807037
 20
89.114000
 10
48.807037
 20
89.264837
 10
48.352962
 20
89.264837
 10
48.352962
 20
88.963163
 10
48.807037
 20
88.963163
  0
LWPOLYLINE
  8
0
 62
7
 90
5
 70
1
 10
48.807037
 20
88.606000
 10
48.807037
 20
88.756837
 10
48.352962
 20
88.756837
 10
48.352962
 20
88.455163
 10
48.807037
 20
88.455163
  0
LWPOLYLINE
  8
0
 62
7
 90
5
 70
1
 10
48.807037
 20
88.098000
 10
48.807037
 20
88.248837
 10
48.352962
 20
88.248837
 10
48.352962
 20
87.947163
 10
48.807037
 20
87.947163
  0
LWPOLYLINE
  8
0
 62
7
 90
5
 70
1
 10
48.937162
 20
87.590000
 10
48.937162
 20
87.362963
 10
49.238838
 20
87.362963
 10
49.238838
 20
87.817037
 10
48.937162
 20
87.817037
  0
LWPOLYLINE
  8
0
 62
7
 90
5
 70
1
 10
49.445162
 20
87.590000
 10
49.445162
 20
87.362963
 10
49.746837
 20
87.362963
 10
49.746837
 20
87.817037
 10
49.445162
 20
87.817037
  0
LWPOLYLINE
  8
0
 62
7
 90
5
 70
1
 10
49.953162
 20
87.590000
 10
49.953162
 20
87.362963
 10
50.254838
 20
87.362963
 10
50.254838
 20
87.817037
 10
49.953162
 20
87.817037
  0
LWPOLYLINE
  8
0
 62
7
 90
5
 70
1
 10
50.461163
 20
87.590000
 10
50.461163
 20
87.362963
 10
50.762838
 20
87.362963
 10
50.762838
 20
87.817037
 10
50.461163
 20
87.817037
  0
LWPOLYLINE
  8
0
 62
7
 90
5
 70
1
 10
50.892962
 20
88.098000
 10
50.892962
 20
87.947163
 10
51.347037
 20
87.947163
 10
51.347037
 20
88.248837
 10
50.892962
 20
88.248837
  0
LWPOLYLINE
  8
0
 62
7
 90
5
 70
1
 10
50.892962
 20
88.606000
 10
50.892962
 20
88.455163
 10
51.347037
 20
88.455163
 10
51.347037
 20
88.756837
 10
50.892962
 20
88.756837
  0
LWPOLYLINE
  8
0
 62
7
 90
5
 70
1
 10
50.892962
 20
89.114000
 10
50.892962
 20
88.963163
 10
51.347037
 20
88.963163
 10
51.347037
 20
89.264837
 10
50.892962
 20
89.264837
  0
LWPOLYLINE
  8
0
 62
7
 90
5
 70
1
 10
50.892962
 20
89.622000
 10
50.892962
 20
89.471163
 10
51.347037
 20
89.471163
 10
51.347037
 20
89.772837
 10
50.892962
 20
89.772837
  0
LWPOLYLINE
  8
0
 62
7
 90
5
 70
1
 10
50.762838
 20
90.130000
 10
50.762838
 20
90.357037
 10
50.461163
 20
90.357037
 10
50.461163
 20
89.902963
 10
50.762838
 20
89.902963
  0
LWPOLYLINE
  8
0
 62
7
 90
5
 70
1
 10
50.254838
 20
90.130000
 10
50.254838
 20
90.357037
 10
49.953162
 20
90.357037
 10
49.953162
 20
89.902963
 10
50.254838
 20
89.902963
  0
LWPOLYLINE
  8
0
 62
7
 90
5
 70
1
 10
49.746837
 20
90.130000
 10
49.746837
 20
90.357037
 10
49.445162
 20
90.357037
 10
49.445162
 20
89.902963
 10
49.746837
 20
89.902963
  0
LWPOLYLINE
  8
0
 62
7
 90
5
 70
1
 10
49.238838
 20
90.130000
 10
49.238838
 20
90.357037
 10
48.937162
 20
90.357037
 10
48.937162
 20
89.902963
 10
49.238838
 20
89.902963
  0
LWPOLYLINE
  8
0
 62
7
 90
5
 70
1
 10
30.731562
 20
72.692500
 10
30.731562
 20
72.494062
 10
31.928437
 20
72.494062
 10
31.928437
 20
72.890937
 10
30.731562
 20
72.890937
  0
LWPOLYLINE
  8
0
 62
7
 90
5
 70
1
 10
30.931562
 20
73.342500
 10
30.931562
 20
73.144063
 10
31.928438
 20
73.144063
 10
31.928438
 20
73.540937
 10
30.931562
 20
73.540937
  0
LWPOLYLINE
  8
0
 62
7
 90
5
 70
1
 10
30.931562
 20
73.992500
 10
30.931562
 20
73.794063
 10
31.928438
 20
73.794063
 10
31.928438
 20
74.190938
 10
30.931562
 20
74.190938
  0
LWPOLYLINE
  8
0
 62
7
 90
5
 70
1
 10
29.031562
 20
73.992500
 10
29.031562
 20
73.794063
 10
30.028438
 20
73.794063
 10
30.028438
 20
74.190938
 10
29.031562
 20
74.190938
  0
LWPOLYLINE
  8
0
 62
7
 90
5
 70
1
 10
29.031562
 20
73.342500
 10
29.031562
 20
73.144063
 10
30.028438
 20
73.144063
 10
30.028438
 20
73.540937
 10
29.031562
 20
73.540937
  0
LWPOLYLINE
  8
0
 62
7
 90
5
 70
1
 10
29.031562
 20
72.692500
 10
29.031562
 20
72.494062
 10
30.028438
 20
72.494062
 10
30.028438
 20
72.890937
 10
29.031562
 20
72.890937
  0
ENDSEC
  0
EOF
