%
M48
M72
T01C0.0197
T02C0.0236
T03C0.0315
T04C0.0320
T05C0.0360
T06C0.0394
T07C0.0400
T08C0.0600
T09C0.1102
T10C0.1260
%
T01
X17450Y11000
X15150Y13200
X14800Y13550
X13850Y14950
X16000Y15750
X16500Y15750
X19000Y13700
X21213Y16363
X21606Y16363
X21606Y16756
X21213Y16756
X22000Y16756
X22000Y16363
X22394Y16363
X22394Y16756
X22787Y16756
X22787Y16363
X22787Y17150
X22394Y17150
X22394Y17544
X22787Y17544
X22787Y17937
X22394Y17937
X22000Y17937
X22000Y17544
X21606Y17544
X21213Y17544
X21213Y17937
X21606Y17937
X21606Y17150
X21213Y17150
X22000Y17150
X23950Y19100
X23550Y12990
X25350Y11700
X25350Y11050
X25350Y10550
X25200Y9950
X25000Y9600
X23600Y10350
X24050Y10550
X24400Y10950
X24250Y11450
X23100Y10350
X26970Y5590
X19620Y5400
X12700Y17000
X13400Y20550
X13130Y20900
X10587Y25763
X10587Y26156
X10194Y26156
X10194Y25763
X9800Y25763
X9800Y26156
X9406Y26156
X9013Y26156
X9013Y25763
X9406Y25763
X9406Y26550
X9013Y26550
X9013Y26944
X9406Y26944
X9406Y27337
X9013Y27337
X9800Y27337
X9800Y26944
X10194Y26944
X10194Y27337
X10587Y27337
X10587Y26944
X10587Y26550
X10194Y26550
X9800Y26550
X12950Y30150
X17650Y30200
X17700Y29800
X18850Y30200
T02
X18400Y29250
X16150Y28750
X14150Y29950
X14500Y30400
X13450Y30100
X11800Y28550
X12550Y28250
X12950Y27950
X15200Y26350
X15200Y25850
X16800Y25950
X16800Y26850
X17800Y26850
X18500Y24750
X16550Y24700
X15700Y24450
X15250Y24150
X15350Y23500
X15700Y23200
X16600Y23600
X16800Y23200
X16550Y24050
X13100Y24050
X12850Y23550
X12850Y23050
X12350Y23050
X12350Y23550
X10725Y24175
X10225Y24175
X10225Y23675
X9725Y23675
X9725Y24175
X9725Y23175
X10225Y23175
X8450Y21250
X8650Y19600
X10400Y17600
X10800Y17450
X10050Y16600
X9640Y16540
X10750Y14850
X11100Y14600
X11550Y14600
X12200Y14350
X12600Y14200
X11900Y14000
X13400Y13950
X13800Y13650
X13500Y13350
X13150Y13050
X13500Y12700
X13850Y14200
X16050Y14250
X19400Y16050
X21750Y14550
X21500Y14150
X21750Y13750
X22000Y14150
X22250Y13750
X22500Y14150
X22250Y14550
X19100Y12200
X20100Y11000
X20450Y9950
X21400Y9950
X23400Y9600
X24450Y8000
X25350Y7250
X24000Y6350
X20550Y5600
X20150Y5700
X19350Y5700
X19350Y7150
X16000Y7150
X14150Y5700
X14050Y5200
X14000Y4700
X14600Y4250
X15500Y3650
X15150Y3300
X16550Y3150
X16050Y4350
X16400Y4700
X16400Y5400
X11800Y5200
X11750Y4700
X11850Y3800
X8600Y4900
X7500Y5950
X6000Y6450
X11400Y7950
X11700Y9250
X12000Y9600
X12300Y9900
X12840Y9390
X12500Y9100
X14600Y10390
X15300Y9700
X16900Y11550
X15850Y12150
X11700Y11150
X10600Y10900
X11350Y12300
X10900Y12900
X10335Y12706
X8650Y12310
X7850Y12310
X7050Y12310
X6250Y12310
X8700Y13800
X9050Y14150
X9450Y14500
X5800Y14100
X5300Y13950
X4450Y13950
X6100Y17430
X5550Y17600
X11900Y19150
X12350Y18850
X12660Y19170
X13650Y19700
X15850Y19400
X16400Y20250
X16200Y20650
X16650Y20650
X17100Y20650
X16900Y20250
X18300Y20300
X18300Y20800
X18300Y21300
X18800Y21300
X18800Y20800
X19300Y20800
X19300Y21300
X21000Y20225
X21550Y20225
X22100Y20225
X22100Y20725
X22100Y21225
X21550Y21225
X21550Y20725
X22900Y21950
X22600Y22250
X21050Y22700
X21550Y24250
X22000Y24750
X22350Y25050
X22450Y25600
X22200Y26850
X22900Y27050
X26350Y24250
X26750Y19650
X17650Y18850
X16900Y21050
X16400Y21050
X13200Y17450
X13400Y16750
X6200Y28950
X6200Y29350
X5800Y29350
X5800Y28950
X5400Y29350
X27256Y2524
X27256Y1776
X25600Y1500
T03
X9394Y17100
X8606Y17100
X18850Y26750
X19850Y26750
X20850Y26750
X20850Y27750
X19850Y27750
X18850Y27750
T04
X4900Y12000
X4900Y11000
X4900Y10000
X4900Y9000
X4900Y8000
X4900Y7000
X18150Y4600
X19150Y4600
X20150Y4600
X21150Y4600
X22150Y4600
X23150Y4600
X24150Y4600
X24150Y1600
X23150Y1600
X22150Y1600
X21150Y1600
X20150Y1600
X19150Y1600
X18150Y1600
T05
X15800Y1650
X14800Y1650
X13800Y1650
X12800Y1650
X11800Y1650
X10800Y1650
X9800Y1650
X9800Y2650
X10800Y2650
X11800Y2650
X12800Y2650
X13800Y2650
X14800Y2650
X15800Y2650
T06
X20975Y29900
X20975Y30900
X10650Y31000
X10650Y30000
T07
X24000Y28700
X25000Y28700
X26000Y28700
X27000Y28700
X27000Y27700
X26000Y27700
X25000Y27700
X24000Y27700
X18550Y19250
X18550Y18250
X18550Y17250
X26250Y13900
X26250Y12900
X26250Y11900
X26250Y10900
X26250Y9900
X26250Y8900
X26250Y7900
X10950Y8700
X9950Y8700
X9950Y9700
X10950Y9700
X6800Y15400
X5800Y15400
X4800Y15400
X4800Y16400
X5800Y16400
X6800Y16400
T08
X4590Y1870
X4590Y4070
X8730Y4070
X8730Y1870
T09
X12900Y7950
X18700Y7950
T10
X25987Y18657
X25987Y25743
X24725Y30400
X6900Y30450
X5638Y25743
X5638Y18657
M30
