G75*
%MOIN*%
%OFA0B0*%
%FSLAX25Y25*%
%IPPOS*%
%LPD*%
%AMOC8*
5,1,8,0,0,1.08239X$1,22.5*
%
%ADD10C,0.01200*%
%ADD11R,0.02000X0.06000*%
%ADD12C,0.00800*%
%ADD13C,0.02000*%
%ADD14C,0.00500*%
%ADD15C,0.00400*%
%ADD16C,0.00100*%
%ADD17C,0.01600*%
%ADD18C,0.00600*%
%ADD19C,0.01000*%
%ADD20C,0.00200*%
D10*
X0048500Y0129000D02*
X0048502Y0129044D01*
X0048508Y0129088D01*
X0048518Y0129131D01*
X0048531Y0129173D01*
X0048548Y0129214D01*
X0048569Y0129253D01*
X0048593Y0129290D01*
X0048620Y0129325D01*
X0048650Y0129357D01*
X0048683Y0129387D01*
X0048719Y0129413D01*
X0048756Y0129437D01*
X0048796Y0129456D01*
X0048837Y0129473D01*
X0048880Y0129485D01*
X0048923Y0129494D01*
X0048967Y0129499D01*
X0049011Y0129500D01*
X0049055Y0129497D01*
X0049099Y0129490D01*
X0049142Y0129479D01*
X0049184Y0129465D01*
X0049224Y0129447D01*
X0049263Y0129425D01*
X0049299Y0129401D01*
X0049333Y0129373D01*
X0049365Y0129342D01*
X0049394Y0129308D01*
X0049420Y0129272D01*
X0049442Y0129234D01*
X0049461Y0129194D01*
X0049476Y0129152D01*
X0049488Y0129110D01*
X0049496Y0129066D01*
X0049500Y0129022D01*
X0049500Y0128978D01*
X0049496Y0128934D01*
X0049488Y0128890D01*
X0049476Y0128848D01*
X0049461Y0128806D01*
X0049442Y0128766D01*
X0049420Y0128728D01*
X0049394Y0128692D01*
X0049365Y0128658D01*
X0049333Y0128627D01*
X0049299Y0128599D01*
X0049263Y0128575D01*
X0049224Y0128553D01*
X0049184Y0128535D01*
X0049142Y0128521D01*
X0049099Y0128510D01*
X0049055Y0128503D01*
X0049011Y0128500D01*
X0048967Y0128501D01*
X0048923Y0128506D01*
X0048880Y0128515D01*
X0048837Y0128527D01*
X0048796Y0128544D01*
X0048756Y0128563D01*
X0048719Y0128587D01*
X0048683Y0128613D01*
X0048650Y0128643D01*
X0048620Y0128675D01*
X0048593Y0128710D01*
X0048569Y0128747D01*
X0048548Y0128786D01*
X0048531Y0128827D01*
X0048518Y0128869D01*
X0048508Y0128912D01*
X0048502Y0128956D01*
X0048500Y0129000D01*
X0047500Y0129000D02*
X0047502Y0129077D01*
X0047508Y0129154D01*
X0047518Y0129231D01*
X0047532Y0129307D01*
X0047549Y0129382D01*
X0047571Y0129456D01*
X0047596Y0129529D01*
X0047626Y0129601D01*
X0047658Y0129671D01*
X0047695Y0129739D01*
X0047734Y0129805D01*
X0047777Y0129869D01*
X0047824Y0129931D01*
X0047873Y0129990D01*
X0047926Y0130047D01*
X0047981Y0130101D01*
X0048039Y0130152D01*
X0048100Y0130200D01*
X0048163Y0130245D01*
X0048228Y0130286D01*
X0048295Y0130324D01*
X0048364Y0130359D01*
X0048435Y0130389D01*
X0048507Y0130417D01*
X0048581Y0130440D01*
X0048655Y0130460D01*
X0048731Y0130476D01*
X0048807Y0130488D01*
X0048884Y0130496D01*
X0048961Y0130500D01*
X0049039Y0130500D01*
X0049116Y0130496D01*
X0049193Y0130488D01*
X0049269Y0130476D01*
X0049345Y0130460D01*
X0049419Y0130440D01*
X0049493Y0130417D01*
X0049565Y0130389D01*
X0049636Y0130359D01*
X0049705Y0130324D01*
X0049772Y0130286D01*
X0049837Y0130245D01*
X0049900Y0130200D01*
X0049961Y0130152D01*
X0050019Y0130101D01*
X0050074Y0130047D01*
X0050127Y0129990D01*
X0050176Y0129931D01*
X0050223Y0129869D01*
X0050266Y0129805D01*
X0050305Y0129739D01*
X0050342Y0129671D01*
X0050374Y0129601D01*
X0050404Y0129529D01*
X0050429Y0129456D01*
X0050451Y0129382D01*
X0050468Y0129307D01*
X0050482Y0129231D01*
X0050492Y0129154D01*
X0050498Y0129077D01*
X0050500Y0129000D01*
X0050498Y0128923D01*
X0050492Y0128846D01*
X0050482Y0128769D01*
X0050468Y0128693D01*
X0050451Y0128618D01*
X0050429Y0128544D01*
X0050404Y0128471D01*
X0050374Y0128399D01*
X0050342Y0128329D01*
X0050305Y0128261D01*
X0050266Y0128195D01*
X0050223Y0128131D01*
X0050176Y0128069D01*
X0050127Y0128010D01*
X0050074Y0127953D01*
X0050019Y0127899D01*
X0049961Y0127848D01*
X0049900Y0127800D01*
X0049837Y0127755D01*
X0049772Y0127714D01*
X0049705Y0127676D01*
X0049636Y0127641D01*
X0049565Y0127611D01*
X0049493Y0127583D01*
X0049419Y0127560D01*
X0049345Y0127540D01*
X0049269Y0127524D01*
X0049193Y0127512D01*
X0049116Y0127504D01*
X0049039Y0127500D01*
X0048961Y0127500D01*
X0048884Y0127504D01*
X0048807Y0127512D01*
X0048731Y0127524D01*
X0048655Y0127540D01*
X0048581Y0127560D01*
X0048507Y0127583D01*
X0048435Y0127611D01*
X0048364Y0127641D01*
X0048295Y0127676D01*
X0048228Y0127714D01*
X0048163Y0127755D01*
X0048100Y0127800D01*
X0048039Y0127848D01*
X0047981Y0127899D01*
X0047926Y0127953D01*
X0047873Y0128010D01*
X0047824Y0128069D01*
X0047777Y0128131D01*
X0047734Y0128195D01*
X0047695Y0128261D01*
X0047658Y0128329D01*
X0047626Y0128399D01*
X0047596Y0128471D01*
X0047571Y0128544D01*
X0047549Y0128618D01*
X0047532Y0128693D01*
X0047518Y0128769D01*
X0047508Y0128846D01*
X0047502Y0128923D01*
X0047500Y0129000D01*
X0046500Y0129000D02*
X0046502Y0129099D01*
X0046508Y0129199D01*
X0046518Y0129298D01*
X0046532Y0129396D01*
X0046549Y0129494D01*
X0046571Y0129591D01*
X0046596Y0129687D01*
X0046625Y0129782D01*
X0046658Y0129876D01*
X0046695Y0129968D01*
X0046735Y0130059D01*
X0046779Y0130148D01*
X0046827Y0130236D01*
X0046878Y0130321D01*
X0046932Y0130404D01*
X0046989Y0130486D01*
X0047050Y0130564D01*
X0047114Y0130641D01*
X0047180Y0130714D01*
X0047250Y0130785D01*
X0047322Y0130853D01*
X0047397Y0130919D01*
X0047475Y0130981D01*
X0047555Y0131040D01*
X0047637Y0131096D01*
X0047721Y0131148D01*
X0047808Y0131197D01*
X0047896Y0131243D01*
X0047986Y0131285D01*
X0048078Y0131324D01*
X0048171Y0131359D01*
X0048265Y0131390D01*
X0048361Y0131417D01*
X0048458Y0131440D01*
X0048555Y0131460D01*
X0048653Y0131476D01*
X0048752Y0131488D01*
X0048851Y0131496D01*
X0048950Y0131500D01*
X0049050Y0131500D01*
X0049149Y0131496D01*
X0049248Y0131488D01*
X0049347Y0131476D01*
X0049445Y0131460D01*
X0049542Y0131440D01*
X0049639Y0131417D01*
X0049735Y0131390D01*
X0049829Y0131359D01*
X0049922Y0131324D01*
X0050014Y0131285D01*
X0050104Y0131243D01*
X0050192Y0131197D01*
X0050279Y0131148D01*
X0050363Y0131096D01*
X0050445Y0131040D01*
X0050525Y0130981D01*
X0050603Y0130919D01*
X0050678Y0130853D01*
X0050750Y0130785D01*
X0050820Y0130714D01*
X0050886Y0130641D01*
X0050950Y0130564D01*
X0051011Y0130486D01*
X0051068Y0130404D01*
X0051122Y0130321D01*
X0051173Y0130236D01*
X0051221Y0130148D01*
X0051265Y0130059D01*
X0051305Y0129968D01*
X0051342Y0129876D01*
X0051375Y0129782D01*
X0051404Y0129687D01*
X0051429Y0129591D01*
X0051451Y0129494D01*
X0051468Y0129396D01*
X0051482Y0129298D01*
X0051492Y0129199D01*
X0051498Y0129099D01*
X0051500Y0129000D01*
X0051498Y0128901D01*
X0051492Y0128801D01*
X0051482Y0128702D01*
X0051468Y0128604D01*
X0051451Y0128506D01*
X0051429Y0128409D01*
X0051404Y0128313D01*
X0051375Y0128218D01*
X0051342Y0128124D01*
X0051305Y0128032D01*
X0051265Y0127941D01*
X0051221Y0127852D01*
X0051173Y0127764D01*
X0051122Y0127679D01*
X0051068Y0127596D01*
X0051011Y0127514D01*
X0050950Y0127436D01*
X0050886Y0127359D01*
X0050820Y0127286D01*
X0050750Y0127215D01*
X0050678Y0127147D01*
X0050603Y0127081D01*
X0050525Y0127019D01*
X0050445Y0126960D01*
X0050363Y0126904D01*
X0050279Y0126852D01*
X0050192Y0126803D01*
X0050104Y0126757D01*
X0050014Y0126715D01*
X0049922Y0126676D01*
X0049829Y0126641D01*
X0049735Y0126610D01*
X0049639Y0126583D01*
X0049542Y0126560D01*
X0049445Y0126540D01*
X0049347Y0126524D01*
X0049248Y0126512D01*
X0049149Y0126504D01*
X0049050Y0126500D01*
X0048950Y0126500D01*
X0048851Y0126504D01*
X0048752Y0126512D01*
X0048653Y0126524D01*
X0048555Y0126540D01*
X0048458Y0126560D01*
X0048361Y0126583D01*
X0048265Y0126610D01*
X0048171Y0126641D01*
X0048078Y0126676D01*
X0047986Y0126715D01*
X0047896Y0126757D01*
X0047808Y0126803D01*
X0047721Y0126852D01*
X0047637Y0126904D01*
X0047555Y0126960D01*
X0047475Y0127019D01*
X0047397Y0127081D01*
X0047322Y0127147D01*
X0047250Y0127215D01*
X0047180Y0127286D01*
X0047114Y0127359D01*
X0047050Y0127436D01*
X0046989Y0127514D01*
X0046932Y0127596D01*
X0046878Y0127679D01*
X0046827Y0127764D01*
X0046779Y0127852D01*
X0046735Y0127941D01*
X0046695Y0128032D01*
X0046658Y0128124D01*
X0046625Y0128218D01*
X0046596Y0128313D01*
X0046571Y0128409D01*
X0046549Y0128506D01*
X0046532Y0128604D01*
X0046518Y0128702D01*
X0046508Y0128801D01*
X0046502Y0128901D01*
X0046500Y0129000D01*
D11*
X0250000Y0067000D03*
D12*
X0055892Y0039400D02*
X0054358Y0040935D01*
X0054358Y0042469D01*
X0055892Y0044004D01*
X0060496Y0044004D01*
X0063565Y0042469D02*
X0063565Y0040935D01*
X0065100Y0039400D01*
X0068169Y0039400D01*
X0069704Y0040935D01*
X0072773Y0040935D02*
X0072773Y0048608D01*
X0069704Y0047073D02*
X0069704Y0045539D01*
X0068169Y0044004D01*
X0065100Y0044004D01*
X0063565Y0042469D01*
X0060496Y0039400D02*
X0055892Y0039400D01*
X0055892Y0044004D02*
X0054358Y0045539D01*
X0054358Y0047073D01*
X0055892Y0048608D01*
X0060496Y0048608D01*
X0060496Y0039400D01*
X0063565Y0047073D02*
X0065100Y0048608D01*
X0068169Y0048608D01*
X0069704Y0047073D01*
X0072773Y0040935D02*
X0074308Y0039400D01*
X0077377Y0039400D01*
X0078912Y0040935D01*
X0078912Y0048608D01*
X0087843Y0087900D02*
X0086308Y0089435D01*
X0087843Y0090969D01*
X0090912Y0090969D01*
X0092447Y0092504D01*
X0090912Y0094039D01*
X0086308Y0094039D01*
X0087843Y0087900D02*
X0092447Y0087900D01*
X0095516Y0087900D02*
X0095516Y0092504D01*
X0097051Y0094039D01*
X0098586Y0092504D01*
X0098586Y0087900D01*
X0101655Y0087900D02*
X0101655Y0094039D01*
X0100120Y0094039D01*
X0098586Y0092504D01*
X0104724Y0092504D02*
X0104724Y0090969D01*
X0110863Y0090969D01*
X0110863Y0089435D02*
X0110863Y0092504D01*
X0109328Y0094039D01*
X0106259Y0094039D01*
X0104724Y0092504D01*
X0106259Y0087900D02*
X0109328Y0087900D01*
X0110863Y0089435D01*
X0113932Y0087900D02*
X0117001Y0087900D01*
X0115467Y0087900D02*
X0115467Y0097108D01*
X0117001Y0097108D01*
X0120071Y0092504D02*
X0121605Y0094039D01*
X0126209Y0094039D01*
X0126209Y0097108D02*
X0126209Y0087900D01*
X0121605Y0087900D01*
X0120071Y0089435D01*
X0120071Y0092504D01*
X0129278Y0092504D02*
X0129278Y0089435D01*
X0130813Y0087900D01*
X0133882Y0087900D01*
X0135417Y0089435D01*
X0135417Y0092504D01*
X0133882Y0094039D01*
X0130813Y0094039D01*
X0129278Y0092504D01*
X0138486Y0094039D02*
X0140021Y0094039D01*
X0143090Y0090969D01*
X0143090Y0087900D02*
X0143090Y0094039D01*
X0146160Y0092504D02*
X0146160Y0089435D01*
X0147694Y0087900D01*
X0152298Y0087900D01*
X0152298Y0084831D02*
X0152298Y0094039D01*
X0147694Y0094039D01*
X0146160Y0092504D01*
X0144625Y0102900D02*
X0144625Y0109039D01*
X0141556Y0109039D02*
X0144625Y0105969D01*
X0141556Y0109039D02*
X0140021Y0109039D01*
X0136952Y0107504D02*
X0136952Y0104435D01*
X0135417Y0102900D01*
X0132348Y0102900D01*
X0130813Y0105969D02*
X0136952Y0105969D01*
X0136952Y0107504D02*
X0135417Y0109039D01*
X0132348Y0109039D01*
X0130813Y0107504D01*
X0130813Y0105969D01*
X0127744Y0104435D02*
X0126209Y0102900D01*
X0121605Y0102900D01*
X0121605Y0107504D01*
X0123140Y0109039D01*
X0126209Y0109039D01*
X0126209Y0105969D02*
X0121605Y0105969D01*
X0118536Y0104435D02*
X0118536Y0107504D01*
X0117001Y0109039D01*
X0112397Y0109039D01*
X0112397Y0112108D02*
X0112397Y0102900D01*
X0117001Y0102900D01*
X0118536Y0104435D01*
X0126209Y0105969D02*
X0127744Y0104435D01*
X0100120Y0109039D02*
X0097051Y0109039D01*
X0098586Y0110573D02*
X0098586Y0104435D01*
X0097051Y0102900D01*
X0093982Y0102900D02*
X0093982Y0112108D01*
X0092447Y0109039D02*
X0089378Y0109039D01*
X0087843Y0107504D01*
X0087843Y0102900D01*
X0084774Y0102900D02*
X0081705Y0102900D01*
X0083239Y0102900D02*
X0083239Y0109039D01*
X0084774Y0109039D01*
X0083239Y0112108D02*
X0083239Y0113643D01*
X0077101Y0109039D02*
X0072497Y0109039D01*
X0074031Y0105969D02*
X0077101Y0105969D01*
X0078635Y0107504D01*
X0077101Y0109039D01*
X0074031Y0105969D02*
X0072497Y0104435D01*
X0074031Y0102900D01*
X0078635Y0102900D01*
X0092447Y0109039D02*
X0093982Y0107504D01*
X0156902Y0107504D02*
X0156902Y0102900D01*
X0163041Y0102900D02*
X0163041Y0109039D01*
X0158437Y0109039D01*
X0156902Y0107504D01*
X0166110Y0107504D02*
X0166110Y0102900D01*
X0170714Y0102900D01*
X0172248Y0104435D01*
X0170714Y0105969D01*
X0166110Y0105969D01*
X0166110Y0107504D02*
X0167645Y0109039D01*
X0170714Y0109039D01*
X0175318Y0109039D02*
X0179922Y0109039D01*
X0181456Y0107504D01*
X0181456Y0104435D01*
X0179922Y0102900D01*
X0175318Y0102900D01*
X0173783Y0094039D02*
X0176852Y0087900D01*
X0179922Y0094039D01*
X0182991Y0092504D02*
X0182991Y0087900D01*
X0187595Y0087900D01*
X0189130Y0089435D01*
X0187595Y0090969D01*
X0182991Y0090969D01*
X0182991Y0092504D02*
X0184526Y0094039D01*
X0187595Y0094039D01*
X0192199Y0092504D02*
X0192199Y0087900D01*
X0192199Y0092504D02*
X0193733Y0094039D01*
X0196803Y0094039D01*
X0198337Y0092504D01*
X0198337Y0097108D02*
X0198337Y0087900D01*
X0210615Y0090969D02*
X0216753Y0090969D01*
X0216753Y0089435D02*
X0216753Y0092504D01*
X0215218Y0094039D01*
X0212149Y0094039D01*
X0210615Y0092504D01*
X0210615Y0090969D01*
X0212149Y0087900D02*
X0215218Y0087900D01*
X0216753Y0089435D01*
X0219822Y0089435D02*
X0219822Y0094039D01*
X0225961Y0094039D02*
X0225961Y0089435D01*
X0224426Y0087900D01*
X0222892Y0089435D01*
X0221357Y0087900D01*
X0219822Y0089435D01*
X0215219Y0099831D02*
X0213684Y0099831D01*
X0212149Y0101365D01*
X0212149Y0109039D01*
X0209080Y0107504D02*
X0209080Y0104435D01*
X0207545Y0102900D01*
X0204476Y0102900D01*
X0202941Y0104435D01*
X0202941Y0107504D01*
X0204476Y0109039D01*
X0207545Y0109039D01*
X0209080Y0107504D01*
X0212149Y0102900D02*
X0216753Y0102900D01*
X0218288Y0104435D01*
X0218288Y0109039D01*
X0230565Y0107504D02*
X0233634Y0107504D01*
X0232100Y0110573D02*
X0230565Y0112108D01*
X0232100Y0110573D02*
X0232100Y0102900D01*
X0236704Y0102900D02*
X0239773Y0102900D01*
X0238238Y0102900D02*
X0238238Y0112108D01*
X0236704Y0112108D02*
X0239773Y0112108D01*
X0199872Y0109039D02*
X0199872Y0104435D01*
X0198337Y0102900D01*
X0193733Y0102900D01*
X0193733Y0109039D01*
X0170714Y0092504D02*
X0169179Y0094039D01*
X0166110Y0094039D01*
X0164575Y0092504D01*
X0164575Y0090969D01*
X0170714Y0090969D01*
X0170714Y0089435D02*
X0170714Y0092504D01*
X0170714Y0089435D02*
X0169179Y0087900D01*
X0166110Y0087900D01*
D13*
X0247398Y0087703D02*
X0247398Y0083800D01*
X0247398Y0095510D02*
X0247398Y0111123D01*
X0064398Y0111123D02*
X0064398Y0095510D01*
X0064398Y0087703D02*
X0064398Y0083800D01*
D14*
X0042754Y0070649D02*
X0042003Y0069147D01*
X0040502Y0067646D01*
X0040502Y0069898D01*
X0039751Y0070649D01*
X0039001Y0070649D01*
X0038250Y0069898D01*
X0038250Y0068397D01*
X0039001Y0067646D01*
X0040502Y0067646D01*
X0041253Y0117646D02*
X0042754Y0119147D01*
X0038250Y0119147D01*
X0038250Y0117646D02*
X0038250Y0120649D01*
X0075351Y0152501D02*
X0076102Y0151750D01*
X0077603Y0151750D01*
X0078354Y0152501D01*
X0078354Y0154002D01*
X0076102Y0154002D01*
X0075351Y0153251D01*
X0075351Y0152501D01*
X0076853Y0155503D02*
X0078354Y0154002D01*
X0076853Y0155503D02*
X0075351Y0156254D01*
X0078189Y0159976D02*
X0101811Y0159976D01*
X0101811Y0177693D01*
X0091969Y0177693D01*
X0091969Y0179661D01*
X0088031Y0179661D01*
X0088031Y0177693D01*
X0078189Y0177693D01*
X0078189Y0159976D01*
X0049854Y0170750D02*
X0046851Y0170750D01*
X0048353Y0170750D02*
X0048353Y0175254D01*
X0049854Y0173753D01*
X0039646Y0186567D02*
X0039651Y0186160D01*
X0039666Y0185752D01*
X0039691Y0185346D01*
X0039725Y0184940D01*
X0039770Y0184535D01*
X0039824Y0184131D01*
X0039889Y0183728D01*
X0039963Y0183328D01*
X0040046Y0182929D01*
X0040140Y0182532D01*
X0040243Y0182138D01*
X0040355Y0181747D01*
X0040478Y0181358D01*
X0040609Y0180972D01*
X0040750Y0180590D01*
X0040900Y0180211D01*
X0041060Y0179836D01*
X0041228Y0179465D01*
X0041405Y0179098D01*
X0041592Y0178736D01*
X0041787Y0178378D01*
X0041991Y0178025D01*
X0042203Y0177677D01*
X0042424Y0177335D01*
X0042652Y0176998D01*
X0042890Y0176666D01*
X0043135Y0176341D01*
X0043388Y0176021D01*
X0043648Y0175708D01*
X0043916Y0175401D01*
X0044192Y0175101D01*
X0044475Y0174808D01*
X0044765Y0174522D01*
X0045062Y0174242D01*
X0045365Y0173970D01*
X0045675Y0173706D01*
X0045991Y0173449D01*
X0046314Y0173200D01*
X0046642Y0172959D01*
X0046977Y0172726D01*
X0047316Y0172501D01*
X0047662Y0172285D01*
X0048012Y0172077D01*
X0048367Y0171877D01*
X0048727Y0171687D01*
X0049092Y0171505D01*
X0049461Y0171332D01*
X0049834Y0171168D01*
X0050211Y0171013D01*
X0050592Y0170867D01*
X0050976Y0170731D01*
X0051363Y0170604D01*
X0051753Y0170487D01*
X0052146Y0170379D01*
X0052541Y0170281D01*
X0052939Y0170192D01*
X0053339Y0170113D01*
X0053740Y0170044D01*
X0054144Y0169985D01*
X0054548Y0169935D01*
X0054954Y0169896D01*
X0055360Y0169866D01*
X0055767Y0169846D01*
X0056174Y0169836D01*
X0056582Y0169836D01*
X0056989Y0169846D01*
X0057396Y0169866D01*
X0057802Y0169896D01*
X0058208Y0169935D01*
X0058612Y0169985D01*
X0059016Y0170044D01*
X0059417Y0170113D01*
X0059817Y0170192D01*
X0060215Y0170281D01*
X0060610Y0170379D01*
X0061003Y0170487D01*
X0061393Y0170604D01*
X0061780Y0170731D01*
X0062164Y0170867D01*
X0062545Y0171013D01*
X0062922Y0171168D01*
X0063295Y0171332D01*
X0063664Y0171505D01*
X0064029Y0171687D01*
X0064389Y0171877D01*
X0064744Y0172077D01*
X0065094Y0172285D01*
X0065440Y0172501D01*
X0065779Y0172726D01*
X0066114Y0172959D01*
X0066442Y0173200D01*
X0066765Y0173449D01*
X0067081Y0173706D01*
X0067391Y0173970D01*
X0067694Y0174242D01*
X0067991Y0174522D01*
X0068281Y0174808D01*
X0068564Y0175101D01*
X0068840Y0175401D01*
X0069108Y0175708D01*
X0069368Y0176021D01*
X0069621Y0176341D01*
X0069866Y0176666D01*
X0070104Y0176998D01*
X0070332Y0177335D01*
X0070553Y0177677D01*
X0070765Y0178025D01*
X0070969Y0178378D01*
X0071164Y0178736D01*
X0071351Y0179098D01*
X0071528Y0179465D01*
X0071696Y0179836D01*
X0071856Y0180211D01*
X0072006Y0180590D01*
X0072147Y0180972D01*
X0072278Y0181358D01*
X0072401Y0181747D01*
X0072513Y0182138D01*
X0072616Y0182532D01*
X0072710Y0182929D01*
X0072793Y0183328D01*
X0072867Y0183728D01*
X0072932Y0184131D01*
X0072986Y0184535D01*
X0073031Y0184940D01*
X0073065Y0185346D01*
X0073090Y0185752D01*
X0073105Y0186160D01*
X0073110Y0186567D01*
X0073110Y0199165D01*
X0115236Y0199165D01*
X0073110Y0199165D02*
X0073110Y0244835D01*
X0115236Y0244835D01*
X0073110Y0244835D02*
X0073110Y0257433D01*
X0073105Y0257840D01*
X0073090Y0258248D01*
X0073065Y0258654D01*
X0073031Y0259060D01*
X0072986Y0259465D01*
X0072932Y0259869D01*
X0072867Y0260272D01*
X0072793Y0260672D01*
X0072710Y0261071D01*
X0072616Y0261468D01*
X0072513Y0261862D01*
X0072401Y0262253D01*
X0072278Y0262642D01*
X0072147Y0263028D01*
X0072006Y0263410D01*
X0071856Y0263789D01*
X0071696Y0264164D01*
X0071528Y0264535D01*
X0071351Y0264902D01*
X0071164Y0265264D01*
X0070969Y0265622D01*
X0070765Y0265975D01*
X0070553Y0266323D01*
X0070332Y0266665D01*
X0070104Y0267002D01*
X0069866Y0267334D01*
X0069621Y0267659D01*
X0069368Y0267979D01*
X0069108Y0268292D01*
X0068840Y0268599D01*
X0068564Y0268899D01*
X0068281Y0269192D01*
X0067991Y0269478D01*
X0067694Y0269758D01*
X0067391Y0270030D01*
X0067081Y0270294D01*
X0066765Y0270551D01*
X0066442Y0270800D01*
X0066114Y0271041D01*
X0065779Y0271274D01*
X0065440Y0271499D01*
X0065094Y0271715D01*
X0064744Y0271923D01*
X0064389Y0272123D01*
X0064029Y0272313D01*
X0063664Y0272495D01*
X0063295Y0272668D01*
X0062922Y0272832D01*
X0062545Y0272987D01*
X0062164Y0273133D01*
X0061780Y0273269D01*
X0061393Y0273396D01*
X0061003Y0273513D01*
X0060610Y0273621D01*
X0060215Y0273719D01*
X0059817Y0273808D01*
X0059417Y0273887D01*
X0059016Y0273956D01*
X0058612Y0274015D01*
X0058208Y0274065D01*
X0057802Y0274104D01*
X0057396Y0274134D01*
X0056989Y0274154D01*
X0056582Y0274164D01*
X0056174Y0274164D01*
X0055767Y0274154D01*
X0055360Y0274134D01*
X0054954Y0274104D01*
X0054548Y0274065D01*
X0054144Y0274015D01*
X0053740Y0273956D01*
X0053339Y0273887D01*
X0052939Y0273808D01*
X0052541Y0273719D01*
X0052146Y0273621D01*
X0051753Y0273513D01*
X0051363Y0273396D01*
X0050976Y0273269D01*
X0050592Y0273133D01*
X0050211Y0272987D01*
X0049834Y0272832D01*
X0049461Y0272668D01*
X0049092Y0272495D01*
X0048727Y0272313D01*
X0048367Y0272123D01*
X0048012Y0271923D01*
X0047662Y0271715D01*
X0047316Y0271499D01*
X0046977Y0271274D01*
X0046642Y0271041D01*
X0046314Y0270800D01*
X0045991Y0270551D01*
X0045675Y0270294D01*
X0045365Y0270030D01*
X0045062Y0269758D01*
X0044765Y0269478D01*
X0044475Y0269192D01*
X0044192Y0268899D01*
X0043916Y0268599D01*
X0043648Y0268292D01*
X0043388Y0267979D01*
X0043135Y0267659D01*
X0042890Y0267334D01*
X0042652Y0267002D01*
X0042424Y0266665D01*
X0042203Y0266323D01*
X0041991Y0265975D01*
X0041787Y0265622D01*
X0041592Y0265264D01*
X0041405Y0264902D01*
X0041228Y0264535D01*
X0041060Y0264164D01*
X0040900Y0263789D01*
X0040750Y0263410D01*
X0040609Y0263028D01*
X0040478Y0262642D01*
X0040355Y0262253D01*
X0040243Y0261862D01*
X0040140Y0261468D01*
X0040046Y0261071D01*
X0039963Y0260672D01*
X0039889Y0260272D01*
X0039824Y0259869D01*
X0039770Y0259465D01*
X0039725Y0259060D01*
X0039691Y0258654D01*
X0039666Y0258248D01*
X0039651Y0257840D01*
X0039646Y0257433D01*
X0039646Y0251528D01*
X0005000Y0251528D01*
X0005000Y0192472D01*
X0039646Y0192472D01*
X0039646Y0186567D01*
X0168500Y0256000D02*
X0228500Y0256000D01*
X0228500Y0289000D01*
X0168500Y0289000D01*
X0168500Y0256000D01*
X0201014Y0244835D02*
X0243140Y0244835D01*
X0243140Y0199165D01*
X0201014Y0199165D01*
X0243140Y0199165D02*
X0243140Y0186567D01*
X0243145Y0186160D01*
X0243160Y0185752D01*
X0243185Y0185346D01*
X0243219Y0184940D01*
X0243264Y0184535D01*
X0243318Y0184131D01*
X0243383Y0183728D01*
X0243457Y0183328D01*
X0243540Y0182929D01*
X0243634Y0182532D01*
X0243737Y0182138D01*
X0243849Y0181747D01*
X0243972Y0181358D01*
X0244103Y0180972D01*
X0244244Y0180590D01*
X0244394Y0180211D01*
X0244554Y0179836D01*
X0244722Y0179465D01*
X0244899Y0179098D01*
X0245086Y0178736D01*
X0245281Y0178378D01*
X0245485Y0178025D01*
X0245697Y0177677D01*
X0245918Y0177335D01*
X0246146Y0176998D01*
X0246384Y0176666D01*
X0246629Y0176341D01*
X0246882Y0176021D01*
X0247142Y0175708D01*
X0247410Y0175401D01*
X0247686Y0175101D01*
X0247969Y0174808D01*
X0248259Y0174522D01*
X0248556Y0174242D01*
X0248859Y0173970D01*
X0249169Y0173706D01*
X0249485Y0173449D01*
X0249808Y0173200D01*
X0250136Y0172959D01*
X0250471Y0172726D01*
X0250810Y0172501D01*
X0251156Y0172285D01*
X0251506Y0172077D01*
X0251861Y0171877D01*
X0252221Y0171687D01*
X0252586Y0171505D01*
X0252955Y0171332D01*
X0253328Y0171168D01*
X0253705Y0171013D01*
X0254086Y0170867D01*
X0254470Y0170731D01*
X0254857Y0170604D01*
X0255247Y0170487D01*
X0255640Y0170379D01*
X0256035Y0170281D01*
X0256433Y0170192D01*
X0256833Y0170113D01*
X0257234Y0170044D01*
X0257638Y0169985D01*
X0258042Y0169935D01*
X0258448Y0169896D01*
X0258854Y0169866D01*
X0259261Y0169846D01*
X0259668Y0169836D01*
X0260076Y0169836D01*
X0260483Y0169846D01*
X0260890Y0169866D01*
X0261296Y0169896D01*
X0261702Y0169935D01*
X0262106Y0169985D01*
X0262510Y0170044D01*
X0262911Y0170113D01*
X0263311Y0170192D01*
X0263709Y0170281D01*
X0264104Y0170379D01*
X0264497Y0170487D01*
X0264887Y0170604D01*
X0265274Y0170731D01*
X0265658Y0170867D01*
X0266039Y0171013D01*
X0266416Y0171168D01*
X0266789Y0171332D01*
X0267158Y0171505D01*
X0267523Y0171687D01*
X0267883Y0171877D01*
X0268238Y0172077D01*
X0268588Y0172285D01*
X0268934Y0172501D01*
X0269273Y0172726D01*
X0269608Y0172959D01*
X0269936Y0173200D01*
X0270259Y0173449D01*
X0270575Y0173706D01*
X0270885Y0173970D01*
X0271188Y0174242D01*
X0271485Y0174522D01*
X0271775Y0174808D01*
X0272058Y0175101D01*
X0272334Y0175401D01*
X0272602Y0175708D01*
X0272862Y0176021D01*
X0273115Y0176341D01*
X0273360Y0176666D01*
X0273598Y0176998D01*
X0273826Y0177335D01*
X0274047Y0177677D01*
X0274259Y0178025D01*
X0274463Y0178378D01*
X0274658Y0178736D01*
X0274845Y0179098D01*
X0275022Y0179465D01*
X0275190Y0179836D01*
X0275350Y0180211D01*
X0275500Y0180590D01*
X0275641Y0180972D01*
X0275772Y0181358D01*
X0275895Y0181747D01*
X0276007Y0182138D01*
X0276110Y0182532D01*
X0276204Y0182929D01*
X0276287Y0183328D01*
X0276361Y0183728D01*
X0276426Y0184131D01*
X0276480Y0184535D01*
X0276525Y0184940D01*
X0276559Y0185346D01*
X0276584Y0185752D01*
X0276599Y0186160D01*
X0276604Y0186567D01*
X0276604Y0192472D01*
X0311250Y0192472D01*
X0311250Y0251528D01*
X0276604Y0251528D01*
X0276604Y0257433D01*
X0273603Y0265750D02*
X0272102Y0265750D01*
X0271351Y0266501D01*
X0271351Y0267251D01*
X0272102Y0268002D01*
X0273603Y0268002D01*
X0274354Y0268753D01*
X0274354Y0269503D01*
X0273603Y0270254D01*
X0272102Y0270254D01*
X0271351Y0269503D01*
X0271351Y0268753D01*
X0272102Y0268002D01*
X0273603Y0268002D02*
X0274354Y0267251D01*
X0274354Y0266501D01*
X0273603Y0265750D01*
X0276604Y0257433D02*
X0276599Y0257840D01*
X0276584Y0258248D01*
X0276559Y0258654D01*
X0276525Y0259060D01*
X0276480Y0259465D01*
X0276426Y0259869D01*
X0276361Y0260272D01*
X0276287Y0260672D01*
X0276204Y0261071D01*
X0276110Y0261468D01*
X0276007Y0261862D01*
X0275895Y0262253D01*
X0275772Y0262642D01*
X0275641Y0263028D01*
X0275500Y0263410D01*
X0275350Y0263789D01*
X0275190Y0264164D01*
X0275022Y0264535D01*
X0274845Y0264902D01*
X0274658Y0265264D01*
X0274463Y0265622D01*
X0274259Y0265975D01*
X0274047Y0266323D01*
X0273826Y0266665D01*
X0273598Y0267002D01*
X0273360Y0267334D01*
X0273115Y0267659D01*
X0272862Y0267979D01*
X0272602Y0268292D01*
X0272334Y0268599D01*
X0272058Y0268899D01*
X0271775Y0269192D01*
X0271485Y0269478D01*
X0271188Y0269758D01*
X0270885Y0270030D01*
X0270575Y0270294D01*
X0270259Y0270551D01*
X0269936Y0270800D01*
X0269608Y0271041D01*
X0269273Y0271274D01*
X0268934Y0271499D01*
X0268588Y0271715D01*
X0268238Y0271923D01*
X0267883Y0272123D01*
X0267523Y0272313D01*
X0267158Y0272495D01*
X0266789Y0272668D01*
X0266416Y0272832D01*
X0266039Y0272987D01*
X0265658Y0273133D01*
X0265274Y0273269D01*
X0264887Y0273396D01*
X0264497Y0273513D01*
X0264104Y0273621D01*
X0263709Y0273719D01*
X0263311Y0273808D01*
X0262911Y0273887D01*
X0262510Y0273956D01*
X0262106Y0274015D01*
X0261702Y0274065D01*
X0261296Y0274104D01*
X0260890Y0274134D01*
X0260483Y0274154D01*
X0260076Y0274164D01*
X0259668Y0274164D01*
X0259261Y0274154D01*
X0258854Y0274134D01*
X0258448Y0274104D01*
X0258042Y0274065D01*
X0257638Y0274015D01*
X0257234Y0273956D01*
X0256833Y0273887D01*
X0256433Y0273808D01*
X0256035Y0273719D01*
X0255640Y0273621D01*
X0255247Y0273513D01*
X0254857Y0273396D01*
X0254470Y0273269D01*
X0254086Y0273133D01*
X0253705Y0272987D01*
X0253328Y0272832D01*
X0252955Y0272668D01*
X0252586Y0272495D01*
X0252221Y0272313D01*
X0251861Y0272123D01*
X0251506Y0271923D01*
X0251156Y0271715D01*
X0250810Y0271499D01*
X0250471Y0271274D01*
X0250136Y0271041D01*
X0249808Y0270800D01*
X0249485Y0270551D01*
X0249169Y0270294D01*
X0248859Y0270030D01*
X0248556Y0269758D01*
X0248259Y0269478D01*
X0247969Y0269192D01*
X0247686Y0268899D01*
X0247410Y0268599D01*
X0247142Y0268292D01*
X0246882Y0267979D01*
X0246629Y0267659D01*
X0246384Y0267334D01*
X0246146Y0267002D01*
X0245918Y0266665D01*
X0245697Y0266323D01*
X0245485Y0265975D01*
X0245281Y0265622D01*
X0245086Y0265264D01*
X0244899Y0264902D01*
X0244722Y0264535D01*
X0244554Y0264164D01*
X0244394Y0263789D01*
X0244244Y0263410D01*
X0244103Y0263028D01*
X0243972Y0262642D01*
X0243849Y0262253D01*
X0243737Y0261862D01*
X0243634Y0261468D01*
X0243540Y0261071D01*
X0243457Y0260672D01*
X0243383Y0260272D01*
X0243318Y0259869D01*
X0243264Y0259465D01*
X0243219Y0259060D01*
X0243185Y0258654D01*
X0243160Y0258248D01*
X0243145Y0257840D01*
X0243140Y0257433D01*
X0243140Y0244835D01*
X0242354Y0293750D02*
X0239351Y0293750D01*
X0240853Y0293750D02*
X0240853Y0298254D01*
X0242354Y0296753D01*
X0269250Y0140149D02*
X0269250Y0137146D01*
X0269250Y0138647D02*
X0273754Y0138647D01*
X0272253Y0137146D01*
X0255754Y0079149D02*
X0255003Y0079149D01*
X0252001Y0076146D01*
X0251250Y0076146D01*
X0255754Y0076146D02*
X0255754Y0079149D01*
X0243303Y0040005D02*
X0240251Y0040005D01*
X0239233Y0038988D01*
X0239233Y0037970D01*
X0240251Y0036953D01*
X0243303Y0036953D01*
X0243303Y0040005D02*
X0243303Y0033900D01*
X0240251Y0033900D01*
X0239233Y0034918D01*
X0239233Y0035935D01*
X0240251Y0036953D01*
X0237226Y0037970D02*
X0237226Y0033900D01*
X0237226Y0035935D02*
X0235191Y0037970D01*
X0234173Y0037970D01*
X0232162Y0036953D02*
X0232162Y0034918D01*
X0231144Y0033900D01*
X0229109Y0033900D01*
X0228092Y0034918D01*
X0228092Y0036953D01*
X0229109Y0037970D01*
X0231144Y0037970D01*
X0232162Y0036953D01*
X0226085Y0036953D02*
X0226085Y0034918D01*
X0225067Y0033900D01*
X0222014Y0033900D01*
X0222014Y0040005D01*
X0222014Y0037970D02*
X0225067Y0037970D01*
X0226085Y0036953D01*
X0220007Y0036953D02*
X0220007Y0034918D01*
X0218990Y0033900D01*
X0216955Y0033900D01*
X0215937Y0035935D02*
X0220007Y0035935D01*
X0220007Y0036953D02*
X0218990Y0037970D01*
X0216955Y0037970D01*
X0215937Y0036953D01*
X0215937Y0035935D01*
X0213930Y0035935D02*
X0211895Y0037970D01*
X0210878Y0037970D01*
X0208866Y0037970D02*
X0207848Y0037970D01*
X0207848Y0033900D01*
X0206831Y0033900D02*
X0208866Y0033900D01*
X0204814Y0034918D02*
X0204814Y0036953D01*
X0203797Y0037970D01*
X0200744Y0037970D01*
X0198737Y0035935D02*
X0195685Y0033900D01*
X0198737Y0033900D02*
X0198737Y0040005D01*
X0195685Y0037970D02*
X0198737Y0035935D01*
X0200744Y0033900D02*
X0203797Y0033900D01*
X0204814Y0034918D01*
X0200256Y0030105D02*
X0200256Y0024000D01*
X0200256Y0027053D02*
X0196186Y0027053D01*
X0194179Y0027053D02*
X0194179Y0025018D01*
X0193162Y0024000D01*
X0191127Y0024000D01*
X0190109Y0025018D01*
X0190109Y0027053D01*
X0191127Y0028070D01*
X0193162Y0028070D01*
X0194179Y0027053D01*
X0196186Y0030105D02*
X0196186Y0024000D01*
X0188102Y0024000D02*
X0186067Y0024000D01*
X0187085Y0024000D02*
X0187085Y0030105D01*
X0188102Y0030105D01*
X0186578Y0033900D02*
X0184543Y0033900D01*
X0183526Y0034918D01*
X0181518Y0034918D02*
X0180501Y0035935D01*
X0177448Y0035935D01*
X0177448Y0036953D02*
X0177448Y0033900D01*
X0180501Y0033900D01*
X0181518Y0034918D01*
X0180501Y0037970D02*
X0178466Y0037970D01*
X0177448Y0036953D01*
X0175441Y0037970D02*
X0175441Y0033900D01*
X0175441Y0035935D02*
X0173406Y0037970D01*
X0172389Y0037970D01*
X0170377Y0040005D02*
X0169359Y0040005D01*
X0169359Y0033900D01*
X0168342Y0033900D02*
X0170377Y0033900D01*
X0166326Y0033900D02*
X0164290Y0033900D01*
X0165308Y0033900D02*
X0165308Y0037970D01*
X0166326Y0037970D01*
X0165308Y0040005D02*
X0165308Y0041023D01*
X0162274Y0037970D02*
X0159221Y0037970D01*
X0158204Y0036953D01*
X0158204Y0033900D01*
X0162274Y0033900D02*
X0162274Y0037970D01*
X0167826Y0028070D02*
X0170879Y0028070D01*
X0171896Y0027053D01*
X0170879Y0026035D01*
X0168844Y0026035D01*
X0167826Y0025018D01*
X0168844Y0024000D01*
X0171896Y0024000D01*
X0173903Y0026035D02*
X0177973Y0026035D01*
X0177973Y0025018D02*
X0177973Y0027053D01*
X0176956Y0028070D01*
X0174921Y0028070D01*
X0173903Y0027053D01*
X0173903Y0026035D01*
X0174921Y0024000D02*
X0176956Y0024000D01*
X0177973Y0025018D01*
X0179980Y0024000D02*
X0179980Y0027053D01*
X0180998Y0028070D01*
X0182016Y0027053D01*
X0182016Y0024000D01*
X0184051Y0024000D02*
X0184051Y0028070D01*
X0183033Y0028070D01*
X0182016Y0027053D01*
X0186578Y0033900D02*
X0187596Y0034918D01*
X0187596Y0038988D01*
X0186578Y0040005D01*
X0184543Y0040005D01*
X0183526Y0038988D01*
X0207848Y0040005D02*
X0207848Y0041023D01*
X0213930Y0037970D02*
X0213930Y0033900D01*
X0220509Y0030105D02*
X0220509Y0024000D01*
X0219492Y0024000D02*
X0221527Y0024000D01*
X0223534Y0024000D02*
X0226586Y0024000D01*
X0227604Y0025018D01*
X0227604Y0028070D01*
X0229611Y0030105D02*
X0233681Y0030105D01*
X0231646Y0030105D02*
X0231646Y0024000D01*
X0225569Y0021965D02*
X0224551Y0021965D01*
X0223534Y0022982D01*
X0223534Y0028070D01*
X0221527Y0030105D02*
X0220509Y0030105D01*
X0217475Y0027053D02*
X0216458Y0028070D01*
X0214423Y0028070D01*
X0213405Y0027053D01*
X0213405Y0026035D01*
X0217475Y0026035D01*
X0217475Y0025018D02*
X0217475Y0027053D01*
X0217475Y0025018D02*
X0216458Y0024000D01*
X0214423Y0024000D01*
X0211398Y0024000D02*
X0211398Y0028070D01*
X0211398Y0026035D02*
X0209363Y0028070D01*
X0208345Y0028070D01*
D15*
X0243335Y0070700D02*
X0245637Y0073002D01*
X0246404Y0072235D02*
X0243335Y0075304D01*
X0246404Y0075304D02*
X0246404Y0070700D01*
X0247939Y0074537D02*
X0251008Y0071467D01*
X0251008Y0070700D01*
X0252543Y0070700D02*
X0253310Y0070700D01*
X0253310Y0071467D01*
X0252543Y0071467D01*
X0252543Y0070700D01*
X0255612Y0070700D02*
X0255612Y0075304D01*
X0257914Y0073002D01*
X0254844Y0073002D01*
X0251008Y0075304D02*
X0247939Y0075304D01*
X0247939Y0074537D01*
X0105800Y0170502D02*
X0102731Y0170502D01*
X0104265Y0172037D02*
X0104265Y0168967D01*
X0076800Y0170502D02*
X0073731Y0170502D01*
X0071304Y0187824D02*
X0066100Y0187824D01*
X0066100Y0191294D02*
X0071304Y0191294D01*
X0069570Y0189559D01*
X0071304Y0187824D01*
X0068702Y0192980D02*
X0066967Y0192980D01*
X0066100Y0193848D01*
X0066100Y0195583D01*
X0066967Y0196450D01*
X0068702Y0196450D01*
X0069570Y0195583D01*
X0069570Y0193848D01*
X0068702Y0192980D01*
X0069570Y0198137D02*
X0066967Y0198137D01*
X0066100Y0199004D01*
X0066100Y0201606D01*
X0069570Y0201606D01*
X0069570Y0203293D02*
X0069570Y0205895D01*
X0068702Y0206763D01*
X0066100Y0206763D01*
X0063772Y0208028D02*
X0062904Y0208028D01*
X0061170Y0208028D02*
X0057700Y0208028D01*
X0057700Y0208895D02*
X0057700Y0207160D01*
X0057700Y0205474D02*
X0060302Y0205474D01*
X0061170Y0204606D01*
X0061170Y0202871D01*
X0060302Y0202004D01*
X0061170Y0200301D02*
X0061170Y0198566D01*
X0062037Y0199434D02*
X0058567Y0199434D01*
X0057700Y0200301D01*
X0057700Y0202004D02*
X0062904Y0202004D01*
X0066100Y0203293D02*
X0069570Y0203293D01*
X0069570Y0208450D02*
X0069570Y0210184D01*
X0070437Y0209317D02*
X0066967Y0209317D01*
X0066100Y0210184D01*
X0061170Y0210598D02*
X0057700Y0210598D01*
X0061170Y0210598D02*
X0061170Y0213200D01*
X0060302Y0214068D01*
X0057700Y0214068D01*
X0058567Y0215754D02*
X0057700Y0216622D01*
X0057700Y0219224D01*
X0056833Y0219224D02*
X0061170Y0219224D01*
X0061170Y0216622D01*
X0060302Y0215754D01*
X0058567Y0215754D01*
X0055965Y0217489D02*
X0055965Y0218357D01*
X0056833Y0219224D01*
X0066100Y0220513D02*
X0066100Y0217911D01*
X0066967Y0217044D01*
X0067835Y0217911D01*
X0067835Y0220513D01*
X0068702Y0220513D02*
X0066100Y0220513D01*
X0068702Y0220513D02*
X0069570Y0219646D01*
X0069570Y0217911D01*
X0062904Y0226067D02*
X0057700Y0226067D01*
X0060302Y0226067D02*
X0061170Y0226935D01*
X0061170Y0228669D01*
X0060302Y0229537D01*
X0057700Y0229537D01*
X0058567Y0231224D02*
X0060302Y0231224D01*
X0061170Y0232091D01*
X0061170Y0233826D01*
X0060302Y0234693D01*
X0059435Y0234693D01*
X0059435Y0231224D01*
X0058567Y0231224D02*
X0057700Y0232091D01*
X0057700Y0233826D01*
X0057700Y0236380D02*
X0061170Y0236380D01*
X0061170Y0238115D02*
X0061170Y0238982D01*
X0061170Y0238115D02*
X0059435Y0236380D01*
X0059435Y0240677D02*
X0059435Y0244147D01*
X0060302Y0244147D01*
X0061170Y0243279D01*
X0061170Y0241544D01*
X0060302Y0240677D01*
X0058567Y0240677D01*
X0057700Y0241544D01*
X0057700Y0243279D01*
X0066100Y0244576D02*
X0068702Y0244576D01*
X0069570Y0243709D01*
X0069570Y0241107D01*
X0066100Y0241107D01*
X0066100Y0239404D02*
X0066100Y0237669D01*
X0066100Y0238537D02*
X0069570Y0238537D01*
X0069570Y0237669D01*
X0068702Y0235982D02*
X0066967Y0235982D01*
X0066100Y0235115D01*
X0066100Y0232513D01*
X0064365Y0232513D02*
X0069570Y0232513D01*
X0069570Y0235115D01*
X0068702Y0235982D01*
X0071304Y0238537D02*
X0072172Y0238537D01*
X0069570Y0230826D02*
X0069570Y0228224D01*
X0068702Y0227356D01*
X0067835Y0228224D01*
X0067835Y0229959D01*
X0066967Y0230826D01*
X0066100Y0229959D01*
X0066100Y0227356D01*
X0066100Y0246263D02*
X0069570Y0246263D01*
X0069570Y0248865D01*
X0068702Y0249733D01*
X0066100Y0249733D01*
X0066967Y0251420D02*
X0066100Y0252287D01*
X0066100Y0254889D01*
X0065233Y0254889D02*
X0064365Y0254022D01*
X0064365Y0253154D01*
X0065233Y0254889D02*
X0069570Y0254889D01*
X0069570Y0251420D02*
X0066967Y0251420D01*
X0099489Y0238932D02*
X0102558Y0238932D01*
X0101024Y0238932D02*
X0101024Y0243536D01*
X0102558Y0242002D01*
X0104093Y0243536D02*
X0104093Y0238932D01*
X0104093Y0236646D02*
X0104093Y0232043D01*
X0102558Y0232043D02*
X0099489Y0235112D01*
X0099489Y0235879D01*
X0100256Y0236646D01*
X0101791Y0236646D01*
X0102558Y0235879D01*
X0104093Y0236646D02*
X0105628Y0235112D01*
X0107162Y0236646D01*
X0107162Y0232043D01*
X0107162Y0228772D02*
X0107162Y0225703D01*
X0105628Y0224169D01*
X0104093Y0225703D01*
X0104093Y0228772D01*
X0102558Y0228005D02*
X0102558Y0224936D01*
X0101791Y0224169D01*
X0100256Y0224169D01*
X0099489Y0224936D01*
X0097954Y0224936D02*
X0097187Y0224169D01*
X0095652Y0224169D01*
X0094885Y0224936D01*
X0094885Y0228005D02*
X0095652Y0228772D01*
X0097187Y0228772D01*
X0097954Y0228005D01*
X0097954Y0224936D01*
X0099489Y0228005D02*
X0100256Y0228772D01*
X0101791Y0228772D01*
X0102558Y0228005D01*
X0102558Y0232043D02*
X0099489Y0232043D01*
X0107162Y0238932D02*
X0107162Y0243536D01*
X0105628Y0242002D01*
X0104093Y0243536D01*
X0105310Y0220820D02*
X0103776Y0219285D01*
X0103776Y0216216D01*
X0103776Y0218518D02*
X0106845Y0218518D01*
X0106845Y0219285D02*
X0105310Y0220820D01*
X0106845Y0219285D02*
X0106845Y0216216D01*
X0106845Y0212946D02*
X0104543Y0212946D01*
X0103776Y0212178D01*
X0103776Y0211411D01*
X0104543Y0210644D01*
X0106845Y0210644D01*
X0106845Y0208342D02*
X0106845Y0212946D01*
X0104543Y0210644D02*
X0103776Y0209876D01*
X0103776Y0209109D01*
X0104543Y0208342D01*
X0106845Y0208342D01*
X0106407Y0204304D02*
X0104873Y0204304D01*
X0104106Y0203537D01*
X0104106Y0202002D02*
X0105640Y0202002D01*
X0104106Y0202002D02*
X0104106Y0200467D01*
X0104873Y0199700D01*
X0106407Y0199700D01*
X0107175Y0200467D01*
X0107175Y0203537D01*
X0106407Y0204304D01*
X0102571Y0204304D02*
X0099502Y0199700D01*
X0099502Y0204304D01*
X0097967Y0204304D02*
X0095665Y0204304D01*
X0094898Y0203537D01*
X0094898Y0200467D01*
X0095665Y0199700D01*
X0097967Y0199700D01*
X0097967Y0204304D01*
X0098525Y0207404D02*
X0095455Y0207404D01*
X0094688Y0208171D01*
X0094688Y0209706D01*
X0095455Y0210473D01*
X0098525Y0210473D01*
X0099292Y0209706D01*
X0099292Y0208171D01*
X0098525Y0207404D01*
X0099292Y0212008D02*
X0095455Y0212008D01*
X0094688Y0212775D01*
X0094688Y0214310D01*
X0095455Y0215077D01*
X0099292Y0215077D01*
X0099292Y0216612D02*
X0099292Y0219681D01*
X0099292Y0218146D02*
X0094688Y0218146D01*
X0102571Y0204304D02*
X0102571Y0199700D01*
X0061170Y0207160D02*
X0061170Y0208028D01*
X0175494Y0260135D02*
X0178964Y0260135D01*
X0178964Y0261002D02*
X0178096Y0261870D01*
X0176361Y0261870D01*
X0175494Y0261002D01*
X0175494Y0260135D01*
X0176361Y0258400D02*
X0178096Y0258400D01*
X0178964Y0259267D01*
X0178964Y0261002D01*
X0180658Y0261870D02*
X0181526Y0261870D01*
X0183261Y0260135D01*
X0184947Y0260135D02*
X0188417Y0260135D01*
X0188417Y0261002D02*
X0187550Y0261870D01*
X0185815Y0261870D01*
X0184947Y0261002D01*
X0184947Y0260135D01*
X0185815Y0258400D02*
X0187550Y0258400D01*
X0188417Y0259267D01*
X0188417Y0261002D01*
X0190104Y0261002D02*
X0193573Y0261002D01*
X0193573Y0258400D02*
X0193573Y0263604D01*
X0190104Y0263604D02*
X0190104Y0258400D01*
X0183261Y0258400D02*
X0183261Y0261870D01*
X0200433Y0261870D02*
X0202167Y0261870D01*
X0201300Y0262737D02*
X0201300Y0259267D01*
X0200433Y0258400D01*
X0203854Y0258400D02*
X0203854Y0261002D01*
X0204722Y0261870D01*
X0207324Y0261870D01*
X0207324Y0258400D01*
X0209011Y0258400D02*
X0209011Y0261870D01*
X0212480Y0261870D02*
X0212480Y0259267D01*
X0211613Y0258400D01*
X0209011Y0258400D01*
X0214167Y0259267D02*
X0214167Y0261002D01*
X0215034Y0261870D01*
X0216769Y0261870D01*
X0217637Y0261002D01*
X0217637Y0259267D01*
X0216769Y0258400D01*
X0215034Y0258400D01*
X0214167Y0259267D01*
X0219323Y0258400D02*
X0219323Y0263604D01*
X0221058Y0261870D01*
X0222793Y0263604D01*
X0222793Y0258400D01*
X0221720Y0244304D02*
X0222487Y0243537D01*
X0222487Y0240467D01*
X0221720Y0239700D01*
X0220185Y0239700D01*
X0219418Y0240467D01*
X0219418Y0242002D01*
X0220952Y0242002D01*
X0219418Y0243537D02*
X0220185Y0244304D01*
X0221720Y0244304D01*
X0217883Y0244304D02*
X0214814Y0239700D01*
X0214814Y0244304D01*
X0213279Y0244304D02*
X0210977Y0244304D01*
X0210210Y0243537D01*
X0210210Y0240467D01*
X0210977Y0239700D01*
X0213279Y0239700D01*
X0213279Y0244304D01*
X0217883Y0244304D02*
X0217883Y0239700D01*
X0221566Y0235461D02*
X0221566Y0232392D01*
X0221566Y0230857D02*
X0217729Y0230857D01*
X0216962Y0230090D01*
X0216962Y0228555D01*
X0217729Y0227788D01*
X0221566Y0227788D01*
X0220798Y0226254D02*
X0221566Y0225486D01*
X0221566Y0223952D01*
X0220798Y0223184D01*
X0217729Y0223184D01*
X0216962Y0223952D01*
X0216962Y0225486D01*
X0217729Y0226254D01*
X0220798Y0226254D01*
X0213609Y0226254D02*
X0213609Y0223184D01*
X0213609Y0225486D02*
X0210540Y0225486D01*
X0210540Y0226254D02*
X0210540Y0223184D01*
X0210540Y0226254D02*
X0212074Y0227788D01*
X0213609Y0226254D01*
X0213609Y0231058D02*
X0211307Y0231058D01*
X0210540Y0231826D01*
X0210540Y0232593D01*
X0211307Y0233360D01*
X0213609Y0233360D01*
X0213609Y0231058D02*
X0213609Y0235662D01*
X0211307Y0235662D01*
X0210540Y0234895D01*
X0210540Y0234128D01*
X0211307Y0233360D01*
X0216962Y0233927D02*
X0221566Y0233927D01*
X0222500Y0219835D02*
X0222500Y0216766D01*
X0220965Y0215231D01*
X0219430Y0216766D01*
X0219430Y0219835D01*
X0217896Y0219068D02*
X0217896Y0215999D01*
X0217128Y0215231D01*
X0215594Y0215231D01*
X0214826Y0215999D01*
X0213292Y0215999D02*
X0212524Y0215231D01*
X0210990Y0215231D01*
X0210222Y0215999D01*
X0210222Y0219068D02*
X0210990Y0219835D01*
X0212524Y0219835D01*
X0213292Y0219068D01*
X0213292Y0215999D01*
X0214826Y0219068D02*
X0215594Y0219835D01*
X0217128Y0219835D01*
X0217896Y0219068D01*
X0217896Y0211961D02*
X0216361Y0210427D01*
X0214826Y0211961D01*
X0214826Y0207357D01*
X0213292Y0207357D02*
X0210222Y0210427D01*
X0210222Y0211194D01*
X0210990Y0211961D01*
X0212524Y0211961D01*
X0213292Y0211194D01*
X0213292Y0207357D02*
X0210222Y0207357D01*
X0211757Y0205072D02*
X0211757Y0200468D01*
X0213292Y0200468D02*
X0210222Y0200468D01*
X0213292Y0203537D02*
X0211757Y0205072D01*
X0214826Y0205072D02*
X0214826Y0200468D01*
X0217896Y0200468D02*
X0217896Y0205072D01*
X0216361Y0203537D01*
X0214826Y0205072D01*
X0217896Y0207357D02*
X0217896Y0211961D01*
X0247433Y0219096D02*
X0253571Y0219096D01*
X0252804Y0218329D02*
X0252804Y0219863D01*
X0252037Y0220631D01*
X0252804Y0222165D02*
X0250502Y0222165D01*
X0251269Y0223700D01*
X0251269Y0224467D01*
X0250502Y0225235D01*
X0248967Y0225235D01*
X0248200Y0224467D01*
X0248200Y0222933D01*
X0248967Y0222165D01*
X0248967Y0220631D02*
X0249735Y0220631D01*
X0250502Y0219863D01*
X0250502Y0218329D01*
X0251269Y0217561D01*
X0252037Y0217561D01*
X0252804Y0218329D01*
X0253571Y0216027D02*
X0252037Y0216027D01*
X0251269Y0215259D01*
X0252037Y0214492D02*
X0251269Y0213725D01*
X0252037Y0214492D02*
X0253571Y0214492D01*
X0248967Y0217561D02*
X0248200Y0218329D01*
X0248200Y0219863D01*
X0248967Y0220631D01*
X0252804Y0222165D02*
X0252804Y0225235D01*
X0252037Y0226769D02*
X0248967Y0226769D01*
X0252037Y0229839D01*
X0248967Y0229839D01*
X0248200Y0229071D01*
X0248200Y0227537D01*
X0248967Y0226769D01*
X0252037Y0226769D02*
X0252804Y0227537D01*
X0252804Y0229071D01*
X0252037Y0229839D01*
X0251269Y0231373D02*
X0252037Y0232140D01*
X0253571Y0232140D01*
X0253571Y0233675D02*
X0252037Y0233675D01*
X0251269Y0232908D01*
X0251269Y0239814D02*
X0251269Y0242116D01*
X0250502Y0242883D01*
X0248967Y0242883D01*
X0248200Y0242116D01*
X0248200Y0239814D01*
X0252804Y0239814D01*
X0250502Y0244418D02*
X0248967Y0244418D01*
X0248200Y0245185D01*
X0248200Y0246720D01*
X0248967Y0247487D01*
X0250502Y0247487D01*
X0251269Y0246720D01*
X0251269Y0245185D01*
X0250502Y0244418D01*
X0251269Y0249022D02*
X0251269Y0250556D01*
X0252037Y0249789D02*
X0248967Y0249789D01*
X0248200Y0250556D01*
X0210316Y0280665D02*
X0209448Y0280665D01*
X0208581Y0281533D01*
X0208581Y0285870D01*
X0206894Y0285002D02*
X0206027Y0285870D01*
X0204292Y0285870D01*
X0203424Y0285002D01*
X0203424Y0284135D01*
X0206894Y0284135D01*
X0206894Y0285002D02*
X0206894Y0283267D01*
X0206027Y0282400D01*
X0204292Y0282400D01*
X0201738Y0282400D02*
X0199135Y0282400D01*
X0198268Y0283267D01*
X0198268Y0285002D01*
X0199135Y0285870D01*
X0201738Y0285870D01*
X0201738Y0287604D02*
X0201738Y0282400D01*
X0196581Y0283267D02*
X0195714Y0284135D01*
X0193112Y0284135D01*
X0193112Y0285002D02*
X0193112Y0282400D01*
X0195714Y0282400D01*
X0196581Y0283267D01*
X0195714Y0285870D02*
X0193979Y0285870D01*
X0193112Y0285002D01*
X0191425Y0282400D02*
X0189690Y0282400D01*
X0190557Y0282400D02*
X0190557Y0287604D01*
X0191425Y0287604D01*
X0187987Y0287604D02*
X0187120Y0287604D01*
X0187120Y0282400D01*
X0187987Y0282400D02*
X0186252Y0282400D01*
X0184550Y0282400D02*
X0181947Y0282400D01*
X0181080Y0283267D01*
X0181947Y0284135D01*
X0183682Y0284135D01*
X0184550Y0285002D01*
X0183682Y0285870D01*
X0181080Y0285870D01*
X0208581Y0282400D02*
X0211183Y0282400D01*
X0212050Y0283267D01*
X0212050Y0285870D01*
X0213737Y0287604D02*
X0217207Y0287604D01*
X0217207Y0282400D01*
X0213737Y0282400D01*
X0215472Y0285002D02*
X0217207Y0285002D01*
X0249735Y0207586D02*
X0249735Y0204517D01*
X0250502Y0204517D02*
X0248967Y0204517D01*
X0248200Y0205284D01*
X0248200Y0206819D01*
X0249735Y0207586D02*
X0250502Y0207586D01*
X0251269Y0206819D01*
X0251269Y0205284D01*
X0250502Y0204517D01*
X0250502Y0202982D02*
X0248200Y0202982D01*
X0250502Y0202982D02*
X0251269Y0202215D01*
X0251269Y0200680D01*
X0250502Y0199913D01*
X0252804Y0199913D02*
X0248200Y0199913D01*
X0248200Y0196844D02*
X0252804Y0196844D01*
X0252804Y0198378D02*
X0252804Y0195309D01*
D16*
X0044701Y0293189D02*
X0044551Y0293189D01*
X0044250Y0293489D01*
X0043800Y0293489D01*
X0044250Y0293489D02*
X0044551Y0293789D01*
X0044701Y0293789D01*
X0044250Y0294109D02*
X0043950Y0294109D01*
X0043800Y0294260D01*
X0043800Y0294560D01*
X0043950Y0294710D01*
X0044250Y0294710D01*
X0044401Y0294560D01*
X0044401Y0294260D01*
X0044250Y0294109D01*
X0044401Y0295030D02*
X0043950Y0295030D01*
X0043800Y0295180D01*
X0043800Y0295631D01*
X0044401Y0295631D01*
X0044250Y0296872D02*
X0044401Y0297022D01*
X0044401Y0297322D01*
X0044250Y0297472D01*
X0043800Y0297472D01*
X0043950Y0297793D02*
X0044100Y0297943D01*
X0044100Y0298393D01*
X0044250Y0298393D02*
X0043800Y0298393D01*
X0043800Y0297943D01*
X0043950Y0297793D01*
X0044401Y0297943D02*
X0044401Y0298243D01*
X0044250Y0298393D01*
X0044401Y0298713D02*
X0043800Y0299014D01*
X0044401Y0299314D01*
X0044250Y0299634D02*
X0044401Y0299784D01*
X0044401Y0300085D01*
X0044250Y0300235D01*
X0044100Y0300235D01*
X0044100Y0299634D01*
X0043950Y0299634D02*
X0044250Y0299634D01*
X0043950Y0299634D02*
X0043800Y0299784D01*
X0043800Y0300085D01*
X0043800Y0301476D02*
X0044401Y0302076D01*
X0044551Y0302076D01*
X0044701Y0301926D01*
X0044701Y0301626D01*
X0044551Y0301476D01*
X0043800Y0301476D02*
X0043800Y0302076D01*
X0043950Y0302396D02*
X0044551Y0302997D01*
X0043950Y0302997D01*
X0043800Y0302847D01*
X0043800Y0302547D01*
X0043950Y0302396D01*
X0044551Y0302396D01*
X0044701Y0302547D01*
X0044701Y0302847D01*
X0044551Y0302997D01*
X0045300Y0302780D02*
X0045901Y0302780D01*
X0045901Y0303080D02*
X0045901Y0303231D01*
X0045901Y0303080D02*
X0045600Y0302780D01*
X0045300Y0302460D02*
X0045300Y0302010D01*
X0045450Y0301859D01*
X0045750Y0301859D01*
X0045901Y0302010D01*
X0045901Y0302460D01*
X0045150Y0302460D01*
X0045000Y0302310D01*
X0045000Y0302160D01*
X0045300Y0301539D02*
X0045750Y0301539D01*
X0045901Y0301389D01*
X0045901Y0300939D01*
X0045300Y0300939D01*
X0045450Y0300618D02*
X0045750Y0300618D01*
X0045901Y0300468D01*
X0045901Y0300168D01*
X0045750Y0300018D01*
X0045450Y0300018D01*
X0045300Y0300168D01*
X0045300Y0300468D01*
X0045450Y0300618D01*
X0045450Y0299698D02*
X0045300Y0299547D01*
X0045300Y0299247D01*
X0045450Y0299097D01*
X0046051Y0299097D01*
X0046201Y0299247D01*
X0046201Y0299547D01*
X0046051Y0299698D01*
X0044701Y0296872D02*
X0043800Y0296872D01*
X0043800Y0303317D02*
X0044701Y0303918D01*
X0044551Y0304238D02*
X0044701Y0304388D01*
X0044701Y0304688D01*
X0044551Y0304839D01*
X0044401Y0304839D01*
X0043800Y0304238D01*
X0043800Y0304839D01*
X0043950Y0305159D02*
X0044551Y0305759D01*
X0043950Y0305759D01*
X0043800Y0305609D01*
X0043800Y0305309D01*
X0043950Y0305159D01*
X0044551Y0305159D01*
X0044701Y0305309D01*
X0044701Y0305609D01*
X0044551Y0305759D01*
X0045300Y0305532D02*
X0045450Y0305683D01*
X0045600Y0305532D01*
X0045600Y0305232D01*
X0045750Y0305082D01*
X0045901Y0305232D01*
X0045901Y0305683D01*
X0045300Y0305532D02*
X0045300Y0305082D01*
X0045300Y0304769D02*
X0045450Y0304618D01*
X0046051Y0304618D01*
X0045901Y0304468D02*
X0045901Y0304769D01*
X0045750Y0304148D02*
X0045300Y0304148D01*
X0045300Y0303698D01*
X0045450Y0303547D01*
X0045600Y0303698D01*
X0045600Y0304148D01*
X0045750Y0304148D02*
X0045901Y0303998D01*
X0045901Y0303698D01*
X0044401Y0307000D02*
X0043800Y0307301D01*
X0044401Y0307601D01*
X0044401Y0307921D02*
X0044401Y0308071D01*
X0043800Y0308071D01*
X0043800Y0307921D02*
X0043800Y0308221D01*
X0043800Y0308535D02*
X0043800Y0308985D01*
X0043950Y0309136D01*
X0044100Y0308985D01*
X0044100Y0308685D01*
X0044250Y0308535D01*
X0044401Y0308685D01*
X0044401Y0309136D01*
X0044401Y0309456D02*
X0044401Y0309606D01*
X0043800Y0309606D01*
X0043800Y0309456D02*
X0043800Y0309756D01*
X0043950Y0310070D02*
X0043800Y0310220D01*
X0043800Y0310520D01*
X0043950Y0310670D01*
X0044250Y0310670D01*
X0044401Y0310520D01*
X0044401Y0310220D01*
X0044250Y0310070D01*
X0043950Y0310070D01*
X0044701Y0309606D02*
X0044851Y0309606D01*
X0044401Y0310990D02*
X0044401Y0311441D01*
X0044250Y0311591D01*
X0043800Y0311591D01*
X0043800Y0310990D02*
X0044401Y0310990D01*
X0044701Y0308071D02*
X0044851Y0308071D01*
D17*
X0148925Y0310498D02*
X0148925Y0298220D01*
X0161202Y0310498D01*
X0164271Y0310498D01*
X0167341Y0307428D01*
X0167341Y0301290D01*
X0164271Y0298220D01*
X0158133Y0292082D02*
X0158133Y0279805D01*
X0167341Y0289013D01*
X0148925Y0289013D01*
X0161202Y0255250D02*
X0161202Y0252181D01*
X0155064Y0246042D01*
X0161202Y0246042D02*
X0148925Y0246042D01*
X0155064Y0239904D02*
X0155064Y0227627D01*
X0158133Y0227627D02*
X0151994Y0227627D01*
X0148925Y0230696D01*
X0148925Y0236835D01*
X0155064Y0239904D02*
X0158133Y0239904D01*
X0161202Y0236835D01*
X0161202Y0230696D01*
X0158133Y0227627D01*
X0161202Y0221488D02*
X0161202Y0212280D01*
X0158133Y0209211D01*
X0151994Y0209211D01*
X0148925Y0212280D01*
X0148925Y0221488D01*
X0167341Y0221488D01*
X0167341Y0203072D02*
X0148925Y0203072D01*
X0148925Y0193865D01*
X0151994Y0190795D01*
X0158133Y0190795D01*
X0161202Y0193865D01*
X0161202Y0203072D01*
X0158133Y0184657D02*
X0148925Y0184657D01*
X0148925Y0175449D01*
X0151994Y0172380D01*
X0155064Y0175449D01*
X0155064Y0184657D01*
X0158133Y0184657D02*
X0161202Y0181587D01*
X0161202Y0175449D01*
X0148925Y0166241D02*
X0148925Y0153964D01*
X0167341Y0153964D01*
D18*
X0257500Y0141500D02*
X0257500Y0136500D01*
X0260000Y0134000D01*
X0257500Y0131500D01*
X0257500Y0126500D01*
X0260000Y0124000D01*
X0257500Y0121500D01*
X0257500Y0116500D01*
X0260000Y0114000D01*
X0257500Y0111500D01*
X0257500Y0106500D01*
X0260000Y0104000D01*
X0257500Y0101500D01*
X0257500Y0096500D01*
X0260000Y0094000D01*
X0257500Y0091500D01*
X0257500Y0086500D01*
X0260000Y0084000D01*
X0257500Y0081500D01*
X0257500Y0076500D01*
X0260000Y0074000D01*
X0265000Y0074000D01*
X0267500Y0076500D01*
X0267500Y0081500D01*
X0265000Y0084000D01*
X0267500Y0086500D01*
X0267500Y0091500D01*
X0265000Y0094000D01*
X0267500Y0096500D01*
X0267500Y0101500D01*
X0265000Y0104000D01*
X0267500Y0106500D01*
X0267500Y0111500D01*
X0265000Y0114000D01*
X0267500Y0116500D01*
X0267500Y0121500D01*
X0265000Y0124000D01*
X0267500Y0126500D01*
X0267500Y0131500D01*
X0265000Y0134000D01*
X0267500Y0136500D01*
X0267500Y0141500D01*
X0265000Y0144000D01*
X0260000Y0144000D01*
X0257500Y0141500D01*
X0254500Y0048500D02*
X0260500Y0048500D01*
X0260500Y0047500D01*
X0261500Y0047500D01*
X0269500Y0044000D02*
X0269500Y0040500D01*
X0269500Y0031000D01*
X0269500Y0027000D01*
X0261500Y0023500D02*
X0260500Y0023500D01*
X0260500Y0022500D01*
X0254500Y0022500D01*
X0254500Y0023500D01*
X0253500Y0023500D01*
X0245500Y0027000D02*
X0245500Y0030500D01*
X0245500Y0040500D01*
X0245500Y0044000D01*
X0253500Y0047500D02*
X0254500Y0047500D01*
X0254500Y0048500D01*
X0256500Y0035500D02*
X0256502Y0035563D01*
X0256508Y0035625D01*
X0256518Y0035687D01*
X0256531Y0035749D01*
X0256549Y0035809D01*
X0256570Y0035868D01*
X0256595Y0035926D01*
X0256624Y0035982D01*
X0256656Y0036036D01*
X0256691Y0036088D01*
X0256729Y0036137D01*
X0256771Y0036185D01*
X0256815Y0036229D01*
X0256863Y0036271D01*
X0256912Y0036309D01*
X0256964Y0036344D01*
X0257018Y0036376D01*
X0257074Y0036405D01*
X0257132Y0036430D01*
X0257191Y0036451D01*
X0257251Y0036469D01*
X0257313Y0036482D01*
X0257375Y0036492D01*
X0257437Y0036498D01*
X0257500Y0036500D01*
X0257563Y0036498D01*
X0257625Y0036492D01*
X0257687Y0036482D01*
X0257749Y0036469D01*
X0257809Y0036451D01*
X0257868Y0036430D01*
X0257926Y0036405D01*
X0257982Y0036376D01*
X0258036Y0036344D01*
X0258088Y0036309D01*
X0258137Y0036271D01*
X0258185Y0036229D01*
X0258229Y0036185D01*
X0258271Y0036137D01*
X0258309Y0036088D01*
X0258344Y0036036D01*
X0258376Y0035982D01*
X0258405Y0035926D01*
X0258430Y0035868D01*
X0258451Y0035809D01*
X0258469Y0035749D01*
X0258482Y0035687D01*
X0258492Y0035625D01*
X0258498Y0035563D01*
X0258500Y0035500D01*
X0258498Y0035437D01*
X0258492Y0035375D01*
X0258482Y0035313D01*
X0258469Y0035251D01*
X0258451Y0035191D01*
X0258430Y0035132D01*
X0258405Y0035074D01*
X0258376Y0035018D01*
X0258344Y0034964D01*
X0258309Y0034912D01*
X0258271Y0034863D01*
X0258229Y0034815D01*
X0258185Y0034771D01*
X0258137Y0034729D01*
X0258088Y0034691D01*
X0258036Y0034656D01*
X0257982Y0034624D01*
X0257926Y0034595D01*
X0257868Y0034570D01*
X0257809Y0034549D01*
X0257749Y0034531D01*
X0257687Y0034518D01*
X0257625Y0034508D01*
X0257563Y0034502D01*
X0257500Y0034500D01*
X0257437Y0034502D01*
X0257375Y0034508D01*
X0257313Y0034518D01*
X0257251Y0034531D01*
X0257191Y0034549D01*
X0257132Y0034570D01*
X0257074Y0034595D01*
X0257018Y0034624D01*
X0256964Y0034656D01*
X0256912Y0034691D01*
X0256863Y0034729D01*
X0256815Y0034771D01*
X0256771Y0034815D01*
X0256729Y0034863D01*
X0256691Y0034912D01*
X0256656Y0034964D01*
X0256624Y0035018D01*
X0256595Y0035074D01*
X0256570Y0035132D01*
X0256549Y0035191D01*
X0256531Y0035251D01*
X0256518Y0035313D01*
X0256508Y0035375D01*
X0256502Y0035437D01*
X0256500Y0035500D01*
X0250500Y0035500D02*
X0250502Y0035672D01*
X0250508Y0035843D01*
X0250519Y0036015D01*
X0250534Y0036186D01*
X0250553Y0036357D01*
X0250576Y0036527D01*
X0250603Y0036697D01*
X0250635Y0036866D01*
X0250670Y0037034D01*
X0250710Y0037201D01*
X0250754Y0037367D01*
X0250801Y0037532D01*
X0250853Y0037696D01*
X0250909Y0037858D01*
X0250969Y0038019D01*
X0251033Y0038179D01*
X0251101Y0038337D01*
X0251172Y0038493D01*
X0251247Y0038647D01*
X0251327Y0038800D01*
X0251409Y0038950D01*
X0251496Y0039099D01*
X0251586Y0039245D01*
X0251680Y0039389D01*
X0251777Y0039531D01*
X0251878Y0039670D01*
X0251982Y0039807D01*
X0252089Y0039941D01*
X0252200Y0040072D01*
X0252313Y0040201D01*
X0252430Y0040327D01*
X0252550Y0040450D01*
X0252673Y0040570D01*
X0252799Y0040687D01*
X0252928Y0040800D01*
X0253059Y0040911D01*
X0253193Y0041018D01*
X0253330Y0041122D01*
X0253469Y0041223D01*
X0253611Y0041320D01*
X0253755Y0041414D01*
X0253901Y0041504D01*
X0254050Y0041591D01*
X0254200Y0041673D01*
X0254353Y0041753D01*
X0254507Y0041828D01*
X0254663Y0041899D01*
X0254821Y0041967D01*
X0254981Y0042031D01*
X0255142Y0042091D01*
X0255304Y0042147D01*
X0255468Y0042199D01*
X0255633Y0042246D01*
X0255799Y0042290D01*
X0255966Y0042330D01*
X0256134Y0042365D01*
X0256303Y0042397D01*
X0256473Y0042424D01*
X0256643Y0042447D01*
X0256814Y0042466D01*
X0256985Y0042481D01*
X0257157Y0042492D01*
X0257328Y0042498D01*
X0257500Y0042500D01*
X0257672Y0042498D01*
X0257843Y0042492D01*
X0258015Y0042481D01*
X0258186Y0042466D01*
X0258357Y0042447D01*
X0258527Y0042424D01*
X0258697Y0042397D01*
X0258866Y0042365D01*
X0259034Y0042330D01*
X0259201Y0042290D01*
X0259367Y0042246D01*
X0259532Y0042199D01*
X0259696Y0042147D01*
X0259858Y0042091D01*
X0260019Y0042031D01*
X0260179Y0041967D01*
X0260337Y0041899D01*
X0260493Y0041828D01*
X0260647Y0041753D01*
X0260800Y0041673D01*
X0260950Y0041591D01*
X0261099Y0041504D01*
X0261245Y0041414D01*
X0261389Y0041320D01*
X0261531Y0041223D01*
X0261670Y0041122D01*
X0261807Y0041018D01*
X0261941Y0040911D01*
X0262072Y0040800D01*
X0262201Y0040687D01*
X0262327Y0040570D01*
X0262450Y0040450D01*
X0262570Y0040327D01*
X0262687Y0040201D01*
X0262800Y0040072D01*
X0262911Y0039941D01*
X0263018Y0039807D01*
X0263122Y0039670D01*
X0263223Y0039531D01*
X0263320Y0039389D01*
X0263414Y0039245D01*
X0263504Y0039099D01*
X0263591Y0038950D01*
X0263673Y0038800D01*
X0263753Y0038647D01*
X0263828Y0038493D01*
X0263899Y0038337D01*
X0263967Y0038179D01*
X0264031Y0038019D01*
X0264091Y0037858D01*
X0264147Y0037696D01*
X0264199Y0037532D01*
X0264246Y0037367D01*
X0264290Y0037201D01*
X0264330Y0037034D01*
X0264365Y0036866D01*
X0264397Y0036697D01*
X0264424Y0036527D01*
X0264447Y0036357D01*
X0264466Y0036186D01*
X0264481Y0036015D01*
X0264492Y0035843D01*
X0264498Y0035672D01*
X0264500Y0035500D01*
X0264498Y0035328D01*
X0264492Y0035157D01*
X0264481Y0034985D01*
X0264466Y0034814D01*
X0264447Y0034643D01*
X0264424Y0034473D01*
X0264397Y0034303D01*
X0264365Y0034134D01*
X0264330Y0033966D01*
X0264290Y0033799D01*
X0264246Y0033633D01*
X0264199Y0033468D01*
X0264147Y0033304D01*
X0264091Y0033142D01*
X0264031Y0032981D01*
X0263967Y0032821D01*
X0263899Y0032663D01*
X0263828Y0032507D01*
X0263753Y0032353D01*
X0263673Y0032200D01*
X0263591Y0032050D01*
X0263504Y0031901D01*
X0263414Y0031755D01*
X0263320Y0031611D01*
X0263223Y0031469D01*
X0263122Y0031330D01*
X0263018Y0031193D01*
X0262911Y0031059D01*
X0262800Y0030928D01*
X0262687Y0030799D01*
X0262570Y0030673D01*
X0262450Y0030550D01*
X0262327Y0030430D01*
X0262201Y0030313D01*
X0262072Y0030200D01*
X0261941Y0030089D01*
X0261807Y0029982D01*
X0261670Y0029878D01*
X0261531Y0029777D01*
X0261389Y0029680D01*
X0261245Y0029586D01*
X0261099Y0029496D01*
X0260950Y0029409D01*
X0260800Y0029327D01*
X0260647Y0029247D01*
X0260493Y0029172D01*
X0260337Y0029101D01*
X0260179Y0029033D01*
X0260019Y0028969D01*
X0259858Y0028909D01*
X0259696Y0028853D01*
X0259532Y0028801D01*
X0259367Y0028754D01*
X0259201Y0028710D01*
X0259034Y0028670D01*
X0258866Y0028635D01*
X0258697Y0028603D01*
X0258527Y0028576D01*
X0258357Y0028553D01*
X0258186Y0028534D01*
X0258015Y0028519D01*
X0257843Y0028508D01*
X0257672Y0028502D01*
X0257500Y0028500D01*
X0257328Y0028502D01*
X0257157Y0028508D01*
X0256985Y0028519D01*
X0256814Y0028534D01*
X0256643Y0028553D01*
X0256473Y0028576D01*
X0256303Y0028603D01*
X0256134Y0028635D01*
X0255966Y0028670D01*
X0255799Y0028710D01*
X0255633Y0028754D01*
X0255468Y0028801D01*
X0255304Y0028853D01*
X0255142Y0028909D01*
X0254981Y0028969D01*
X0254821Y0029033D01*
X0254663Y0029101D01*
X0254507Y0029172D01*
X0254353Y0029247D01*
X0254200Y0029327D01*
X0254050Y0029409D01*
X0253901Y0029496D01*
X0253755Y0029586D01*
X0253611Y0029680D01*
X0253469Y0029777D01*
X0253330Y0029878D01*
X0253193Y0029982D01*
X0253059Y0030089D01*
X0252928Y0030200D01*
X0252799Y0030313D01*
X0252673Y0030430D01*
X0252550Y0030550D01*
X0252430Y0030673D01*
X0252313Y0030799D01*
X0252200Y0030928D01*
X0252089Y0031059D01*
X0251982Y0031193D01*
X0251878Y0031330D01*
X0251777Y0031469D01*
X0251680Y0031611D01*
X0251586Y0031755D01*
X0251496Y0031901D01*
X0251409Y0032050D01*
X0251327Y0032200D01*
X0251247Y0032353D01*
X0251172Y0032507D01*
X0251101Y0032663D01*
X0251033Y0032821D01*
X0250969Y0032981D01*
X0250909Y0033142D01*
X0250853Y0033304D01*
X0250801Y0033468D01*
X0250754Y0033633D01*
X0250710Y0033799D01*
X0250670Y0033966D01*
X0250635Y0034134D01*
X0250603Y0034303D01*
X0250576Y0034473D01*
X0250553Y0034643D01*
X0250534Y0034814D01*
X0250519Y0034985D01*
X0250508Y0035157D01*
X0250502Y0035328D01*
X0250500Y0035500D01*
X0054000Y0065000D02*
X0044000Y0065000D01*
X0044000Y0074000D01*
X0045000Y0075000D01*
X0044000Y0076000D01*
X0044000Y0084000D01*
X0045000Y0085000D01*
X0044000Y0086000D01*
X0044000Y0094000D01*
X0045000Y0095000D01*
X0044000Y0096000D01*
X0044000Y0104000D01*
X0045000Y0105000D01*
X0044000Y0106000D01*
X0044000Y0114000D01*
X0045000Y0115000D01*
X0044000Y0116000D01*
X0044000Y0125000D01*
X0054000Y0125000D01*
X0054000Y0116000D01*
X0053000Y0115000D01*
X0054000Y0114000D01*
X0054000Y0106000D01*
X0053000Y0105000D01*
X0054000Y0104000D01*
X0054000Y0096000D01*
X0053000Y0095000D01*
X0054000Y0094000D01*
X0054000Y0086000D01*
X0053000Y0085000D01*
X0054000Y0084000D01*
X0054000Y0076000D01*
X0053000Y0075000D01*
X0054000Y0074000D01*
X0054000Y0065000D01*
X0055500Y0149000D02*
X0060500Y0149000D01*
X0063000Y0151500D01*
X0065500Y0149000D01*
X0070500Y0149000D01*
X0073000Y0151500D01*
X0073000Y0166500D01*
X0070500Y0169000D01*
X0065500Y0169000D01*
X0063000Y0166500D01*
X0060500Y0169000D01*
X0055500Y0169000D01*
X0053000Y0166500D01*
X0050500Y0169000D01*
X0045500Y0169000D01*
X0043000Y0166500D01*
X0043000Y0151500D01*
X0045500Y0149000D01*
X0050500Y0149000D01*
X0053000Y0151500D01*
X0055500Y0149000D01*
X0235000Y0274500D02*
X0235000Y0289500D01*
X0237500Y0292000D01*
X0242500Y0292000D01*
X0245000Y0289500D01*
X0247500Y0292000D01*
X0252500Y0292000D01*
X0255000Y0289500D01*
X0257500Y0292000D01*
X0262500Y0292000D01*
X0265000Y0289500D01*
X0267500Y0292000D01*
X0272500Y0292000D01*
X0275000Y0289500D01*
X0275000Y0274500D01*
X0272500Y0272000D01*
X0267500Y0272000D01*
X0265000Y0274500D01*
X0262500Y0272000D01*
X0257500Y0272000D01*
X0255000Y0274500D01*
X0252500Y0272000D01*
X0247500Y0272000D01*
X0245000Y0274500D01*
X0242500Y0272000D01*
X0237500Y0272000D01*
X0235000Y0274500D01*
D19*
X0222250Y0294000D02*
X0204750Y0294000D01*
X0204750Y0314000D01*
X0197250Y0314000D01*
X0197250Y0294000D01*
X0204750Y0294000D01*
X0222250Y0294000D02*
X0222250Y0314000D01*
X0204750Y0314000D01*
X0119000Y0315000D02*
X0119000Y0295000D01*
X0111500Y0295000D01*
X0111500Y0315000D01*
X0094000Y0315000D01*
X0094000Y0295000D01*
X0111500Y0295000D01*
X0111500Y0315000D02*
X0119000Y0315000D01*
D20*
X0245500Y0040500D02*
X0246500Y0040500D01*
X0246500Y0030500D01*
X0245500Y0030500D01*
X0268500Y0031000D02*
X0269500Y0031000D01*
X0268500Y0031000D02*
X0268500Y0040500D01*
X0269500Y0040500D01*
M02*
