G75*
%MOIN*%
%OFA0B0*%
%FSLAX25Y25*%
%IPPOS*%
%LPD*%
%AMOC8*
5,1,8,0,0,1.08239X$1,22.5*
%
%ADD10C,0.00000*%
D10*
X0040000Y0009500D02*
X0051500Y0009500D01*
X0051600Y0004700D02*
X0051600Y0037200D01*
X0081600Y0037200D01*
X0081600Y0004700D01*
X0081500Y0009500D02*
X0276250Y0009500D01*
X0276250Y0314500D01*
X0040000Y0314500D01*
X0040000Y0009500D01*
X0123488Y0079500D02*
X0123490Y0079648D01*
X0123496Y0079796D01*
X0123506Y0079944D01*
X0123520Y0080091D01*
X0123538Y0080238D01*
X0123559Y0080384D01*
X0123585Y0080530D01*
X0123615Y0080675D01*
X0123648Y0080819D01*
X0123686Y0080962D01*
X0123727Y0081104D01*
X0123772Y0081245D01*
X0123820Y0081385D01*
X0123873Y0081524D01*
X0123929Y0081661D01*
X0123989Y0081796D01*
X0124052Y0081930D01*
X0124119Y0082062D01*
X0124190Y0082192D01*
X0124264Y0082320D01*
X0124341Y0082446D01*
X0124422Y0082570D01*
X0124506Y0082692D01*
X0124593Y0082811D01*
X0124684Y0082928D01*
X0124778Y0083043D01*
X0124874Y0083155D01*
X0124974Y0083265D01*
X0125076Y0083371D01*
X0125182Y0083475D01*
X0125290Y0083576D01*
X0125401Y0083674D01*
X0125514Y0083770D01*
X0125630Y0083862D01*
X0125748Y0083951D01*
X0125869Y0084036D01*
X0125992Y0084119D01*
X0126117Y0084198D01*
X0126244Y0084274D01*
X0126373Y0084346D01*
X0126504Y0084415D01*
X0126637Y0084480D01*
X0126772Y0084541D01*
X0126908Y0084599D01*
X0127045Y0084654D01*
X0127184Y0084704D01*
X0127325Y0084751D01*
X0127466Y0084794D01*
X0127609Y0084834D01*
X0127753Y0084869D01*
X0127897Y0084901D01*
X0128043Y0084928D01*
X0128189Y0084952D01*
X0128336Y0084972D01*
X0128483Y0084988D01*
X0128630Y0085000D01*
X0128778Y0085008D01*
X0128926Y0085012D01*
X0129074Y0085012D01*
X0129222Y0085008D01*
X0129370Y0085000D01*
X0129517Y0084988D01*
X0129664Y0084972D01*
X0129811Y0084952D01*
X0129957Y0084928D01*
X0130103Y0084901D01*
X0130247Y0084869D01*
X0130391Y0084834D01*
X0130534Y0084794D01*
X0130675Y0084751D01*
X0130816Y0084704D01*
X0130955Y0084654D01*
X0131092Y0084599D01*
X0131228Y0084541D01*
X0131363Y0084480D01*
X0131496Y0084415D01*
X0131627Y0084346D01*
X0131756Y0084274D01*
X0131883Y0084198D01*
X0132008Y0084119D01*
X0132131Y0084036D01*
X0132252Y0083951D01*
X0132370Y0083862D01*
X0132486Y0083770D01*
X0132599Y0083674D01*
X0132710Y0083576D01*
X0132818Y0083475D01*
X0132924Y0083371D01*
X0133026Y0083265D01*
X0133126Y0083155D01*
X0133222Y0083043D01*
X0133316Y0082928D01*
X0133407Y0082811D01*
X0133494Y0082692D01*
X0133578Y0082570D01*
X0133659Y0082446D01*
X0133736Y0082320D01*
X0133810Y0082192D01*
X0133881Y0082062D01*
X0133948Y0081930D01*
X0134011Y0081796D01*
X0134071Y0081661D01*
X0134127Y0081524D01*
X0134180Y0081385D01*
X0134228Y0081245D01*
X0134273Y0081104D01*
X0134314Y0080962D01*
X0134352Y0080819D01*
X0134385Y0080675D01*
X0134415Y0080530D01*
X0134441Y0080384D01*
X0134462Y0080238D01*
X0134480Y0080091D01*
X0134494Y0079944D01*
X0134504Y0079796D01*
X0134510Y0079648D01*
X0134512Y0079500D01*
X0134510Y0079352D01*
X0134504Y0079204D01*
X0134494Y0079056D01*
X0134480Y0078909D01*
X0134462Y0078762D01*
X0134441Y0078616D01*
X0134415Y0078470D01*
X0134385Y0078325D01*
X0134352Y0078181D01*
X0134314Y0078038D01*
X0134273Y0077896D01*
X0134228Y0077755D01*
X0134180Y0077615D01*
X0134127Y0077476D01*
X0134071Y0077339D01*
X0134011Y0077204D01*
X0133948Y0077070D01*
X0133881Y0076938D01*
X0133810Y0076808D01*
X0133736Y0076680D01*
X0133659Y0076554D01*
X0133578Y0076430D01*
X0133494Y0076308D01*
X0133407Y0076189D01*
X0133316Y0076072D01*
X0133222Y0075957D01*
X0133126Y0075845D01*
X0133026Y0075735D01*
X0132924Y0075629D01*
X0132818Y0075525D01*
X0132710Y0075424D01*
X0132599Y0075326D01*
X0132486Y0075230D01*
X0132370Y0075138D01*
X0132252Y0075049D01*
X0132131Y0074964D01*
X0132008Y0074881D01*
X0131883Y0074802D01*
X0131756Y0074726D01*
X0131627Y0074654D01*
X0131496Y0074585D01*
X0131363Y0074520D01*
X0131228Y0074459D01*
X0131092Y0074401D01*
X0130955Y0074346D01*
X0130816Y0074296D01*
X0130675Y0074249D01*
X0130534Y0074206D01*
X0130391Y0074166D01*
X0130247Y0074131D01*
X0130103Y0074099D01*
X0129957Y0074072D01*
X0129811Y0074048D01*
X0129664Y0074028D01*
X0129517Y0074012D01*
X0129370Y0074000D01*
X0129222Y0073992D01*
X0129074Y0073988D01*
X0128926Y0073988D01*
X0128778Y0073992D01*
X0128630Y0074000D01*
X0128483Y0074012D01*
X0128336Y0074028D01*
X0128189Y0074048D01*
X0128043Y0074072D01*
X0127897Y0074099D01*
X0127753Y0074131D01*
X0127609Y0074166D01*
X0127466Y0074206D01*
X0127325Y0074249D01*
X0127184Y0074296D01*
X0127045Y0074346D01*
X0126908Y0074401D01*
X0126772Y0074459D01*
X0126637Y0074520D01*
X0126504Y0074585D01*
X0126373Y0074654D01*
X0126244Y0074726D01*
X0126117Y0074802D01*
X0125992Y0074881D01*
X0125869Y0074964D01*
X0125748Y0075049D01*
X0125630Y0075138D01*
X0125514Y0075230D01*
X0125401Y0075326D01*
X0125290Y0075424D01*
X0125182Y0075525D01*
X0125076Y0075629D01*
X0124974Y0075735D01*
X0124874Y0075845D01*
X0124778Y0075957D01*
X0124684Y0076072D01*
X0124593Y0076189D01*
X0124506Y0076308D01*
X0124422Y0076430D01*
X0124341Y0076554D01*
X0124264Y0076680D01*
X0124190Y0076808D01*
X0124119Y0076938D01*
X0124052Y0077070D01*
X0123989Y0077204D01*
X0123929Y0077339D01*
X0123873Y0077476D01*
X0123820Y0077615D01*
X0123772Y0077755D01*
X0123727Y0077896D01*
X0123686Y0078038D01*
X0123648Y0078181D01*
X0123615Y0078325D01*
X0123585Y0078470D01*
X0123559Y0078616D01*
X0123538Y0078762D01*
X0123520Y0078909D01*
X0123506Y0079056D01*
X0123496Y0079204D01*
X0123490Y0079352D01*
X0123488Y0079500D01*
X0181488Y0079500D02*
X0181490Y0079648D01*
X0181496Y0079796D01*
X0181506Y0079944D01*
X0181520Y0080091D01*
X0181538Y0080238D01*
X0181559Y0080384D01*
X0181585Y0080530D01*
X0181615Y0080675D01*
X0181648Y0080819D01*
X0181686Y0080962D01*
X0181727Y0081104D01*
X0181772Y0081245D01*
X0181820Y0081385D01*
X0181873Y0081524D01*
X0181929Y0081661D01*
X0181989Y0081796D01*
X0182052Y0081930D01*
X0182119Y0082062D01*
X0182190Y0082192D01*
X0182264Y0082320D01*
X0182341Y0082446D01*
X0182422Y0082570D01*
X0182506Y0082692D01*
X0182593Y0082811D01*
X0182684Y0082928D01*
X0182778Y0083043D01*
X0182874Y0083155D01*
X0182974Y0083265D01*
X0183076Y0083371D01*
X0183182Y0083475D01*
X0183290Y0083576D01*
X0183401Y0083674D01*
X0183514Y0083770D01*
X0183630Y0083862D01*
X0183748Y0083951D01*
X0183869Y0084036D01*
X0183992Y0084119D01*
X0184117Y0084198D01*
X0184244Y0084274D01*
X0184373Y0084346D01*
X0184504Y0084415D01*
X0184637Y0084480D01*
X0184772Y0084541D01*
X0184908Y0084599D01*
X0185045Y0084654D01*
X0185184Y0084704D01*
X0185325Y0084751D01*
X0185466Y0084794D01*
X0185609Y0084834D01*
X0185753Y0084869D01*
X0185897Y0084901D01*
X0186043Y0084928D01*
X0186189Y0084952D01*
X0186336Y0084972D01*
X0186483Y0084988D01*
X0186630Y0085000D01*
X0186778Y0085008D01*
X0186926Y0085012D01*
X0187074Y0085012D01*
X0187222Y0085008D01*
X0187370Y0085000D01*
X0187517Y0084988D01*
X0187664Y0084972D01*
X0187811Y0084952D01*
X0187957Y0084928D01*
X0188103Y0084901D01*
X0188247Y0084869D01*
X0188391Y0084834D01*
X0188534Y0084794D01*
X0188675Y0084751D01*
X0188816Y0084704D01*
X0188955Y0084654D01*
X0189092Y0084599D01*
X0189228Y0084541D01*
X0189363Y0084480D01*
X0189496Y0084415D01*
X0189627Y0084346D01*
X0189756Y0084274D01*
X0189883Y0084198D01*
X0190008Y0084119D01*
X0190131Y0084036D01*
X0190252Y0083951D01*
X0190370Y0083862D01*
X0190486Y0083770D01*
X0190599Y0083674D01*
X0190710Y0083576D01*
X0190818Y0083475D01*
X0190924Y0083371D01*
X0191026Y0083265D01*
X0191126Y0083155D01*
X0191222Y0083043D01*
X0191316Y0082928D01*
X0191407Y0082811D01*
X0191494Y0082692D01*
X0191578Y0082570D01*
X0191659Y0082446D01*
X0191736Y0082320D01*
X0191810Y0082192D01*
X0191881Y0082062D01*
X0191948Y0081930D01*
X0192011Y0081796D01*
X0192071Y0081661D01*
X0192127Y0081524D01*
X0192180Y0081385D01*
X0192228Y0081245D01*
X0192273Y0081104D01*
X0192314Y0080962D01*
X0192352Y0080819D01*
X0192385Y0080675D01*
X0192415Y0080530D01*
X0192441Y0080384D01*
X0192462Y0080238D01*
X0192480Y0080091D01*
X0192494Y0079944D01*
X0192504Y0079796D01*
X0192510Y0079648D01*
X0192512Y0079500D01*
X0192510Y0079352D01*
X0192504Y0079204D01*
X0192494Y0079056D01*
X0192480Y0078909D01*
X0192462Y0078762D01*
X0192441Y0078616D01*
X0192415Y0078470D01*
X0192385Y0078325D01*
X0192352Y0078181D01*
X0192314Y0078038D01*
X0192273Y0077896D01*
X0192228Y0077755D01*
X0192180Y0077615D01*
X0192127Y0077476D01*
X0192071Y0077339D01*
X0192011Y0077204D01*
X0191948Y0077070D01*
X0191881Y0076938D01*
X0191810Y0076808D01*
X0191736Y0076680D01*
X0191659Y0076554D01*
X0191578Y0076430D01*
X0191494Y0076308D01*
X0191407Y0076189D01*
X0191316Y0076072D01*
X0191222Y0075957D01*
X0191126Y0075845D01*
X0191026Y0075735D01*
X0190924Y0075629D01*
X0190818Y0075525D01*
X0190710Y0075424D01*
X0190599Y0075326D01*
X0190486Y0075230D01*
X0190370Y0075138D01*
X0190252Y0075049D01*
X0190131Y0074964D01*
X0190008Y0074881D01*
X0189883Y0074802D01*
X0189756Y0074726D01*
X0189627Y0074654D01*
X0189496Y0074585D01*
X0189363Y0074520D01*
X0189228Y0074459D01*
X0189092Y0074401D01*
X0188955Y0074346D01*
X0188816Y0074296D01*
X0188675Y0074249D01*
X0188534Y0074206D01*
X0188391Y0074166D01*
X0188247Y0074131D01*
X0188103Y0074099D01*
X0187957Y0074072D01*
X0187811Y0074048D01*
X0187664Y0074028D01*
X0187517Y0074012D01*
X0187370Y0074000D01*
X0187222Y0073992D01*
X0187074Y0073988D01*
X0186926Y0073988D01*
X0186778Y0073992D01*
X0186630Y0074000D01*
X0186483Y0074012D01*
X0186336Y0074028D01*
X0186189Y0074048D01*
X0186043Y0074072D01*
X0185897Y0074099D01*
X0185753Y0074131D01*
X0185609Y0074166D01*
X0185466Y0074206D01*
X0185325Y0074249D01*
X0185184Y0074296D01*
X0185045Y0074346D01*
X0184908Y0074401D01*
X0184772Y0074459D01*
X0184637Y0074520D01*
X0184504Y0074585D01*
X0184373Y0074654D01*
X0184244Y0074726D01*
X0184117Y0074802D01*
X0183992Y0074881D01*
X0183869Y0074964D01*
X0183748Y0075049D01*
X0183630Y0075138D01*
X0183514Y0075230D01*
X0183401Y0075326D01*
X0183290Y0075424D01*
X0183182Y0075525D01*
X0183076Y0075629D01*
X0182974Y0075735D01*
X0182874Y0075845D01*
X0182778Y0075957D01*
X0182684Y0076072D01*
X0182593Y0076189D01*
X0182506Y0076308D01*
X0182422Y0076430D01*
X0182341Y0076554D01*
X0182264Y0076680D01*
X0182190Y0076808D01*
X0182119Y0076938D01*
X0182052Y0077070D01*
X0181989Y0077204D01*
X0181929Y0077339D01*
X0181873Y0077476D01*
X0181820Y0077615D01*
X0181772Y0077755D01*
X0181727Y0077896D01*
X0181686Y0078038D01*
X0181648Y0078181D01*
X0181615Y0078325D01*
X0181585Y0078470D01*
X0181559Y0078616D01*
X0181538Y0078762D01*
X0181520Y0078909D01*
X0181506Y0079056D01*
X0181496Y0079204D01*
X0181490Y0079352D01*
X0181488Y0079500D01*
X0253573Y0186567D02*
X0253575Y0186725D01*
X0253581Y0186883D01*
X0253591Y0187041D01*
X0253605Y0187199D01*
X0253623Y0187356D01*
X0253644Y0187513D01*
X0253670Y0187669D01*
X0253700Y0187825D01*
X0253733Y0187980D01*
X0253771Y0188133D01*
X0253812Y0188286D01*
X0253857Y0188438D01*
X0253906Y0188589D01*
X0253959Y0188738D01*
X0254015Y0188886D01*
X0254075Y0189032D01*
X0254139Y0189177D01*
X0254207Y0189320D01*
X0254278Y0189462D01*
X0254352Y0189602D01*
X0254430Y0189739D01*
X0254512Y0189875D01*
X0254596Y0190009D01*
X0254685Y0190140D01*
X0254776Y0190269D01*
X0254871Y0190396D01*
X0254968Y0190521D01*
X0255069Y0190643D01*
X0255173Y0190762D01*
X0255280Y0190879D01*
X0255390Y0190993D01*
X0255503Y0191104D01*
X0255618Y0191213D01*
X0255736Y0191318D01*
X0255857Y0191420D01*
X0255980Y0191520D01*
X0256106Y0191616D01*
X0256234Y0191709D01*
X0256364Y0191799D01*
X0256497Y0191885D01*
X0256632Y0191969D01*
X0256768Y0192048D01*
X0256907Y0192125D01*
X0257048Y0192197D01*
X0257190Y0192267D01*
X0257334Y0192332D01*
X0257480Y0192394D01*
X0257627Y0192452D01*
X0257776Y0192507D01*
X0257926Y0192558D01*
X0258077Y0192605D01*
X0258229Y0192648D01*
X0258382Y0192687D01*
X0258537Y0192723D01*
X0258692Y0192754D01*
X0258848Y0192782D01*
X0259004Y0192806D01*
X0259161Y0192826D01*
X0259319Y0192842D01*
X0259476Y0192854D01*
X0259635Y0192862D01*
X0259793Y0192866D01*
X0259951Y0192866D01*
X0260109Y0192862D01*
X0260268Y0192854D01*
X0260425Y0192842D01*
X0260583Y0192826D01*
X0260740Y0192806D01*
X0260896Y0192782D01*
X0261052Y0192754D01*
X0261207Y0192723D01*
X0261362Y0192687D01*
X0261515Y0192648D01*
X0261667Y0192605D01*
X0261818Y0192558D01*
X0261968Y0192507D01*
X0262117Y0192452D01*
X0262264Y0192394D01*
X0262410Y0192332D01*
X0262554Y0192267D01*
X0262696Y0192197D01*
X0262837Y0192125D01*
X0262976Y0192048D01*
X0263112Y0191969D01*
X0263247Y0191885D01*
X0263380Y0191799D01*
X0263510Y0191709D01*
X0263638Y0191616D01*
X0263764Y0191520D01*
X0263887Y0191420D01*
X0264008Y0191318D01*
X0264126Y0191213D01*
X0264241Y0191104D01*
X0264354Y0190993D01*
X0264464Y0190879D01*
X0264571Y0190762D01*
X0264675Y0190643D01*
X0264776Y0190521D01*
X0264873Y0190396D01*
X0264968Y0190269D01*
X0265059Y0190140D01*
X0265148Y0190009D01*
X0265232Y0189875D01*
X0265314Y0189739D01*
X0265392Y0189602D01*
X0265466Y0189462D01*
X0265537Y0189320D01*
X0265605Y0189177D01*
X0265669Y0189032D01*
X0265729Y0188886D01*
X0265785Y0188738D01*
X0265838Y0188589D01*
X0265887Y0188438D01*
X0265932Y0188286D01*
X0265973Y0188133D01*
X0266011Y0187980D01*
X0266044Y0187825D01*
X0266074Y0187669D01*
X0266100Y0187513D01*
X0266121Y0187356D01*
X0266139Y0187199D01*
X0266153Y0187041D01*
X0266163Y0186883D01*
X0266169Y0186725D01*
X0266171Y0186567D01*
X0266169Y0186409D01*
X0266163Y0186251D01*
X0266153Y0186093D01*
X0266139Y0185935D01*
X0266121Y0185778D01*
X0266100Y0185621D01*
X0266074Y0185465D01*
X0266044Y0185309D01*
X0266011Y0185154D01*
X0265973Y0185001D01*
X0265932Y0184848D01*
X0265887Y0184696D01*
X0265838Y0184545D01*
X0265785Y0184396D01*
X0265729Y0184248D01*
X0265669Y0184102D01*
X0265605Y0183957D01*
X0265537Y0183814D01*
X0265466Y0183672D01*
X0265392Y0183532D01*
X0265314Y0183395D01*
X0265232Y0183259D01*
X0265148Y0183125D01*
X0265059Y0182994D01*
X0264968Y0182865D01*
X0264873Y0182738D01*
X0264776Y0182613D01*
X0264675Y0182491D01*
X0264571Y0182372D01*
X0264464Y0182255D01*
X0264354Y0182141D01*
X0264241Y0182030D01*
X0264126Y0181921D01*
X0264008Y0181816D01*
X0263887Y0181714D01*
X0263764Y0181614D01*
X0263638Y0181518D01*
X0263510Y0181425D01*
X0263380Y0181335D01*
X0263247Y0181249D01*
X0263112Y0181165D01*
X0262976Y0181086D01*
X0262837Y0181009D01*
X0262696Y0180937D01*
X0262554Y0180867D01*
X0262410Y0180802D01*
X0262264Y0180740D01*
X0262117Y0180682D01*
X0261968Y0180627D01*
X0261818Y0180576D01*
X0261667Y0180529D01*
X0261515Y0180486D01*
X0261362Y0180447D01*
X0261207Y0180411D01*
X0261052Y0180380D01*
X0260896Y0180352D01*
X0260740Y0180328D01*
X0260583Y0180308D01*
X0260425Y0180292D01*
X0260268Y0180280D01*
X0260109Y0180272D01*
X0259951Y0180268D01*
X0259793Y0180268D01*
X0259635Y0180272D01*
X0259476Y0180280D01*
X0259319Y0180292D01*
X0259161Y0180308D01*
X0259004Y0180328D01*
X0258848Y0180352D01*
X0258692Y0180380D01*
X0258537Y0180411D01*
X0258382Y0180447D01*
X0258229Y0180486D01*
X0258077Y0180529D01*
X0257926Y0180576D01*
X0257776Y0180627D01*
X0257627Y0180682D01*
X0257480Y0180740D01*
X0257334Y0180802D01*
X0257190Y0180867D01*
X0257048Y0180937D01*
X0256907Y0181009D01*
X0256768Y0181086D01*
X0256632Y0181165D01*
X0256497Y0181249D01*
X0256364Y0181335D01*
X0256234Y0181425D01*
X0256106Y0181518D01*
X0255980Y0181614D01*
X0255857Y0181714D01*
X0255736Y0181816D01*
X0255618Y0181921D01*
X0255503Y0182030D01*
X0255390Y0182141D01*
X0255280Y0182255D01*
X0255173Y0182372D01*
X0255069Y0182491D01*
X0254968Y0182613D01*
X0254871Y0182738D01*
X0254776Y0182865D01*
X0254685Y0182994D01*
X0254596Y0183125D01*
X0254512Y0183259D01*
X0254430Y0183395D01*
X0254352Y0183532D01*
X0254278Y0183672D01*
X0254207Y0183814D01*
X0254139Y0183957D01*
X0254075Y0184102D01*
X0254015Y0184248D01*
X0253959Y0184396D01*
X0253906Y0184545D01*
X0253857Y0184696D01*
X0253812Y0184848D01*
X0253771Y0185001D01*
X0253733Y0185154D01*
X0253700Y0185309D01*
X0253670Y0185465D01*
X0253644Y0185621D01*
X0253623Y0185778D01*
X0253605Y0185935D01*
X0253591Y0186093D01*
X0253581Y0186251D01*
X0253575Y0186409D01*
X0253573Y0186567D01*
X0253573Y0257433D02*
X0253575Y0257591D01*
X0253581Y0257749D01*
X0253591Y0257907D01*
X0253605Y0258065D01*
X0253623Y0258222D01*
X0253644Y0258379D01*
X0253670Y0258535D01*
X0253700Y0258691D01*
X0253733Y0258846D01*
X0253771Y0258999D01*
X0253812Y0259152D01*
X0253857Y0259304D01*
X0253906Y0259455D01*
X0253959Y0259604D01*
X0254015Y0259752D01*
X0254075Y0259898D01*
X0254139Y0260043D01*
X0254207Y0260186D01*
X0254278Y0260328D01*
X0254352Y0260468D01*
X0254430Y0260605D01*
X0254512Y0260741D01*
X0254596Y0260875D01*
X0254685Y0261006D01*
X0254776Y0261135D01*
X0254871Y0261262D01*
X0254968Y0261387D01*
X0255069Y0261509D01*
X0255173Y0261628D01*
X0255280Y0261745D01*
X0255390Y0261859D01*
X0255503Y0261970D01*
X0255618Y0262079D01*
X0255736Y0262184D01*
X0255857Y0262286D01*
X0255980Y0262386D01*
X0256106Y0262482D01*
X0256234Y0262575D01*
X0256364Y0262665D01*
X0256497Y0262751D01*
X0256632Y0262835D01*
X0256768Y0262914D01*
X0256907Y0262991D01*
X0257048Y0263063D01*
X0257190Y0263133D01*
X0257334Y0263198D01*
X0257480Y0263260D01*
X0257627Y0263318D01*
X0257776Y0263373D01*
X0257926Y0263424D01*
X0258077Y0263471D01*
X0258229Y0263514D01*
X0258382Y0263553D01*
X0258537Y0263589D01*
X0258692Y0263620D01*
X0258848Y0263648D01*
X0259004Y0263672D01*
X0259161Y0263692D01*
X0259319Y0263708D01*
X0259476Y0263720D01*
X0259635Y0263728D01*
X0259793Y0263732D01*
X0259951Y0263732D01*
X0260109Y0263728D01*
X0260268Y0263720D01*
X0260425Y0263708D01*
X0260583Y0263692D01*
X0260740Y0263672D01*
X0260896Y0263648D01*
X0261052Y0263620D01*
X0261207Y0263589D01*
X0261362Y0263553D01*
X0261515Y0263514D01*
X0261667Y0263471D01*
X0261818Y0263424D01*
X0261968Y0263373D01*
X0262117Y0263318D01*
X0262264Y0263260D01*
X0262410Y0263198D01*
X0262554Y0263133D01*
X0262696Y0263063D01*
X0262837Y0262991D01*
X0262976Y0262914D01*
X0263112Y0262835D01*
X0263247Y0262751D01*
X0263380Y0262665D01*
X0263510Y0262575D01*
X0263638Y0262482D01*
X0263764Y0262386D01*
X0263887Y0262286D01*
X0264008Y0262184D01*
X0264126Y0262079D01*
X0264241Y0261970D01*
X0264354Y0261859D01*
X0264464Y0261745D01*
X0264571Y0261628D01*
X0264675Y0261509D01*
X0264776Y0261387D01*
X0264873Y0261262D01*
X0264968Y0261135D01*
X0265059Y0261006D01*
X0265148Y0260875D01*
X0265232Y0260741D01*
X0265314Y0260605D01*
X0265392Y0260468D01*
X0265466Y0260328D01*
X0265537Y0260186D01*
X0265605Y0260043D01*
X0265669Y0259898D01*
X0265729Y0259752D01*
X0265785Y0259604D01*
X0265838Y0259455D01*
X0265887Y0259304D01*
X0265932Y0259152D01*
X0265973Y0258999D01*
X0266011Y0258846D01*
X0266044Y0258691D01*
X0266074Y0258535D01*
X0266100Y0258379D01*
X0266121Y0258222D01*
X0266139Y0258065D01*
X0266153Y0257907D01*
X0266163Y0257749D01*
X0266169Y0257591D01*
X0266171Y0257433D01*
X0266169Y0257275D01*
X0266163Y0257117D01*
X0266153Y0256959D01*
X0266139Y0256801D01*
X0266121Y0256644D01*
X0266100Y0256487D01*
X0266074Y0256331D01*
X0266044Y0256175D01*
X0266011Y0256020D01*
X0265973Y0255867D01*
X0265932Y0255714D01*
X0265887Y0255562D01*
X0265838Y0255411D01*
X0265785Y0255262D01*
X0265729Y0255114D01*
X0265669Y0254968D01*
X0265605Y0254823D01*
X0265537Y0254680D01*
X0265466Y0254538D01*
X0265392Y0254398D01*
X0265314Y0254261D01*
X0265232Y0254125D01*
X0265148Y0253991D01*
X0265059Y0253860D01*
X0264968Y0253731D01*
X0264873Y0253604D01*
X0264776Y0253479D01*
X0264675Y0253357D01*
X0264571Y0253238D01*
X0264464Y0253121D01*
X0264354Y0253007D01*
X0264241Y0252896D01*
X0264126Y0252787D01*
X0264008Y0252682D01*
X0263887Y0252580D01*
X0263764Y0252480D01*
X0263638Y0252384D01*
X0263510Y0252291D01*
X0263380Y0252201D01*
X0263247Y0252115D01*
X0263112Y0252031D01*
X0262976Y0251952D01*
X0262837Y0251875D01*
X0262696Y0251803D01*
X0262554Y0251733D01*
X0262410Y0251668D01*
X0262264Y0251606D01*
X0262117Y0251548D01*
X0261968Y0251493D01*
X0261818Y0251442D01*
X0261667Y0251395D01*
X0261515Y0251352D01*
X0261362Y0251313D01*
X0261207Y0251277D01*
X0261052Y0251246D01*
X0260896Y0251218D01*
X0260740Y0251194D01*
X0260583Y0251174D01*
X0260425Y0251158D01*
X0260268Y0251146D01*
X0260109Y0251138D01*
X0259951Y0251134D01*
X0259793Y0251134D01*
X0259635Y0251138D01*
X0259476Y0251146D01*
X0259319Y0251158D01*
X0259161Y0251174D01*
X0259004Y0251194D01*
X0258848Y0251218D01*
X0258692Y0251246D01*
X0258537Y0251277D01*
X0258382Y0251313D01*
X0258229Y0251352D01*
X0258077Y0251395D01*
X0257926Y0251442D01*
X0257776Y0251493D01*
X0257627Y0251548D01*
X0257480Y0251606D01*
X0257334Y0251668D01*
X0257190Y0251733D01*
X0257048Y0251803D01*
X0256907Y0251875D01*
X0256768Y0251952D01*
X0256632Y0252031D01*
X0256497Y0252115D01*
X0256364Y0252201D01*
X0256234Y0252291D01*
X0256106Y0252384D01*
X0255980Y0252480D01*
X0255857Y0252580D01*
X0255736Y0252682D01*
X0255618Y0252787D01*
X0255503Y0252896D01*
X0255390Y0253007D01*
X0255280Y0253121D01*
X0255173Y0253238D01*
X0255069Y0253357D01*
X0254968Y0253479D01*
X0254871Y0253604D01*
X0254776Y0253731D01*
X0254685Y0253860D01*
X0254596Y0253991D01*
X0254512Y0254125D01*
X0254430Y0254261D01*
X0254352Y0254398D01*
X0254278Y0254538D01*
X0254207Y0254680D01*
X0254139Y0254823D01*
X0254075Y0254968D01*
X0254015Y0255114D01*
X0253959Y0255262D01*
X0253906Y0255411D01*
X0253857Y0255562D01*
X0253812Y0255714D01*
X0253771Y0255867D01*
X0253733Y0256020D01*
X0253700Y0256175D01*
X0253670Y0256331D01*
X0253644Y0256487D01*
X0253623Y0256644D01*
X0253605Y0256801D01*
X0253591Y0256959D01*
X0253581Y0257117D01*
X0253575Y0257275D01*
X0253573Y0257433D01*
X0050079Y0257433D02*
X0050081Y0257591D01*
X0050087Y0257749D01*
X0050097Y0257907D01*
X0050111Y0258065D01*
X0050129Y0258222D01*
X0050150Y0258379D01*
X0050176Y0258535D01*
X0050206Y0258691D01*
X0050239Y0258846D01*
X0050277Y0258999D01*
X0050318Y0259152D01*
X0050363Y0259304D01*
X0050412Y0259455D01*
X0050465Y0259604D01*
X0050521Y0259752D01*
X0050581Y0259898D01*
X0050645Y0260043D01*
X0050713Y0260186D01*
X0050784Y0260328D01*
X0050858Y0260468D01*
X0050936Y0260605D01*
X0051018Y0260741D01*
X0051102Y0260875D01*
X0051191Y0261006D01*
X0051282Y0261135D01*
X0051377Y0261262D01*
X0051474Y0261387D01*
X0051575Y0261509D01*
X0051679Y0261628D01*
X0051786Y0261745D01*
X0051896Y0261859D01*
X0052009Y0261970D01*
X0052124Y0262079D01*
X0052242Y0262184D01*
X0052363Y0262286D01*
X0052486Y0262386D01*
X0052612Y0262482D01*
X0052740Y0262575D01*
X0052870Y0262665D01*
X0053003Y0262751D01*
X0053138Y0262835D01*
X0053274Y0262914D01*
X0053413Y0262991D01*
X0053554Y0263063D01*
X0053696Y0263133D01*
X0053840Y0263198D01*
X0053986Y0263260D01*
X0054133Y0263318D01*
X0054282Y0263373D01*
X0054432Y0263424D01*
X0054583Y0263471D01*
X0054735Y0263514D01*
X0054888Y0263553D01*
X0055043Y0263589D01*
X0055198Y0263620D01*
X0055354Y0263648D01*
X0055510Y0263672D01*
X0055667Y0263692D01*
X0055825Y0263708D01*
X0055982Y0263720D01*
X0056141Y0263728D01*
X0056299Y0263732D01*
X0056457Y0263732D01*
X0056615Y0263728D01*
X0056774Y0263720D01*
X0056931Y0263708D01*
X0057089Y0263692D01*
X0057246Y0263672D01*
X0057402Y0263648D01*
X0057558Y0263620D01*
X0057713Y0263589D01*
X0057868Y0263553D01*
X0058021Y0263514D01*
X0058173Y0263471D01*
X0058324Y0263424D01*
X0058474Y0263373D01*
X0058623Y0263318D01*
X0058770Y0263260D01*
X0058916Y0263198D01*
X0059060Y0263133D01*
X0059202Y0263063D01*
X0059343Y0262991D01*
X0059482Y0262914D01*
X0059618Y0262835D01*
X0059753Y0262751D01*
X0059886Y0262665D01*
X0060016Y0262575D01*
X0060144Y0262482D01*
X0060270Y0262386D01*
X0060393Y0262286D01*
X0060514Y0262184D01*
X0060632Y0262079D01*
X0060747Y0261970D01*
X0060860Y0261859D01*
X0060970Y0261745D01*
X0061077Y0261628D01*
X0061181Y0261509D01*
X0061282Y0261387D01*
X0061379Y0261262D01*
X0061474Y0261135D01*
X0061565Y0261006D01*
X0061654Y0260875D01*
X0061738Y0260741D01*
X0061820Y0260605D01*
X0061898Y0260468D01*
X0061972Y0260328D01*
X0062043Y0260186D01*
X0062111Y0260043D01*
X0062175Y0259898D01*
X0062235Y0259752D01*
X0062291Y0259604D01*
X0062344Y0259455D01*
X0062393Y0259304D01*
X0062438Y0259152D01*
X0062479Y0258999D01*
X0062517Y0258846D01*
X0062550Y0258691D01*
X0062580Y0258535D01*
X0062606Y0258379D01*
X0062627Y0258222D01*
X0062645Y0258065D01*
X0062659Y0257907D01*
X0062669Y0257749D01*
X0062675Y0257591D01*
X0062677Y0257433D01*
X0062675Y0257275D01*
X0062669Y0257117D01*
X0062659Y0256959D01*
X0062645Y0256801D01*
X0062627Y0256644D01*
X0062606Y0256487D01*
X0062580Y0256331D01*
X0062550Y0256175D01*
X0062517Y0256020D01*
X0062479Y0255867D01*
X0062438Y0255714D01*
X0062393Y0255562D01*
X0062344Y0255411D01*
X0062291Y0255262D01*
X0062235Y0255114D01*
X0062175Y0254968D01*
X0062111Y0254823D01*
X0062043Y0254680D01*
X0061972Y0254538D01*
X0061898Y0254398D01*
X0061820Y0254261D01*
X0061738Y0254125D01*
X0061654Y0253991D01*
X0061565Y0253860D01*
X0061474Y0253731D01*
X0061379Y0253604D01*
X0061282Y0253479D01*
X0061181Y0253357D01*
X0061077Y0253238D01*
X0060970Y0253121D01*
X0060860Y0253007D01*
X0060747Y0252896D01*
X0060632Y0252787D01*
X0060514Y0252682D01*
X0060393Y0252580D01*
X0060270Y0252480D01*
X0060144Y0252384D01*
X0060016Y0252291D01*
X0059886Y0252201D01*
X0059753Y0252115D01*
X0059618Y0252031D01*
X0059482Y0251952D01*
X0059343Y0251875D01*
X0059202Y0251803D01*
X0059060Y0251733D01*
X0058916Y0251668D01*
X0058770Y0251606D01*
X0058623Y0251548D01*
X0058474Y0251493D01*
X0058324Y0251442D01*
X0058173Y0251395D01*
X0058021Y0251352D01*
X0057868Y0251313D01*
X0057713Y0251277D01*
X0057558Y0251246D01*
X0057402Y0251218D01*
X0057246Y0251194D01*
X0057089Y0251174D01*
X0056931Y0251158D01*
X0056774Y0251146D01*
X0056615Y0251138D01*
X0056457Y0251134D01*
X0056299Y0251134D01*
X0056141Y0251138D01*
X0055982Y0251146D01*
X0055825Y0251158D01*
X0055667Y0251174D01*
X0055510Y0251194D01*
X0055354Y0251218D01*
X0055198Y0251246D01*
X0055043Y0251277D01*
X0054888Y0251313D01*
X0054735Y0251352D01*
X0054583Y0251395D01*
X0054432Y0251442D01*
X0054282Y0251493D01*
X0054133Y0251548D01*
X0053986Y0251606D01*
X0053840Y0251668D01*
X0053696Y0251733D01*
X0053554Y0251803D01*
X0053413Y0251875D01*
X0053274Y0251952D01*
X0053138Y0252031D01*
X0053003Y0252115D01*
X0052870Y0252201D01*
X0052740Y0252291D01*
X0052612Y0252384D01*
X0052486Y0252480D01*
X0052363Y0252580D01*
X0052242Y0252682D01*
X0052124Y0252787D01*
X0052009Y0252896D01*
X0051896Y0253007D01*
X0051786Y0253121D01*
X0051679Y0253238D01*
X0051575Y0253357D01*
X0051474Y0253479D01*
X0051377Y0253604D01*
X0051282Y0253731D01*
X0051191Y0253860D01*
X0051102Y0253991D01*
X0051018Y0254125D01*
X0050936Y0254261D01*
X0050858Y0254398D01*
X0050784Y0254538D01*
X0050713Y0254680D01*
X0050645Y0254823D01*
X0050581Y0254968D01*
X0050521Y0255114D01*
X0050465Y0255262D01*
X0050412Y0255411D01*
X0050363Y0255562D01*
X0050318Y0255714D01*
X0050277Y0255867D01*
X0050239Y0256020D01*
X0050206Y0256175D01*
X0050176Y0256331D01*
X0050150Y0256487D01*
X0050129Y0256644D01*
X0050111Y0256801D01*
X0050097Y0256959D01*
X0050087Y0257117D01*
X0050081Y0257275D01*
X0050079Y0257433D01*
X0050079Y0186567D02*
X0050081Y0186725D01*
X0050087Y0186883D01*
X0050097Y0187041D01*
X0050111Y0187199D01*
X0050129Y0187356D01*
X0050150Y0187513D01*
X0050176Y0187669D01*
X0050206Y0187825D01*
X0050239Y0187980D01*
X0050277Y0188133D01*
X0050318Y0188286D01*
X0050363Y0188438D01*
X0050412Y0188589D01*
X0050465Y0188738D01*
X0050521Y0188886D01*
X0050581Y0189032D01*
X0050645Y0189177D01*
X0050713Y0189320D01*
X0050784Y0189462D01*
X0050858Y0189602D01*
X0050936Y0189739D01*
X0051018Y0189875D01*
X0051102Y0190009D01*
X0051191Y0190140D01*
X0051282Y0190269D01*
X0051377Y0190396D01*
X0051474Y0190521D01*
X0051575Y0190643D01*
X0051679Y0190762D01*
X0051786Y0190879D01*
X0051896Y0190993D01*
X0052009Y0191104D01*
X0052124Y0191213D01*
X0052242Y0191318D01*
X0052363Y0191420D01*
X0052486Y0191520D01*
X0052612Y0191616D01*
X0052740Y0191709D01*
X0052870Y0191799D01*
X0053003Y0191885D01*
X0053138Y0191969D01*
X0053274Y0192048D01*
X0053413Y0192125D01*
X0053554Y0192197D01*
X0053696Y0192267D01*
X0053840Y0192332D01*
X0053986Y0192394D01*
X0054133Y0192452D01*
X0054282Y0192507D01*
X0054432Y0192558D01*
X0054583Y0192605D01*
X0054735Y0192648D01*
X0054888Y0192687D01*
X0055043Y0192723D01*
X0055198Y0192754D01*
X0055354Y0192782D01*
X0055510Y0192806D01*
X0055667Y0192826D01*
X0055825Y0192842D01*
X0055982Y0192854D01*
X0056141Y0192862D01*
X0056299Y0192866D01*
X0056457Y0192866D01*
X0056615Y0192862D01*
X0056774Y0192854D01*
X0056931Y0192842D01*
X0057089Y0192826D01*
X0057246Y0192806D01*
X0057402Y0192782D01*
X0057558Y0192754D01*
X0057713Y0192723D01*
X0057868Y0192687D01*
X0058021Y0192648D01*
X0058173Y0192605D01*
X0058324Y0192558D01*
X0058474Y0192507D01*
X0058623Y0192452D01*
X0058770Y0192394D01*
X0058916Y0192332D01*
X0059060Y0192267D01*
X0059202Y0192197D01*
X0059343Y0192125D01*
X0059482Y0192048D01*
X0059618Y0191969D01*
X0059753Y0191885D01*
X0059886Y0191799D01*
X0060016Y0191709D01*
X0060144Y0191616D01*
X0060270Y0191520D01*
X0060393Y0191420D01*
X0060514Y0191318D01*
X0060632Y0191213D01*
X0060747Y0191104D01*
X0060860Y0190993D01*
X0060970Y0190879D01*
X0061077Y0190762D01*
X0061181Y0190643D01*
X0061282Y0190521D01*
X0061379Y0190396D01*
X0061474Y0190269D01*
X0061565Y0190140D01*
X0061654Y0190009D01*
X0061738Y0189875D01*
X0061820Y0189739D01*
X0061898Y0189602D01*
X0061972Y0189462D01*
X0062043Y0189320D01*
X0062111Y0189177D01*
X0062175Y0189032D01*
X0062235Y0188886D01*
X0062291Y0188738D01*
X0062344Y0188589D01*
X0062393Y0188438D01*
X0062438Y0188286D01*
X0062479Y0188133D01*
X0062517Y0187980D01*
X0062550Y0187825D01*
X0062580Y0187669D01*
X0062606Y0187513D01*
X0062627Y0187356D01*
X0062645Y0187199D01*
X0062659Y0187041D01*
X0062669Y0186883D01*
X0062675Y0186725D01*
X0062677Y0186567D01*
X0062675Y0186409D01*
X0062669Y0186251D01*
X0062659Y0186093D01*
X0062645Y0185935D01*
X0062627Y0185778D01*
X0062606Y0185621D01*
X0062580Y0185465D01*
X0062550Y0185309D01*
X0062517Y0185154D01*
X0062479Y0185001D01*
X0062438Y0184848D01*
X0062393Y0184696D01*
X0062344Y0184545D01*
X0062291Y0184396D01*
X0062235Y0184248D01*
X0062175Y0184102D01*
X0062111Y0183957D01*
X0062043Y0183814D01*
X0061972Y0183672D01*
X0061898Y0183532D01*
X0061820Y0183395D01*
X0061738Y0183259D01*
X0061654Y0183125D01*
X0061565Y0182994D01*
X0061474Y0182865D01*
X0061379Y0182738D01*
X0061282Y0182613D01*
X0061181Y0182491D01*
X0061077Y0182372D01*
X0060970Y0182255D01*
X0060860Y0182141D01*
X0060747Y0182030D01*
X0060632Y0181921D01*
X0060514Y0181816D01*
X0060393Y0181714D01*
X0060270Y0181614D01*
X0060144Y0181518D01*
X0060016Y0181425D01*
X0059886Y0181335D01*
X0059753Y0181249D01*
X0059618Y0181165D01*
X0059482Y0181086D01*
X0059343Y0181009D01*
X0059202Y0180937D01*
X0059060Y0180867D01*
X0058916Y0180802D01*
X0058770Y0180740D01*
X0058623Y0180682D01*
X0058474Y0180627D01*
X0058324Y0180576D01*
X0058173Y0180529D01*
X0058021Y0180486D01*
X0057868Y0180447D01*
X0057713Y0180411D01*
X0057558Y0180380D01*
X0057402Y0180352D01*
X0057246Y0180328D01*
X0057089Y0180308D01*
X0056931Y0180292D01*
X0056774Y0180280D01*
X0056615Y0180272D01*
X0056457Y0180268D01*
X0056299Y0180268D01*
X0056141Y0180272D01*
X0055982Y0180280D01*
X0055825Y0180292D01*
X0055667Y0180308D01*
X0055510Y0180328D01*
X0055354Y0180352D01*
X0055198Y0180380D01*
X0055043Y0180411D01*
X0054888Y0180447D01*
X0054735Y0180486D01*
X0054583Y0180529D01*
X0054432Y0180576D01*
X0054282Y0180627D01*
X0054133Y0180682D01*
X0053986Y0180740D01*
X0053840Y0180802D01*
X0053696Y0180867D01*
X0053554Y0180937D01*
X0053413Y0181009D01*
X0053274Y0181086D01*
X0053138Y0181165D01*
X0053003Y0181249D01*
X0052870Y0181335D01*
X0052740Y0181425D01*
X0052612Y0181518D01*
X0052486Y0181614D01*
X0052363Y0181714D01*
X0052242Y0181816D01*
X0052124Y0181921D01*
X0052009Y0182030D01*
X0051896Y0182141D01*
X0051786Y0182255D01*
X0051679Y0182372D01*
X0051575Y0182491D01*
X0051474Y0182613D01*
X0051377Y0182738D01*
X0051282Y0182865D01*
X0051191Y0182994D01*
X0051102Y0183125D01*
X0051018Y0183259D01*
X0050936Y0183395D01*
X0050858Y0183532D01*
X0050784Y0183672D01*
X0050713Y0183814D01*
X0050645Y0183957D01*
X0050581Y0184102D01*
X0050521Y0184248D01*
X0050465Y0184396D01*
X0050412Y0184545D01*
X0050363Y0184696D01*
X0050318Y0184848D01*
X0050277Y0185001D01*
X0050239Y0185154D01*
X0050206Y0185309D01*
X0050176Y0185465D01*
X0050150Y0185621D01*
X0050129Y0185778D01*
X0050111Y0185935D01*
X0050097Y0186093D01*
X0050087Y0186251D01*
X0050081Y0186409D01*
X0050079Y0186567D01*
M02*
