G75*
%MOIN*%
%OFA0B0*%
%FSLAX25Y25*%
%IPPOS*%
%LPD*%
%AMOC8*
5,1,8,0,0,1.08239X$1,22.5*
%
%ADD10C,0.00300*%
%ADD11C,0.05600*%
%ADD12C,0.04362*%
%ADD13R,0.09000X0.09000*%
%ADD14R,0.39370X0.39370*%
%ADD15R,0.03969X0.03969*%
%ADD16R,0.11811X0.04921*%
%ADD17OC8,0.05600*%
%ADD18C,0.05200*%
%ADD19C,0.05150*%
%ADD20OC8,0.06000*%
%ADD21C,0.06000*%
%ADD22C,0.06000*%
%ADD23C,0.05937*%
%ADD24R,0.05118X0.06299*%
%ADD25R,0.05000X0.10000*%
%ADD26C,0.03562*%
%ADD27C,0.03200*%
%ADD28C,0.01200*%
%ADD29C,0.01600*%
%ADD30C,0.01000*%
%ADD31C,0.03169*%
%ADD32C,0.04000*%
%ADD33C,0.10000*%
%ADD34C,0.02400*%
%ADD35C,0.16598*%
%ADD36C,0.08600*%
D10*
X0045853Y0274393D02*
X0045853Y0276861D01*
X0045853Y0278076D02*
X0042150Y0278076D01*
X0044002Y0278076D02*
X0044619Y0278693D01*
X0044619Y0279927D01*
X0044002Y0280545D01*
X0042150Y0280545D01*
X0042150Y0281759D02*
X0042150Y0282993D01*
X0042150Y0282376D02*
X0044619Y0282376D01*
X0044619Y0281759D01*
X0045853Y0282376D02*
X0046470Y0282376D01*
X0044619Y0284832D02*
X0044619Y0286683D01*
X0043384Y0286066D02*
X0043384Y0284832D01*
X0044002Y0284214D01*
X0044619Y0284832D01*
X0043384Y0286066D02*
X0042767Y0286683D01*
X0042150Y0286066D01*
X0042150Y0284214D01*
X0042150Y0275627D02*
X0045853Y0275627D01*
X0051236Y0289125D02*
X0050002Y0290360D01*
X0048150Y0290360D01*
X0050002Y0290360D02*
X0051236Y0291594D01*
X0051853Y0291594D01*
X0050619Y0293426D02*
X0050619Y0294660D01*
X0050002Y0295277D01*
X0049384Y0295277D01*
X0049384Y0292808D01*
X0048767Y0292808D02*
X0050002Y0292808D01*
X0050619Y0293426D01*
X0048767Y0292808D02*
X0048150Y0293426D01*
X0048150Y0294660D01*
X0048150Y0296492D02*
X0048150Y0298343D01*
X0048767Y0298960D01*
X0049384Y0298343D01*
X0049384Y0297109D01*
X0050002Y0296492D01*
X0050619Y0297109D01*
X0050619Y0298960D01*
X0044619Y0296505D02*
X0044619Y0294653D01*
X0044002Y0294036D01*
X0043384Y0294653D01*
X0043384Y0295888D01*
X0042767Y0296505D01*
X0042150Y0295888D01*
X0042150Y0294036D01*
X0042150Y0292815D02*
X0042150Y0291581D01*
X0042150Y0292198D02*
X0044619Y0292198D01*
X0044619Y0291581D01*
X0045853Y0292198D02*
X0046470Y0292198D01*
X0051236Y0289125D02*
X0051853Y0289125D01*
X0044002Y0301402D02*
X0042767Y0301402D01*
X0042150Y0302020D01*
X0042150Y0303871D01*
X0041533Y0303871D02*
X0044619Y0303871D01*
X0044619Y0302020D01*
X0044002Y0301402D01*
X0040916Y0302637D02*
X0040916Y0303254D01*
X0041533Y0303871D01*
X0042767Y0305086D02*
X0042150Y0305703D01*
X0042150Y0306937D01*
X0042767Y0307554D01*
X0044002Y0307554D01*
X0044619Y0306937D01*
X0044619Y0305703D01*
X0044002Y0305086D01*
X0042767Y0305086D01*
X0042150Y0308769D02*
X0042150Y0310003D01*
X0042150Y0309386D02*
X0045853Y0309386D01*
X0045853Y0308769D01*
X0044002Y0311224D02*
X0044619Y0311841D01*
X0044619Y0313693D01*
X0045853Y0313693D02*
X0042150Y0313693D01*
X0042150Y0311841D01*
X0042767Y0311224D01*
X0044002Y0311224D01*
D11*
X0086063Y0171000D03*
X0093937Y0171000D03*
X0098000Y0026500D03*
D12*
X0272563Y0025240D03*
X0272563Y0017760D03*
D13*
X0087300Y0018700D03*
X0087300Y0040700D03*
X0045900Y0040700D03*
X0045900Y0018700D03*
D14*
X0220000Y0171500D03*
X0098000Y0265500D03*
D15*
X0098000Y0265500D03*
X0098000Y0269437D03*
X0094063Y0269437D03*
X0094063Y0265500D03*
X0090126Y0265500D03*
X0090126Y0269437D03*
X0090126Y0273374D03*
X0094063Y0273374D03*
X0098000Y0273374D03*
X0101937Y0273374D03*
X0101937Y0269437D03*
X0101937Y0265500D03*
X0105874Y0265500D03*
X0105874Y0269437D03*
X0105874Y0273374D03*
X0105874Y0261563D03*
X0101937Y0261563D03*
X0098000Y0261563D03*
X0094063Y0261563D03*
X0090126Y0261563D03*
X0090126Y0257626D03*
X0094063Y0257626D03*
X0098000Y0257626D03*
X0101937Y0257626D03*
X0105874Y0257626D03*
X0212126Y0179374D03*
X0216063Y0179374D03*
X0216063Y0175437D03*
X0216063Y0171500D03*
X0220000Y0171500D03*
X0220000Y0175437D03*
X0223937Y0175437D03*
X0223937Y0171500D03*
X0227874Y0171500D03*
X0227874Y0175437D03*
X0227874Y0179374D03*
X0223937Y0179374D03*
X0220000Y0179374D03*
X0212126Y0175437D03*
X0212126Y0171500D03*
X0212126Y0167563D03*
X0216063Y0167563D03*
X0220000Y0167563D03*
X0223937Y0167563D03*
X0227874Y0167563D03*
X0227874Y0163626D03*
X0223937Y0163626D03*
X0220000Y0163626D03*
X0216063Y0163626D03*
X0212126Y0163626D03*
D16*
X0201014Y0202315D03*
X0201014Y0210189D03*
X0201014Y0218063D03*
X0201014Y0225937D03*
X0201014Y0233811D03*
X0201014Y0241685D03*
X0115236Y0241685D03*
X0115236Y0233811D03*
X0115236Y0225937D03*
X0115236Y0218063D03*
X0115236Y0210189D03*
X0115236Y0202315D03*
D17*
X0118000Y0026500D03*
X0108000Y0026500D03*
X0108000Y0016500D03*
X0098000Y0016500D03*
X0118000Y0016500D03*
X0128000Y0016500D03*
X0138000Y0016500D03*
X0148000Y0016500D03*
X0158000Y0016500D03*
X0158000Y0026500D03*
X0148000Y0026500D03*
X0138000Y0026500D03*
X0128000Y0026500D03*
D18*
X0181500Y0018600D02*
X0181500Y0013400D01*
X0191500Y0013400D02*
X0191500Y0018600D01*
X0201500Y0018600D02*
X0201500Y0013400D01*
X0211500Y0013400D02*
X0211500Y0018600D01*
X0221500Y0018600D02*
X0221500Y0013400D01*
X0231500Y0013400D02*
X0231500Y0018600D01*
X0241500Y0018600D02*
X0241500Y0013400D01*
X0241500Y0043400D02*
X0241500Y0048600D01*
X0231500Y0048600D02*
X0231500Y0043400D01*
X0221500Y0043400D02*
X0221500Y0048600D01*
X0211500Y0048600D02*
X0211500Y0043400D01*
X0201500Y0043400D02*
X0201500Y0048600D01*
X0191500Y0048600D02*
X0191500Y0043400D01*
X0181500Y0043400D02*
X0181500Y0048600D01*
X0051600Y0070000D02*
X0046400Y0070000D01*
X0046400Y0080000D02*
X0051600Y0080000D01*
X0051600Y0090000D02*
X0046400Y0090000D01*
X0046400Y0100000D02*
X0051600Y0100000D01*
X0051600Y0110000D02*
X0046400Y0110000D01*
X0046400Y0120000D02*
X0051600Y0120000D01*
D19*
X0188500Y0267500D03*
X0198500Y0267500D03*
X0208500Y0267500D03*
X0208500Y0277500D03*
X0198500Y0277500D03*
X0188500Y0277500D03*
D20*
X0240000Y0277000D03*
X0250000Y0277000D03*
X0260000Y0277000D03*
X0270000Y0277000D03*
X0270000Y0287000D03*
X0260000Y0287000D03*
X0250000Y0287000D03*
X0240000Y0287000D03*
X0068000Y0164000D03*
X0058000Y0164000D03*
X0058000Y0154000D03*
X0048000Y0154000D03*
X0068000Y0154000D03*
X0099500Y0097000D03*
X0109500Y0097000D03*
X0109500Y0087000D03*
X0099500Y0087000D03*
D21*
X0048000Y0164000D03*
D22*
X0182500Y0172500D02*
X0188500Y0172500D01*
X0188500Y0182500D02*
X0182500Y0182500D01*
X0182500Y0192500D02*
X0188500Y0192500D01*
X0259500Y0139000D02*
X0265500Y0139000D01*
X0265500Y0129000D02*
X0259500Y0129000D01*
X0259500Y0119000D02*
X0265500Y0119000D01*
X0265500Y0109000D02*
X0259500Y0109000D01*
X0259500Y0099000D02*
X0265500Y0099000D01*
X0265500Y0089000D02*
X0259500Y0089000D01*
X0259500Y0079000D02*
X0265500Y0079000D01*
D23*
X0212719Y0299000D02*
X0206781Y0299000D01*
X0206781Y0309000D02*
X0212719Y0309000D01*
X0109469Y0310000D02*
X0103531Y0310000D01*
X0103531Y0300000D02*
X0109469Y0300000D01*
D24*
X0246260Y0067000D03*
X0253740Y0067000D03*
D25*
X0250000Y0055500D03*
X0265000Y0055500D03*
X0265000Y0015500D03*
X0250000Y0015500D03*
D26*
X0256000Y0015000D03*
X0205500Y0056000D03*
X0201500Y0057000D03*
X0193500Y0057000D03*
X0193500Y0071500D03*
X0160000Y0071500D03*
X0141500Y0057000D03*
X0140500Y0052000D03*
X0140000Y0047000D03*
X0146000Y0042500D03*
X0155000Y0036500D03*
X0151500Y0033000D03*
X0165500Y0031500D03*
X0160500Y0043500D03*
X0164000Y0047000D03*
X0164000Y0054000D03*
X0118000Y0052000D03*
X0117500Y0047000D03*
X0118500Y0038000D03*
X0086000Y0049000D03*
X0075000Y0059500D03*
X0060000Y0064500D03*
X0114000Y0079500D03*
X0117000Y0092500D03*
X0120000Y0096000D03*
X0123000Y0099000D03*
X0128400Y0093900D03*
X0125000Y0091000D03*
X0146000Y0103900D03*
X0153000Y0097000D03*
X0169000Y0115500D03*
X0158500Y0121500D03*
X0135000Y0127000D03*
X0131500Y0130500D03*
X0135000Y0133500D03*
X0138000Y0136500D03*
X0134000Y0139500D03*
X0138500Y0142000D03*
X0126000Y0142000D03*
X0122000Y0143500D03*
X0119000Y0140000D03*
X0115500Y0146000D03*
X0111000Y0146000D03*
X0107500Y0148500D03*
X0094500Y0145000D03*
X0090500Y0141500D03*
X0087000Y0138000D03*
X0103350Y0127063D03*
X0109000Y0129000D03*
X0113500Y0123000D03*
X0117000Y0111500D03*
X0106000Y0109000D03*
X0086500Y0123100D03*
X0078500Y0123100D03*
X0070500Y0123100D03*
X0062500Y0123100D03*
X0058000Y0141000D03*
X0053000Y0139500D03*
X0044500Y0139500D03*
X0096400Y0165400D03*
X0100500Y0166000D03*
X0108000Y0174500D03*
X0104000Y0176000D03*
X0123500Y0188500D03*
X0126600Y0191700D03*
X0119000Y0191500D03*
X0136500Y0197000D03*
X0158500Y0194000D03*
X0164000Y0202500D03*
X0162000Y0206500D03*
X0166500Y0206500D03*
X0171000Y0206500D03*
X0169000Y0202500D03*
X0183000Y0203000D03*
X0183000Y0208000D03*
X0183000Y0213000D03*
X0188000Y0213000D03*
X0188000Y0208000D03*
X0193000Y0208000D03*
X0193000Y0213000D03*
X0210000Y0202250D03*
X0215500Y0202250D03*
X0221000Y0202250D03*
X0221000Y0207250D03*
X0221000Y0212250D03*
X0215500Y0212250D03*
X0215500Y0207250D03*
X0229000Y0219500D03*
X0226000Y0222500D03*
X0210500Y0227000D03*
X0215500Y0242500D03*
X0220000Y0247500D03*
X0223500Y0250500D03*
X0224500Y0256000D03*
X0222000Y0268500D03*
X0229000Y0270500D03*
X0185000Y0247500D03*
X0165500Y0247000D03*
X0157000Y0244500D03*
X0152500Y0241500D03*
X0153500Y0235000D03*
X0157000Y0232000D03*
X0166000Y0236000D03*
X0168000Y0232000D03*
X0165500Y0240500D03*
X0152000Y0258500D03*
X0152000Y0263500D03*
X0168000Y0259500D03*
X0168000Y0268500D03*
X0178000Y0268500D03*
X0161500Y0287500D03*
X0184000Y0292500D03*
X0145000Y0304000D03*
X0141500Y0299500D03*
X0134500Y0301000D03*
X0118000Y0285500D03*
X0125500Y0282500D03*
X0129500Y0279500D03*
X0131000Y0240500D03*
X0128500Y0235500D03*
X0128500Y0230500D03*
X0123500Y0230500D03*
X0123500Y0235500D03*
X0107250Y0241750D03*
X0102250Y0241750D03*
X0102250Y0236750D03*
X0097250Y0236750D03*
X0097250Y0241750D03*
X0097250Y0231750D03*
X0102250Y0231750D03*
X0084500Y0212500D03*
X0086500Y0196000D03*
X0055500Y0176000D03*
X0061000Y0174300D03*
X0132000Y0174500D03*
X0134000Y0167500D03*
X0160500Y0142500D03*
X0194000Y0160500D03*
X0217500Y0145500D03*
X0215000Y0141500D03*
X0217500Y0137500D03*
X0220000Y0141500D03*
X0222500Y0137500D03*
X0225000Y0141500D03*
X0222500Y0145500D03*
X0191000Y0122000D03*
X0201000Y0110000D03*
X0204500Y0099500D03*
X0214000Y0099500D03*
X0234000Y0096000D03*
X0244500Y0080000D03*
X0253500Y0072500D03*
X0240000Y0063500D03*
X0176500Y0188500D03*
X0169000Y0210500D03*
X0164000Y0210500D03*
X0263500Y0242500D03*
X0267500Y0196500D03*
X0062000Y0289500D03*
X0062000Y0293500D03*
X0058000Y0293500D03*
X0058000Y0289500D03*
X0054000Y0293500D03*
D27*
X0129500Y0287500D02*
X0129500Y0279500D01*
X0129500Y0287500D02*
X0141500Y0299500D01*
X0161500Y0287500D02*
X0161500Y0227000D01*
X0176500Y0227000D01*
X0176500Y0188500D01*
X0185500Y0182500D02*
X0190000Y0182500D01*
X0195000Y0187500D01*
X0195000Y0191500D01*
X0199000Y0195500D01*
X0226000Y0195500D01*
X0229500Y0199000D01*
X0229500Y0212000D01*
X0215500Y0226000D01*
X0215500Y0242500D01*
X0229000Y0230000D02*
X0229000Y0270500D01*
X0229000Y0283000D01*
X0182490Y0283000D01*
X0178000Y0278510D01*
X0178000Y0268500D01*
X0168000Y0268500D02*
X0168000Y0284000D01*
X0171500Y0287500D01*
X0180500Y0287500D01*
X0233500Y0287500D01*
X0233500Y0270500D01*
X0243500Y0270500D01*
X0250000Y0277000D01*
X0255000Y0269000D02*
X0249000Y0263000D01*
X0249000Y0236000D01*
X0267500Y0218000D01*
X0267500Y0196500D01*
X0246500Y0201000D02*
X0246500Y0203500D01*
X0233500Y0216500D01*
X0233500Y0225500D01*
X0229000Y0230000D01*
X0233500Y0243500D02*
X0233500Y0270500D01*
X0255000Y0269000D02*
X0262000Y0269000D01*
X0270000Y0277000D01*
X0233500Y0243500D02*
X0251000Y0227000D01*
X0250500Y0166000D01*
X0250500Y0133500D01*
X0234000Y0116000D01*
X0220500Y0116000D01*
X0214000Y0109500D01*
X0214000Y0099500D01*
X0208500Y0103500D02*
X0204500Y0099500D01*
X0208500Y0103500D02*
X0208500Y0112000D01*
X0217000Y0120500D01*
X0232000Y0120500D01*
X0246000Y0135500D01*
X0246000Y0164500D01*
X0246500Y0201000D01*
X0210500Y0221000D02*
X0207563Y0218063D01*
X0201014Y0218063D01*
X0195937Y0218063D01*
X0187000Y0227000D01*
X0176500Y0227000D01*
X0210500Y0227000D02*
X0210500Y0221000D01*
X0115236Y0225937D02*
X0106437Y0225937D01*
X0101000Y0220500D01*
X0092800Y0220500D01*
X0090800Y0218800D01*
X0084500Y0212500D01*
X0092685Y0202315D02*
X0115236Y0202315D01*
X0092685Y0202315D02*
X0086500Y0196000D01*
X0055500Y0176000D02*
X0053500Y0176000D01*
X0053500Y0173000D01*
X0058000Y0168500D01*
X0058000Y0164000D01*
X0186000Y0152500D02*
X0194000Y0160500D01*
X0191000Y0122000D02*
X0191000Y0116000D01*
X0197000Y0110000D01*
X0201000Y0110000D01*
X0273000Y0059000D02*
X0273000Y0058400D01*
X0273400Y0058500D01*
X0273400Y0053400D01*
X0273000Y0053000D01*
X0108000Y0033500D02*
X0108000Y0026500D01*
X0108000Y0033500D02*
X0096000Y0048500D01*
X0086000Y0049000D01*
X0098000Y0026500D02*
X0097400Y0026000D01*
X0087300Y0018700D01*
D28*
X0041600Y0012600D02*
X0041600Y0011100D01*
X0050000Y0011100D01*
X0050000Y0012600D01*
X0046500Y0012600D01*
X0046500Y0018100D01*
X0045300Y0018100D01*
X0045300Y0012600D01*
X0041600Y0012600D01*
X0045000Y0012600D02*
X0045000Y0011100D01*
X0045300Y0014500D02*
X0046500Y0014500D01*
X0046500Y0019300D02*
X0045300Y0019300D01*
X0045300Y0024800D01*
X0041600Y0024800D01*
X0041600Y0034600D01*
X0045300Y0034600D01*
X0045300Y0040100D01*
X0046500Y0040100D01*
X0046500Y0041300D01*
X0045300Y0041300D01*
X0045300Y0046800D01*
X0041600Y0046800D01*
X0041600Y0139713D01*
X0041619Y0139694D01*
X0041619Y0138927D01*
X0042058Y0137868D01*
X0042868Y0137058D01*
X0043927Y0136619D01*
X0045073Y0136619D01*
X0046132Y0137058D01*
X0046942Y0137868D01*
X0047100Y0138248D01*
X0047100Y0133713D01*
X0048213Y0132600D01*
X0065913Y0132600D01*
X0061713Y0128400D01*
X0060600Y0127287D01*
X0060600Y0125274D01*
X0060058Y0124732D01*
X0059619Y0123673D01*
X0059619Y0122527D01*
X0060058Y0121468D01*
X0060868Y0120658D01*
X0061927Y0120219D01*
X0062532Y0120219D01*
X0062100Y0119787D01*
X0054573Y0112260D01*
X0053696Y0113137D01*
X0052336Y0113700D01*
X0045664Y0113700D01*
X0044304Y0113137D01*
X0043263Y0112096D01*
X0042700Y0110736D01*
X0042700Y0109264D01*
X0043263Y0107904D01*
X0044304Y0106863D01*
X0045664Y0106300D01*
X0052336Y0106300D01*
X0053696Y0106863D01*
X0054737Y0107904D01*
X0054818Y0108100D01*
X0055787Y0108100D01*
X0064787Y0117100D01*
X0065413Y0117100D01*
X0064600Y0116287D01*
X0052013Y0103700D01*
X0045664Y0103700D01*
X0044304Y0103137D01*
X0043263Y0102096D01*
X0042700Y0100736D01*
X0042700Y0099264D01*
X0043263Y0097904D01*
X0044304Y0096863D01*
X0045664Y0096300D01*
X0052336Y0096300D01*
X0053600Y0096824D01*
X0053600Y0093695D01*
X0053212Y0093892D01*
X0052584Y0094097D01*
X0051931Y0094200D01*
X0049200Y0094200D01*
X0049200Y0090200D01*
X0048800Y0090200D01*
X0048800Y0094200D01*
X0046069Y0094200D01*
X0045416Y0094097D01*
X0044788Y0093892D01*
X0044199Y0093592D01*
X0043664Y0093204D01*
X0043196Y0092736D01*
X0042808Y0092201D01*
X0042508Y0091612D01*
X0042303Y0090984D01*
X0042200Y0090331D01*
X0042200Y0090200D01*
X0048800Y0090200D01*
X0048800Y0089800D01*
X0049200Y0089800D01*
X0049200Y0085800D01*
X0051931Y0085800D01*
X0052584Y0085903D01*
X0053212Y0086108D01*
X0053600Y0086305D01*
X0053600Y0083176D01*
X0052336Y0083700D01*
X0045664Y0083700D01*
X0044304Y0083137D01*
X0043263Y0082096D01*
X0042700Y0080736D01*
X0042700Y0079264D01*
X0043263Y0077904D01*
X0044304Y0076863D01*
X0045664Y0076300D01*
X0052336Y0076300D01*
X0053696Y0076863D01*
X0054737Y0077904D01*
X0054818Y0078100D01*
X0056287Y0078100D01*
X0057400Y0079213D01*
X0057400Y0099713D01*
X0068287Y0110600D01*
X0088131Y0110600D01*
X0088134Y0110597D01*
X0088917Y0110600D01*
X0089700Y0110600D01*
X0089704Y0110603D01*
X0089708Y0110603D01*
X0090260Y0111159D01*
X0090813Y0111713D01*
X0090813Y0111718D01*
X0103169Y0124182D01*
X0103923Y0124182D01*
X0104982Y0124621D01*
X0105792Y0125431D01*
X0106231Y0126490D01*
X0106231Y0127637D01*
X0105792Y0128695D01*
X0104982Y0129506D01*
X0103923Y0129945D01*
X0103132Y0129945D01*
X0104787Y0131600D01*
X0128837Y0131600D01*
X0128619Y0131073D01*
X0128619Y0129927D01*
X0129058Y0128868D01*
X0129868Y0128058D01*
X0130927Y0127619D01*
X0132073Y0127619D01*
X0132151Y0127651D01*
X0132119Y0127573D01*
X0132119Y0126427D01*
X0132558Y0125368D01*
X0133011Y0124915D01*
X0119881Y0111785D01*
X0119881Y0112073D01*
X0119442Y0113132D01*
X0118632Y0113942D01*
X0117573Y0114381D01*
X0116427Y0114381D01*
X0115368Y0113942D01*
X0114558Y0113132D01*
X0114200Y0112269D01*
X0114200Y0120171D01*
X0115132Y0120558D01*
X0115942Y0121368D01*
X0116381Y0122427D01*
X0116381Y0123573D01*
X0115942Y0124632D01*
X0115132Y0125442D01*
X0114073Y0125881D01*
X0112927Y0125881D01*
X0111868Y0125442D01*
X0111058Y0124632D01*
X0110619Y0123573D01*
X0110619Y0122427D01*
X0110800Y0121990D01*
X0110800Y0111204D01*
X0102800Y0103204D01*
X0102800Y0099498D01*
X0101198Y0101100D01*
X0097802Y0101100D01*
X0095400Y0098698D01*
X0095400Y0095302D01*
X0097802Y0092900D01*
X0101198Y0092900D01*
X0102800Y0094502D01*
X0102800Y0091704D01*
X0101697Y0090601D01*
X0101198Y0091100D01*
X0097802Y0091100D01*
X0095400Y0088698D01*
X0095400Y0085302D01*
X0097802Y0082900D01*
X0101198Y0082900D01*
X0103600Y0085302D01*
X0103600Y0087696D01*
X0105204Y0089300D01*
X0105204Y0089300D01*
X0106200Y0090296D01*
X0106200Y0094502D01*
X0107802Y0092900D01*
X0111198Y0092900D01*
X0113600Y0095302D01*
X0113600Y0098698D01*
X0111400Y0100898D01*
X0111400Y0102213D01*
X0115300Y0106113D01*
X0115300Y0094874D01*
X0114558Y0094132D01*
X0114119Y0093073D01*
X0114119Y0091927D01*
X0114558Y0090868D01*
X0115368Y0090058D01*
X0116077Y0089764D01*
X0113600Y0087287D01*
X0113600Y0088698D01*
X0111198Y0091100D01*
X0107802Y0091100D01*
X0105400Y0088698D01*
X0105400Y0085302D01*
X0107802Y0082900D01*
X0109213Y0082900D01*
X0108600Y0082287D01*
X0108600Y0071900D01*
X0054818Y0071900D01*
X0054737Y0072096D01*
X0053696Y0073137D01*
X0052336Y0073700D01*
X0045664Y0073700D01*
X0044304Y0073137D01*
X0043263Y0072096D01*
X0042700Y0070736D01*
X0042700Y0069264D01*
X0043263Y0067904D01*
X0044304Y0066863D01*
X0045664Y0066300D01*
X0052336Y0066300D01*
X0053696Y0066863D01*
X0054737Y0067904D01*
X0054818Y0068100D01*
X0111287Y0068100D01*
X0112300Y0069113D01*
X0112300Y0068094D01*
X0112233Y0067488D01*
X0112300Y0067404D01*
X0112300Y0067296D01*
X0112731Y0066864D01*
X0118300Y0059904D01*
X0118300Y0059796D01*
X0118731Y0059364D01*
X0119112Y0058888D01*
X0119220Y0058876D01*
X0119296Y0058800D01*
X0119906Y0058800D01*
X0120512Y0058733D01*
X0120596Y0058800D01*
X0203296Y0058800D01*
X0203761Y0058335D01*
X0203058Y0057632D01*
X0202619Y0056573D01*
X0202619Y0055427D01*
X0203058Y0054368D01*
X0203326Y0054100D01*
X0198884Y0054100D01*
X0198884Y0054534D01*
X0198476Y0055520D01*
X0197720Y0056276D01*
X0196734Y0056684D01*
X0195666Y0056684D01*
X0194679Y0056276D01*
X0194104Y0055700D01*
X0166374Y0055700D01*
X0165632Y0056442D01*
X0164573Y0056881D01*
X0163427Y0056881D01*
X0162368Y0056442D01*
X0161558Y0055632D01*
X0161119Y0054573D01*
X0161119Y0053700D01*
X0142874Y0053700D01*
X0142132Y0054442D01*
X0141073Y0054881D01*
X0139927Y0054881D01*
X0138868Y0054442D01*
X0138126Y0053700D01*
X0120374Y0053700D01*
X0119632Y0054442D01*
X0118573Y0054881D01*
X0117427Y0054881D01*
X0116368Y0054442D01*
X0115558Y0053632D01*
X0115119Y0052573D01*
X0115119Y0051427D01*
X0115558Y0050368D01*
X0116303Y0049623D01*
X0115868Y0049442D01*
X0115058Y0048632D01*
X0114619Y0047573D01*
X0114619Y0046427D01*
X0115058Y0045368D01*
X0115868Y0044558D01*
X0116927Y0044119D01*
X0118073Y0044119D01*
X0119132Y0044558D01*
X0119874Y0045300D01*
X0137626Y0045300D01*
X0138368Y0044558D01*
X0139427Y0044119D01*
X0140573Y0044119D01*
X0141632Y0044558D01*
X0142374Y0045300D01*
X0145231Y0045300D01*
X0144368Y0044942D01*
X0143558Y0044132D01*
X0143119Y0043073D01*
X0143119Y0041927D01*
X0143558Y0040868D01*
X0144368Y0040058D01*
X0145427Y0039619D01*
X0146573Y0039619D01*
X0147252Y0039900D01*
X0156837Y0039900D01*
X0156900Y0039837D01*
X0156900Y0038674D01*
X0156632Y0038942D01*
X0155573Y0039381D01*
X0154427Y0039381D01*
X0153368Y0038942D01*
X0152558Y0038132D01*
X0152544Y0038100D01*
X0133337Y0038100D01*
X0132337Y0037100D01*
X0131400Y0036163D01*
X0131400Y0028615D01*
X0129615Y0030400D01*
X0126385Y0030400D01*
X0126374Y0030389D01*
X0120669Y0036094D01*
X0120942Y0036368D01*
X0121381Y0037427D01*
X0121381Y0038573D01*
X0120942Y0039632D01*
X0120132Y0040442D01*
X0119073Y0040881D01*
X0117927Y0040881D01*
X0116868Y0040442D01*
X0116058Y0039632D01*
X0115619Y0038573D01*
X0115619Y0037427D01*
X0116058Y0036368D01*
X0116868Y0035558D01*
X0116900Y0035544D01*
X0116900Y0035337D01*
X0117837Y0034400D01*
X0124111Y0028126D01*
X0124100Y0028115D01*
X0124100Y0024885D01*
X0126385Y0022600D01*
X0129615Y0022600D01*
X0131400Y0024385D01*
X0131400Y0018663D01*
X0131376Y0018639D01*
X0129615Y0020400D01*
X0126385Y0020400D01*
X0124100Y0018115D01*
X0124100Y0014885D01*
X0126385Y0012600D01*
X0129615Y0012600D01*
X0131415Y0014400D01*
X0131663Y0014400D01*
X0132600Y0015337D01*
X0134100Y0016837D01*
X0134100Y0014885D01*
X0136385Y0012600D01*
X0139615Y0012600D01*
X0141900Y0014885D01*
X0141900Y0018115D01*
X0139615Y0020400D01*
X0136385Y0020400D01*
X0134600Y0018615D01*
X0134600Y0024385D01*
X0136385Y0022600D01*
X0139615Y0022600D01*
X0141900Y0024885D01*
X0141900Y0028115D01*
X0139615Y0030400D01*
X0137600Y0030400D01*
X0137600Y0030837D01*
X0138163Y0031400D01*
X0149044Y0031400D01*
X0149058Y0031368D01*
X0149326Y0031100D01*
X0147337Y0031100D01*
X0146637Y0030400D01*
X0146385Y0030400D01*
X0144100Y0028115D01*
X0144100Y0024885D01*
X0146385Y0022600D01*
X0149615Y0022600D01*
X0151900Y0024885D01*
X0151900Y0027900D01*
X0152663Y0027900D01*
X0159163Y0034400D01*
X0160100Y0035337D01*
X0160100Y0041163D01*
X0159100Y0042163D01*
X0158163Y0043100D01*
X0148870Y0043100D01*
X0148442Y0044132D01*
X0147632Y0044942D01*
X0146769Y0045300D01*
X0161626Y0045300D01*
X0161700Y0045226D01*
X0161700Y0039084D01*
X0161372Y0038756D01*
X0160900Y0037617D01*
X0160900Y0036383D01*
X0161372Y0035244D01*
X0162244Y0034372D01*
X0163383Y0033900D01*
X0273617Y0033900D01*
X0274650Y0034328D01*
X0274650Y0028393D01*
X0274354Y0028591D01*
X0273666Y0028876D01*
X0272935Y0029021D01*
X0272563Y0029021D01*
X0272563Y0025240D01*
X0272563Y0021459D01*
X0272935Y0021459D01*
X0273666Y0021604D01*
X0274354Y0021889D01*
X0274650Y0022087D01*
X0274650Y0020313D01*
X0274422Y0020541D01*
X0273216Y0021041D01*
X0271910Y0021041D01*
X0270704Y0020541D01*
X0269781Y0019618D01*
X0269282Y0018412D01*
X0269282Y0017107D01*
X0269781Y0015901D01*
X0270704Y0014978D01*
X0271910Y0014479D01*
X0273216Y0014479D01*
X0274422Y0014978D01*
X0274650Y0015207D01*
X0274650Y0011100D01*
X0269100Y0011100D01*
X0269100Y0014900D01*
X0265600Y0014900D01*
X0265600Y0016100D01*
X0264400Y0016100D01*
X0264400Y0022100D01*
X0262289Y0022100D01*
X0261882Y0021991D01*
X0261518Y0021780D01*
X0261220Y0021482D01*
X0261009Y0021118D01*
X0260900Y0020711D01*
X0260900Y0016100D01*
X0264400Y0016100D01*
X0264400Y0014900D01*
X0260900Y0014900D01*
X0260900Y0011100D01*
X0253600Y0011100D01*
X0253600Y0013100D01*
X0253826Y0013100D01*
X0254368Y0012558D01*
X0255427Y0012119D01*
X0256573Y0012119D01*
X0257632Y0012558D01*
X0258442Y0013368D01*
X0258881Y0014427D01*
X0258881Y0015573D01*
X0258442Y0016632D01*
X0257632Y0017442D01*
X0256573Y0017881D01*
X0255427Y0017881D01*
X0254368Y0017442D01*
X0253826Y0016900D01*
X0253600Y0016900D01*
X0253600Y0020956D01*
X0252956Y0021600D01*
X0247044Y0021600D01*
X0246400Y0020956D01*
X0246400Y0011100D01*
X0245020Y0011100D01*
X0245092Y0011199D01*
X0245392Y0011788D01*
X0245597Y0012416D01*
X0245700Y0013069D01*
X0245700Y0015800D01*
X0241700Y0015800D01*
X0241700Y0016200D01*
X0241300Y0016200D01*
X0241300Y0022800D01*
X0241169Y0022800D01*
X0240516Y0022697D01*
X0239888Y0022492D01*
X0239299Y0022192D01*
X0238764Y0021804D01*
X0238296Y0021336D01*
X0237908Y0020801D01*
X0237608Y0020212D01*
X0237403Y0019584D01*
X0237300Y0018931D01*
X0237300Y0016200D01*
X0241300Y0016200D01*
X0241300Y0015800D01*
X0237300Y0015800D01*
X0237300Y0013069D01*
X0237403Y0012416D01*
X0237608Y0011788D01*
X0237908Y0011199D01*
X0237980Y0011100D01*
X0235020Y0011100D01*
X0235092Y0011199D01*
X0235392Y0011788D01*
X0235597Y0012416D01*
X0235700Y0013069D01*
X0235700Y0015800D01*
X0231700Y0015800D01*
X0231700Y0016200D01*
X0231300Y0016200D01*
X0231300Y0022800D01*
X0231169Y0022800D01*
X0230516Y0022697D01*
X0229888Y0022492D01*
X0229299Y0022192D01*
X0228764Y0021804D01*
X0228296Y0021336D01*
X0227908Y0020801D01*
X0227608Y0020212D01*
X0227403Y0019584D01*
X0227300Y0018931D01*
X0227300Y0016200D01*
X0231300Y0016200D01*
X0231300Y0015800D01*
X0227300Y0015800D01*
X0227300Y0013069D01*
X0227403Y0012416D01*
X0227608Y0011788D01*
X0227908Y0011199D01*
X0227980Y0011100D01*
X0225020Y0011100D01*
X0225092Y0011199D01*
X0225392Y0011788D01*
X0225597Y0012416D01*
X0225700Y0013069D01*
X0225700Y0015800D01*
X0221700Y0015800D01*
X0221700Y0016200D01*
X0221300Y0016200D01*
X0221300Y0022800D01*
X0221169Y0022800D01*
X0220516Y0022697D01*
X0219888Y0022492D01*
X0219299Y0022192D01*
X0218764Y0021804D01*
X0218296Y0021336D01*
X0217908Y0020801D01*
X0217608Y0020212D01*
X0217403Y0019584D01*
X0217300Y0018931D01*
X0217300Y0016200D01*
X0221300Y0016200D01*
X0221300Y0015800D01*
X0217300Y0015800D01*
X0217300Y0013069D01*
X0217403Y0012416D01*
X0217608Y0011788D01*
X0217908Y0011199D01*
X0217980Y0011100D01*
X0215020Y0011100D01*
X0215092Y0011199D01*
X0215392Y0011788D01*
X0215597Y0012416D01*
X0215700Y0013069D01*
X0215700Y0015800D01*
X0211700Y0015800D01*
X0211700Y0016200D01*
X0211300Y0016200D01*
X0211300Y0022800D01*
X0211169Y0022800D01*
X0210516Y0022697D01*
X0209888Y0022492D01*
X0209299Y0022192D01*
X0208764Y0021804D01*
X0208296Y0021336D01*
X0207908Y0020801D01*
X0207608Y0020212D01*
X0207403Y0019584D01*
X0207300Y0018931D01*
X0207300Y0016200D01*
X0211300Y0016200D01*
X0211300Y0015800D01*
X0207300Y0015800D01*
X0207300Y0013069D01*
X0207403Y0012416D01*
X0207608Y0011788D01*
X0207908Y0011199D01*
X0207980Y0011100D01*
X0205020Y0011100D01*
X0205092Y0011199D01*
X0205392Y0011788D01*
X0205597Y0012416D01*
X0205700Y0013069D01*
X0205700Y0015800D01*
X0201700Y0015800D01*
X0201700Y0016200D01*
X0201300Y0016200D01*
X0201300Y0022800D01*
X0201169Y0022800D01*
X0200516Y0022697D01*
X0199888Y0022492D01*
X0199299Y0022192D01*
X0198764Y0021804D01*
X0198296Y0021336D01*
X0197908Y0020801D01*
X0197608Y0020212D01*
X0197403Y0019584D01*
X0197300Y0018931D01*
X0197300Y0016200D01*
X0201300Y0016200D01*
X0201300Y0015800D01*
X0197300Y0015800D01*
X0197300Y0013069D01*
X0197403Y0012416D01*
X0197608Y0011788D01*
X0197908Y0011199D01*
X0197980Y0011100D01*
X0195020Y0011100D01*
X0195092Y0011199D01*
X0195392Y0011788D01*
X0195597Y0012416D01*
X0195700Y0013069D01*
X0195700Y0015800D01*
X0191700Y0015800D01*
X0191700Y0016200D01*
X0191300Y0016200D01*
X0191300Y0022800D01*
X0191169Y0022800D01*
X0190516Y0022697D01*
X0189888Y0022492D01*
X0189299Y0022192D01*
X0188764Y0021804D01*
X0188296Y0021336D01*
X0187908Y0020801D01*
X0187608Y0020212D01*
X0187403Y0019584D01*
X0187300Y0018931D01*
X0187300Y0016200D01*
X0191300Y0016200D01*
X0191300Y0015800D01*
X0187300Y0015800D01*
X0187300Y0013069D01*
X0187403Y0012416D01*
X0187608Y0011788D01*
X0187908Y0011199D01*
X0187980Y0011100D01*
X0185020Y0011100D01*
X0185092Y0011199D01*
X0185392Y0011788D01*
X0185597Y0012416D01*
X0185700Y0013069D01*
X0185700Y0015800D01*
X0181700Y0015800D01*
X0181700Y0016200D01*
X0181300Y0016200D01*
X0181300Y0022800D01*
X0181169Y0022800D01*
X0180516Y0022697D01*
X0179888Y0022492D01*
X0179299Y0022192D01*
X0178764Y0021804D01*
X0178296Y0021336D01*
X0177908Y0020801D01*
X0177608Y0020212D01*
X0177403Y0019584D01*
X0177300Y0018931D01*
X0177300Y0016200D01*
X0181300Y0016200D01*
X0181300Y0015800D01*
X0177300Y0015800D01*
X0177300Y0013069D01*
X0177403Y0012416D01*
X0177608Y0011788D01*
X0177908Y0011199D01*
X0177980Y0011100D01*
X0083200Y0011100D01*
X0083200Y0012600D01*
X0086700Y0012600D01*
X0086700Y0018100D01*
X0087900Y0018100D01*
X0087900Y0019300D01*
X0086700Y0019300D01*
X0086700Y0024800D01*
X0083200Y0024800D01*
X0083200Y0034600D01*
X0086700Y0034600D01*
X0086700Y0040100D01*
X0081200Y0040100D01*
X0081200Y0038800D01*
X0052000Y0038800D01*
X0052000Y0040100D01*
X0046500Y0040100D01*
X0046500Y0034600D01*
X0050000Y0034600D01*
X0050000Y0024800D01*
X0046500Y0024800D01*
X0046500Y0019300D01*
X0046500Y0019500D02*
X0045300Y0019500D01*
X0045300Y0024500D02*
X0046500Y0024500D01*
X0045000Y0024800D02*
X0045000Y0034600D01*
X0041600Y0034500D02*
X0050000Y0034500D01*
X0050000Y0029500D02*
X0041600Y0029500D01*
X0055000Y0038800D02*
X0055000Y0068100D01*
X0055000Y0071900D02*
X0055000Y0078100D01*
X0057400Y0079500D02*
X0108600Y0079500D01*
X0108600Y0074500D02*
X0041600Y0074500D01*
X0045000Y0073425D02*
X0045000Y0076575D01*
X0042700Y0079500D02*
X0041600Y0079500D01*
X0045000Y0083425D02*
X0045000Y0086039D01*
X0044788Y0086108D02*
X0045416Y0085903D01*
X0046069Y0085800D01*
X0048800Y0085800D01*
X0048800Y0089800D01*
X0042200Y0089800D01*
X0042200Y0089669D01*
X0042303Y0089016D01*
X0042508Y0088388D01*
X0042808Y0087799D01*
X0043196Y0087264D01*
X0043664Y0086796D01*
X0044199Y0086408D01*
X0044788Y0086108D01*
X0041600Y0084500D02*
X0053600Y0084500D01*
X0050000Y0083700D02*
X0050000Y0085800D01*
X0049200Y0089500D02*
X0048800Y0089500D01*
X0045000Y0089800D02*
X0045000Y0090200D01*
X0042227Y0089500D02*
X0041600Y0089500D01*
X0041600Y0094500D02*
X0053600Y0094500D01*
X0050000Y0094200D02*
X0050000Y0096300D01*
X0045000Y0096575D02*
X0045000Y0093961D01*
X0042700Y0099500D02*
X0041600Y0099500D01*
X0045000Y0103425D02*
X0045000Y0106575D01*
X0042700Y0109500D02*
X0041600Y0109500D01*
X0041600Y0104500D02*
X0052813Y0104500D01*
X0050000Y0103700D02*
X0050000Y0106300D01*
X0055000Y0106687D02*
X0055000Y0108100D01*
X0057187Y0109500D02*
X0057813Y0109500D01*
X0060000Y0111687D02*
X0060000Y0112313D01*
X0062187Y0114500D02*
X0062813Y0114500D01*
X0065000Y0116687D02*
X0065000Y0117100D01*
X0065000Y0120900D02*
X0065000Y0121607D01*
X0064942Y0121468D02*
X0064374Y0120900D01*
X0068626Y0120900D01*
X0068058Y0121468D01*
X0067619Y0122527D01*
X0067619Y0123673D01*
X0068058Y0124732D01*
X0068600Y0125274D01*
X0068600Y0126787D01*
X0069713Y0127900D01*
X0071413Y0129600D01*
X0068287Y0129600D01*
X0064400Y0125713D01*
X0064400Y0125274D01*
X0064942Y0124732D01*
X0065381Y0123673D01*
X0065381Y0122527D01*
X0064942Y0121468D01*
X0065039Y0124500D02*
X0067961Y0124500D01*
X0065000Y0124593D02*
X0065000Y0126313D01*
X0062813Y0129500D02*
X0041600Y0129500D01*
X0041600Y0134500D02*
X0047100Y0134500D01*
X0045000Y0136619D02*
X0045000Y0123425D01*
X0045664Y0123700D02*
X0044304Y0123137D01*
X0043263Y0122096D01*
X0042700Y0120736D01*
X0042700Y0119264D01*
X0043263Y0117904D01*
X0044304Y0116863D01*
X0045664Y0116300D01*
X0052336Y0116300D01*
X0053696Y0116863D01*
X0054737Y0117904D01*
X0055300Y0119264D01*
X0055300Y0120736D01*
X0054737Y0122096D01*
X0053696Y0123137D01*
X0052336Y0123700D01*
X0045664Y0123700D01*
X0041600Y0124500D02*
X0059961Y0124500D01*
X0060000Y0124593D02*
X0060000Y0132600D01*
X0055000Y0132600D02*
X0055000Y0121460D01*
X0055300Y0119500D02*
X0061813Y0119500D01*
X0060000Y0117687D02*
X0060000Y0121607D01*
X0055000Y0118540D02*
X0055000Y0112687D01*
X0056813Y0114500D02*
X0041600Y0114500D01*
X0045000Y0113425D02*
X0045000Y0116575D01*
X0042700Y0119500D02*
X0041600Y0119500D01*
X0050000Y0116300D02*
X0050000Y0113700D01*
X0050000Y0123700D02*
X0050000Y0132600D01*
X0047100Y0140752D02*
X0046942Y0141132D01*
X0046132Y0141942D01*
X0045073Y0142381D01*
X0044900Y0142381D01*
X0044900Y0151302D01*
X0046302Y0149900D01*
X0048713Y0149900D01*
X0048213Y0149400D01*
X0047100Y0148287D01*
X0047100Y0140752D01*
X0045000Y0142381D02*
X0045000Y0151202D01*
X0044900Y0149500D02*
X0048313Y0149500D01*
X0050900Y0146713D02*
X0054900Y0150713D01*
X0054900Y0151302D01*
X0056302Y0149900D01*
X0059696Y0149900D01*
X0060800Y0148796D01*
X0061796Y0147800D01*
X0070704Y0147800D01*
X0072704Y0149800D01*
X0082896Y0149800D01*
X0082300Y0149204D01*
X0075796Y0142700D01*
X0060374Y0142700D01*
X0059632Y0143442D01*
X0058573Y0143881D01*
X0057427Y0143881D01*
X0056368Y0143442D01*
X0055558Y0142632D01*
X0055119Y0141573D01*
X0055119Y0141456D01*
X0054632Y0141942D01*
X0053573Y0142381D01*
X0052427Y0142381D01*
X0051368Y0141942D01*
X0050900Y0141474D01*
X0050900Y0146713D01*
X0050900Y0144500D02*
X0077596Y0144500D01*
X0075000Y0142700D02*
X0075000Y0149800D01*
X0072404Y0149500D02*
X0082596Y0149500D01*
X0084000Y0148500D02*
X0107500Y0148500D01*
X0110204Y0149500D02*
X0111096Y0149500D01*
X0110796Y0149800D02*
X0110080Y0149800D01*
X0110381Y0149073D01*
X0110381Y0148862D01*
X0110427Y0148881D01*
X0111573Y0148881D01*
X0111800Y0148787D01*
X0111800Y0148796D01*
X0110796Y0149800D01*
X0111500Y0151500D02*
X0113500Y0149500D01*
X0113500Y0148000D01*
X0115500Y0146000D01*
X0115200Y0148881D02*
X0115200Y0150204D01*
X0114204Y0151200D01*
X0112304Y0153100D01*
X0143763Y0153100D01*
X0150941Y0145922D01*
X0152926Y0145100D01*
X0159248Y0145100D01*
X0158868Y0144942D01*
X0158058Y0144132D01*
X0157619Y0143073D01*
X0157619Y0141927D01*
X0158058Y0140868D01*
X0158800Y0140126D01*
X0158800Y0137296D01*
X0159796Y0136300D01*
X0162896Y0133200D01*
X0160204Y0133200D01*
X0155700Y0137704D01*
X0155700Y0137704D01*
X0154704Y0138700D01*
X0151704Y0138700D01*
X0150700Y0139704D01*
X0149704Y0140700D01*
X0142204Y0140700D01*
X0141381Y0141523D01*
X0141381Y0142573D01*
X0140942Y0143632D01*
X0140132Y0144442D01*
X0139073Y0144881D01*
X0137927Y0144881D01*
X0136868Y0144442D01*
X0136058Y0143632D01*
X0135619Y0142573D01*
X0135619Y0141948D01*
X0134573Y0142381D01*
X0133427Y0142381D01*
X0132368Y0141942D01*
X0131558Y0141132D01*
X0131119Y0140073D01*
X0131119Y0138927D01*
X0131154Y0138841D01*
X0127713Y0135400D01*
X0122087Y0135400D01*
X0122400Y0135713D01*
X0125806Y0139119D01*
X0126573Y0139119D01*
X0127632Y0139558D01*
X0128442Y0140368D01*
X0128881Y0141427D01*
X0128881Y0142573D01*
X0128442Y0143632D01*
X0127632Y0144442D01*
X0126573Y0144881D01*
X0125427Y0144881D01*
X0124675Y0144570D01*
X0124442Y0145132D01*
X0123632Y0145942D01*
X0122573Y0146381D01*
X0121427Y0146381D01*
X0120368Y0145942D01*
X0119826Y0145400D01*
X0118370Y0145400D01*
X0118381Y0145427D01*
X0118381Y0146573D01*
X0117942Y0147632D01*
X0117132Y0148442D01*
X0116073Y0148881D01*
X0115200Y0148881D01*
X0115200Y0149500D02*
X0147363Y0149500D01*
X0145000Y0151863D02*
X0145000Y0140700D01*
X0145000Y0137300D02*
X0145000Y0132434D01*
X0145165Y0132284D02*
X0144674Y0132731D01*
X0144204Y0133200D01*
X0144157Y0133200D01*
X0140881Y0136178D01*
X0140881Y0137073D01*
X0140781Y0137315D01*
X0140796Y0137300D01*
X0146004Y0137300D01*
X0145724Y0137020D01*
X0145316Y0136034D01*
X0145316Y0134966D01*
X0145724Y0133979D01*
X0146479Y0133224D01*
X0147466Y0132816D01*
X0148534Y0132816D01*
X0149015Y0133015D01*
X0148816Y0132534D01*
X0148816Y0131466D01*
X0149224Y0130479D01*
X0149979Y0129724D01*
X0149986Y0129722D01*
X0150796Y0128912D01*
X0154880Y0124827D01*
X0159232Y0124827D01*
X0160204Y0125800D01*
X0161296Y0125800D01*
X0168715Y0118381D01*
X0168427Y0118381D01*
X0167823Y0118131D01*
X0161381Y0121812D01*
X0161381Y0122073D01*
X0160942Y0123132D01*
X0160132Y0123942D01*
X0159073Y0124381D01*
X0157927Y0124381D01*
X0156868Y0123942D01*
X0156058Y0123132D01*
X0155619Y0122073D01*
X0155619Y0120927D01*
X0156058Y0119868D01*
X0156868Y0119058D01*
X0157927Y0118619D01*
X0159073Y0118619D01*
X0159677Y0118869D01*
X0166078Y0115211D01*
X0153694Y0102400D01*
X0148497Y0102400D01*
X0148881Y0103327D01*
X0148881Y0104473D01*
X0148442Y0105532D01*
X0147632Y0106342D01*
X0146573Y0106781D01*
X0145545Y0106781D01*
X0140200Y0112198D01*
X0140200Y0118296D01*
X0145200Y0123296D01*
X0145200Y0130843D01*
X0145232Y0130877D01*
X0145200Y0131540D01*
X0145200Y0132204D01*
X0145167Y0132237D01*
X0145165Y0132284D01*
X0143500Y0131500D02*
X0138000Y0136500D01*
X0136881Y0139155D02*
X0136881Y0139552D01*
X0137360Y0139354D01*
X0136881Y0139155D01*
X0136881Y0139500D02*
X0137007Y0139500D01*
X0138500Y0142000D02*
X0141500Y0139000D01*
X0149000Y0139000D01*
X0151000Y0137000D01*
X0154000Y0137000D01*
X0159500Y0131500D01*
X0164000Y0131500D01*
X0208500Y0087000D01*
X0225500Y0087000D01*
X0229000Y0083500D01*
X0229000Y0063500D01*
X0231500Y0061000D01*
X0237000Y0061000D01*
X0241500Y0056500D01*
X0241500Y0046000D01*
X0245200Y0044500D02*
X0269900Y0044500D01*
X0269900Y0040100D02*
X0243202Y0040100D01*
X0243596Y0040263D01*
X0244637Y0041304D01*
X0245200Y0042664D01*
X0245200Y0049336D01*
X0244637Y0050696D01*
X0243596Y0051737D01*
X0243200Y0051901D01*
X0243200Y0057204D01*
X0242204Y0058200D01*
X0239785Y0060619D01*
X0240573Y0060619D01*
X0241632Y0061058D01*
X0242442Y0061868D01*
X0242881Y0062927D01*
X0242881Y0063114D01*
X0243245Y0062750D01*
X0244360Y0062750D01*
X0244360Y0062453D01*
X0246400Y0060413D01*
X0246400Y0050044D01*
X0247044Y0049400D01*
X0252956Y0049400D01*
X0253600Y0050044D01*
X0253600Y0060956D01*
X0252956Y0061600D01*
X0250587Y0061600D01*
X0249356Y0062831D01*
X0249919Y0063395D01*
X0249919Y0070605D01*
X0249275Y0071250D01*
X0243245Y0071250D01*
X0242601Y0070605D01*
X0242601Y0068788D01*
X0241600Y0067787D01*
X0240194Y0066381D01*
X0239523Y0066381D01*
X0233200Y0072704D01*
X0233200Y0085204D01*
X0228700Y0089704D01*
X0227704Y0090700D01*
X0210204Y0090700D01*
X0204285Y0096619D01*
X0205073Y0096619D01*
X0206132Y0097058D01*
X0206942Y0097868D01*
X0207124Y0098305D01*
X0210789Y0101971D01*
X0211200Y0102963D01*
X0211200Y0110882D01*
X0218118Y0117800D01*
X0218482Y0117800D01*
X0218211Y0117529D01*
X0212471Y0111789D01*
X0211711Y0111029D01*
X0211300Y0110037D01*
X0211300Y0100510D01*
X0211119Y0100073D01*
X0211119Y0098927D01*
X0211558Y0097868D01*
X0212368Y0097058D01*
X0213427Y0096619D01*
X0214573Y0096619D01*
X0215632Y0097058D01*
X0216442Y0097868D01*
X0216881Y0098927D01*
X0216881Y0100073D01*
X0216700Y0100510D01*
X0216700Y0108382D01*
X0221618Y0113300D01*
X0233504Y0113300D01*
X0233543Y0113285D01*
X0234040Y0113300D01*
X0234537Y0113300D01*
X0234575Y0113316D01*
X0234616Y0113317D01*
X0235070Y0113521D01*
X0235529Y0113711D01*
X0235559Y0113740D01*
X0235596Y0113757D01*
X0235937Y0114119D01*
X0236289Y0114471D01*
X0236305Y0114509D01*
X0252437Y0131619D01*
X0252789Y0131971D01*
X0252805Y0132009D01*
X0252833Y0132039D01*
X0253010Y0132503D01*
X0253200Y0132963D01*
X0253200Y0133004D01*
X0253215Y0133043D01*
X0253200Y0133540D01*
X0253200Y0165989D01*
X0253331Y0181937D01*
X0255398Y0179870D01*
X0258301Y0178668D01*
X0261443Y0178668D01*
X0264347Y0179870D01*
X0266569Y0182092D01*
X0267771Y0184996D01*
X0267771Y0188138D01*
X0266569Y0191041D01*
X0264347Y0193264D01*
X0261443Y0194466D01*
X0258301Y0194466D01*
X0255398Y0193264D01*
X0253407Y0191273D01*
X0253696Y0226493D01*
X0253715Y0226543D01*
X0253700Y0227029D01*
X0253704Y0227515D01*
X0253685Y0227564D01*
X0253683Y0227616D01*
X0253635Y0227723D01*
X0264800Y0216860D01*
X0264800Y0197510D01*
X0264619Y0197073D01*
X0264619Y0195927D01*
X0265058Y0194868D01*
X0265868Y0194058D01*
X0266927Y0193619D01*
X0268073Y0193619D01*
X0269132Y0194058D01*
X0269900Y0194826D01*
X0269900Y0120344D01*
X0269763Y0120766D01*
X0269434Y0121411D01*
X0269009Y0121997D01*
X0268497Y0122509D01*
X0267911Y0122934D01*
X0267266Y0123263D01*
X0266577Y0123487D01*
X0265862Y0123600D01*
X0262900Y0123600D01*
X0262900Y0119400D01*
X0262100Y0119400D01*
X0262100Y0123600D01*
X0259138Y0123600D01*
X0258423Y0123487D01*
X0257734Y0123263D01*
X0257089Y0122934D01*
X0256503Y0122509D01*
X0255991Y0121997D01*
X0255566Y0121411D01*
X0255237Y0120766D01*
X0255013Y0120077D01*
X0254906Y0119400D01*
X0262100Y0119400D01*
X0262100Y0118600D01*
X0255696Y0118600D01*
X0255020Y0119276D01*
X0254034Y0119684D01*
X0252966Y0119684D01*
X0251979Y0119276D01*
X0251224Y0118520D01*
X0250816Y0117534D01*
X0250816Y0116720D01*
X0250296Y0116200D01*
X0244596Y0116200D01*
X0244020Y0116776D01*
X0243034Y0117184D01*
X0241966Y0117184D01*
X0240979Y0116776D01*
X0240224Y0116020D01*
X0239816Y0115034D01*
X0239816Y0113966D01*
X0240224Y0112979D01*
X0240979Y0112224D01*
X0241966Y0111816D01*
X0242576Y0111816D01*
X0242479Y0111776D01*
X0241724Y0111020D01*
X0241316Y0110034D01*
X0241316Y0108966D01*
X0241724Y0107979D01*
X0241863Y0107841D01*
X0241034Y0108184D01*
X0239966Y0108184D01*
X0238979Y0107776D01*
X0238224Y0107020D01*
X0237816Y0106034D01*
X0237816Y0105480D01*
X0237520Y0105776D01*
X0236534Y0106184D01*
X0235466Y0106184D01*
X0234479Y0105776D01*
X0233724Y0105020D01*
X0233500Y0104479D01*
X0233276Y0105020D01*
X0232520Y0105776D01*
X0231534Y0106184D01*
X0230466Y0106184D01*
X0229479Y0105776D01*
X0228724Y0105020D01*
X0228316Y0104034D01*
X0228316Y0102966D01*
X0228724Y0101979D01*
X0229479Y0101224D01*
X0230466Y0100816D01*
X0231280Y0100816D01*
X0237796Y0094300D01*
X0247904Y0094300D01*
X0248479Y0093724D01*
X0249466Y0093316D01*
X0250534Y0093316D01*
X0251520Y0093724D01*
X0252276Y0094479D01*
X0252684Y0095466D01*
X0252684Y0096129D01*
X0256757Y0092056D01*
X0256024Y0091322D01*
X0255400Y0089816D01*
X0255400Y0088184D01*
X0256024Y0086678D01*
X0257178Y0085524D01*
X0258684Y0084900D01*
X0266316Y0084900D01*
X0267822Y0085524D01*
X0268976Y0086678D01*
X0269600Y0088184D01*
X0269600Y0089816D01*
X0268976Y0091322D01*
X0267822Y0092476D01*
X0266316Y0093100D01*
X0261087Y0093100D01*
X0259287Y0094900D01*
X0266316Y0094900D01*
X0267822Y0095524D01*
X0268976Y0096678D01*
X0269600Y0098184D01*
X0269600Y0099816D01*
X0268976Y0101322D01*
X0267822Y0102476D01*
X0266316Y0103100D01*
X0258684Y0103100D01*
X0257178Y0102476D01*
X0256024Y0101322D01*
X0255400Y0099816D01*
X0255400Y0098787D01*
X0254684Y0099503D01*
X0254684Y0100034D01*
X0254276Y0101020D01*
X0253520Y0101776D01*
X0252534Y0102184D01*
X0251466Y0102184D01*
X0250479Y0101776D01*
X0249904Y0101200D01*
X0240704Y0101200D01*
X0238684Y0103220D01*
X0238684Y0103520D01*
X0238979Y0103224D01*
X0239966Y0102816D01*
X0241034Y0102816D01*
X0242020Y0103224D01*
X0242596Y0103800D01*
X0251404Y0103800D01*
X0251979Y0103224D01*
X0252966Y0102816D01*
X0254034Y0102816D01*
X0255020Y0103224D01*
X0255776Y0103979D01*
X0256184Y0104966D01*
X0256184Y0106034D01*
X0255776Y0107020D01*
X0255020Y0107776D01*
X0254479Y0108000D01*
X0255020Y0108224D01*
X0255400Y0108604D01*
X0255400Y0108184D01*
X0256024Y0106678D01*
X0257178Y0105524D01*
X0258684Y0104900D01*
X0266316Y0104900D01*
X0267822Y0105524D01*
X0268976Y0106678D01*
X0269600Y0108184D01*
X0269600Y0109816D01*
X0268976Y0111322D01*
X0267822Y0112476D01*
X0266316Y0113100D01*
X0258684Y0113100D01*
X0257178Y0112476D01*
X0256053Y0111351D01*
X0255776Y0112020D01*
X0255020Y0112776D01*
X0254034Y0113184D01*
X0252966Y0113184D01*
X0251979Y0112776D01*
X0251404Y0112200D01*
X0244296Y0112200D01*
X0244280Y0112184D01*
X0243924Y0112184D01*
X0244020Y0112224D01*
X0244596Y0112800D01*
X0251704Y0112800D01*
X0253220Y0114316D01*
X0254034Y0114316D01*
X0255020Y0114724D01*
X0255776Y0115479D01*
X0255992Y0116002D01*
X0256503Y0115491D01*
X0257089Y0115066D01*
X0257734Y0114737D01*
X0258423Y0114513D01*
X0259138Y0114400D01*
X0262100Y0114400D01*
X0262100Y0118600D01*
X0262900Y0118600D01*
X0262900Y0114400D01*
X0265862Y0114400D01*
X0266577Y0114513D01*
X0267266Y0114737D01*
X0267911Y0115066D01*
X0268497Y0115491D01*
X0269009Y0116003D01*
X0269434Y0116589D01*
X0269763Y0117234D01*
X0269900Y0117656D01*
X0269900Y0062787D01*
X0268787Y0063900D01*
X0264400Y0063900D01*
X0264400Y0074900D01*
X0266316Y0074900D01*
X0267822Y0075524D01*
X0268976Y0076678D01*
X0269600Y0078184D01*
X0269600Y0079816D01*
X0268976Y0081322D01*
X0267822Y0082476D01*
X0266316Y0083100D01*
X0258684Y0083100D01*
X0257178Y0082476D01*
X0256024Y0081322D01*
X0255400Y0079816D01*
X0255400Y0078184D01*
X0256024Y0076678D01*
X0257178Y0075524D01*
X0258684Y0074900D01*
X0260600Y0074900D01*
X0260600Y0061213D01*
X0260943Y0060870D01*
X0260900Y0060711D01*
X0260900Y0056100D01*
X0264400Y0056100D01*
X0264400Y0054900D01*
X0265600Y0054900D01*
X0265600Y0048900D01*
X0267711Y0048900D01*
X0268118Y0049009D01*
X0268482Y0049220D01*
X0268780Y0049518D01*
X0268991Y0049882D01*
X0269100Y0050289D01*
X0269100Y0053243D01*
X0269166Y0053216D01*
X0269900Y0053216D01*
X0269900Y0040100D01*
X0265000Y0040100D02*
X0265000Y0054900D01*
X0264400Y0054900D02*
X0264400Y0048900D01*
X0262289Y0048900D01*
X0261882Y0049009D01*
X0261518Y0049220D01*
X0261220Y0049518D01*
X0261009Y0049882D01*
X0260900Y0050289D01*
X0260900Y0054900D01*
X0264400Y0054900D01*
X0264400Y0054500D02*
X0265600Y0054500D01*
X0260900Y0054500D02*
X0253600Y0054500D01*
X0253056Y0049500D02*
X0261237Y0049500D01*
X0264400Y0049500D02*
X0265600Y0049500D01*
X0268763Y0049500D02*
X0269900Y0049500D01*
X0260900Y0059500D02*
X0253600Y0059500D01*
X0255000Y0062750D02*
X0255000Y0040100D01*
X0250000Y0040100D02*
X0250000Y0049400D01*
X0246944Y0049500D02*
X0245132Y0049500D01*
X0245000Y0049819D02*
X0245000Y0061813D01*
X0246400Y0059500D02*
X0240904Y0059500D01*
X0240000Y0060404D02*
X0240000Y0060619D01*
X0240000Y0063500D02*
X0231500Y0072000D01*
X0231500Y0084500D01*
X0227000Y0089000D01*
X0209500Y0089000D01*
X0160500Y0138000D01*
X0160500Y0142500D01*
X0162574Y0144500D02*
X0164363Y0144500D01*
X0163763Y0145100D02*
X0161752Y0145100D01*
X0162132Y0144942D01*
X0162942Y0144132D01*
X0163381Y0143073D01*
X0163381Y0141927D01*
X0162942Y0140868D01*
X0162200Y0140126D01*
X0162200Y0138704D01*
X0201619Y0099285D01*
X0201619Y0100073D01*
X0202058Y0101132D01*
X0202868Y0101942D01*
X0203305Y0102124D01*
X0205800Y0104618D01*
X0205800Y0112537D01*
X0206211Y0113529D01*
X0206971Y0114289D01*
X0215471Y0122789D01*
X0216463Y0123200D01*
X0230827Y0123200D01*
X0243300Y0136564D01*
X0243300Y0163982D01*
X0243293Y0164000D01*
X0243300Y0164518D01*
X0243300Y0165037D01*
X0243307Y0165055D01*
X0243800Y0201018D01*
X0243800Y0202382D01*
X0231971Y0214211D01*
X0231211Y0214971D01*
X0230800Y0215963D01*
X0230800Y0217226D01*
X0230632Y0217058D01*
X0229573Y0216619D01*
X0228699Y0216619D01*
X0231789Y0213529D01*
X0232200Y0212537D01*
X0232200Y0198463D01*
X0231789Y0197471D01*
X0231029Y0196711D01*
X0227529Y0193211D01*
X0226537Y0192800D01*
X0200118Y0192800D01*
X0197700Y0190382D01*
X0197700Y0186963D01*
X0197289Y0185971D01*
X0196529Y0185211D01*
X0192315Y0180997D01*
X0191976Y0180178D01*
X0190822Y0179024D01*
X0189316Y0178400D01*
X0181684Y0178400D01*
X0180178Y0179024D01*
X0179024Y0180178D01*
X0178400Y0181684D01*
X0178400Y0183316D01*
X0179024Y0184822D01*
X0180178Y0185976D01*
X0181684Y0186600D01*
X0189316Y0186600D01*
X0189999Y0186317D01*
X0192300Y0188618D01*
X0192300Y0189904D01*
X0192009Y0189503D01*
X0191497Y0188991D01*
X0190911Y0188566D01*
X0190266Y0188237D01*
X0189577Y0188013D01*
X0188862Y0187900D01*
X0185900Y0187900D01*
X0185900Y0192100D01*
X0185100Y0192100D01*
X0185100Y0187900D01*
X0182138Y0187900D01*
X0181423Y0188013D01*
X0180734Y0188237D01*
X0180089Y0188566D01*
X0179503Y0188991D01*
X0179352Y0189142D01*
X0179381Y0189073D01*
X0179381Y0187927D01*
X0178942Y0186868D01*
X0178132Y0186058D01*
X0177073Y0185619D01*
X0175927Y0185619D01*
X0174868Y0186058D01*
X0174058Y0186868D01*
X0173619Y0187927D01*
X0173619Y0189073D01*
X0173800Y0189510D01*
X0173800Y0205731D01*
X0173442Y0204868D01*
X0172632Y0204058D01*
X0172600Y0204044D01*
X0172600Y0177527D01*
X0177007Y0173120D01*
X0177631Y0172652D01*
X0177857Y0172270D01*
X0178171Y0171955D01*
X0178470Y0171235D01*
X0178857Y0170580D01*
X0178400Y0171684D01*
X0178400Y0173316D01*
X0179024Y0174822D01*
X0180178Y0175976D01*
X0181684Y0176600D01*
X0189316Y0176600D01*
X0190822Y0175976D01*
X0191976Y0174822D01*
X0192600Y0173316D01*
X0192600Y0171684D01*
X0191976Y0170178D01*
X0190822Y0169024D01*
X0189316Y0168400D01*
X0181684Y0168400D01*
X0180178Y0169024D01*
X0179024Y0170178D01*
X0178869Y0170553D01*
X0178930Y0170124D01*
X0179100Y0169713D01*
X0179100Y0168934D01*
X0179251Y0167876D01*
X0188404Y0158723D01*
X0191376Y0161695D01*
X0191558Y0162132D01*
X0192368Y0162942D01*
X0193427Y0163381D01*
X0194573Y0163381D01*
X0195632Y0162942D01*
X0196442Y0162132D01*
X0196881Y0161073D01*
X0196881Y0159927D01*
X0196442Y0158868D01*
X0195632Y0158058D01*
X0195195Y0157876D01*
X0192223Y0154904D01*
X0199527Y0147600D01*
X0215526Y0147600D01*
X0215868Y0147942D01*
X0216927Y0148381D01*
X0218073Y0148381D01*
X0219132Y0147942D01*
X0219474Y0147600D01*
X0220526Y0147600D01*
X0220868Y0147942D01*
X0221927Y0148381D01*
X0223073Y0148381D01*
X0224132Y0147942D01*
X0224942Y0147132D01*
X0225381Y0146073D01*
X0225381Y0144927D01*
X0225282Y0144688D01*
X0225409Y0144381D01*
X0225573Y0144381D01*
X0226632Y0143942D01*
X0227442Y0143132D01*
X0227881Y0142073D01*
X0227881Y0140927D01*
X0227442Y0139868D01*
X0226632Y0139058D01*
X0225573Y0138619D01*
X0225409Y0138619D01*
X0225282Y0138312D01*
X0225381Y0138073D01*
X0225381Y0136927D01*
X0225092Y0136229D01*
X0228100Y0139237D01*
X0228100Y0150715D01*
X0199859Y0150715D01*
X0199215Y0151359D01*
X0199215Y0191641D01*
X0199859Y0192285D01*
X0240141Y0192285D01*
X0240785Y0191641D01*
X0240785Y0151359D01*
X0240141Y0150715D01*
X0238900Y0150715D01*
X0238900Y0135926D01*
X0238078Y0133941D01*
X0230078Y0125941D01*
X0228559Y0124422D01*
X0226574Y0123600D01*
X0193456Y0123600D01*
X0193881Y0122573D01*
X0193881Y0121427D01*
X0193700Y0120990D01*
X0193700Y0117118D01*
X0198118Y0112700D01*
X0199990Y0112700D01*
X0200427Y0112881D01*
X0201573Y0112881D01*
X0202632Y0112442D01*
X0203442Y0111632D01*
X0203881Y0110573D01*
X0203881Y0109427D01*
X0203442Y0108368D01*
X0202632Y0107558D01*
X0201573Y0107119D01*
X0200427Y0107119D01*
X0199990Y0107300D01*
X0196463Y0107300D01*
X0195471Y0107711D01*
X0189471Y0113711D01*
X0188711Y0114471D01*
X0188300Y0115463D01*
X0188300Y0120990D01*
X0188119Y0121427D01*
X0188119Y0122573D01*
X0188544Y0123600D01*
X0188058Y0123600D01*
X0187041Y0123578D01*
X0186985Y0123600D01*
X0186926Y0123600D01*
X0185987Y0123989D01*
X0185039Y0124358D01*
X0184996Y0124399D01*
X0184941Y0124422D01*
X0184222Y0125141D01*
X0172996Y0135899D01*
X0172941Y0135922D01*
X0172222Y0136641D01*
X0171488Y0137344D01*
X0171464Y0137399D01*
X0163763Y0145100D01*
X0165000Y0143863D02*
X0165000Y0135904D01*
X0166404Y0134500D02*
X0174456Y0134500D01*
X0175000Y0133979D02*
X0175000Y0125904D01*
X0176404Y0124500D02*
X0184863Y0124500D01*
X0185000Y0124396D02*
X0185000Y0115904D01*
X0186404Y0114500D02*
X0188699Y0114500D01*
X0190000Y0113182D02*
X0190000Y0110904D01*
X0191404Y0109500D02*
X0193682Y0109500D01*
X0195000Y0108182D02*
X0195000Y0105904D01*
X0196404Y0104500D02*
X0205682Y0104500D01*
X0205000Y0103818D02*
X0205000Y0123600D01*
X0200000Y0123600D02*
X0200000Y0112704D01*
X0196318Y0114500D02*
X0207182Y0114500D01*
X0210000Y0117318D02*
X0210000Y0123600D01*
X0215000Y0123600D02*
X0215000Y0122318D01*
X0212182Y0119500D02*
X0193700Y0119500D01*
X0195000Y0115818D02*
X0195000Y0123600D01*
X0188300Y0119500D02*
X0181404Y0119500D01*
X0180000Y0120904D02*
X0180000Y0129187D01*
X0179674Y0129500D02*
X0171404Y0129500D01*
X0170000Y0130904D02*
X0170000Y0138863D01*
X0169363Y0139500D02*
X0162200Y0139500D01*
X0158800Y0139500D02*
X0150904Y0139500D01*
X0150000Y0140404D02*
X0150000Y0146863D01*
X0155000Y0145100D02*
X0155000Y0138404D01*
X0153000Y0135000D02*
X0148500Y0135000D01*
X0148000Y0135500D01*
X0145509Y0134500D02*
X0142727Y0134500D01*
X0143500Y0131500D02*
X0143500Y0124000D01*
X0138500Y0119000D01*
X0138500Y0111500D01*
X0146000Y0103900D01*
X0143503Y0102400D02*
X0130556Y0102400D01*
X0129826Y0102443D01*
X0129778Y0102400D01*
X0129713Y0102400D01*
X0129196Y0101883D01*
X0125881Y0098936D01*
X0125881Y0099573D01*
X0125442Y0100632D01*
X0124700Y0101374D01*
X0124700Y0105309D01*
X0136800Y0117736D01*
X0136800Y0111506D01*
X0136795Y0110807D01*
X0136800Y0110802D01*
X0136800Y0110796D01*
X0137294Y0110302D01*
X0143119Y0104399D01*
X0143119Y0103327D01*
X0143503Y0102400D01*
X0143019Y0104500D02*
X0124700Y0104500D01*
X0125000Y0105617D02*
X0125000Y0101074D01*
X0125881Y0099500D02*
X0126515Y0099500D01*
X0123000Y0099000D02*
X0123000Y0106000D01*
X0141500Y0125000D01*
X0141500Y0129500D01*
X0137500Y0133000D01*
X0137000Y0133500D01*
X0135000Y0133500D01*
X0135000Y0136381D02*
X0135000Y0136796D01*
X0135119Y0136845D02*
X0135119Y0136381D01*
X0134427Y0136381D01*
X0133814Y0136127D01*
X0134306Y0136619D01*
X0134573Y0136619D01*
X0135119Y0136845D01*
X0132373Y0134686D02*
X0131068Y0133381D01*
X0132073Y0133381D01*
X0132119Y0133362D01*
X0132119Y0134073D01*
X0132373Y0134686D01*
X0132296Y0134500D02*
X0132187Y0134500D01*
X0130000Y0137687D02*
X0130000Y0153100D01*
X0125000Y0153100D02*
X0125000Y0144704D01*
X0127493Y0144500D02*
X0137007Y0144500D01*
X0139993Y0144500D02*
X0158426Y0144500D01*
X0160000Y0136096D02*
X0160000Y0133404D01*
X0158904Y0134500D02*
X0161596Y0134500D01*
X0163000Y0129500D02*
X0158500Y0129500D01*
X0153000Y0135000D01*
X0151500Y0132000D02*
X0151500Y0130612D01*
X0155584Y0126527D01*
X0158527Y0126527D01*
X0159500Y0127500D01*
X0162000Y0127500D01*
X0200500Y0089000D01*
X0200500Y0074500D01*
X0204500Y0070500D01*
X0208000Y0070500D01*
X0219500Y0059000D01*
X0219500Y0048000D01*
X0221500Y0046000D01*
X0225200Y0044500D02*
X0227800Y0044500D01*
X0227800Y0042664D02*
X0228363Y0041304D01*
X0229404Y0040263D01*
X0229798Y0040100D01*
X0223202Y0040100D01*
X0223596Y0040263D01*
X0224637Y0041304D01*
X0225200Y0042664D01*
X0225200Y0049336D01*
X0224637Y0050696D01*
X0223596Y0051737D01*
X0222236Y0052300D01*
X0221200Y0052300D01*
X0221200Y0059704D01*
X0220204Y0060700D01*
X0209700Y0071204D01*
X0208704Y0072200D01*
X0205204Y0072200D01*
X0202200Y0075204D01*
X0202200Y0087896D01*
X0206796Y0083300D01*
X0223296Y0083300D01*
X0224800Y0081796D01*
X0224800Y0062621D01*
X0224718Y0062043D01*
X0224800Y0061933D01*
X0224800Y0061796D01*
X0225212Y0061383D01*
X0227800Y0057933D01*
X0227800Y0042664D01*
X0225000Y0042181D02*
X0225000Y0040100D01*
X0219798Y0040100D02*
X0213202Y0040100D01*
X0213596Y0040263D01*
X0214637Y0041304D01*
X0215200Y0042664D01*
X0215200Y0047296D01*
X0216700Y0048796D01*
X0216700Y0059296D01*
X0216700Y0059396D01*
X0217800Y0058296D01*
X0217800Y0042664D01*
X0218363Y0041304D01*
X0219404Y0040263D01*
X0219798Y0040100D01*
X0215000Y0040100D02*
X0215000Y0042181D01*
X0215200Y0044500D02*
X0217800Y0044500D01*
X0215000Y0049500D02*
X0211500Y0046000D01*
X0207800Y0044500D02*
X0205200Y0044500D01*
X0205200Y0042664D02*
X0205200Y0046437D01*
X0207800Y0049037D01*
X0207800Y0042664D01*
X0208363Y0041304D01*
X0209404Y0040263D01*
X0209798Y0040100D01*
X0203202Y0040100D01*
X0203596Y0040263D01*
X0204637Y0041304D01*
X0205200Y0042664D01*
X0205000Y0042181D02*
X0205000Y0040100D01*
X0199798Y0040100D02*
X0193202Y0040100D01*
X0193596Y0040263D01*
X0194637Y0041304D01*
X0195200Y0042664D01*
X0195200Y0046437D01*
X0197800Y0049037D01*
X0197800Y0042664D01*
X0198363Y0041304D01*
X0199404Y0040263D01*
X0199798Y0040100D01*
X0195000Y0040100D02*
X0195000Y0042181D01*
X0195200Y0044500D02*
X0197800Y0044500D01*
X0189798Y0040100D02*
X0183202Y0040100D01*
X0183596Y0040263D01*
X0184637Y0041304D01*
X0185200Y0042664D01*
X0185200Y0049336D01*
X0184637Y0050696D01*
X0183596Y0051737D01*
X0182236Y0052300D01*
X0180764Y0052300D01*
X0179404Y0051737D01*
X0178363Y0050696D01*
X0177800Y0049336D01*
X0177800Y0042664D01*
X0178363Y0041304D01*
X0179404Y0040263D01*
X0179798Y0040100D01*
X0166300Y0040100D01*
X0166300Y0045226D01*
X0166442Y0045368D01*
X0166881Y0046427D01*
X0166881Y0047573D01*
X0166442Y0048632D01*
X0165632Y0049442D01*
X0164573Y0049881D01*
X0163427Y0049881D01*
X0162368Y0049442D01*
X0161626Y0048700D01*
X0142374Y0048700D01*
X0141697Y0049377D01*
X0142132Y0049558D01*
X0142874Y0050300D01*
X0162704Y0050300D01*
X0163523Y0051119D01*
X0164573Y0051119D01*
X0165632Y0051558D01*
X0166374Y0052300D01*
X0194104Y0052300D01*
X0194679Y0051724D01*
X0195586Y0051349D01*
X0194724Y0050486D01*
X0194637Y0050696D01*
X0193596Y0051737D01*
X0192236Y0052300D01*
X0190764Y0052300D01*
X0189404Y0051737D01*
X0188363Y0050696D01*
X0187800Y0049336D01*
X0187800Y0042664D01*
X0188363Y0041304D01*
X0189404Y0040263D01*
X0189798Y0040100D01*
X0185000Y0040100D02*
X0185000Y0042181D01*
X0185200Y0044500D02*
X0187800Y0044500D01*
X0187868Y0049500D02*
X0185132Y0049500D01*
X0185000Y0049819D02*
X0185000Y0052300D01*
X0185000Y0055700D02*
X0185000Y0058800D01*
X0180000Y0058800D02*
X0180000Y0055700D01*
X0180000Y0052300D02*
X0180000Y0051984D01*
X0177868Y0049500D02*
X0165493Y0049500D01*
X0165000Y0049704D02*
X0165000Y0051296D01*
X0164000Y0054000D02*
X0162000Y0052000D01*
X0140500Y0052000D01*
X0118000Y0052000D01*
X0120000Y0054074D02*
X0120000Y0058790D01*
X0118596Y0059500D02*
X0041600Y0059500D01*
X0041600Y0064500D02*
X0114623Y0064500D01*
X0115000Y0064029D02*
X0115000Y0048493D01*
X0116007Y0049500D02*
X0098658Y0049500D01*
X0098391Y0049833D02*
X0098362Y0049913D01*
X0098057Y0050251D01*
X0097773Y0050606D01*
X0097699Y0050647D01*
X0097642Y0050710D01*
X0097231Y0050905D01*
X0096832Y0051124D01*
X0096748Y0051134D01*
X0096671Y0051170D01*
X0096217Y0051193D01*
X0095764Y0051243D01*
X0095683Y0051219D01*
X0087140Y0051646D01*
X0086573Y0051881D01*
X0085427Y0051881D01*
X0084368Y0051442D01*
X0083558Y0050632D01*
X0083119Y0049573D01*
X0083119Y0048427D01*
X0083558Y0047368D01*
X0084126Y0046800D01*
X0082589Y0046800D01*
X0082182Y0046691D01*
X0081818Y0046480D01*
X0081520Y0046182D01*
X0081309Y0045818D01*
X0081200Y0045411D01*
X0081200Y0041300D01*
X0086700Y0041300D01*
X0086700Y0040100D01*
X0087900Y0040100D01*
X0087900Y0041300D01*
X0093400Y0041300D01*
X0093400Y0045411D01*
X0093291Y0045818D01*
X0093223Y0045935D01*
X0094651Y0045864D01*
X0105300Y0032553D01*
X0105300Y0029315D01*
X0104100Y0028115D01*
X0104100Y0024885D01*
X0106385Y0022600D01*
X0109615Y0022600D01*
X0111900Y0024885D01*
X0111900Y0028115D01*
X0110700Y0029315D01*
X0110700Y0033350D01*
X0110743Y0033736D01*
X0110700Y0033883D01*
X0110700Y0034037D01*
X0110552Y0034395D01*
X0110444Y0034767D01*
X0110348Y0034887D01*
X0110289Y0035029D01*
X0110015Y0035303D01*
X0098391Y0049833D01*
X0100000Y0047822D02*
X0100000Y0068100D01*
X0100000Y0071900D02*
X0100000Y0082900D01*
X0102798Y0084500D02*
X0106202Y0084500D01*
X0105000Y0089096D02*
X0105000Y0071900D01*
X0105000Y0068100D02*
X0105000Y0041572D01*
X0106658Y0039500D02*
X0116003Y0039500D01*
X0120000Y0040497D02*
X0120000Y0045300D01*
X0118993Y0044500D02*
X0138507Y0044500D01*
X0140000Y0044119D02*
X0140000Y0038100D01*
X0140000Y0034900D02*
X0140000Y0034600D01*
X0136837Y0034600D02*
X0135337Y0033100D01*
X0134600Y0032363D01*
X0134600Y0034837D01*
X0134663Y0034900D01*
X0149326Y0034900D01*
X0149058Y0034632D01*
X0149044Y0034600D01*
X0136837Y0034600D01*
X0136737Y0034500D02*
X0134600Y0034500D01*
X0135000Y0034900D02*
X0135000Y0032763D01*
X0131400Y0034500D02*
X0122263Y0034500D01*
X0120000Y0032237D02*
X0120000Y0030015D01*
X0119615Y0030400D02*
X0116385Y0030400D01*
X0114100Y0028115D01*
X0114100Y0024885D01*
X0116385Y0022600D01*
X0119615Y0022600D01*
X0121900Y0024885D01*
X0121900Y0028115D01*
X0119615Y0030400D01*
X0120515Y0029500D02*
X0122737Y0029500D01*
X0125000Y0031763D02*
X0125000Y0045300D01*
X0125000Y0048700D02*
X0125000Y0050300D01*
X0125000Y0053700D02*
X0125000Y0058800D01*
X0130000Y0058800D02*
X0130000Y0053700D01*
X0130000Y0050300D02*
X0130000Y0048700D01*
X0130000Y0045300D02*
X0130000Y0030015D01*
X0130515Y0029500D02*
X0131400Y0029500D01*
X0135000Y0023985D02*
X0135000Y0019015D01*
X0134600Y0019500D02*
X0135485Y0019500D01*
X0131400Y0019500D02*
X0130515Y0019500D01*
X0130000Y0020015D02*
X0130000Y0022985D01*
X0125000Y0023985D02*
X0125000Y0019015D01*
X0125485Y0019500D02*
X0120515Y0019500D01*
X0120000Y0020015D02*
X0120000Y0022985D01*
X0121515Y0024500D02*
X0124485Y0024500D01*
X0119615Y0020400D02*
X0116385Y0020400D01*
X0114100Y0018115D01*
X0114100Y0014885D01*
X0116385Y0012600D01*
X0119615Y0012600D01*
X0121900Y0014885D01*
X0121900Y0018115D01*
X0119615Y0020400D01*
X0115485Y0019500D02*
X0110515Y0019500D01*
X0110000Y0020015D02*
X0110000Y0022985D01*
X0111515Y0024500D02*
X0114485Y0024500D01*
X0115000Y0023985D02*
X0115000Y0019015D01*
X0111900Y0018115D02*
X0109615Y0020400D01*
X0106385Y0020400D01*
X0104100Y0018115D01*
X0104100Y0014885D01*
X0106385Y0012600D01*
X0109615Y0012600D01*
X0111900Y0014885D01*
X0111900Y0018115D01*
X0111515Y0014500D02*
X0114485Y0014500D01*
X0115000Y0013985D02*
X0115000Y0011100D01*
X0110000Y0011100D02*
X0110000Y0012985D01*
X0105000Y0013985D02*
X0105000Y0011100D01*
X0104485Y0014500D02*
X0101515Y0014500D01*
X0101900Y0014885D02*
X0099615Y0012600D01*
X0096385Y0012600D01*
X0094100Y0014885D01*
X0094100Y0018115D01*
X0096385Y0020400D01*
X0099615Y0020400D01*
X0101900Y0018115D01*
X0101900Y0014885D01*
X0100000Y0012985D02*
X0100000Y0011100D01*
X0095000Y0011100D02*
X0095000Y0013985D01*
X0094485Y0014500D02*
X0093400Y0014500D01*
X0093400Y0013989D02*
X0093400Y0018100D01*
X0087900Y0018100D01*
X0087900Y0012600D01*
X0092011Y0012600D01*
X0092418Y0012709D01*
X0092782Y0012920D01*
X0093080Y0013218D01*
X0093291Y0013582D01*
X0093400Y0013989D01*
X0090000Y0012600D02*
X0090000Y0011100D01*
X0087900Y0014500D02*
X0086700Y0014500D01*
X0085000Y0012600D02*
X0085000Y0011100D01*
X0090000Y0018100D02*
X0090000Y0019300D01*
X0087900Y0019300D02*
X0093400Y0019300D01*
X0093400Y0023411D01*
X0093291Y0023818D01*
X0093080Y0024182D01*
X0092782Y0024480D01*
X0092418Y0024691D01*
X0092011Y0024800D01*
X0087900Y0024800D01*
X0087900Y0019300D01*
X0087900Y0019500D02*
X0086700Y0019500D01*
X0086700Y0024500D02*
X0087900Y0024500D01*
X0090000Y0024800D02*
X0090000Y0034600D01*
X0092011Y0034600D02*
X0092418Y0034709D01*
X0092782Y0034920D01*
X0093080Y0035218D01*
X0093291Y0035582D01*
X0093400Y0035989D01*
X0093400Y0040100D01*
X0087900Y0040100D01*
X0087900Y0034600D01*
X0092011Y0034600D01*
X0095134Y0029856D02*
X0094644Y0029366D01*
X0094237Y0028806D01*
X0093922Y0028189D01*
X0093708Y0027530D01*
X0093600Y0026846D01*
X0093600Y0026800D01*
X0097700Y0026800D01*
X0097700Y0030900D01*
X0097654Y0030900D01*
X0096970Y0030792D01*
X0096311Y0030578D01*
X0095694Y0030263D01*
X0095134Y0029856D01*
X0095000Y0029723D02*
X0095000Y0045428D01*
X0095742Y0044500D02*
X0093400Y0044500D01*
X0090000Y0041300D02*
X0090000Y0040100D01*
X0087900Y0039500D02*
X0086700Y0039500D01*
X0085000Y0040100D02*
X0085000Y0041300D01*
X0081200Y0039500D02*
X0052000Y0039500D01*
X0052000Y0041300D02*
X0052000Y0045411D01*
X0051891Y0045818D01*
X0051680Y0046182D01*
X0051382Y0046480D01*
X0051018Y0046691D01*
X0050611Y0046800D01*
X0046500Y0046800D01*
X0046500Y0041300D01*
X0052000Y0041300D01*
X0050000Y0041300D02*
X0050000Y0040100D01*
X0046500Y0039500D02*
X0045300Y0039500D01*
X0045300Y0044500D02*
X0046500Y0044500D01*
X0045000Y0046800D02*
X0045000Y0066575D01*
X0042700Y0069500D02*
X0041600Y0069500D01*
X0050000Y0066300D02*
X0050000Y0046800D01*
X0052000Y0044500D02*
X0081200Y0044500D01*
X0083119Y0049500D02*
X0041600Y0049500D01*
X0041600Y0054500D02*
X0116507Y0054500D01*
X0119493Y0054500D02*
X0139007Y0054500D01*
X0140000Y0054881D02*
X0140000Y0058800D01*
X0141500Y0057000D02*
X0143500Y0058000D01*
X0192500Y0058000D01*
X0193500Y0057000D01*
X0201500Y0057000D01*
X0200000Y0058800D02*
X0200000Y0054100D01*
X0198884Y0054500D02*
X0203003Y0054500D01*
X0205500Y0056000D02*
X0205500Y0059000D01*
X0204000Y0060500D01*
X0120000Y0060500D01*
X0114000Y0068000D01*
X0114000Y0079500D01*
X0114068Y0082381D02*
X0115300Y0083613D01*
X0115300Y0082080D01*
X0114573Y0082381D01*
X0114068Y0082381D01*
X0115000Y0082204D02*
X0115000Y0083313D01*
X0117000Y0084500D02*
X0124500Y0091500D01*
X0125000Y0091000D01*
X0125000Y0088119D02*
X0125000Y0085541D01*
X0124971Y0085529D02*
X0122971Y0083529D01*
X0121888Y0080915D01*
X0121888Y0078085D01*
X0122971Y0075471D01*
X0124971Y0073471D01*
X0127585Y0072388D01*
X0130415Y0072388D01*
X0133029Y0073471D01*
X0135029Y0075471D01*
X0136112Y0078085D01*
X0136112Y0080915D01*
X0135029Y0083529D01*
X0133029Y0085529D01*
X0130415Y0086612D01*
X0127585Y0086612D01*
X0124971Y0085529D01*
X0123942Y0084500D02*
X0119491Y0084500D01*
X0120000Y0084975D02*
X0120000Y0066684D01*
X0118700Y0068146D02*
X0121763Y0064700D01*
X0145896Y0064700D01*
X0145800Y0064796D01*
X0140300Y0070296D01*
X0140300Y0083296D01*
X0132796Y0090800D01*
X0130057Y0090800D01*
X0129410Y0090757D01*
X0129361Y0090800D01*
X0129296Y0090800D01*
X0129047Y0091049D01*
X0128973Y0091019D01*
X0127881Y0091019D01*
X0127881Y0090427D01*
X0127442Y0089368D01*
X0126632Y0088558D01*
X0125573Y0088119D01*
X0124427Y0088119D01*
X0123694Y0088422D01*
X0118700Y0083761D01*
X0118700Y0068146D01*
X0118700Y0069500D02*
X0141096Y0069500D01*
X0142000Y0071000D02*
X0147500Y0065500D01*
X0206000Y0065500D01*
X0210000Y0061500D01*
X0207500Y0060000D02*
X0205000Y0063000D01*
X0121000Y0063000D01*
X0117000Y0067500D01*
X0117000Y0084500D01*
X0115000Y0088687D02*
X0115000Y0090426D01*
X0115813Y0089500D02*
X0112798Y0089500D01*
X0110000Y0091100D02*
X0110000Y0092900D01*
X0112798Y0094500D02*
X0114926Y0094500D01*
X0115000Y0094574D02*
X0115000Y0105813D01*
X0115300Y0104500D02*
X0113687Y0104500D01*
X0117000Y0106500D02*
X0135000Y0124500D01*
X0135000Y0127000D01*
X0132596Y0124500D02*
X0115997Y0124500D01*
X0115000Y0125497D02*
X0115000Y0131600D01*
X0110000Y0131600D02*
X0110000Y0110404D01*
X0109096Y0109500D02*
X0067187Y0109500D01*
X0070000Y0110600D02*
X0070000Y0071900D01*
X0070000Y0068100D02*
X0070000Y0038800D01*
X0065000Y0038800D02*
X0065000Y0068100D01*
X0065000Y0071900D02*
X0065000Y0107313D01*
X0062187Y0104500D02*
X0104096Y0104500D01*
X0105000Y0105404D02*
X0105000Y0124639D01*
X0104689Y0124500D02*
X0111003Y0124500D01*
X0113500Y0123000D02*
X0112500Y0122000D01*
X0112500Y0110500D01*
X0104500Y0102500D01*
X0104500Y0091000D01*
X0100500Y0087000D01*
X0099500Y0087000D01*
X0096202Y0089500D02*
X0057400Y0089500D01*
X0057400Y0084500D02*
X0096202Y0084500D01*
X0105404Y0089500D02*
X0106202Y0089500D01*
X0106200Y0094500D02*
X0106202Y0094500D01*
X0102800Y0094500D02*
X0102798Y0094500D01*
X0100000Y0092900D02*
X0100000Y0091100D01*
X0096202Y0094500D02*
X0057400Y0094500D01*
X0057400Y0099500D02*
X0096202Y0099500D01*
X0100000Y0101100D02*
X0100000Y0120986D01*
X0098527Y0119500D02*
X0110800Y0119500D01*
X0114200Y0119500D02*
X0127596Y0119500D01*
X0130000Y0121904D02*
X0130000Y0128003D01*
X0128796Y0129500D02*
X0104988Y0129500D01*
X0105000Y0129488D02*
X0105000Y0131600D01*
X0100469Y0127282D02*
X0100469Y0126856D01*
X0094900Y0121238D01*
X0094900Y0121713D01*
X0100469Y0127282D01*
X0100000Y0126813D02*
X0100000Y0126383D01*
X0098133Y0124500D02*
X0097687Y0124500D01*
X0095000Y0121813D02*
X0095000Y0121339D01*
X0095000Y0115942D02*
X0095000Y0071900D01*
X0095000Y0068100D02*
X0095000Y0051253D01*
X0090000Y0051503D02*
X0090000Y0068100D01*
X0090000Y0071900D02*
X0090000Y0110898D01*
X0085000Y0110600D02*
X0085000Y0071900D01*
X0085000Y0068100D02*
X0085000Y0051704D01*
X0093400Y0039500D02*
X0099742Y0039500D01*
X0100000Y0039178D02*
X0100000Y0030419D01*
X0100306Y0030263D02*
X0099689Y0030578D01*
X0099030Y0030792D01*
X0098346Y0030900D01*
X0098300Y0030900D01*
X0098300Y0026800D01*
X0102400Y0026800D01*
X0102400Y0026846D01*
X0102292Y0027530D01*
X0102078Y0028189D01*
X0101763Y0028806D01*
X0101356Y0029366D01*
X0100866Y0029856D01*
X0100306Y0030263D01*
X0101223Y0029500D02*
X0105300Y0029500D01*
X0105000Y0029015D02*
X0105000Y0032928D01*
X0103742Y0034500D02*
X0083200Y0034500D01*
X0085000Y0034600D02*
X0085000Y0024800D01*
X0092748Y0024500D02*
X0094081Y0024500D01*
X0094237Y0024194D02*
X0094644Y0023634D01*
X0095134Y0023144D01*
X0095694Y0022737D01*
X0096311Y0022422D01*
X0096970Y0022208D01*
X0097654Y0022100D01*
X0097700Y0022100D01*
X0097700Y0026200D01*
X0098300Y0026200D01*
X0098300Y0026800D01*
X0097700Y0026800D01*
X0097700Y0026200D01*
X0093600Y0026200D01*
X0093600Y0026154D01*
X0093708Y0025470D01*
X0093922Y0024811D01*
X0094237Y0024194D01*
X0095000Y0023277D02*
X0095000Y0019015D01*
X0095485Y0019500D02*
X0093400Y0019500D01*
X0098300Y0022100D02*
X0098346Y0022100D01*
X0099030Y0022208D01*
X0099689Y0022422D01*
X0100306Y0022737D01*
X0100866Y0023144D01*
X0101356Y0023634D01*
X0101763Y0024194D01*
X0102078Y0024811D01*
X0102292Y0025470D01*
X0102400Y0026154D01*
X0102400Y0026200D01*
X0098300Y0026200D01*
X0098300Y0022100D01*
X0100000Y0022581D02*
X0100000Y0020015D01*
X0100515Y0019500D02*
X0105485Y0019500D01*
X0105000Y0019015D02*
X0105000Y0023985D01*
X0104485Y0024500D02*
X0101919Y0024500D01*
X0100000Y0026200D02*
X0100000Y0026800D01*
X0098300Y0024500D02*
X0097700Y0024500D01*
X0095000Y0026200D02*
X0095000Y0026800D01*
X0094777Y0029500D02*
X0083200Y0029500D01*
X0080000Y0038800D02*
X0080000Y0068100D01*
X0080000Y0071900D02*
X0080000Y0110600D01*
X0075000Y0110600D02*
X0075000Y0071900D01*
X0075000Y0068100D02*
X0075000Y0038800D01*
X0060000Y0038800D02*
X0060000Y0068100D01*
X0060000Y0071900D02*
X0060000Y0102313D01*
X0072374Y0120900D02*
X0072942Y0121468D01*
X0073381Y0122527D01*
X0073381Y0123673D01*
X0072942Y0124732D01*
X0072431Y0125244D01*
X0073787Y0126600D01*
X0078913Y0126600D01*
X0078294Y0125981D01*
X0077927Y0125981D01*
X0076868Y0125542D01*
X0076058Y0124732D01*
X0075619Y0123673D01*
X0075619Y0122527D01*
X0076058Y0121468D01*
X0076626Y0120900D01*
X0072374Y0120900D01*
X0075000Y0120900D02*
X0075000Y0126600D01*
X0075961Y0124500D02*
X0073039Y0124500D01*
X0070000Y0128187D02*
X0070000Y0129600D01*
X0071313Y0129500D02*
X0068187Y0129500D01*
X0065000Y0131687D02*
X0065000Y0132600D01*
X0058000Y0141000D02*
X0076500Y0141000D01*
X0084000Y0148500D01*
X0080000Y0149800D02*
X0080000Y0146904D01*
X0080000Y0153200D02*
X0080000Y0162363D01*
X0080441Y0161922D02*
X0088441Y0153922D01*
X0090184Y0153200D01*
X0072100Y0153200D01*
X0072100Y0155698D01*
X0069698Y0158100D01*
X0066302Y0158100D01*
X0063900Y0155698D01*
X0063900Y0152302D01*
X0065002Y0151200D01*
X0063204Y0151200D01*
X0062100Y0152304D01*
X0062100Y0155698D01*
X0059698Y0158100D01*
X0056302Y0158100D01*
X0054900Y0156698D01*
X0054900Y0160595D01*
X0056095Y0159400D01*
X0057600Y0159400D01*
X0057600Y0163600D01*
X0058400Y0163600D01*
X0058400Y0164400D01*
X0057600Y0164400D01*
X0057600Y0168600D01*
X0056095Y0168600D01*
X0054900Y0167405D01*
X0054900Y0168287D01*
X0053787Y0169400D01*
X0048904Y0174283D01*
X0048954Y0183848D01*
X0049681Y0182092D01*
X0051903Y0179870D01*
X0054807Y0178668D01*
X0057949Y0178668D01*
X0060852Y0179870D01*
X0063075Y0182092D01*
X0064277Y0184996D01*
X0064277Y0188138D01*
X0063075Y0191041D01*
X0060852Y0193264D01*
X0057949Y0194466D01*
X0054807Y0194466D01*
X0051903Y0193264D01*
X0049681Y0191041D01*
X0048983Y0189356D01*
X0049321Y0253829D01*
X0049681Y0252959D01*
X0051903Y0250736D01*
X0054807Y0249534D01*
X0057949Y0249534D01*
X0060852Y0250736D01*
X0063075Y0252959D01*
X0064277Y0255862D01*
X0064277Y0259004D01*
X0063075Y0261908D01*
X0060852Y0264130D01*
X0057949Y0265332D01*
X0054807Y0265332D01*
X0051903Y0264130D01*
X0049681Y0261908D01*
X0049359Y0261129D01*
X0049396Y0268209D01*
X0052787Y0271600D01*
X0072287Y0271600D01*
X0075787Y0275100D01*
X0076900Y0276213D01*
X0076900Y0287213D01*
X0078787Y0289100D01*
X0109751Y0289100D01*
X0109779Y0289074D01*
X0110533Y0289100D01*
X0111287Y0289100D01*
X0111314Y0289127D01*
X0111352Y0289128D01*
X0111867Y0289680D01*
X0112400Y0290213D01*
X0112400Y0290251D01*
X0118867Y0297180D01*
X0119400Y0297713D01*
X0119400Y0297751D01*
X0119426Y0297779D01*
X0119400Y0298533D01*
X0119400Y0303713D01*
X0121287Y0305600D01*
X0176713Y0305600D01*
X0178600Y0303713D01*
X0178600Y0303696D01*
X0178020Y0304276D01*
X0177034Y0304684D01*
X0175966Y0304684D01*
X0174979Y0304276D01*
X0174224Y0303520D01*
X0173816Y0302534D01*
X0173816Y0301720D01*
X0167296Y0295200D01*
X0158796Y0295200D01*
X0156796Y0293200D01*
X0155800Y0292204D01*
X0155800Y0266767D01*
X0155200Y0267567D01*
X0155200Y0267704D01*
X0154788Y0268117D01*
X0154438Y0268583D01*
X0154301Y0268603D01*
X0154204Y0268700D01*
X0153621Y0268700D01*
X0153043Y0268782D01*
X0152933Y0268700D01*
X0137204Y0268700D01*
X0129285Y0276619D01*
X0130073Y0276619D01*
X0131132Y0277058D01*
X0131942Y0277868D01*
X0132381Y0278927D01*
X0132381Y0280073D01*
X0132200Y0280510D01*
X0132200Y0286382D01*
X0142695Y0296876D01*
X0143132Y0297058D01*
X0143942Y0297868D01*
X0144381Y0298927D01*
X0144381Y0300073D01*
X0143942Y0301132D01*
X0143132Y0301942D01*
X0142073Y0302381D01*
X0140927Y0302381D01*
X0139868Y0301942D01*
X0139058Y0301132D01*
X0138876Y0300695D01*
X0127971Y0289789D01*
X0127211Y0289029D01*
X0126800Y0288037D01*
X0126800Y0280510D01*
X0126619Y0280073D01*
X0126619Y0279285D01*
X0123700Y0282204D01*
X0123700Y0292296D01*
X0130204Y0298800D01*
X0130351Y0298947D01*
X0131020Y0299224D01*
X0131776Y0299979D01*
X0132184Y0300966D01*
X0132184Y0302034D01*
X0131776Y0303020D01*
X0131020Y0303776D01*
X0130034Y0304184D01*
X0128966Y0304184D01*
X0127979Y0303776D01*
X0127224Y0303020D01*
X0126816Y0302034D01*
X0126816Y0300966D01*
X0127034Y0300438D01*
X0120300Y0293704D01*
X0120300Y0280796D01*
X0121296Y0279800D01*
X0134800Y0266296D01*
X0135796Y0265300D01*
X0149726Y0265300D01*
X0149626Y0265200D01*
X0142296Y0265200D01*
X0137296Y0260200D01*
X0136300Y0259204D01*
X0136300Y0227704D01*
X0124896Y0216300D01*
X0124896Y0216300D01*
X0124700Y0216104D01*
X0124700Y0216704D01*
X0123704Y0217700D01*
X0122242Y0219162D01*
X0122242Y0220979D01*
X0121597Y0221624D01*
X0108875Y0221624D01*
X0108231Y0220979D01*
X0108231Y0215147D01*
X0108875Y0214502D01*
X0121300Y0214502D01*
X0121300Y0213750D01*
X0108875Y0213750D01*
X0108231Y0213105D01*
X0108231Y0211889D01*
X0090485Y0211889D01*
X0078796Y0200200D01*
X0077800Y0199204D01*
X0077800Y0190796D01*
X0078796Y0189800D01*
X0093696Y0174900D01*
X0093161Y0174900D01*
X0091728Y0174306D01*
X0091400Y0173978D01*
X0091400Y0175074D01*
X0090578Y0177059D01*
X0075400Y0192237D01*
X0075400Y0234263D01*
X0085852Y0244715D01*
X0093852Y0244715D01*
X0093400Y0244263D01*
X0093400Y0228237D01*
X0094337Y0227300D01*
X0102845Y0227300D01*
X0102929Y0227234D01*
X0103494Y0227300D01*
X0103982Y0227300D01*
X0099882Y0223200D01*
X0092909Y0223200D01*
X0092483Y0223235D01*
X0092376Y0223200D01*
X0092263Y0223200D01*
X0091868Y0223036D01*
X0091461Y0222905D01*
X0091375Y0222832D01*
X0091271Y0222789D01*
X0090968Y0222486D01*
X0089375Y0221132D01*
X0089271Y0221089D01*
X0088968Y0220786D01*
X0088642Y0220509D01*
X0088591Y0220409D01*
X0083305Y0215124D01*
X0082868Y0214942D01*
X0082058Y0214132D01*
X0081619Y0213073D01*
X0081619Y0211927D01*
X0082058Y0210868D01*
X0082868Y0210058D01*
X0083927Y0209619D01*
X0085073Y0209619D01*
X0086132Y0210058D01*
X0086942Y0210868D01*
X0087124Y0211305D01*
X0092632Y0216814D01*
X0093792Y0217800D01*
X0101537Y0217800D01*
X0102529Y0218211D01*
X0103289Y0218971D01*
X0107555Y0223237D01*
X0108231Y0223237D01*
X0108231Y0223021D01*
X0108875Y0222376D01*
X0121597Y0222376D01*
X0122242Y0223021D01*
X0122242Y0227496D01*
X0123087Y0226650D01*
X0129692Y0226650D01*
X0130021Y0226518D01*
X0130328Y0226650D01*
X0130663Y0226650D01*
X0130913Y0226901D01*
X0132078Y0227400D01*
X0132413Y0227400D01*
X0132663Y0227651D01*
X0132989Y0227790D01*
X0133114Y0228101D01*
X0133350Y0228337D01*
X0133350Y0228692D01*
X0133482Y0229021D01*
X0133350Y0229328D01*
X0133350Y0236016D01*
X0134993Y0238481D01*
X0135350Y0238837D01*
X0135350Y0239016D01*
X0135449Y0239164D01*
X0135350Y0239658D01*
X0135350Y0242663D01*
X0134413Y0243600D01*
X0133163Y0244850D01*
X0129337Y0244850D01*
X0128400Y0243913D01*
X0127150Y0242663D01*
X0127150Y0238913D01*
X0126837Y0238600D01*
X0122073Y0238600D01*
X0122242Y0238769D01*
X0122242Y0244601D01*
X0121597Y0245246D01*
X0118671Y0245246D01*
X0118785Y0245359D01*
X0118785Y0285641D01*
X0118141Y0286285D01*
X0077859Y0286285D01*
X0077215Y0285641D01*
X0077215Y0251352D01*
X0065422Y0239559D01*
X0064600Y0237574D01*
X0064600Y0188926D01*
X0065422Y0186941D01*
X0066941Y0185422D01*
X0079863Y0172500D01*
X0078922Y0171559D01*
X0078100Y0169574D01*
X0078100Y0165426D01*
X0078922Y0163441D01*
X0080441Y0161922D01*
X0078484Y0164500D02*
X0072100Y0164500D01*
X0072100Y0165698D02*
X0072100Y0162302D01*
X0069698Y0159900D01*
X0066302Y0159900D01*
X0063900Y0162302D01*
X0063900Y0165696D01*
X0060296Y0169300D01*
X0059300Y0170296D01*
X0059300Y0171926D01*
X0058558Y0172668D01*
X0058119Y0173727D01*
X0058119Y0174873D01*
X0058558Y0175932D01*
X0059368Y0176742D01*
X0060427Y0177181D01*
X0061573Y0177181D01*
X0062632Y0176742D01*
X0063442Y0175932D01*
X0063881Y0174873D01*
X0063881Y0173727D01*
X0063442Y0172668D01*
X0062700Y0171926D01*
X0062700Y0171704D01*
X0066304Y0168100D01*
X0069698Y0168100D01*
X0072100Y0165698D01*
X0070000Y0167798D02*
X0070000Y0182363D01*
X0067863Y0184500D02*
X0064072Y0184500D01*
X0065000Y0187960D02*
X0065000Y0169404D01*
X0064904Y0169500D02*
X0078100Y0169500D01*
X0077863Y0174500D02*
X0063881Y0174500D01*
X0061000Y0174300D02*
X0061000Y0171000D01*
X0068000Y0164000D01*
X0065000Y0161202D02*
X0065000Y0156798D01*
X0063900Y0154500D02*
X0062100Y0154500D01*
X0060000Y0157798D02*
X0060000Y0159495D01*
X0060005Y0159500D02*
X0082863Y0159500D01*
X0085000Y0157363D02*
X0085000Y0153200D01*
X0087863Y0154500D02*
X0072100Y0154500D01*
X0072000Y0151500D02*
X0070000Y0149500D01*
X0062500Y0149500D01*
X0058000Y0154000D01*
X0055000Y0151202D02*
X0055000Y0141574D01*
X0060000Y0143074D02*
X0060000Y0149596D01*
X0060096Y0149500D02*
X0053687Y0149500D01*
X0055000Y0156798D02*
X0055000Y0160495D01*
X0054900Y0159500D02*
X0055995Y0159500D01*
X0057600Y0159500D02*
X0058400Y0159500D01*
X0058400Y0159400D02*
X0059905Y0159400D01*
X0062600Y0162095D01*
X0062600Y0163600D01*
X0058400Y0163600D01*
X0058400Y0159400D01*
X0060000Y0163600D02*
X0060000Y0164400D01*
X0058400Y0164400D02*
X0062600Y0164400D01*
X0062600Y0165905D01*
X0059905Y0168600D01*
X0058400Y0168600D01*
X0058400Y0164400D01*
X0058400Y0164500D02*
X0057600Y0164500D01*
X0055000Y0167505D02*
X0055000Y0178668D01*
X0052797Y0179500D02*
X0048931Y0179500D01*
X0050000Y0181774D02*
X0050000Y0173187D01*
X0048905Y0174500D02*
X0058119Y0174500D01*
X0060000Y0177004D02*
X0060000Y0179517D01*
X0059959Y0179500D02*
X0072863Y0179500D01*
X0075000Y0177363D02*
X0075000Y0153200D01*
X0072000Y0151500D02*
X0111500Y0151500D01*
X0115000Y0150404D02*
X0115000Y0153100D01*
X0120000Y0153100D02*
X0120000Y0145574D01*
X0127493Y0139500D02*
X0131119Y0139500D01*
X0135000Y0142204D02*
X0135000Y0153100D01*
X0140000Y0153100D02*
X0140000Y0144497D01*
X0125000Y0138313D02*
X0125000Y0135400D01*
X0122400Y0135713D02*
X0122400Y0135713D01*
X0120000Y0131600D02*
X0120000Y0111904D01*
X0122596Y0114500D02*
X0114200Y0114500D01*
X0115000Y0113574D02*
X0115000Y0120503D01*
X0110800Y0114500D02*
X0093571Y0114500D01*
X0106200Y0101796D02*
X0107600Y0103196D01*
X0107600Y0102213D01*
X0107600Y0100898D01*
X0106200Y0099498D01*
X0106200Y0101796D01*
X0106200Y0099500D02*
X0106202Y0099500D01*
X0102800Y0099500D02*
X0102798Y0099500D01*
X0112798Y0099500D02*
X0115300Y0099500D01*
X0120000Y0096000D02*
X0120000Y0106500D01*
X0139000Y0125500D01*
X0139000Y0128300D01*
X0136800Y0130500D01*
X0131500Y0130500D01*
X0125000Y0131600D02*
X0125000Y0116904D01*
X0130000Y0110752D02*
X0130000Y0102433D01*
X0131222Y0098600D02*
X0150544Y0098600D01*
X0150119Y0097573D01*
X0150119Y0096427D01*
X0150119Y0096426D01*
X0143281Y0089185D01*
X0142800Y0088704D01*
X0142800Y0088676D01*
X0142781Y0088655D01*
X0142800Y0087976D01*
X0142800Y0085604D01*
X0135200Y0093204D01*
X0134204Y0094200D01*
X0131281Y0094200D01*
X0131281Y0094473D01*
X0130842Y0095532D01*
X0130032Y0096342D01*
X0129112Y0096724D01*
X0131222Y0098600D01*
X0130000Y0097513D02*
X0130000Y0096356D01*
X0131270Y0094500D02*
X0148301Y0094500D01*
X0150000Y0096299D02*
X0150000Y0098600D01*
X0153000Y0097000D02*
X0144500Y0088000D01*
X0144500Y0071500D01*
X0148000Y0068000D01*
X0207000Y0068000D01*
X0215000Y0060000D01*
X0215000Y0049500D01*
X0216700Y0049500D02*
X0217800Y0049500D01*
X0217800Y0054500D02*
X0216700Y0054500D01*
X0213300Y0054500D02*
X0213100Y0054500D01*
X0213100Y0054337D02*
X0213100Y0055663D01*
X0213100Y0059496D01*
X0213300Y0059296D01*
X0213300Y0051859D01*
X0212236Y0052300D01*
X0211063Y0052300D01*
X0213100Y0054337D01*
X0221200Y0054500D02*
X0227800Y0054500D01*
X0231200Y0054500D02*
X0239800Y0054500D01*
X0239800Y0055796D02*
X0239800Y0051901D01*
X0239404Y0051737D01*
X0238363Y0050696D01*
X0237800Y0049336D01*
X0237800Y0042664D01*
X0238363Y0041304D01*
X0239404Y0040263D01*
X0239798Y0040100D01*
X0233202Y0040100D01*
X0233596Y0040263D01*
X0234637Y0041304D01*
X0235200Y0042664D01*
X0235200Y0049336D01*
X0234637Y0050696D01*
X0233596Y0051737D01*
X0232236Y0052300D01*
X0231200Y0052300D01*
X0231200Y0058379D01*
X0231282Y0058957D01*
X0231200Y0059067D01*
X0231200Y0059204D01*
X0231104Y0059300D01*
X0236296Y0059300D01*
X0239800Y0055796D01*
X0242204Y0058200D02*
X0242204Y0058200D01*
X0243200Y0054500D02*
X0246400Y0054500D01*
X0237868Y0049500D02*
X0235132Y0049500D01*
X0235000Y0049819D02*
X0235000Y0059300D01*
X0235000Y0062700D02*
X0235000Y0066096D01*
X0236596Y0064500D02*
X0230700Y0064500D01*
X0230700Y0064204D02*
X0230700Y0070396D01*
X0230796Y0070300D01*
X0237119Y0063977D01*
X0237119Y0062927D01*
X0237213Y0062700D01*
X0232204Y0062700D01*
X0230700Y0064204D01*
X0226500Y0062500D02*
X0229500Y0058500D01*
X0229500Y0048000D01*
X0231500Y0046000D01*
X0235200Y0044500D02*
X0237800Y0044500D01*
X0235000Y0042181D02*
X0235000Y0040100D01*
X0235000Y0033900D02*
X0235000Y0020928D01*
X0235092Y0020801D02*
X0234704Y0021336D01*
X0234236Y0021804D01*
X0233701Y0022192D01*
X0233112Y0022492D01*
X0232484Y0022697D01*
X0231831Y0022800D01*
X0231700Y0022800D01*
X0231700Y0016200D01*
X0235700Y0016200D01*
X0235700Y0018931D01*
X0235597Y0019584D01*
X0235392Y0020212D01*
X0235092Y0020801D01*
X0235610Y0019500D02*
X0237390Y0019500D01*
X0241300Y0019500D02*
X0241700Y0019500D01*
X0242484Y0022697D02*
X0243112Y0022492D01*
X0243701Y0022192D01*
X0244236Y0021804D01*
X0244704Y0021336D01*
X0245092Y0020801D01*
X0245392Y0020212D01*
X0245597Y0019584D01*
X0245700Y0018931D01*
X0245700Y0016200D01*
X0241700Y0016200D01*
X0241700Y0022800D01*
X0241831Y0022800D01*
X0242484Y0022697D01*
X0240000Y0022529D02*
X0240000Y0033900D01*
X0245000Y0033900D02*
X0245000Y0020928D01*
X0245610Y0019500D02*
X0246400Y0019500D01*
X0245000Y0016200D02*
X0245000Y0015800D01*
X0245700Y0014500D02*
X0246400Y0014500D01*
X0240000Y0015800D02*
X0240000Y0016200D01*
X0237300Y0014500D02*
X0235700Y0014500D01*
X0235000Y0015800D02*
X0235000Y0016200D01*
X0231700Y0019500D02*
X0231300Y0019500D01*
X0230000Y0022529D02*
X0230000Y0033900D01*
X0225000Y0033900D02*
X0225000Y0020928D01*
X0225092Y0020801D02*
X0224704Y0021336D01*
X0224236Y0021804D01*
X0223701Y0022192D01*
X0223112Y0022492D01*
X0222484Y0022697D01*
X0221831Y0022800D01*
X0221700Y0022800D01*
X0221700Y0016200D01*
X0225700Y0016200D01*
X0225700Y0018931D01*
X0225597Y0019584D01*
X0225392Y0020212D01*
X0225092Y0020801D01*
X0225610Y0019500D02*
X0227390Y0019500D01*
X0225000Y0016200D02*
X0225000Y0015800D01*
X0225700Y0014500D02*
X0227300Y0014500D01*
X0230000Y0015800D02*
X0230000Y0016200D01*
X0221700Y0019500D02*
X0221300Y0019500D01*
X0220000Y0022529D02*
X0220000Y0033900D01*
X0215000Y0033900D02*
X0215000Y0020928D01*
X0215092Y0020801D02*
X0214704Y0021336D01*
X0214236Y0021804D01*
X0213701Y0022192D01*
X0213112Y0022492D01*
X0212484Y0022697D01*
X0211831Y0022800D01*
X0211700Y0022800D01*
X0211700Y0016200D01*
X0215700Y0016200D01*
X0215700Y0018931D01*
X0215597Y0019584D01*
X0215392Y0020212D01*
X0215092Y0020801D01*
X0215610Y0019500D02*
X0217390Y0019500D01*
X0215000Y0016200D02*
X0215000Y0015800D01*
X0215700Y0014500D02*
X0217300Y0014500D01*
X0220000Y0015800D02*
X0220000Y0016200D01*
X0211700Y0019500D02*
X0211300Y0019500D01*
X0210000Y0022529D02*
X0210000Y0033900D01*
X0205000Y0033900D02*
X0205000Y0020928D01*
X0205092Y0020801D02*
X0204704Y0021336D01*
X0204236Y0021804D01*
X0203701Y0022192D01*
X0203112Y0022492D01*
X0202484Y0022697D01*
X0201831Y0022800D01*
X0201700Y0022800D01*
X0201700Y0016200D01*
X0205700Y0016200D01*
X0205700Y0018931D01*
X0205597Y0019584D01*
X0205392Y0020212D01*
X0205092Y0020801D01*
X0205610Y0019500D02*
X0207390Y0019500D01*
X0205000Y0016200D02*
X0205000Y0015800D01*
X0205700Y0014500D02*
X0207300Y0014500D01*
X0210000Y0015800D02*
X0210000Y0016200D01*
X0201700Y0019500D02*
X0201300Y0019500D01*
X0200000Y0022529D02*
X0200000Y0033900D01*
X0195000Y0033900D02*
X0195000Y0020928D01*
X0195092Y0020801D02*
X0194704Y0021336D01*
X0194236Y0021804D01*
X0193701Y0022192D01*
X0193112Y0022492D01*
X0192484Y0022697D01*
X0191831Y0022800D01*
X0191700Y0022800D01*
X0191700Y0016200D01*
X0195700Y0016200D01*
X0195700Y0018931D01*
X0195597Y0019584D01*
X0195392Y0020212D01*
X0195092Y0020801D01*
X0195610Y0019500D02*
X0197390Y0019500D01*
X0195000Y0016200D02*
X0195000Y0015800D01*
X0195700Y0014500D02*
X0197300Y0014500D01*
X0200000Y0015800D02*
X0200000Y0016200D01*
X0191700Y0019500D02*
X0191300Y0019500D01*
X0190000Y0022529D02*
X0190000Y0033900D01*
X0185000Y0033900D02*
X0185000Y0020928D01*
X0185092Y0020801D02*
X0184704Y0021336D01*
X0184236Y0021804D01*
X0183701Y0022192D01*
X0183112Y0022492D01*
X0182484Y0022697D01*
X0181831Y0022800D01*
X0181700Y0022800D01*
X0181700Y0016200D01*
X0185700Y0016200D01*
X0185700Y0018931D01*
X0185597Y0019584D01*
X0185392Y0020212D01*
X0185092Y0020801D01*
X0185610Y0019500D02*
X0187390Y0019500D01*
X0185000Y0016200D02*
X0185000Y0015800D01*
X0185700Y0014500D02*
X0187300Y0014500D01*
X0190000Y0015800D02*
X0190000Y0016200D01*
X0181700Y0019500D02*
X0181300Y0019500D01*
X0180000Y0022529D02*
X0180000Y0033900D01*
X0175000Y0033900D02*
X0175000Y0011100D01*
X0177300Y0014500D02*
X0161515Y0014500D01*
X0161900Y0014885D02*
X0159615Y0012600D01*
X0156385Y0012600D01*
X0154100Y0014885D01*
X0154100Y0018115D01*
X0156385Y0020400D01*
X0159615Y0020400D01*
X0161900Y0018115D01*
X0161900Y0014885D01*
X0160000Y0012985D02*
X0160000Y0011100D01*
X0155000Y0011100D02*
X0155000Y0013985D01*
X0154485Y0014500D02*
X0151515Y0014500D01*
X0151900Y0014885D02*
X0149615Y0012600D01*
X0146385Y0012600D01*
X0144100Y0014885D01*
X0144100Y0018115D01*
X0146385Y0020400D01*
X0149615Y0020400D01*
X0151900Y0018115D01*
X0151900Y0014885D01*
X0150000Y0012985D02*
X0150000Y0011100D01*
X0145000Y0011100D02*
X0145000Y0013985D01*
X0144485Y0014500D02*
X0141515Y0014500D01*
X0140000Y0012985D02*
X0140000Y0011100D01*
X0135000Y0011100D02*
X0135000Y0013985D01*
X0134485Y0014500D02*
X0131763Y0014500D01*
X0130000Y0012985D02*
X0130000Y0011100D01*
X0125000Y0011100D02*
X0125000Y0013985D01*
X0124485Y0014500D02*
X0121515Y0014500D01*
X0120000Y0012985D02*
X0120000Y0011100D01*
X0140000Y0020015D02*
X0140000Y0022985D01*
X0141515Y0024500D02*
X0144485Y0024500D01*
X0145000Y0023985D02*
X0145000Y0019015D01*
X0145485Y0019500D02*
X0140515Y0019500D01*
X0150000Y0020015D02*
X0150000Y0022985D01*
X0151515Y0024500D02*
X0154485Y0024500D01*
X0154100Y0024885D02*
X0156385Y0022600D01*
X0159615Y0022600D01*
X0161900Y0024885D01*
X0161900Y0028115D01*
X0159615Y0030400D01*
X0156385Y0030400D01*
X0154100Y0028115D01*
X0154100Y0024885D01*
X0155000Y0023985D02*
X0155000Y0019015D01*
X0155485Y0019500D02*
X0150515Y0019500D01*
X0160000Y0020015D02*
X0160000Y0022985D01*
X0161515Y0024500D02*
X0268855Y0024500D01*
X0268927Y0024137D02*
X0269212Y0023449D01*
X0269626Y0022830D01*
X0270153Y0022303D01*
X0270772Y0021889D01*
X0271460Y0021604D01*
X0272191Y0021459D01*
X0272563Y0021459D01*
X0272563Y0025240D01*
X0272563Y0025240D01*
X0268782Y0025240D01*
X0268782Y0024868D01*
X0268927Y0024137D01*
X0268782Y0025240D02*
X0272563Y0025240D01*
X0272563Y0025240D01*
X0272563Y0025240D01*
X0272563Y0029021D01*
X0272191Y0029021D01*
X0271460Y0028876D01*
X0270772Y0028591D01*
X0270153Y0028177D01*
X0269626Y0027650D01*
X0269212Y0027031D01*
X0268927Y0026343D01*
X0268782Y0025613D01*
X0268782Y0025240D01*
X0270000Y0025240D02*
X0270000Y0025240D01*
X0272563Y0024500D02*
X0272563Y0024500D01*
X0270000Y0022456D02*
X0270000Y0019837D01*
X0269732Y0019500D02*
X0269100Y0019500D01*
X0269100Y0020711D02*
X0268991Y0021118D01*
X0268780Y0021482D01*
X0268482Y0021780D01*
X0268118Y0021991D01*
X0267711Y0022100D01*
X0265600Y0022100D01*
X0265600Y0016100D01*
X0269100Y0016100D01*
X0269100Y0020711D01*
X0265600Y0019500D02*
X0264400Y0019500D01*
X0260900Y0019500D02*
X0253600Y0019500D01*
X0255000Y0017704D02*
X0255000Y0033900D01*
X0250000Y0033900D02*
X0250000Y0021600D01*
X0258881Y0014500D02*
X0260900Y0014500D01*
X0260000Y0011100D02*
X0260000Y0033900D01*
X0265000Y0033900D02*
X0265000Y0016100D01*
X0269100Y0014500D02*
X0271859Y0014500D01*
X0273267Y0014500D02*
X0274650Y0014500D01*
X0270000Y0015683D02*
X0270000Y0011100D01*
X0255000Y0011100D02*
X0255000Y0012296D01*
X0270000Y0028024D02*
X0270000Y0033900D01*
X0274650Y0029500D02*
X0160515Y0029500D01*
X0160000Y0030015D02*
X0160000Y0035237D01*
X0159263Y0034500D02*
X0162116Y0034500D01*
X0165000Y0033900D02*
X0165000Y0011100D01*
X0170000Y0011100D02*
X0170000Y0033900D01*
X0170000Y0040100D02*
X0170000Y0052300D01*
X0170000Y0055700D02*
X0170000Y0058800D01*
X0165000Y0058800D02*
X0165000Y0056704D01*
X0164000Y0054000D02*
X0196200Y0054000D01*
X0195000Y0051592D02*
X0195000Y0050763D01*
X0190000Y0051984D02*
X0190000Y0052300D01*
X0190000Y0055700D02*
X0190000Y0058800D01*
X0195000Y0058800D02*
X0195000Y0056408D01*
X0204433Y0050900D02*
X0205137Y0050900D01*
X0204724Y0050486D01*
X0204637Y0050696D01*
X0204433Y0050900D01*
X0205000Y0050900D02*
X0205000Y0050763D01*
X0208500Y0059000D02*
X0207500Y0060000D01*
X0216404Y0064500D02*
X0224800Y0064500D01*
X0226500Y0062500D02*
X0226500Y0082500D01*
X0224000Y0085000D01*
X0207500Y0085000D01*
X0163000Y0129500D01*
X0157368Y0128227D02*
X0154168Y0131428D01*
X0153852Y0130664D01*
X0156288Y0128227D01*
X0157368Y0128227D01*
X0156096Y0129500D02*
X0155016Y0129500D01*
X0155000Y0129516D02*
X0155000Y0130596D01*
X0150208Y0129500D02*
X0145200Y0129500D01*
X0150000Y0129708D02*
X0150000Y0102400D01*
X0148870Y0104500D02*
X0155724Y0104500D01*
X0155000Y0103751D02*
X0155000Y0124827D01*
X0158500Y0121500D02*
X0169000Y0115500D01*
X0171704Y0114500D02*
X0172596Y0114500D01*
X0171881Y0114927D02*
X0171881Y0115215D01*
X0198800Y0088296D01*
X0198800Y0073796D01*
X0199796Y0072800D01*
X0202896Y0069700D01*
X0148704Y0069700D01*
X0146200Y0072204D01*
X0146200Y0087324D01*
X0152617Y0094119D01*
X0153573Y0094119D01*
X0154632Y0094558D01*
X0155442Y0095368D01*
X0155881Y0096427D01*
X0155881Y0097573D01*
X0155442Y0098632D01*
X0155389Y0098686D01*
X0155855Y0099168D01*
X0156400Y0099713D01*
X0156400Y0099732D01*
X0168858Y0112619D01*
X0169573Y0112619D01*
X0170632Y0113058D01*
X0171442Y0113868D01*
X0171881Y0114927D01*
X0170000Y0112796D02*
X0170000Y0069700D01*
X0165000Y0069700D02*
X0165000Y0108628D01*
X0165843Y0109500D02*
X0177596Y0109500D01*
X0180000Y0107096D02*
X0180000Y0081185D01*
X0179888Y0080915D02*
X0179888Y0078085D01*
X0180971Y0075471D01*
X0182971Y0073471D01*
X0185585Y0072388D01*
X0188415Y0072388D01*
X0191029Y0073471D01*
X0193029Y0075471D01*
X0194112Y0078085D01*
X0194112Y0080915D01*
X0193029Y0083529D01*
X0191029Y0085529D01*
X0188415Y0086612D01*
X0185585Y0086612D01*
X0182971Y0085529D01*
X0180971Y0083529D01*
X0179888Y0080915D01*
X0179888Y0079500D02*
X0146200Y0079500D01*
X0146200Y0074500D02*
X0181942Y0074500D01*
X0185000Y0072631D02*
X0185000Y0069700D01*
X0190000Y0069700D02*
X0190000Y0073045D01*
X0192058Y0074500D02*
X0198800Y0074500D01*
X0200000Y0072596D02*
X0200000Y0069700D01*
X0195000Y0069700D02*
X0195000Y0092096D01*
X0192596Y0094500D02*
X0154493Y0094500D01*
X0155000Y0094926D02*
X0155000Y0069700D01*
X0150000Y0069700D02*
X0150000Y0091348D01*
X0148255Y0089500D02*
X0197596Y0089500D01*
X0198800Y0084500D02*
X0192058Y0084500D01*
X0190000Y0085955D02*
X0190000Y0097096D01*
X0187596Y0099500D02*
X0156187Y0099500D01*
X0160000Y0103456D02*
X0160000Y0069700D01*
X0145000Y0065596D02*
X0145000Y0064700D01*
X0140000Y0064700D02*
X0140000Y0083596D01*
X0139096Y0084500D02*
X0134058Y0084500D01*
X0135000Y0083558D02*
X0135000Y0088596D01*
X0134096Y0089500D02*
X0127497Y0089500D01*
X0130000Y0090796D02*
X0130000Y0086612D01*
X0138904Y0089500D02*
X0143578Y0089500D01*
X0145000Y0091005D02*
X0145000Y0098600D01*
X0140000Y0098600D02*
X0140000Y0088404D01*
X0142000Y0084000D02*
X0133500Y0092500D01*
X0130000Y0092500D01*
X0128400Y0093900D01*
X0135000Y0093404D02*
X0135000Y0098600D01*
X0135000Y0102400D02*
X0135000Y0115887D01*
X0133649Y0114500D02*
X0136800Y0114500D01*
X0140200Y0114500D02*
X0165391Y0114500D01*
X0165000Y0114096D02*
X0165000Y0115828D01*
X0165426Y0119500D02*
X0167596Y0119500D01*
X0165000Y0119744D02*
X0165000Y0122096D01*
X0162596Y0124500D02*
X0145200Y0124500D01*
X0145000Y0123096D02*
X0145000Y0107334D01*
X0142862Y0109500D02*
X0160557Y0109500D01*
X0160000Y0108923D02*
X0160000Y0118685D01*
X0156426Y0119500D02*
X0141404Y0119500D01*
X0138085Y0109500D02*
X0128781Y0109500D01*
X0140000Y0107560D02*
X0140000Y0102400D01*
X0161009Y0104500D02*
X0182596Y0104500D01*
X0185000Y0102096D02*
X0185000Y0086369D01*
X0181942Y0084500D02*
X0146200Y0084500D01*
X0142000Y0084000D02*
X0142000Y0071000D01*
X0140300Y0074500D02*
X0134058Y0074500D01*
X0135000Y0075442D02*
X0135000Y0064700D01*
X0130000Y0064700D02*
X0130000Y0072388D01*
X0125000Y0073459D02*
X0125000Y0064700D01*
X0135000Y0058800D02*
X0135000Y0053700D01*
X0135000Y0050300D02*
X0135000Y0048700D01*
X0137626Y0048700D02*
X0119874Y0048700D01*
X0119197Y0049377D01*
X0119632Y0049558D01*
X0120374Y0050300D01*
X0138126Y0050300D01*
X0138803Y0049623D01*
X0138368Y0049442D01*
X0137626Y0048700D01*
X0138507Y0049500D02*
X0119493Y0049500D01*
X0120000Y0049926D02*
X0120000Y0048700D01*
X0117500Y0047000D02*
X0140000Y0047000D01*
X0164000Y0047000D01*
X0162507Y0049500D02*
X0141993Y0049500D01*
X0145000Y0048700D02*
X0145000Y0050300D01*
X0145000Y0053700D02*
X0145000Y0058800D01*
X0150000Y0058800D02*
X0150000Y0053700D01*
X0150000Y0050300D02*
X0150000Y0048700D01*
X0150000Y0045300D02*
X0150000Y0043100D01*
X0148074Y0044500D02*
X0161700Y0044500D01*
X0160000Y0045300D02*
X0160000Y0041263D01*
X0160100Y0039500D02*
X0161700Y0039500D01*
X0156900Y0039500D02*
X0120997Y0039500D01*
X0116007Y0044500D02*
X0102658Y0044500D01*
X0115000Y0045507D02*
X0115000Y0029015D01*
X0115485Y0029500D02*
X0110700Y0029500D01*
X0110521Y0034500D02*
X0117737Y0034500D01*
X0110000Y0035322D02*
X0110000Y0068100D01*
X0118700Y0074500D02*
X0123942Y0074500D01*
X0121888Y0079500D02*
X0118700Y0079500D01*
X0136112Y0079500D02*
X0140300Y0079500D01*
X0117000Y0092500D02*
X0117000Y0106500D01*
X0160000Y0123997D02*
X0160000Y0125596D01*
X0175000Y0112096D02*
X0175000Y0069700D01*
X0180000Y0069700D02*
X0180000Y0077815D01*
X0194112Y0079500D02*
X0198800Y0079500D01*
X0202200Y0079500D02*
X0224800Y0079500D01*
X0224800Y0074500D02*
X0202904Y0074500D01*
X0205000Y0072404D02*
X0205000Y0085096D01*
X0205596Y0084500D02*
X0202200Y0084500D01*
X0210000Y0083300D02*
X0210000Y0070904D01*
X0211404Y0069500D02*
X0224800Y0069500D01*
X0230700Y0069500D02*
X0231596Y0069500D01*
X0230796Y0070300D02*
X0230796Y0070300D01*
X0235000Y0070904D02*
X0235000Y0097096D01*
X0237404Y0099500D02*
X0237596Y0099500D01*
X0236280Y0100816D02*
X0236088Y0100816D01*
X0239204Y0097700D01*
X0247904Y0097700D01*
X0248004Y0097800D01*
X0239296Y0097800D01*
X0236280Y0100816D01*
X0236000Y0103500D02*
X0240000Y0099500D01*
X0252000Y0099500D01*
X0254687Y0099500D02*
X0255400Y0099500D01*
X0255000Y0099187D02*
X0255000Y0103216D01*
X0255991Y0104500D02*
X0269900Y0104500D01*
X0265000Y0104900D02*
X0265000Y0103100D01*
X0260000Y0103100D02*
X0260000Y0104900D01*
X0255000Y0107784D02*
X0255000Y0108216D01*
X0252521Y0108000D02*
X0251979Y0107776D01*
X0251404Y0107200D01*
X0245462Y0107200D01*
X0245520Y0107224D01*
X0246276Y0107979D01*
X0246615Y0108800D01*
X0251404Y0108800D01*
X0251979Y0108224D01*
X0252521Y0108000D01*
X0250000Y0107200D02*
X0250000Y0108800D01*
X0250000Y0112200D02*
X0250000Y0112800D01*
X0251000Y0114500D02*
X0242500Y0114500D01*
X0239816Y0114500D02*
X0236301Y0114500D01*
X0235000Y0113489D02*
X0235000Y0105991D01*
X0233509Y0104500D02*
X0233491Y0104500D01*
X0231000Y0103500D02*
X0238500Y0096000D01*
X0250000Y0096000D01*
X0250000Y0093316D02*
X0250000Y0062187D01*
X0250725Y0062750D02*
X0250081Y0063395D01*
X0250081Y0070605D01*
X0250725Y0071250D01*
X0250899Y0071250D01*
X0250619Y0071927D01*
X0250619Y0073073D01*
X0251058Y0074132D01*
X0251868Y0074942D01*
X0252927Y0075381D01*
X0254073Y0075381D01*
X0255132Y0074942D01*
X0255942Y0074132D01*
X0256381Y0073073D01*
X0256381Y0071927D01*
X0256101Y0071250D01*
X0256755Y0071250D01*
X0257399Y0070605D01*
X0257399Y0063395D01*
X0256755Y0062750D01*
X0250725Y0062750D01*
X0250081Y0064500D02*
X0249919Y0064500D01*
X0240000Y0066381D02*
X0240000Y0094300D01*
X0237596Y0094500D02*
X0206404Y0094500D01*
X0205000Y0095904D02*
X0205000Y0096619D01*
X0208318Y0099500D02*
X0211119Y0099500D01*
X0210000Y0101182D02*
X0210000Y0090904D01*
X0215000Y0090700D02*
X0215000Y0096796D01*
X0216881Y0099500D02*
X0232596Y0099500D01*
X0230000Y0101009D02*
X0230000Y0088404D01*
X0228904Y0089500D02*
X0255400Y0089500D01*
X0255000Y0093813D02*
X0255000Y0074997D01*
X0255574Y0074500D02*
X0260600Y0074500D01*
X0260000Y0074900D02*
X0260000Y0040100D01*
X0245000Y0040100D02*
X0245000Y0042181D01*
X0227800Y0049500D02*
X0225132Y0049500D01*
X0225000Y0049819D02*
X0225000Y0061596D01*
X0226625Y0059500D02*
X0221200Y0059500D01*
X0220204Y0060700D02*
X0220204Y0060700D01*
X0220000Y0060904D02*
X0220000Y0083300D01*
X0215000Y0083300D02*
X0215000Y0065904D01*
X0233200Y0074500D02*
X0251426Y0074500D01*
X0255400Y0079500D02*
X0233200Y0079500D01*
X0233200Y0084500D02*
X0269900Y0084500D01*
X0265000Y0084900D02*
X0265000Y0083100D01*
X0260000Y0083100D02*
X0260000Y0084900D01*
X0265000Y0093100D02*
X0265000Y0094900D01*
X0269900Y0094500D02*
X0259687Y0094500D01*
X0260000Y0094187D02*
X0260000Y0094900D01*
X0254313Y0094500D02*
X0252284Y0094500D01*
X0245000Y0094300D02*
X0245000Y0071250D01*
X0242601Y0069500D02*
X0236404Y0069500D01*
X0249919Y0069500D02*
X0250081Y0069500D01*
X0257399Y0069500D02*
X0260600Y0069500D01*
X0264400Y0069500D02*
X0269900Y0069500D01*
X0269900Y0064500D02*
X0264400Y0064500D01*
X0265000Y0063900D02*
X0265000Y0074900D01*
X0264400Y0074500D02*
X0269900Y0074500D01*
X0269900Y0079500D02*
X0269600Y0079500D01*
X0269600Y0089500D02*
X0269900Y0089500D01*
X0269900Y0099500D02*
X0269600Y0099500D01*
X0269600Y0109500D02*
X0269900Y0109500D01*
X0265000Y0113100D02*
X0265000Y0114400D01*
X0266493Y0114500D02*
X0269900Y0114500D01*
X0262900Y0114500D02*
X0262100Y0114500D01*
X0260000Y0114400D02*
X0260000Y0113100D01*
X0258507Y0114500D02*
X0254479Y0114500D01*
X0255000Y0114716D02*
X0255000Y0112784D01*
X0253500Y0110500D02*
X0245000Y0110500D01*
X0244000Y0109500D01*
X0241316Y0109500D02*
X0217818Y0109500D01*
X0220000Y0111682D02*
X0220000Y0090700D01*
X0225000Y0090700D02*
X0225000Y0113300D01*
X0230000Y0113300D02*
X0230000Y0105991D01*
X0228509Y0104500D02*
X0216700Y0104500D01*
X0211300Y0104500D02*
X0211200Y0104500D01*
X0211200Y0109500D02*
X0211300Y0109500D01*
X0205800Y0109500D02*
X0203881Y0109500D01*
X0200000Y0107296D02*
X0200000Y0100904D01*
X0201404Y0099500D02*
X0201619Y0099500D01*
X0215000Y0114318D02*
X0215000Y0114682D01*
X0214818Y0114500D02*
X0215182Y0114500D01*
X0218211Y0117529D02*
X0218211Y0117529D01*
X0220000Y0123200D02*
X0220000Y0123600D01*
X0225000Y0123600D02*
X0225000Y0123200D01*
X0228637Y0124500D02*
X0232040Y0124500D01*
X0230000Y0123200D02*
X0230000Y0125863D01*
X0235000Y0127671D02*
X0235000Y0130863D01*
X0233637Y0129500D02*
X0236707Y0129500D01*
X0240000Y0133029D02*
X0240000Y0150715D01*
X0238900Y0149500D02*
X0243300Y0149500D01*
X0243300Y0154500D02*
X0240785Y0154500D01*
X0240785Y0159500D02*
X0243300Y0159500D01*
X0243300Y0164500D02*
X0240785Y0164500D01*
X0240785Y0169500D02*
X0243368Y0169500D01*
X0243437Y0174500D02*
X0240785Y0174500D01*
X0240785Y0179500D02*
X0243505Y0179500D01*
X0243574Y0184500D02*
X0240785Y0184500D01*
X0240785Y0189500D02*
X0243642Y0189500D01*
X0240000Y0192285D02*
X0240000Y0206182D01*
X0241682Y0204500D02*
X0232200Y0204500D01*
X0232200Y0209500D02*
X0236682Y0209500D01*
X0235000Y0211182D02*
X0235000Y0192285D01*
X0230000Y0192285D02*
X0230000Y0195682D01*
X0228818Y0194500D02*
X0243711Y0194500D01*
X0243779Y0199500D02*
X0232200Y0199500D01*
X0226800Y0200118D02*
X0224882Y0198200D01*
X0198463Y0198200D01*
X0197471Y0197789D01*
X0196711Y0197029D01*
X0193024Y0193342D01*
X0192987Y0193577D01*
X0192763Y0194266D01*
X0192434Y0194911D01*
X0192009Y0195497D01*
X0191497Y0196009D01*
X0190911Y0196434D01*
X0190266Y0196763D01*
X0189577Y0196987D01*
X0188862Y0197100D01*
X0185900Y0197100D01*
X0185900Y0192900D01*
X0185100Y0192900D01*
X0185100Y0197100D01*
X0182138Y0197100D01*
X0181423Y0196987D01*
X0180734Y0196763D01*
X0180089Y0196434D01*
X0179503Y0196009D01*
X0179200Y0195705D01*
X0179200Y0205537D01*
X0179337Y0205400D01*
X0180425Y0204312D01*
X0180119Y0203573D01*
X0180119Y0202427D01*
X0180558Y0201368D01*
X0181368Y0200558D01*
X0181900Y0200337D01*
X0183087Y0199150D01*
X0186913Y0199150D01*
X0187850Y0200087D01*
X0189100Y0201337D01*
X0189100Y0205087D01*
X0189413Y0205400D01*
X0191748Y0205400D01*
X0192427Y0205119D01*
X0193573Y0205119D01*
X0194124Y0205347D01*
X0194008Y0205231D01*
X0194008Y0199399D01*
X0194653Y0198754D01*
X0207375Y0198754D01*
X0207421Y0198800D01*
X0223163Y0198800D01*
X0224100Y0199737D01*
X0224100Y0213582D01*
X0226800Y0210882D01*
X0226800Y0200118D01*
X0226182Y0199500D02*
X0223863Y0199500D01*
X0225000Y0198318D02*
X0225000Y0212682D01*
X0224100Y0209500D02*
X0226800Y0209500D01*
X0226800Y0204500D02*
X0224100Y0204500D01*
X0220000Y0198800D02*
X0220000Y0198200D01*
X0215000Y0198200D02*
X0215000Y0198800D01*
X0210000Y0198800D02*
X0210000Y0198200D01*
X0205000Y0198200D02*
X0205000Y0198754D01*
X0200000Y0198754D02*
X0200000Y0198200D01*
X0195000Y0198754D02*
X0195000Y0195318D01*
X0194182Y0194500D02*
X0192644Y0194500D01*
X0190000Y0196849D02*
X0190000Y0205400D01*
X0189100Y0204500D02*
X0194008Y0204500D01*
X0194950Y0205876D02*
X0195442Y0206368D01*
X0195486Y0206473D01*
X0195641Y0206628D01*
X0206749Y0206628D01*
X0206728Y0206605D01*
X0205703Y0205900D01*
X0196837Y0205900D01*
X0196813Y0205876D01*
X0194950Y0205876D01*
X0195000Y0205876D02*
X0195000Y0205926D01*
X0200000Y0205900D02*
X0200000Y0206628D01*
X0205000Y0206628D02*
X0205000Y0205900D01*
X0207778Y0207031D02*
X0208019Y0207273D01*
X0208019Y0213105D01*
X0207375Y0213750D01*
X0196763Y0213750D01*
X0196010Y0214502D01*
X0207375Y0214502D01*
X0208019Y0215147D01*
X0208019Y0215363D01*
X0208100Y0215363D01*
X0209092Y0215774D01*
X0209852Y0216534D01*
X0212789Y0219471D01*
X0213200Y0220463D01*
X0213200Y0224497D01*
X0213211Y0224471D01*
X0213971Y0223711D01*
X0220982Y0216700D01*
X0214655Y0216700D01*
X0214571Y0216766D01*
X0214006Y0216700D01*
X0213437Y0216700D01*
X0213361Y0216624D01*
X0213255Y0216612D01*
X0212902Y0216165D01*
X0212500Y0215763D01*
X0212500Y0215655D01*
X0211402Y0214265D01*
X0211000Y0213863D01*
X0211000Y0213755D01*
X0210934Y0213671D01*
X0211000Y0213106D01*
X0211000Y0207919D01*
X0210147Y0207160D01*
X0207894Y0207010D01*
X0207778Y0207031D01*
X0210000Y0207150D02*
X0210000Y0216682D01*
X0211588Y0214500D02*
X0196013Y0214500D01*
X0200000Y0214502D02*
X0200000Y0213750D01*
X0205000Y0213750D02*
X0205000Y0214502D01*
X0208019Y0209500D02*
X0211000Y0209500D01*
X0215000Y0216700D02*
X0215000Y0222682D01*
X0212801Y0219500D02*
X0218182Y0219500D01*
X0220000Y0217682D02*
X0220000Y0216700D01*
X0225699Y0219619D02*
X0226119Y0219199D01*
X0226119Y0219619D01*
X0225699Y0219619D01*
X0225818Y0219500D02*
X0226119Y0219500D01*
X0223119Y0222199D02*
X0218200Y0227118D01*
X0218200Y0241490D01*
X0218381Y0241927D01*
X0218381Y0243073D01*
X0217942Y0244132D01*
X0217132Y0244942D01*
X0216073Y0245381D01*
X0214927Y0245381D01*
X0213868Y0244942D01*
X0213058Y0244132D01*
X0212619Y0243073D01*
X0212619Y0241927D01*
X0212800Y0241490D01*
X0212800Y0228774D01*
X0212132Y0229442D01*
X0211073Y0229881D01*
X0209927Y0229881D01*
X0208868Y0229442D01*
X0208058Y0228632D01*
X0208019Y0228540D01*
X0208019Y0228853D01*
X0207375Y0229498D01*
X0196407Y0229498D01*
X0195654Y0230250D01*
X0207375Y0230250D01*
X0208019Y0230895D01*
X0208019Y0236727D01*
X0207375Y0237372D01*
X0197532Y0237372D01*
X0197280Y0237624D01*
X0200414Y0237624D01*
X0200414Y0241085D01*
X0201614Y0241085D01*
X0201614Y0242285D01*
X0208519Y0242285D01*
X0208519Y0244356D01*
X0208410Y0244763D01*
X0208200Y0245128D01*
X0207902Y0245426D01*
X0207537Y0245637D01*
X0207130Y0245746D01*
X0201614Y0245746D01*
X0201614Y0242285D01*
X0200414Y0242285D01*
X0200414Y0245746D01*
X0194898Y0245746D01*
X0194491Y0245637D01*
X0194126Y0245426D01*
X0193828Y0245128D01*
X0193617Y0244763D01*
X0193508Y0244356D01*
X0193508Y0242285D01*
X0200414Y0242285D01*
X0200414Y0241085D01*
X0193508Y0241085D01*
X0193508Y0239014D01*
X0193617Y0238607D01*
X0193828Y0238242D01*
X0194126Y0237944D01*
X0194491Y0237733D01*
X0194616Y0237700D01*
X0168374Y0237700D01*
X0167632Y0238442D01*
X0167551Y0238476D01*
X0167942Y0238868D01*
X0168381Y0239927D01*
X0168381Y0240477D01*
X0170700Y0242796D01*
X0170700Y0246296D01*
X0181704Y0257300D01*
X0220796Y0257300D01*
X0221619Y0256477D01*
X0221619Y0255427D01*
X0222058Y0254368D01*
X0222868Y0253558D01*
X0223294Y0253381D01*
X0222927Y0253381D01*
X0221868Y0252942D01*
X0221058Y0252132D01*
X0220619Y0251073D01*
X0220619Y0250362D01*
X0220573Y0250381D01*
X0219427Y0250381D01*
X0218368Y0249942D01*
X0217558Y0249132D01*
X0217119Y0248073D01*
X0217119Y0246927D01*
X0217558Y0245868D01*
X0218368Y0245058D01*
X0218400Y0245044D01*
X0218400Y0231337D01*
X0224400Y0225337D01*
X0224400Y0224956D01*
X0224368Y0224942D01*
X0223558Y0224132D01*
X0223119Y0223073D01*
X0223119Y0222199D01*
X0223926Y0224500D02*
X0220818Y0224500D01*
X0220000Y0225318D02*
X0220000Y0229737D01*
X0220237Y0229500D02*
X0218200Y0229500D01*
X0221600Y0232663D02*
X0221900Y0232363D01*
X0221900Y0245326D01*
X0221632Y0245058D01*
X0221600Y0245044D01*
X0221600Y0232663D01*
X0221600Y0234500D02*
X0221900Y0234500D01*
X0225100Y0234500D02*
X0226300Y0234500D01*
X0225100Y0232163D02*
X0225100Y0248044D01*
X0225132Y0248058D01*
X0225942Y0248868D01*
X0226300Y0249731D01*
X0226300Y0230963D01*
X0225100Y0232163D01*
X0231700Y0231118D02*
X0231700Y0241482D01*
X0231971Y0241211D01*
X0232009Y0241195D01*
X0248290Y0225844D01*
X0248125Y0205693D01*
X0236200Y0217618D01*
X0236200Y0226037D01*
X0235789Y0227029D01*
X0231700Y0231118D01*
X0233318Y0229500D02*
X0244413Y0229500D01*
X0245000Y0228946D02*
X0245000Y0208818D01*
X0244318Y0209500D02*
X0248156Y0209500D01*
X0253557Y0209500D02*
X0264800Y0209500D01*
X0264800Y0204500D02*
X0253516Y0204500D01*
X0253475Y0199500D02*
X0264800Y0199500D01*
X0265000Y0195007D02*
X0265000Y0192610D01*
X0265426Y0194500D02*
X0253434Y0194500D01*
X0255000Y0192866D02*
X0255000Y0226395D01*
X0253680Y0224500D02*
X0256948Y0224500D01*
X0260000Y0221530D02*
X0260000Y0194466D01*
X0267207Y0189500D02*
X0269900Y0189500D01*
X0269900Y0184500D02*
X0267566Y0184500D01*
X0265000Y0180524D02*
X0265000Y0143100D01*
X0266316Y0143100D02*
X0258684Y0143100D01*
X0257178Y0142476D01*
X0256024Y0141322D01*
X0255400Y0139816D01*
X0255400Y0138184D01*
X0256024Y0136678D01*
X0257178Y0135524D01*
X0258684Y0134900D01*
X0266316Y0134900D01*
X0267822Y0135524D01*
X0268976Y0136678D01*
X0269600Y0138184D01*
X0269600Y0139816D01*
X0268976Y0141322D01*
X0267822Y0142476D01*
X0266316Y0143100D01*
X0269900Y0144500D02*
X0253200Y0144500D01*
X0253200Y0139500D02*
X0255400Y0139500D01*
X0260000Y0143100D02*
X0260000Y0178668D01*
X0263453Y0179500D02*
X0269900Y0179500D01*
X0269900Y0174500D02*
X0253270Y0174500D01*
X0253229Y0169500D02*
X0269900Y0169500D01*
X0269900Y0164500D02*
X0253200Y0164500D01*
X0253200Y0159500D02*
X0269900Y0159500D01*
X0269900Y0154500D02*
X0253200Y0154500D01*
X0253200Y0149500D02*
X0269900Y0149500D01*
X0269900Y0139500D02*
X0269600Y0139500D01*
X0269900Y0134500D02*
X0253200Y0134500D01*
X0256024Y0131322D02*
X0255400Y0129816D01*
X0255400Y0128184D01*
X0256024Y0126678D01*
X0257178Y0125524D01*
X0258684Y0124900D01*
X0266316Y0124900D01*
X0267822Y0125524D01*
X0268976Y0126678D01*
X0269600Y0128184D01*
X0269600Y0129816D01*
X0268976Y0131322D01*
X0267822Y0132476D01*
X0266316Y0133100D01*
X0258684Y0133100D01*
X0257178Y0132476D01*
X0256024Y0131322D01*
X0255400Y0129500D02*
X0250439Y0129500D01*
X0250000Y0129034D02*
X0250000Y0116200D01*
X0251000Y0114500D02*
X0253500Y0117000D01*
X0254479Y0119500D02*
X0254922Y0119500D01*
X0255000Y0119400D02*
X0255000Y0119284D01*
X0255000Y0119993D02*
X0255000Y0180268D01*
X0256291Y0179500D02*
X0253311Y0179500D01*
X0269574Y0194500D02*
X0269900Y0194500D01*
X0264800Y0214500D02*
X0253598Y0214500D01*
X0253639Y0219500D02*
X0262087Y0219500D01*
X0269012Y0220296D02*
X0251700Y0237140D01*
X0251700Y0261882D01*
X0256118Y0266300D01*
X0262537Y0266300D01*
X0263529Y0266711D01*
X0264289Y0267471D01*
X0269718Y0272900D01*
X0271698Y0272900D01*
X0274100Y0275302D01*
X0274100Y0278698D01*
X0271698Y0281100D01*
X0268302Y0281100D01*
X0265900Y0278698D01*
X0265900Y0276718D01*
X0260882Y0271700D01*
X0254463Y0271700D01*
X0253471Y0271289D01*
X0247471Y0265289D01*
X0246711Y0264529D01*
X0246300Y0263537D01*
X0246300Y0236518D01*
X0246293Y0236500D01*
X0246300Y0235982D01*
X0246300Y0235463D01*
X0246307Y0235445D01*
X0246308Y0235426D01*
X0246513Y0234950D01*
X0246518Y0234937D01*
X0236200Y0244665D01*
X0236200Y0267800D01*
X0244037Y0267800D01*
X0245029Y0268211D01*
X0245789Y0268971D01*
X0249718Y0272900D01*
X0251698Y0272900D01*
X0254100Y0275302D01*
X0254100Y0278698D01*
X0251698Y0281100D01*
X0248302Y0281100D01*
X0245900Y0278698D01*
X0245900Y0276718D01*
X0242382Y0273200D01*
X0241998Y0273200D01*
X0244100Y0275302D01*
X0244100Y0278698D01*
X0241698Y0281100D01*
X0238302Y0281100D01*
X0236200Y0278998D01*
X0236200Y0285002D01*
X0238302Y0282900D01*
X0241698Y0282900D01*
X0244100Y0285302D01*
X0244100Y0288698D01*
X0241698Y0291100D01*
X0238302Y0291100D01*
X0235918Y0288717D01*
X0235789Y0289029D01*
X0235029Y0289789D01*
X0234037Y0290200D01*
X0185774Y0290200D01*
X0186442Y0290868D01*
X0186881Y0291927D01*
X0186881Y0293073D01*
X0186442Y0294132D01*
X0185900Y0294674D01*
X0185900Y0301263D01*
X0186224Y0300479D01*
X0186979Y0299724D01*
X0187966Y0299316D01*
X0189034Y0299316D01*
X0190020Y0299724D01*
X0190776Y0300479D01*
X0191184Y0301466D01*
X0191184Y0301844D01*
X0191472Y0302100D01*
X0203421Y0302100D01*
X0203297Y0301976D01*
X0202874Y0301394D01*
X0202548Y0300754D01*
X0202325Y0300070D01*
X0202217Y0299384D01*
X0209366Y0299384D01*
X0209366Y0298616D01*
X0210134Y0298616D01*
X0210134Y0294431D01*
X0213078Y0294431D01*
X0213788Y0294544D01*
X0214472Y0294766D01*
X0215113Y0295093D01*
X0215695Y0295515D01*
X0216203Y0296024D01*
X0216626Y0296606D01*
X0216952Y0297246D01*
X0217175Y0297930D01*
X0217283Y0298616D01*
X0210134Y0298616D01*
X0210134Y0299384D01*
X0217283Y0299384D01*
X0217175Y0300070D01*
X0216952Y0300754D01*
X0216626Y0301394D01*
X0216203Y0301976D01*
X0216079Y0302100D01*
X0237863Y0302100D01*
X0239282Y0298676D01*
X0241926Y0296032D01*
X0245380Y0294601D01*
X0249120Y0294601D01*
X0252574Y0296032D01*
X0255218Y0298676D01*
X0256649Y0302130D01*
X0256649Y0305870D01*
X0255218Y0309324D01*
X0252574Y0311968D01*
X0250325Y0312900D01*
X0274650Y0312900D01*
X0274650Y0236207D01*
X0265184Y0245175D01*
X0264033Y0245616D01*
X0262800Y0245582D01*
X0261674Y0245080D01*
X0260825Y0244184D01*
X0260384Y0243033D01*
X0260418Y0241800D01*
X0260920Y0240674D01*
X0269900Y0232167D01*
X0269900Y0219261D01*
X0269789Y0219529D01*
X0269775Y0219543D01*
X0269768Y0219561D01*
X0269396Y0219923D01*
X0269029Y0220289D01*
X0269012Y0220296D01*
X0269801Y0219500D02*
X0269900Y0219500D01*
X0269900Y0224500D02*
X0264691Y0224500D01*
X0265000Y0224200D02*
X0265000Y0236809D01*
X0267437Y0234500D02*
X0254413Y0234500D01*
X0255000Y0233929D02*
X0255000Y0251134D01*
X0255398Y0250736D02*
X0258301Y0249534D01*
X0261443Y0249534D01*
X0264347Y0250736D01*
X0266569Y0252959D01*
X0267771Y0255862D01*
X0267771Y0259004D01*
X0266569Y0261908D01*
X0264347Y0264130D01*
X0261443Y0265332D01*
X0258301Y0265332D01*
X0255398Y0264130D01*
X0253175Y0261908D01*
X0251973Y0259004D01*
X0251973Y0255862D01*
X0253175Y0252959D01*
X0255398Y0250736D01*
X0251700Y0249500D02*
X0274650Y0249500D01*
X0274650Y0254500D02*
X0267207Y0254500D01*
X0265000Y0251390D02*
X0265000Y0245245D01*
X0265896Y0244500D02*
X0274650Y0244500D01*
X0274650Y0239500D02*
X0271174Y0239500D01*
X0270000Y0240612D02*
X0270000Y0272900D01*
X0273298Y0274500D02*
X0274650Y0274500D01*
X0274650Y0269500D02*
X0266318Y0269500D01*
X0265000Y0268182D02*
X0265000Y0263476D01*
X0263453Y0264500D02*
X0274650Y0264500D01*
X0274650Y0259500D02*
X0267566Y0259500D01*
X0260000Y0265332D02*
X0260000Y0266300D01*
X0256292Y0264500D02*
X0254318Y0264500D01*
X0255000Y0265182D02*
X0255000Y0263732D01*
X0252178Y0259500D02*
X0251700Y0259500D01*
X0246300Y0259500D02*
X0236200Y0259500D01*
X0236200Y0264500D02*
X0246699Y0264500D01*
X0245000Y0268199D02*
X0245000Y0236368D01*
X0246300Y0239500D02*
X0241678Y0239500D01*
X0240000Y0241082D02*
X0240000Y0267800D01*
X0245789Y0268971D02*
X0245789Y0268971D01*
X0246318Y0269500D02*
X0251682Y0269500D01*
X0250000Y0267818D02*
X0250000Y0272900D01*
X0253298Y0274500D02*
X0256702Y0274500D01*
X0255900Y0275302D02*
X0258302Y0272900D01*
X0261698Y0272900D01*
X0264100Y0275302D01*
X0264100Y0278698D01*
X0261698Y0281100D01*
X0258302Y0281100D01*
X0255900Y0278698D01*
X0255900Y0275302D01*
X0256702Y0279500D02*
X0253298Y0279500D01*
X0250000Y0281100D02*
X0250000Y0282900D01*
X0248302Y0282900D02*
X0251698Y0282900D01*
X0254100Y0285302D01*
X0254100Y0288698D01*
X0251698Y0291100D01*
X0248302Y0291100D01*
X0245900Y0288698D01*
X0245900Y0285302D01*
X0248302Y0282900D01*
X0246702Y0284500D02*
X0243298Y0284500D01*
X0240000Y0282900D02*
X0240000Y0281100D01*
X0243298Y0279500D02*
X0246702Y0279500D01*
X0245000Y0275818D02*
X0245000Y0294758D01*
X0250000Y0294965D02*
X0250000Y0291100D01*
X0253298Y0289500D02*
X0256702Y0289500D01*
X0255900Y0288698D02*
X0255900Y0285302D01*
X0258302Y0282900D01*
X0261698Y0282900D01*
X0264100Y0285302D01*
X0264100Y0288698D01*
X0261698Y0291100D01*
X0258302Y0291100D01*
X0255900Y0288698D01*
X0260000Y0291100D02*
X0260000Y0312900D01*
X0255000Y0312900D02*
X0255000Y0309542D01*
X0255042Y0309500D02*
X0274650Y0309500D01*
X0274650Y0304500D02*
X0256649Y0304500D01*
X0255560Y0299500D02*
X0274650Y0299500D01*
X0274650Y0294500D02*
X0213511Y0294500D01*
X0215000Y0295035D02*
X0215000Y0290200D01*
X0210000Y0290200D02*
X0210000Y0298616D01*
X0209366Y0298616D02*
X0209366Y0294431D01*
X0206422Y0294431D01*
X0205712Y0294544D01*
X0205028Y0294766D01*
X0204387Y0295093D01*
X0203805Y0295515D01*
X0203297Y0296024D01*
X0202874Y0296606D01*
X0202548Y0297246D01*
X0202325Y0297930D01*
X0202217Y0298616D01*
X0209366Y0298616D01*
X0209366Y0294500D02*
X0210134Y0294500D01*
X0205989Y0294500D02*
X0186074Y0294500D01*
X0185900Y0299500D02*
X0187521Y0299500D01*
X0189479Y0299500D02*
X0202235Y0299500D01*
X0205000Y0299384D02*
X0205000Y0298616D01*
X0205000Y0294780D02*
X0205000Y0290200D01*
X0200000Y0290200D02*
X0200000Y0302100D01*
X0200000Y0305900D02*
X0200000Y0312900D01*
X0202874Y0311394D02*
X0202548Y0310754D01*
X0202325Y0310070D01*
X0202217Y0309384D01*
X0209366Y0309384D01*
X0209366Y0308616D01*
X0202217Y0308616D01*
X0202325Y0307930D01*
X0202548Y0307246D01*
X0202874Y0306606D01*
X0203297Y0306024D01*
X0203421Y0305900D01*
X0190806Y0305900D01*
X0190076Y0305943D01*
X0190028Y0305900D01*
X0189963Y0305900D01*
X0189446Y0305383D01*
X0188660Y0304684D01*
X0187966Y0304684D01*
X0186979Y0304276D01*
X0186224Y0303520D01*
X0185900Y0302737D01*
X0185900Y0305287D01*
X0184787Y0306400D01*
X0179287Y0311900D01*
X0119214Y0311900D01*
X0119159Y0311948D01*
X0118437Y0311900D01*
X0117713Y0311900D01*
X0117661Y0311848D01*
X0117588Y0311843D01*
X0117112Y0311299D01*
X0116600Y0310787D01*
X0116600Y0310714D01*
X0113612Y0307299D01*
X0113100Y0306787D01*
X0113100Y0306714D01*
X0113052Y0306659D01*
X0113100Y0305937D01*
X0113100Y0302774D01*
X0112953Y0302976D01*
X0112445Y0303485D01*
X0111863Y0303907D01*
X0111222Y0304234D01*
X0110538Y0304456D01*
X0109828Y0304568D01*
X0106884Y0304568D01*
X0106884Y0300384D01*
X0106116Y0300384D01*
X0106116Y0299616D01*
X0098967Y0299616D01*
X0099075Y0298930D01*
X0099298Y0298246D01*
X0099624Y0297606D01*
X0100047Y0297024D01*
X0100555Y0296515D01*
X0101137Y0296093D01*
X0101515Y0295900D01*
X0076213Y0295900D01*
X0075100Y0294787D01*
X0070100Y0289787D01*
X0070100Y0279287D01*
X0069213Y0278400D01*
X0049713Y0278400D01*
X0047103Y0275790D01*
X0047103Y0277379D01*
X0047014Y0277469D01*
X0047103Y0277558D01*
X0047103Y0278594D01*
X0046371Y0279326D01*
X0045869Y0279326D01*
X0045869Y0280445D01*
X0045471Y0280843D01*
X0045754Y0281126D01*
X0046988Y0281126D01*
X0047720Y0281858D01*
X0047720Y0282894D01*
X0046988Y0283626D01*
X0045335Y0283626D01*
X0045236Y0283527D01*
X0045159Y0283604D01*
X0045425Y0283871D01*
X0045869Y0284314D01*
X0045869Y0287201D01*
X0045137Y0287933D01*
X0044101Y0287933D01*
X0043693Y0287525D01*
X0043656Y0287562D01*
X0043285Y0287933D01*
X0042249Y0287933D01*
X0041806Y0287490D01*
X0041600Y0287284D01*
X0041600Y0290363D01*
X0041632Y0290331D01*
X0042668Y0290331D01*
X0043285Y0290948D01*
X0043484Y0290948D01*
X0044101Y0290331D01*
X0045137Y0290331D01*
X0045754Y0290948D01*
X0046970Y0290948D01*
X0046900Y0290877D01*
X0046900Y0289842D01*
X0047632Y0289110D01*
X0049484Y0289110D01*
X0050718Y0287875D01*
X0052371Y0287875D01*
X0053103Y0288608D01*
X0053103Y0289643D01*
X0052387Y0290360D01*
X0053103Y0291076D01*
X0053103Y0292112D01*
X0052371Y0292844D01*
X0051805Y0292844D01*
X0051869Y0292908D01*
X0051869Y0295178D01*
X0051252Y0295795D01*
X0051162Y0295884D01*
X0051425Y0296148D01*
X0051869Y0296591D01*
X0051869Y0299478D01*
X0051137Y0300210D01*
X0050101Y0300210D01*
X0049693Y0299802D01*
X0049656Y0299839D01*
X0049285Y0300210D01*
X0048249Y0300210D01*
X0047806Y0299767D01*
X0047517Y0299478D01*
X0047343Y0299304D01*
X0046900Y0298861D01*
X0046900Y0295974D01*
X0047298Y0295576D01*
X0046900Y0295178D01*
X0046900Y0293448D01*
X0045335Y0293448D01*
X0045236Y0293348D01*
X0045159Y0293426D01*
X0045425Y0293692D01*
X0045869Y0294136D01*
X0045869Y0297023D01*
X0045137Y0297755D01*
X0044101Y0297755D01*
X0043693Y0297347D01*
X0043656Y0297383D01*
X0043285Y0297755D01*
X0042249Y0297755D01*
X0041806Y0297312D01*
X0041600Y0297105D01*
X0041600Y0300802D01*
X0041632Y0300770D01*
X0042249Y0300152D01*
X0044519Y0300152D01*
X0044976Y0300609D01*
X0045137Y0300770D01*
X0045412Y0301045D01*
X0045869Y0301502D01*
X0045869Y0304389D01*
X0045471Y0304787D01*
X0045869Y0305185D01*
X0045869Y0307455D01*
X0045805Y0307519D01*
X0046371Y0307519D01*
X0047103Y0308251D01*
X0047103Y0309904D01*
X0046371Y0310636D01*
X0045181Y0310636D01*
X0045425Y0310880D01*
X0045869Y0311324D01*
X0045869Y0312443D01*
X0046371Y0312443D01*
X0046828Y0312900D01*
X0064718Y0312900D01*
X0063676Y0312468D01*
X0061032Y0309824D01*
X0059601Y0306370D01*
X0059601Y0302630D01*
X0061032Y0299176D01*
X0063676Y0296532D01*
X0067130Y0295101D01*
X0070870Y0295101D01*
X0074324Y0296532D01*
X0076968Y0299176D01*
X0078399Y0302630D01*
X0078399Y0306370D01*
X0076968Y0309824D01*
X0074324Y0312468D01*
X0073282Y0312900D01*
X0099992Y0312900D01*
X0099624Y0312394D01*
X0099298Y0311754D01*
X0099075Y0311070D01*
X0098967Y0310384D01*
X0106116Y0310384D01*
X0106116Y0309616D01*
X0106884Y0309616D01*
X0106884Y0305431D01*
X0109828Y0305431D01*
X0110538Y0305544D01*
X0111222Y0305766D01*
X0111863Y0306093D01*
X0112445Y0306515D01*
X0112953Y0307024D01*
X0113376Y0307606D01*
X0113702Y0308246D01*
X0113925Y0308930D01*
X0114033Y0309616D01*
X0106884Y0309616D01*
X0106884Y0310384D01*
X0114033Y0310384D01*
X0113925Y0311070D01*
X0113702Y0311754D01*
X0113376Y0312394D01*
X0113008Y0312900D01*
X0204377Y0312900D01*
X0203805Y0312485D01*
X0203297Y0311976D01*
X0202874Y0311394D01*
X0202235Y0309500D02*
X0181687Y0309500D01*
X0180000Y0311187D02*
X0180000Y0312900D01*
X0175000Y0312900D02*
X0175000Y0311900D01*
X0170000Y0311900D02*
X0170000Y0312900D01*
X0165000Y0312900D02*
X0165000Y0311900D01*
X0160000Y0311900D02*
X0160000Y0312900D01*
X0155000Y0312900D02*
X0155000Y0311900D01*
X0150000Y0311900D02*
X0150000Y0312900D01*
X0145000Y0312900D02*
X0145000Y0311900D01*
X0140000Y0311900D02*
X0140000Y0312900D01*
X0135000Y0312900D02*
X0135000Y0311900D01*
X0130000Y0311900D02*
X0130000Y0312900D01*
X0125000Y0312900D02*
X0125000Y0311900D01*
X0120000Y0311900D02*
X0120000Y0312900D01*
X0115000Y0312900D02*
X0115000Y0308885D01*
X0115538Y0309500D02*
X0114015Y0309500D01*
X0110000Y0309616D02*
X0110000Y0310384D01*
X0106884Y0309500D02*
X0106116Y0309500D01*
X0106116Y0309616D02*
X0106116Y0305431D01*
X0103172Y0305431D01*
X0102462Y0305544D01*
X0101778Y0305766D01*
X0101137Y0306093D01*
X0100555Y0306515D01*
X0100047Y0307024D01*
X0099624Y0307606D01*
X0099298Y0308246D01*
X0099075Y0308930D01*
X0098967Y0309616D01*
X0106116Y0309616D01*
X0105000Y0309616D02*
X0105000Y0310384D01*
X0105000Y0305431D02*
X0105000Y0304568D01*
X0106116Y0304568D02*
X0103172Y0304568D01*
X0102462Y0304456D01*
X0101778Y0304234D01*
X0101137Y0303907D01*
X0100555Y0303485D01*
X0100047Y0302976D01*
X0099624Y0302394D01*
X0099298Y0301754D01*
X0099075Y0301070D01*
X0098967Y0300384D01*
X0106116Y0300384D01*
X0106116Y0304568D01*
X0106116Y0304500D02*
X0106884Y0304500D01*
X0110000Y0304541D02*
X0110000Y0305459D01*
X0110261Y0304500D02*
X0113100Y0304500D01*
X0120000Y0304313D02*
X0120000Y0245246D01*
X0122242Y0244500D02*
X0128987Y0244500D01*
X0130000Y0244850D02*
X0130000Y0271096D01*
X0131596Y0269500D02*
X0118785Y0269500D01*
X0118785Y0274500D02*
X0126596Y0274500D01*
X0125000Y0276096D02*
X0125000Y0238600D01*
X0127150Y0239500D02*
X0122242Y0239500D01*
X0121362Y0238124D02*
X0120900Y0237663D01*
X0120900Y0237663D01*
X0120609Y0237372D01*
X0110751Y0237372D01*
X0110772Y0237395D01*
X0111797Y0238100D01*
X0120663Y0238100D01*
X0120687Y0238124D01*
X0121362Y0238124D01*
X0120000Y0238100D02*
X0120000Y0237372D01*
X0115000Y0237372D02*
X0115000Y0238100D01*
X0108414Y0236911D02*
X0108231Y0236727D01*
X0108231Y0230895D01*
X0108875Y0230250D01*
X0119487Y0230250D01*
X0120240Y0229498D01*
X0108875Y0229498D01*
X0108231Y0228853D01*
X0108231Y0228637D01*
X0105900Y0228637D01*
X0105000Y0228264D01*
X0105000Y0228345D01*
X0105000Y0228264D01*
X0105000Y0228345D02*
X0106098Y0229735D01*
X0106500Y0230137D01*
X0106500Y0230245D01*
X0106566Y0230329D01*
X0106500Y0230894D01*
X0106500Y0236081D01*
X0107353Y0236840D01*
X0108414Y0236911D01*
X0108231Y0234500D02*
X0106500Y0234500D01*
X0110000Y0230250D02*
X0110000Y0229498D01*
X0105912Y0229500D02*
X0120237Y0229500D01*
X0120000Y0229498D02*
X0120000Y0229737D01*
X0115000Y0229498D02*
X0115000Y0230250D01*
X0122242Y0224500D02*
X0133096Y0224500D01*
X0135000Y0226404D02*
X0135000Y0238487D01*
X0135382Y0239500D02*
X0136300Y0239500D01*
X0135000Y0243013D02*
X0135000Y0266096D01*
X0136500Y0267000D02*
X0153500Y0267000D01*
X0155000Y0265000D01*
X0155000Y0251000D01*
X0151500Y0247500D01*
X0147000Y0247500D01*
X0143000Y0243500D01*
X0143000Y0220700D01*
X0131300Y0209000D01*
X0130200Y0211450D02*
X0130200Y0212796D01*
X0141300Y0223896D01*
X0141300Y0221404D01*
X0131580Y0211684D01*
X0130766Y0211684D01*
X0130200Y0211450D01*
X0128500Y0213500D02*
X0140500Y0225500D01*
X0140500Y0255000D01*
X0144000Y0258500D01*
X0152000Y0258500D01*
X0150000Y0260574D02*
X0150000Y0261426D01*
X0150368Y0261058D02*
X0149626Y0261800D01*
X0143704Y0261800D01*
X0139700Y0257796D01*
X0139700Y0256604D01*
X0139796Y0256700D01*
X0143296Y0260200D01*
X0149626Y0260200D01*
X0150368Y0260942D01*
X0150507Y0261000D01*
X0150368Y0261058D01*
X0152000Y0263500D02*
X0143000Y0263500D01*
X0138000Y0258500D01*
X0138000Y0227000D01*
X0125600Y0214600D01*
X0125600Y0196000D01*
X0121100Y0191500D01*
X0119000Y0191500D01*
X0116926Y0189500D02*
X0098200Y0189500D01*
X0098200Y0190796D02*
X0100704Y0193300D01*
X0116726Y0193300D01*
X0116558Y0193132D01*
X0116119Y0192073D01*
X0116119Y0190927D01*
X0116558Y0189868D01*
X0117368Y0189058D01*
X0118427Y0188619D01*
X0119573Y0188619D01*
X0120619Y0189052D01*
X0120619Y0187927D01*
X0121058Y0186868D01*
X0121868Y0186058D01*
X0122927Y0185619D01*
X0124073Y0185619D01*
X0125132Y0186058D01*
X0125374Y0186300D01*
X0128144Y0186300D01*
X0117285Y0175200D01*
X0110829Y0175200D01*
X0110442Y0176132D01*
X0109632Y0176942D01*
X0108573Y0177381D01*
X0107427Y0177381D01*
X0106675Y0177070D01*
X0106442Y0177632D01*
X0105632Y0178442D01*
X0104573Y0178881D01*
X0103427Y0178881D01*
X0102368Y0178442D01*
X0101558Y0177632D01*
X0101181Y0176723D01*
X0098200Y0179704D01*
X0098200Y0190796D01*
X0096500Y0191500D02*
X0096500Y0179000D01*
X0100500Y0175000D01*
X0100500Y0166000D01*
X0102474Y0163900D02*
X0144926Y0163900D01*
X0147074Y0163900D01*
X0149059Y0163078D01*
X0156237Y0155900D01*
X0167074Y0155900D01*
X0169059Y0155078D01*
X0170578Y0153559D01*
X0179778Y0144359D01*
X0190170Y0134400D01*
X0223263Y0134400D01*
X0223771Y0134908D01*
X0223073Y0134619D01*
X0221927Y0134619D01*
X0220868Y0135058D01*
X0220526Y0135400D01*
X0219474Y0135400D01*
X0219132Y0135058D01*
X0218073Y0134619D01*
X0216927Y0134619D01*
X0215868Y0135058D01*
X0215526Y0135400D01*
X0195787Y0135400D01*
X0193545Y0136329D01*
X0191829Y0138045D01*
X0180829Y0149045D01*
X0169493Y0160380D01*
X0168869Y0160848D01*
X0168643Y0161230D01*
X0168329Y0161545D01*
X0168030Y0162265D01*
X0167633Y0162936D01*
X0167570Y0163376D01*
X0167400Y0163787D01*
X0167400Y0164566D01*
X0167249Y0165624D01*
X0161329Y0171545D01*
X0160400Y0173787D01*
X0160400Y0204044D01*
X0160368Y0204058D01*
X0159558Y0204868D01*
X0159119Y0205927D01*
X0159119Y0207073D01*
X0159558Y0208132D01*
X0160368Y0208942D01*
X0161021Y0209213D01*
X0161218Y0209688D01*
X0161119Y0209927D01*
X0161119Y0211073D01*
X0161558Y0212132D01*
X0162368Y0212942D01*
X0163427Y0213381D01*
X0164573Y0213381D01*
X0165632Y0212942D01*
X0165974Y0212600D01*
X0167026Y0212600D01*
X0167368Y0212942D01*
X0168427Y0213381D01*
X0169573Y0213381D01*
X0170632Y0212942D01*
X0171442Y0212132D01*
X0171881Y0211073D01*
X0171881Y0209927D01*
X0171782Y0209688D01*
X0171979Y0209213D01*
X0172632Y0208942D01*
X0173442Y0208132D01*
X0173800Y0207269D01*
X0173800Y0224300D01*
X0160963Y0224300D01*
X0159971Y0224711D01*
X0159211Y0225471D01*
X0158800Y0226463D01*
X0158800Y0229726D01*
X0158700Y0229626D01*
X0158700Y0208796D01*
X0157704Y0207800D01*
X0143708Y0193804D01*
X0121200Y0170807D01*
X0121200Y0170796D01*
X0120709Y0170304D01*
X0120222Y0169808D01*
X0120212Y0169808D01*
X0120204Y0169800D01*
X0119509Y0169800D01*
X0118814Y0169793D01*
X0118807Y0169800D01*
X0104796Y0169800D01*
X0103296Y0171300D01*
X0102300Y0172296D01*
X0102300Y0173626D01*
X0102200Y0173726D01*
X0102200Y0168374D01*
X0102942Y0167632D01*
X0103381Y0166573D01*
X0103381Y0165427D01*
X0102942Y0164368D01*
X0102474Y0163900D01*
X0102997Y0164500D02*
X0167400Y0164500D01*
X0165000Y0167873D02*
X0165000Y0155900D01*
X0169637Y0154500D02*
X0175373Y0154500D01*
X0175000Y0154873D02*
X0175000Y0149137D01*
X0174637Y0149500D02*
X0180373Y0149500D01*
X0180000Y0149873D02*
X0180000Y0144146D01*
X0179637Y0144500D02*
X0185373Y0144500D01*
X0185000Y0144873D02*
X0185000Y0139354D01*
X0184848Y0139500D02*
X0190373Y0139500D01*
X0190000Y0139873D02*
X0190000Y0134563D01*
X0190065Y0134500D02*
X0223363Y0134500D01*
X0220000Y0134400D02*
X0220000Y0135400D01*
X0215000Y0135400D02*
X0215000Y0134400D01*
X0210000Y0134400D02*
X0210000Y0135400D01*
X0205000Y0135400D02*
X0205000Y0134400D01*
X0200000Y0134400D02*
X0200000Y0135400D01*
X0195000Y0135726D02*
X0195000Y0134400D01*
X0200000Y0147600D02*
X0200000Y0150715D01*
X0197627Y0149500D02*
X0228100Y0149500D01*
X0225000Y0150715D02*
X0225000Y0146993D01*
X0225360Y0144500D02*
X0228100Y0144500D01*
X0228100Y0139500D02*
X0227074Y0139500D01*
X0220000Y0147600D02*
X0220000Y0150715D01*
X0215000Y0150715D02*
X0215000Y0147600D01*
X0210000Y0147600D02*
X0210000Y0150715D01*
X0205000Y0150715D02*
X0205000Y0147600D01*
X0199215Y0154500D02*
X0192627Y0154500D01*
X0195000Y0152127D02*
X0195000Y0157682D01*
X0196704Y0159500D02*
X0199215Y0159500D01*
X0199215Y0164500D02*
X0182627Y0164500D01*
X0185000Y0162127D02*
X0185000Y0168400D01*
X0190000Y0168684D02*
X0190000Y0160318D01*
X0189182Y0159500D02*
X0187627Y0159500D01*
X0195000Y0163204D02*
X0195000Y0183682D01*
X0195818Y0184500D02*
X0199215Y0184500D01*
X0199215Y0189500D02*
X0197700Y0189500D01*
X0200000Y0192285D02*
X0200000Y0192682D01*
X0205000Y0192800D02*
X0205000Y0192285D01*
X0210000Y0192285D02*
X0210000Y0192800D01*
X0215000Y0192800D02*
X0215000Y0192285D01*
X0220000Y0192285D02*
X0220000Y0192800D01*
X0225000Y0192800D02*
X0225000Y0192285D01*
X0199215Y0179500D02*
X0191298Y0179500D01*
X0190000Y0178684D02*
X0190000Y0176316D01*
X0192109Y0174500D02*
X0199215Y0174500D01*
X0199215Y0169500D02*
X0191298Y0169500D01*
X0185000Y0176600D02*
X0185000Y0178400D01*
X0180000Y0179202D02*
X0180000Y0175798D01*
X0178891Y0174500D02*
X0175627Y0174500D01*
X0175000Y0175127D02*
X0175000Y0186003D01*
X0172600Y0184500D02*
X0178891Y0184500D01*
X0180000Y0185798D02*
X0180000Y0188630D01*
X0185000Y0187900D02*
X0185000Y0186600D01*
X0185100Y0189500D02*
X0185900Y0189500D01*
X0190000Y0188151D02*
X0190000Y0186318D01*
X0192005Y0189500D02*
X0192300Y0189500D01*
X0185900Y0194500D02*
X0185100Y0194500D01*
X0185000Y0197100D02*
X0185000Y0199150D01*
X0187263Y0199500D02*
X0194008Y0199500D01*
X0182737Y0199500D02*
X0179200Y0199500D01*
X0180000Y0196370D02*
X0180000Y0204737D01*
X0180237Y0204500D02*
X0179200Y0204500D01*
X0173800Y0204500D02*
X0173074Y0204500D01*
X0173800Y0209500D02*
X0171860Y0209500D01*
X0170000Y0213204D02*
X0170000Y0224300D01*
X0165000Y0224300D02*
X0165000Y0213204D01*
X0161140Y0209500D02*
X0158700Y0209500D01*
X0160000Y0208574D02*
X0160000Y0224699D01*
X0160480Y0224500D02*
X0158700Y0224500D01*
X0155300Y0224500D02*
X0155200Y0224500D01*
X0155200Y0229500D02*
X0155300Y0229500D01*
X0155300Y0229626D02*
X0155200Y0229726D01*
X0155200Y0210104D01*
X0155300Y0210204D01*
X0155300Y0229626D01*
X0157000Y0232000D02*
X0157000Y0209500D01*
X0142500Y0195000D01*
X0119500Y0171500D01*
X0105500Y0171500D01*
X0104000Y0173000D01*
X0104000Y0176000D01*
X0105000Y0178704D02*
X0105000Y0193300D01*
X0105000Y0196700D02*
X0105000Y0208489D01*
X0108231Y0208489D02*
X0108231Y0207273D01*
X0108875Y0206628D01*
X0121300Y0206628D01*
X0121300Y0206376D01*
X0115836Y0206376D01*
X0115836Y0202915D01*
X0114636Y0202915D01*
X0114636Y0201715D01*
X0107731Y0201715D01*
X0107731Y0199644D01*
X0107840Y0199237D01*
X0108050Y0198872D01*
X0108348Y0198574D01*
X0108713Y0198363D01*
X0109120Y0198254D01*
X0114636Y0198254D01*
X0114636Y0201715D01*
X0115836Y0201715D01*
X0115836Y0198254D01*
X0119850Y0198254D01*
X0118296Y0196700D01*
X0099296Y0196700D01*
X0095796Y0193200D01*
X0094800Y0192204D01*
X0094800Y0178604D01*
X0081200Y0192204D01*
X0081200Y0197796D01*
X0091893Y0208489D01*
X0108231Y0208489D01*
X0108713Y0206267D02*
X0108348Y0206056D01*
X0108050Y0205758D01*
X0107840Y0205393D01*
X0107731Y0204986D01*
X0107731Y0202915D01*
X0114636Y0202915D01*
X0114636Y0206376D01*
X0109120Y0206376D01*
X0108713Y0206267D01*
X0110000Y0206376D02*
X0110000Y0206628D01*
X0107731Y0204500D02*
X0087904Y0204500D01*
X0090000Y0206596D02*
X0090000Y0183404D01*
X0088904Y0184500D02*
X0094800Y0184500D01*
X0098200Y0184500D02*
X0126383Y0184500D01*
X0125000Y0183087D02*
X0125000Y0186003D01*
X0124000Y0188000D02*
X0123500Y0188500D01*
X0124000Y0188000D02*
X0129000Y0188000D01*
X0132000Y0191000D01*
X0132000Y0196900D01*
X0148000Y0212900D01*
X0148000Y0240000D01*
X0149500Y0241500D01*
X0152500Y0241500D01*
X0154774Y0239700D02*
X0154942Y0239868D01*
X0155300Y0240731D01*
X0155300Y0239704D01*
X0155296Y0239700D01*
X0154774Y0239700D01*
X0155000Y0239700D02*
X0155000Y0240007D01*
X0157000Y0239000D02*
X0156000Y0238000D01*
X0150500Y0238000D01*
X0150500Y0211000D01*
X0136500Y0197000D01*
X0133710Y0196206D02*
X0134058Y0195368D01*
X0134868Y0194558D01*
X0135831Y0194159D01*
X0133700Y0191980D01*
X0133700Y0196196D01*
X0133710Y0196206D01*
X0133700Y0194500D02*
X0135007Y0194500D01*
X0135000Y0194503D02*
X0135000Y0193309D01*
X0130200Y0192896D02*
X0130200Y0206550D01*
X0130766Y0206316D01*
X0131432Y0206316D01*
X0131316Y0206034D01*
X0131316Y0204966D01*
X0131724Y0203979D01*
X0132479Y0203224D01*
X0133466Y0202816D01*
X0134534Y0202816D01*
X0135520Y0203224D01*
X0136276Y0203979D01*
X0136684Y0204966D01*
X0136684Y0205780D01*
X0146204Y0215300D01*
X0146300Y0215396D01*
X0146300Y0213604D01*
X0130300Y0197604D01*
X0130300Y0191704D01*
X0129310Y0190714D01*
X0129481Y0191127D01*
X0129481Y0192177D01*
X0130200Y0192896D01*
X0130000Y0192696D02*
X0130000Y0191404D01*
X0128500Y0193600D02*
X0126600Y0191700D01*
X0128500Y0193600D02*
X0128500Y0213500D01*
X0131904Y0214500D02*
X0134396Y0214500D01*
X0135000Y0215104D02*
X0135000Y0217596D01*
X0136904Y0219500D02*
X0139396Y0219500D01*
X0140000Y0220104D02*
X0140000Y0222596D01*
X0143800Y0219096D02*
X0143800Y0217704D01*
X0134280Y0208184D01*
X0133867Y0208184D01*
X0133984Y0208466D01*
X0133984Y0209280D01*
X0143800Y0219096D01*
X0145500Y0217000D02*
X0145500Y0242500D01*
X0148000Y0245000D01*
X0152500Y0245000D01*
X0157500Y0250000D01*
X0157500Y0291500D01*
X0159500Y0293500D01*
X0168000Y0293500D01*
X0176500Y0302000D01*
X0177479Y0304500D02*
X0177813Y0304500D01*
X0175521Y0304500D02*
X0120187Y0304500D01*
X0125000Y0305600D02*
X0125000Y0298404D01*
X0126096Y0299500D02*
X0119400Y0299500D01*
X0121096Y0294500D02*
X0116366Y0294500D01*
X0115000Y0293037D02*
X0115000Y0286285D01*
X0118785Y0284500D02*
X0120300Y0284500D01*
X0123700Y0284500D02*
X0126800Y0284500D01*
X0125000Y0280904D02*
X0125000Y0293596D01*
X0125904Y0294500D02*
X0132682Y0294500D01*
X0135000Y0296818D02*
X0135000Y0305600D01*
X0140000Y0305600D02*
X0140000Y0301997D01*
X0137682Y0299500D02*
X0131296Y0299500D01*
X0130000Y0298596D02*
X0130000Y0291818D01*
X0127682Y0289500D02*
X0123700Y0289500D01*
X0120300Y0289500D02*
X0111699Y0289500D01*
X0110000Y0289082D02*
X0110000Y0286285D01*
X0105000Y0286285D02*
X0105000Y0289100D01*
X0100000Y0289100D02*
X0100000Y0286285D01*
X0095000Y0286285D02*
X0095000Y0289100D01*
X0090000Y0289100D02*
X0090000Y0286285D01*
X0085000Y0286285D02*
X0085000Y0289100D01*
X0080000Y0289100D02*
X0080000Y0286285D01*
X0077215Y0284500D02*
X0076900Y0284500D01*
X0076900Y0279500D02*
X0077215Y0279500D01*
X0070100Y0279500D02*
X0045869Y0279500D01*
X0050000Y0278400D02*
X0050000Y0288593D01*
X0047242Y0289500D02*
X0041600Y0289500D01*
X0045000Y0290331D02*
X0045000Y0287933D01*
X0053103Y0289500D02*
X0070100Y0289500D01*
X0070100Y0284500D02*
X0045869Y0284500D01*
X0055000Y0278400D02*
X0055000Y0312900D01*
X0060000Y0312900D02*
X0060000Y0307333D01*
X0060897Y0309500D02*
X0047103Y0309500D01*
X0050000Y0312900D02*
X0050000Y0300109D01*
X0051847Y0299500D02*
X0060897Y0299500D01*
X0060000Y0301667D02*
X0060000Y0278400D01*
X0065000Y0278400D02*
X0065000Y0295983D01*
X0070000Y0295101D02*
X0070000Y0279187D01*
X0075000Y0274313D02*
X0075000Y0249137D01*
X0075363Y0249500D02*
X0049298Y0249500D01*
X0050000Y0252640D02*
X0050000Y0191360D01*
X0049043Y0189500D02*
X0048984Y0189500D01*
X0042600Y0189500D02*
X0041600Y0189500D01*
X0041600Y0184500D02*
X0042600Y0184500D01*
X0042600Y0179500D02*
X0041600Y0179500D01*
X0041600Y0174500D02*
X0042600Y0174500D01*
X0042600Y0174287D02*
X0042600Y0269713D01*
X0042600Y0271287D01*
X0044896Y0273583D01*
X0044603Y0273875D01*
X0044603Y0274377D01*
X0041632Y0274377D01*
X0041600Y0274409D01*
X0041600Y0173287D01*
X0042600Y0174287D01*
X0045287Y0171600D02*
X0044900Y0171213D01*
X0044900Y0167405D01*
X0045003Y0167509D01*
X0045589Y0167934D01*
X0046234Y0168263D01*
X0046923Y0168487D01*
X0047600Y0168594D01*
X0047600Y0164400D01*
X0048400Y0164400D01*
X0048400Y0168594D01*
X0049077Y0168487D01*
X0049446Y0168367D01*
X0046209Y0171604D01*
X0046203Y0171604D01*
X0045749Y0172063D01*
X0045287Y0171600D01*
X0045000Y0171313D02*
X0045000Y0167505D01*
X0044900Y0169500D02*
X0048313Y0169500D01*
X0053687Y0169500D02*
X0060096Y0169500D01*
X0060000Y0169596D02*
X0060000Y0168505D01*
X0062600Y0164500D02*
X0063900Y0164500D01*
X0070000Y0160202D02*
X0070000Y0157798D01*
X0065000Y0151202D02*
X0065000Y0151200D01*
X0065000Y0147800D02*
X0065000Y0142700D01*
X0070000Y0142700D02*
X0070000Y0147800D01*
X0051100Y0156698D02*
X0049698Y0158100D01*
X0046302Y0158100D01*
X0044900Y0156698D01*
X0044900Y0160595D01*
X0045003Y0160491D01*
X0045589Y0160066D01*
X0046234Y0159737D01*
X0046923Y0159513D01*
X0047600Y0159406D01*
X0047600Y0163600D01*
X0048400Y0163600D01*
X0048400Y0159406D01*
X0049077Y0159513D01*
X0049766Y0159737D01*
X0050411Y0160066D01*
X0050997Y0160491D01*
X0051100Y0160595D01*
X0051100Y0156698D01*
X0050000Y0157798D02*
X0050000Y0159856D01*
X0048993Y0159500D02*
X0051100Y0159500D01*
X0048400Y0159500D02*
X0047600Y0159500D01*
X0047007Y0159500D02*
X0044900Y0159500D01*
X0045000Y0160495D02*
X0045000Y0156798D01*
X0047600Y0164500D02*
X0048400Y0164500D01*
X0047100Y0144500D02*
X0044900Y0144500D01*
X0041619Y0139500D02*
X0041600Y0139500D01*
X0082087Y0130400D02*
X0082213Y0130400D01*
X0086932Y0135119D01*
X0086806Y0135119D01*
X0082400Y0130713D01*
X0082087Y0130400D01*
X0085000Y0133187D02*
X0085000Y0133313D01*
X0086187Y0134500D02*
X0086313Y0134500D01*
X0089881Y0138068D02*
X0089881Y0138573D01*
X0089849Y0138651D01*
X0089927Y0138619D01*
X0090432Y0138619D01*
X0089881Y0138068D01*
X0090000Y0138187D02*
X0090000Y0138619D01*
X0090000Y0153200D02*
X0090000Y0153276D01*
X0093737Y0163900D02*
X0090137Y0167500D01*
X0090578Y0167941D01*
X0090842Y0168579D01*
X0091728Y0167694D01*
X0093161Y0167100D01*
X0094026Y0167100D01*
X0093958Y0167032D01*
X0093519Y0165973D01*
X0093519Y0164827D01*
X0093903Y0163900D01*
X0093737Y0163900D01*
X0093654Y0164500D02*
X0093137Y0164500D01*
X0096400Y0165400D02*
X0096400Y0166400D01*
X0098200Y0168200D01*
X0098200Y0172800D01*
X0079500Y0191500D01*
X0079500Y0198500D01*
X0091189Y0210189D01*
X0115236Y0210189D01*
X0115000Y0206628D02*
X0115000Y0202915D01*
X0115000Y0201715D02*
X0115000Y0196700D01*
X0114636Y0199500D02*
X0115836Y0199500D01*
X0119000Y0195000D02*
X0123000Y0199000D01*
X0123000Y0216000D01*
X0120937Y0218063D01*
X0115236Y0218063D01*
X0115000Y0221624D02*
X0115000Y0222376D01*
X0110000Y0222376D02*
X0110000Y0221624D01*
X0108231Y0219500D02*
X0103818Y0219500D01*
X0105000Y0220682D02*
X0105000Y0211889D01*
X0100000Y0211889D02*
X0100000Y0217800D01*
X0095000Y0217800D02*
X0095000Y0211889D01*
X0095000Y0208489D02*
X0095000Y0192404D01*
X0096500Y0191500D02*
X0100000Y0195000D01*
X0119000Y0195000D01*
X0120430Y0194026D02*
X0123900Y0197496D01*
X0123900Y0196704D01*
X0120885Y0193689D01*
X0120632Y0193942D01*
X0120430Y0194026D01*
X0120904Y0194500D02*
X0121696Y0194500D01*
X0115000Y0193300D02*
X0115000Y0175200D01*
X0118000Y0173500D02*
X0109500Y0173500D01*
X0108000Y0174500D01*
X0110000Y0176574D02*
X0110000Y0193300D01*
X0110000Y0196700D02*
X0110000Y0198254D01*
X0107769Y0199500D02*
X0082904Y0199500D01*
X0085000Y0201596D02*
X0085000Y0188404D01*
X0083904Y0189500D02*
X0094800Y0189500D01*
X0100000Y0192596D02*
X0100000Y0177904D01*
X0098404Y0179500D02*
X0121491Y0179500D01*
X0120000Y0177975D02*
X0120000Y0188796D01*
X0130200Y0194500D02*
X0130300Y0194500D01*
X0130200Y0199500D02*
X0132196Y0199500D01*
X0135000Y0202304D02*
X0135000Y0203009D01*
X0136491Y0204500D02*
X0137196Y0204500D01*
X0134000Y0205500D02*
X0145500Y0217000D01*
X0145404Y0214500D02*
X0146300Y0214500D01*
X0145000Y0214096D02*
X0145000Y0212304D01*
X0142196Y0209500D02*
X0140404Y0209500D01*
X0140000Y0209096D02*
X0140000Y0207304D01*
X0135596Y0209500D02*
X0134204Y0209500D01*
X0135000Y0208904D02*
X0135000Y0210296D01*
X0139204Y0214500D02*
X0140596Y0214500D01*
X0140000Y0213904D02*
X0140000Y0215296D01*
X0130000Y0221404D02*
X0130000Y0226527D01*
X0133350Y0229500D02*
X0136300Y0229500D01*
X0136300Y0234500D02*
X0133350Y0234500D01*
X0125000Y0226650D02*
X0125000Y0216404D01*
X0122242Y0219500D02*
X0128096Y0219500D01*
X0120000Y0221624D02*
X0120000Y0222376D01*
X0120000Y0214502D02*
X0120000Y0213750D01*
X0121300Y0214500D02*
X0090318Y0214500D01*
X0090000Y0214182D02*
X0090000Y0211404D01*
X0088096Y0209500D02*
X0075400Y0209500D01*
X0075400Y0204500D02*
X0083096Y0204500D01*
X0085000Y0206404D02*
X0085000Y0209619D01*
X0082426Y0214500D02*
X0075400Y0214500D01*
X0075400Y0219500D02*
X0087682Y0219500D01*
X0090000Y0221664D02*
X0090000Y0244715D01*
X0093637Y0244500D02*
X0085637Y0244500D01*
X0085000Y0243863D02*
X0085000Y0216818D01*
X0095000Y0223200D02*
X0095000Y0227300D01*
X0093400Y0229500D02*
X0075400Y0229500D01*
X0075400Y0224500D02*
X0101182Y0224500D01*
X0100000Y0223318D02*
X0100000Y0227300D01*
X0093400Y0234500D02*
X0075637Y0234500D01*
X0080000Y0238863D02*
X0080000Y0201404D01*
X0078096Y0199500D02*
X0075400Y0199500D01*
X0075400Y0194500D02*
X0077800Y0194500D01*
X0081200Y0194500D02*
X0097096Y0194500D01*
X0100000Y0196700D02*
X0100000Y0208489D01*
X0110000Y0213750D02*
X0110000Y0214502D01*
X0115000Y0214502D02*
X0115000Y0213750D01*
X0120000Y0206628D02*
X0120000Y0206376D01*
X0115836Y0204500D02*
X0114636Y0204500D01*
X0110000Y0202915D02*
X0110000Y0201715D01*
X0130200Y0204500D02*
X0131509Y0204500D01*
X0140500Y0196500D02*
X0153500Y0209500D01*
X0153500Y0235000D01*
X0156381Y0234862D02*
X0156381Y0235573D01*
X0156080Y0236300D01*
X0156704Y0236300D01*
X0157700Y0237296D01*
X0158700Y0238296D01*
X0158700Y0239704D01*
X0158700Y0242126D01*
X0158800Y0242226D01*
X0158800Y0234274D01*
X0158632Y0234442D01*
X0157573Y0234881D01*
X0156427Y0234881D01*
X0156381Y0234862D01*
X0158493Y0234500D02*
X0158800Y0234500D01*
X0157000Y0239000D02*
X0157000Y0244500D01*
X0158700Y0239500D02*
X0158800Y0239500D01*
X0164200Y0243080D02*
X0164200Y0244420D01*
X0164927Y0244119D01*
X0166073Y0244119D01*
X0167132Y0244558D01*
X0167300Y0244726D01*
X0167300Y0244204D01*
X0166359Y0243263D01*
X0166073Y0243381D01*
X0164927Y0243381D01*
X0164200Y0243080D01*
X0165000Y0243381D02*
X0165000Y0244119D01*
X0166993Y0244500D02*
X0167300Y0244500D01*
X0169000Y0243500D02*
X0166000Y0240500D01*
X0165500Y0240500D01*
X0168204Y0239500D02*
X0193508Y0239500D01*
X0195000Y0241085D02*
X0195000Y0242285D01*
X0193547Y0244500D02*
X0170700Y0244500D01*
X0169000Y0243500D02*
X0169000Y0247000D01*
X0181000Y0259000D01*
X0221500Y0259000D01*
X0224500Y0256000D01*
X0224706Y0253119D02*
X0225073Y0253119D01*
X0226132Y0253558D01*
X0226300Y0253726D01*
X0226300Y0251269D01*
X0225942Y0252132D01*
X0225132Y0252942D01*
X0224706Y0253119D01*
X0225000Y0253119D02*
X0225000Y0252997D01*
X0222003Y0254500D02*
X0178904Y0254500D01*
X0180000Y0255596D02*
X0180000Y0237700D01*
X0180000Y0234300D02*
X0180000Y0233668D01*
X0180000Y0230268D02*
X0180000Y0229700D01*
X0175000Y0229700D02*
X0175000Y0230281D01*
X0175000Y0233681D02*
X0175000Y0234300D01*
X0175000Y0237700D02*
X0175000Y0250596D01*
X0173904Y0249500D02*
X0217926Y0249500D01*
X0220000Y0250381D02*
X0220000Y0257300D01*
X0220000Y0260700D02*
X0220000Y0264237D01*
X0220263Y0264500D02*
X0226300Y0264500D01*
X0224442Y0266868D02*
X0224881Y0267927D01*
X0224881Y0269073D01*
X0224442Y0270132D01*
X0223632Y0270942D01*
X0222573Y0271381D01*
X0221427Y0271381D01*
X0220368Y0270942D01*
X0219558Y0270132D01*
X0219119Y0269073D01*
X0219119Y0267927D01*
X0219132Y0267895D01*
X0213837Y0262600D01*
X0181004Y0262600D01*
X0184200Y0265796D01*
X0184200Y0269296D01*
X0185704Y0270800D01*
X0185939Y0270800D01*
X0185780Y0270684D01*
X0185316Y0270220D01*
X0184929Y0269688D01*
X0184631Y0269103D01*
X0184428Y0268478D01*
X0184325Y0267829D01*
X0184325Y0267687D01*
X0188313Y0267687D01*
X0188313Y0267313D01*
X0188687Y0267313D01*
X0188687Y0263325D01*
X0188829Y0263325D01*
X0189478Y0263428D01*
X0190103Y0263631D01*
X0190688Y0263929D01*
X0191220Y0264316D01*
X0191684Y0264780D01*
X0192071Y0265312D01*
X0192369Y0265897D01*
X0192572Y0266522D01*
X0192675Y0267171D01*
X0192675Y0267313D01*
X0188687Y0267313D01*
X0188687Y0267687D01*
X0192675Y0267687D01*
X0192675Y0267829D01*
X0192572Y0268478D01*
X0192369Y0269103D01*
X0192071Y0269688D01*
X0191684Y0270220D01*
X0191220Y0270684D01*
X0191060Y0270800D01*
X0196864Y0270800D01*
X0196418Y0270615D01*
X0195385Y0269582D01*
X0194825Y0268231D01*
X0194825Y0266769D01*
X0195385Y0265418D01*
X0196418Y0264385D01*
X0197769Y0263825D01*
X0199231Y0263825D01*
X0200582Y0264385D01*
X0201615Y0265418D01*
X0202175Y0266769D01*
X0202175Y0268231D01*
X0201615Y0269582D01*
X0200582Y0270615D01*
X0200136Y0270800D01*
X0204204Y0270800D01*
X0205200Y0271796D01*
X0207387Y0273983D01*
X0207769Y0273825D01*
X0209231Y0273825D01*
X0210582Y0274385D01*
X0211615Y0275418D01*
X0212175Y0276769D01*
X0212175Y0278231D01*
X0211615Y0279582D01*
X0210897Y0280300D01*
X0226300Y0280300D01*
X0226300Y0271510D01*
X0226119Y0271073D01*
X0226119Y0269927D01*
X0226300Y0269490D01*
X0226300Y0258274D01*
X0226132Y0258442D01*
X0225073Y0258881D01*
X0224023Y0258881D01*
X0223200Y0259704D01*
X0222204Y0260700D01*
X0216463Y0260700D01*
X0221395Y0265632D01*
X0221427Y0265619D01*
X0222573Y0265619D01*
X0223632Y0266058D01*
X0224442Y0266868D01*
X0224704Y0269500D02*
X0226296Y0269500D01*
X0226300Y0274500D02*
X0210697Y0274500D01*
X0210000Y0274144D02*
X0210000Y0270856D01*
X0210582Y0270615D02*
X0209231Y0271175D01*
X0207769Y0271175D01*
X0206418Y0270615D01*
X0205385Y0269582D01*
X0204825Y0268231D01*
X0204825Y0266769D01*
X0205385Y0265418D01*
X0206418Y0264385D01*
X0207769Y0263825D01*
X0209231Y0263825D01*
X0210582Y0264385D01*
X0211615Y0265418D01*
X0212175Y0266769D01*
X0212175Y0268231D01*
X0211615Y0269582D01*
X0210582Y0270615D01*
X0211649Y0269500D02*
X0219296Y0269500D01*
X0220000Y0270574D02*
X0220000Y0280300D01*
X0215000Y0280300D02*
X0215000Y0263763D01*
X0215737Y0264500D02*
X0210697Y0264500D01*
X0210000Y0264144D02*
X0210000Y0262600D01*
X0206303Y0264500D02*
X0200697Y0264500D01*
X0200000Y0264144D02*
X0200000Y0262600D01*
X0196303Y0264500D02*
X0191404Y0264500D01*
X0190000Y0263598D02*
X0190000Y0262600D01*
X0188313Y0263325D02*
X0188313Y0267313D01*
X0184325Y0267313D01*
X0184325Y0267171D01*
X0184428Y0266522D01*
X0184631Y0265897D01*
X0184929Y0265312D01*
X0185316Y0264780D01*
X0185780Y0264316D01*
X0186312Y0263929D01*
X0186897Y0263631D01*
X0187522Y0263428D01*
X0188171Y0263325D01*
X0188313Y0263325D01*
X0188313Y0264500D02*
X0188687Y0264500D01*
X0185596Y0264500D02*
X0182904Y0264500D01*
X0182500Y0266500D02*
X0175500Y0259500D01*
X0168000Y0259500D01*
X0165119Y0259500D02*
X0164200Y0259500D01*
X0165119Y0260073D02*
X0165119Y0258927D01*
X0165558Y0257868D01*
X0166368Y0257058D01*
X0167427Y0256619D01*
X0168573Y0256619D01*
X0169632Y0257058D01*
X0170374Y0257800D01*
X0174396Y0257800D01*
X0166359Y0249763D01*
X0166073Y0249881D01*
X0164927Y0249881D01*
X0164200Y0249580D01*
X0164200Y0286490D01*
X0164349Y0286850D01*
X0167032Y0286850D01*
X0166471Y0286289D01*
X0165711Y0285529D01*
X0165300Y0284537D01*
X0165300Y0269510D01*
X0165119Y0269073D01*
X0165119Y0267927D01*
X0165558Y0266868D01*
X0166368Y0266058D01*
X0167427Y0265619D01*
X0168573Y0265619D01*
X0169632Y0266058D01*
X0170442Y0266868D01*
X0170881Y0267927D01*
X0170881Y0269073D01*
X0170700Y0269510D01*
X0170700Y0282882D01*
X0172618Y0284800D01*
X0180472Y0284800D01*
X0176471Y0280799D01*
X0175711Y0280039D01*
X0175300Y0279047D01*
X0175300Y0269510D01*
X0175119Y0269073D01*
X0175119Y0267927D01*
X0175558Y0266868D01*
X0176368Y0266058D01*
X0177427Y0265619D01*
X0178573Y0265619D01*
X0179632Y0266058D01*
X0180442Y0266868D01*
X0180800Y0267731D01*
X0180800Y0267204D01*
X0174796Y0261200D01*
X0170374Y0261200D01*
X0169632Y0261942D01*
X0168573Y0262381D01*
X0167427Y0262381D01*
X0166368Y0261942D01*
X0165558Y0261132D01*
X0165119Y0260073D01*
X0164200Y0264500D02*
X0178096Y0264500D01*
X0180000Y0266404D02*
X0180000Y0266426D01*
X0182500Y0266500D02*
X0182500Y0270000D01*
X0185000Y0272500D01*
X0203500Y0272500D01*
X0208500Y0277500D01*
X0205000Y0278653D02*
X0205000Y0280300D01*
X0205385Y0279582D02*
X0204825Y0278231D01*
X0204825Y0276769D01*
X0204983Y0276387D01*
X0202796Y0274200D01*
X0200136Y0274200D01*
X0200582Y0274385D01*
X0201615Y0275418D01*
X0202175Y0276769D01*
X0202175Y0278231D01*
X0201615Y0279582D01*
X0200897Y0280300D01*
X0206103Y0280300D01*
X0205385Y0279582D01*
X0205351Y0279500D02*
X0201649Y0279500D01*
X0196103Y0280300D02*
X0195385Y0279582D01*
X0194825Y0278231D01*
X0194825Y0276769D01*
X0195385Y0275418D01*
X0196418Y0274385D01*
X0196864Y0274200D01*
X0190136Y0274200D01*
X0190582Y0274385D01*
X0191615Y0275418D01*
X0192175Y0276769D01*
X0192175Y0278231D01*
X0191615Y0279582D01*
X0190897Y0280300D01*
X0196103Y0280300D01*
X0195351Y0279500D02*
X0191649Y0279500D01*
X0195000Y0280300D02*
X0195000Y0278653D01*
X0195000Y0276347D02*
X0195000Y0274200D01*
X0196303Y0274500D02*
X0190697Y0274500D01*
X0186864Y0274200D02*
X0184296Y0274200D01*
X0181796Y0271700D01*
X0180800Y0270704D01*
X0180800Y0269269D01*
X0180700Y0269510D01*
X0180700Y0277391D01*
X0183609Y0280300D01*
X0186103Y0280300D01*
X0185385Y0279582D01*
X0184825Y0278231D01*
X0184825Y0276769D01*
X0185385Y0275418D01*
X0186418Y0274385D01*
X0186864Y0274200D01*
X0186303Y0274500D02*
X0180700Y0274500D01*
X0185000Y0274200D02*
X0185000Y0276347D01*
X0185000Y0278653D02*
X0185000Y0280300D01*
X0185351Y0279500D02*
X0182809Y0279500D01*
X0180000Y0284328D02*
X0180000Y0284800D01*
X0180172Y0284500D02*
X0172318Y0284500D01*
X0175000Y0284800D02*
X0175000Y0261404D01*
X0170000Y0261574D02*
X0170000Y0266426D01*
X0170704Y0269500D02*
X0175296Y0269500D01*
X0175300Y0274500D02*
X0170700Y0274500D01*
X0165300Y0274500D02*
X0164200Y0274500D01*
X0164200Y0269500D02*
X0165296Y0269500D01*
X0155800Y0269500D02*
X0136404Y0269500D01*
X0135000Y0270904D02*
X0135000Y0289182D01*
X0135318Y0289500D02*
X0155800Y0289500D01*
X0159200Y0289500D02*
X0159426Y0289500D01*
X0159200Y0289274D02*
X0159200Y0290796D01*
X0160204Y0291800D01*
X0168113Y0291800D01*
X0166963Y0290650D01*
X0161963Y0290650D01*
X0161694Y0290381D01*
X0160927Y0290381D01*
X0159868Y0289942D01*
X0159200Y0289274D01*
X0160000Y0289997D02*
X0160000Y0291596D01*
X0158096Y0294500D02*
X0140318Y0294500D01*
X0140000Y0294182D02*
X0140000Y0268700D01*
X0140000Y0265300D02*
X0140000Y0262904D01*
X0141596Y0264500D02*
X0118785Y0264500D01*
X0118785Y0259500D02*
X0136596Y0259500D01*
X0140000Y0258096D02*
X0140000Y0256904D01*
X0141404Y0259500D02*
X0142596Y0259500D01*
X0145000Y0260200D02*
X0145000Y0261800D01*
X0145000Y0265200D02*
X0145000Y0265300D01*
X0145000Y0268700D02*
X0145000Y0305600D01*
X0150000Y0305600D02*
X0150000Y0268700D01*
X0155000Y0267904D02*
X0155000Y0305600D01*
X0160000Y0305600D02*
X0160000Y0295200D01*
X0165000Y0295200D02*
X0165000Y0305600D01*
X0170000Y0305600D02*
X0170000Y0297904D01*
X0171596Y0299500D02*
X0144381Y0299500D01*
X0129500Y0300500D02*
X0129500Y0301500D01*
X0129500Y0300500D02*
X0122000Y0293000D01*
X0122000Y0281500D01*
X0136500Y0267000D01*
X0131404Y0274500D02*
X0155800Y0274500D01*
X0155800Y0279500D02*
X0132381Y0279500D01*
X0130000Y0276619D02*
X0130000Y0275904D01*
X0126619Y0279500D02*
X0126404Y0279500D01*
X0121596Y0279500D02*
X0118785Y0279500D01*
X0121296Y0279800D02*
X0121296Y0279800D01*
X0132200Y0284500D02*
X0155800Y0284500D01*
X0164200Y0284500D02*
X0165300Y0284500D01*
X0165000Y0286850D02*
X0165000Y0249881D01*
X0165500Y0247000D02*
X0166000Y0247000D01*
X0180000Y0261000D01*
X0185000Y0262600D02*
X0185000Y0265215D01*
X0185000Y0267313D02*
X0185000Y0267687D01*
X0184834Y0269500D02*
X0184404Y0269500D01*
X0185000Y0269785D02*
X0185000Y0270096D01*
X0180800Y0269500D02*
X0180704Y0269500D01*
X0190000Y0267687D02*
X0190000Y0267313D01*
X0192166Y0269500D02*
X0195351Y0269500D01*
X0195000Y0268653D02*
X0195000Y0270800D01*
X0195000Y0266347D02*
X0195000Y0262600D01*
X0205000Y0262600D02*
X0205000Y0266347D01*
X0205000Y0268653D02*
X0205000Y0271596D01*
X0205200Y0271796D02*
X0205200Y0271796D01*
X0205351Y0269500D02*
X0201649Y0269500D01*
X0200697Y0274500D02*
X0203096Y0274500D01*
X0211649Y0279500D02*
X0226300Y0279500D01*
X0225000Y0280300D02*
X0225000Y0258881D01*
X0226300Y0259500D02*
X0223404Y0259500D01*
X0215000Y0257300D02*
X0215000Y0245381D01*
X0213426Y0244500D02*
X0208481Y0244500D01*
X0208519Y0241085D02*
X0201614Y0241085D01*
X0201614Y0237624D01*
X0207130Y0237624D01*
X0207537Y0237733D01*
X0207902Y0237944D01*
X0208200Y0238242D01*
X0208410Y0238607D01*
X0208519Y0239014D01*
X0208519Y0241085D01*
X0208519Y0239500D02*
X0212800Y0239500D01*
X0218200Y0239500D02*
X0218400Y0239500D01*
X0221600Y0239500D02*
X0221900Y0239500D01*
X0225100Y0239500D02*
X0226300Y0239500D01*
X0226300Y0244500D02*
X0225100Y0244500D01*
X0221900Y0244500D02*
X0221600Y0244500D01*
X0218400Y0244500D02*
X0217574Y0244500D01*
X0226204Y0249500D02*
X0226300Y0249500D01*
X0236200Y0249500D02*
X0246300Y0249500D01*
X0246300Y0254500D02*
X0236200Y0254500D01*
X0236375Y0244500D02*
X0246300Y0244500D01*
X0251700Y0244500D02*
X0261124Y0244500D01*
X0262159Y0239500D02*
X0251700Y0239500D01*
X0240000Y0233661D02*
X0240000Y0213818D01*
X0239318Y0214500D02*
X0248197Y0214500D01*
X0248238Y0219500D02*
X0236200Y0219500D01*
X0230800Y0221774D02*
X0230632Y0221942D01*
X0230600Y0221956D01*
X0230600Y0224582D01*
X0230800Y0224382D01*
X0230800Y0221774D01*
X0230682Y0224500D02*
X0230600Y0224500D01*
X0235000Y0227818D02*
X0235000Y0238375D01*
X0233807Y0239500D02*
X0231700Y0239500D01*
X0231700Y0234500D02*
X0239110Y0234500D01*
X0236200Y0224500D02*
X0248279Y0224500D01*
X0259552Y0229500D02*
X0269900Y0229500D01*
X0260000Y0229064D02*
X0260000Y0249534D01*
X0252537Y0254500D02*
X0251700Y0254500D01*
X0255000Y0271700D02*
X0255000Y0298458D01*
X0240000Y0297957D02*
X0240000Y0291100D01*
X0243298Y0289500D02*
X0246702Y0289500D01*
X0253298Y0284500D02*
X0256702Y0284500D01*
X0260000Y0282900D02*
X0260000Y0281100D01*
X0263298Y0279500D02*
X0266702Y0279500D01*
X0268095Y0282400D02*
X0269600Y0282400D01*
X0269600Y0286600D01*
X0270400Y0286600D01*
X0270400Y0287400D01*
X0274600Y0287400D01*
X0274600Y0288905D01*
X0271905Y0291600D01*
X0270400Y0291600D01*
X0270400Y0287400D01*
X0269600Y0287400D01*
X0269600Y0291600D01*
X0268095Y0291600D01*
X0265400Y0288905D01*
X0265400Y0287400D01*
X0269600Y0287400D01*
X0269600Y0286600D01*
X0265400Y0286600D01*
X0265400Y0285095D01*
X0268095Y0282400D01*
X0270400Y0282400D02*
X0271905Y0282400D01*
X0274600Y0285095D01*
X0274600Y0286600D01*
X0270400Y0286600D01*
X0270400Y0282400D01*
X0270000Y0281100D02*
X0270000Y0286600D01*
X0270000Y0287400D02*
X0270000Y0312900D01*
X0265000Y0312900D02*
X0265000Y0275818D01*
X0263682Y0274500D02*
X0263298Y0274500D01*
X0260000Y0272900D02*
X0260000Y0271700D01*
X0273298Y0279500D02*
X0274650Y0279500D01*
X0274650Y0284500D02*
X0274005Y0284500D01*
X0270400Y0284500D02*
X0269600Y0284500D01*
X0265995Y0284500D02*
X0263298Y0284500D01*
X0263298Y0289500D02*
X0265995Y0289500D01*
X0269600Y0289500D02*
X0270400Y0289500D01*
X0274005Y0289500D02*
X0274650Y0289500D01*
X0243682Y0274500D02*
X0243298Y0274500D01*
X0238002Y0273200D02*
X0236200Y0275002D01*
X0236200Y0273200D01*
X0238002Y0273200D01*
X0236702Y0274500D02*
X0236200Y0274500D01*
X0236200Y0279500D02*
X0236702Y0279500D01*
X0236702Y0284500D02*
X0236200Y0284500D01*
X0236702Y0289500D02*
X0235318Y0289500D01*
X0235000Y0289801D02*
X0235000Y0302100D01*
X0235000Y0305900D02*
X0235000Y0312900D01*
X0240000Y0312900D02*
X0240000Y0310042D01*
X0239458Y0309500D02*
X0217265Y0309500D01*
X0217283Y0309384D02*
X0217175Y0310070D01*
X0216952Y0310754D01*
X0216626Y0311394D01*
X0216203Y0311976D01*
X0215695Y0312485D01*
X0215123Y0312900D01*
X0244175Y0312900D01*
X0241926Y0311968D01*
X0239282Y0309324D01*
X0237863Y0305900D01*
X0216079Y0305900D01*
X0216203Y0306024D01*
X0216626Y0306606D01*
X0216952Y0307246D01*
X0217175Y0307930D01*
X0217283Y0308616D01*
X0210134Y0308616D01*
X0210134Y0309384D01*
X0217283Y0309384D01*
X0215000Y0309384D02*
X0215000Y0308616D01*
X0220000Y0305900D02*
X0220000Y0312900D01*
X0225000Y0312900D02*
X0225000Y0305900D01*
X0225000Y0302100D02*
X0225000Y0290200D01*
X0220000Y0290200D02*
X0220000Y0302100D01*
X0217265Y0299500D02*
X0238940Y0299500D01*
X0230000Y0302100D02*
X0230000Y0290200D01*
X0215000Y0298616D02*
X0215000Y0299384D01*
X0205000Y0308616D02*
X0205000Y0309384D01*
X0195000Y0305900D02*
X0195000Y0312900D01*
X0190000Y0312900D02*
X0190000Y0305900D01*
X0187521Y0304500D02*
X0185900Y0304500D01*
X0185000Y0306187D02*
X0185000Y0312900D01*
X0175000Y0305600D02*
X0175000Y0304284D01*
X0174332Y0297428D02*
X0174451Y0297138D01*
X0174213Y0296900D01*
X0173100Y0295787D01*
X0173100Y0293400D01*
X0170304Y0293400D01*
X0174332Y0297428D01*
X0173100Y0294500D02*
X0171404Y0294500D01*
X0176900Y0294213D02*
X0178334Y0295647D01*
X0178520Y0295724D01*
X0178600Y0295804D01*
X0178600Y0290200D01*
X0176387Y0290200D01*
X0176900Y0290713D01*
X0176900Y0294213D01*
X0177187Y0294500D02*
X0178600Y0294500D01*
X0190000Y0290200D02*
X0190000Y0299716D01*
X0195000Y0302100D02*
X0195000Y0290200D01*
X0175488Y0279500D02*
X0170700Y0279500D01*
X0165300Y0279500D02*
X0164200Y0279500D01*
X0165000Y0290650D02*
X0165000Y0291800D01*
X0130000Y0304184D02*
X0130000Y0305600D01*
X0105000Y0300384D02*
X0105000Y0299616D01*
X0100000Y0299616D02*
X0100000Y0300384D01*
X0098985Y0299500D02*
X0077103Y0299500D01*
X0075000Y0297208D02*
X0075000Y0294687D01*
X0074813Y0294500D02*
X0051869Y0294500D01*
X0046900Y0294500D02*
X0045869Y0294500D01*
X0045000Y0297755D02*
X0045000Y0300633D01*
X0045137Y0300770D02*
X0045137Y0300770D01*
X0047517Y0299478D02*
X0047517Y0299478D01*
X0047539Y0299500D02*
X0041600Y0299500D01*
X0045758Y0304500D02*
X0059601Y0304500D01*
X0075000Y0311792D02*
X0075000Y0312900D01*
X0077103Y0309500D02*
X0098985Y0309500D01*
X0100000Y0309616D02*
X0100000Y0310384D01*
X0100000Y0307088D02*
X0100000Y0302912D01*
X0102739Y0304500D02*
X0078399Y0304500D01*
X0080000Y0312900D02*
X0080000Y0295900D01*
X0085000Y0295900D02*
X0085000Y0312900D01*
X0090000Y0312900D02*
X0090000Y0295900D01*
X0095000Y0295900D02*
X0095000Y0312900D01*
X0100000Y0297088D02*
X0100000Y0295900D01*
X0077215Y0274500D02*
X0075187Y0274500D01*
X0077215Y0269500D02*
X0050687Y0269500D01*
X0050000Y0268813D02*
X0050000Y0262226D01*
X0049376Y0264500D02*
X0052797Y0264500D01*
X0055000Y0265332D02*
X0055000Y0271600D01*
X0060000Y0271600D02*
X0060000Y0264483D01*
X0059958Y0264500D02*
X0077215Y0264500D01*
X0077215Y0259500D02*
X0064072Y0259500D01*
X0063713Y0254500D02*
X0077215Y0254500D01*
X0070363Y0244500D02*
X0049272Y0244500D01*
X0049246Y0239500D02*
X0065398Y0239500D01*
X0065000Y0238540D02*
X0065000Y0271600D01*
X0070000Y0271600D02*
X0070000Y0244137D01*
X0080637Y0239500D02*
X0093400Y0239500D01*
X0118785Y0249500D02*
X0136300Y0249500D01*
X0136300Y0254500D02*
X0118785Y0254500D01*
X0133513Y0244500D02*
X0136300Y0244500D01*
X0142200Y0245104D02*
X0142200Y0254296D01*
X0144704Y0256800D01*
X0149626Y0256800D01*
X0150368Y0256058D01*
X0151427Y0255619D01*
X0152573Y0255619D01*
X0153300Y0255920D01*
X0153300Y0251704D01*
X0150796Y0249200D01*
X0146296Y0249200D01*
X0142296Y0245200D01*
X0142200Y0245104D01*
X0145000Y0247904D02*
X0145000Y0256800D01*
X0142404Y0254500D02*
X0153300Y0254500D01*
X0150000Y0256426D02*
X0150000Y0249200D01*
X0151096Y0249500D02*
X0142200Y0249500D01*
X0148704Y0243300D02*
X0147200Y0241796D01*
X0147200Y0241604D01*
X0147296Y0241700D01*
X0147296Y0241700D01*
X0148796Y0243200D01*
X0150126Y0243200D01*
X0150226Y0243300D01*
X0148704Y0243300D01*
X0150000Y0243300D02*
X0150000Y0243200D01*
X0164200Y0233726D02*
X0164368Y0233558D01*
X0165357Y0233148D01*
X0165119Y0232573D01*
X0165119Y0231427D01*
X0165558Y0230368D01*
X0166226Y0229700D01*
X0164200Y0229700D01*
X0164200Y0233726D01*
X0165000Y0233296D02*
X0165000Y0229700D01*
X0168000Y0232000D02*
X0191563Y0231937D01*
X0197000Y0226500D01*
X0201014Y0225937D01*
X0200000Y0222376D02*
X0200000Y0221624D01*
X0196195Y0221624D02*
X0207305Y0221624D01*
X0207800Y0222118D01*
X0207800Y0222801D01*
X0207375Y0222376D01*
X0195442Y0222376D01*
X0196195Y0221624D01*
X0194008Y0223810D02*
X0189289Y0228529D01*
X0189289Y0228529D01*
X0188529Y0229289D01*
X0187537Y0229700D01*
X0169774Y0229700D01*
X0170368Y0230294D01*
X0190857Y0230239D01*
X0194008Y0227088D01*
X0194008Y0223810D01*
X0194008Y0224500D02*
X0193318Y0224500D01*
X0190000Y0227818D02*
X0190000Y0230241D01*
X0191596Y0229500D02*
X0188020Y0229500D01*
X0185000Y0229700D02*
X0185000Y0230255D01*
X0185000Y0233655D02*
X0185000Y0234300D01*
X0185000Y0237700D02*
X0185000Y0257300D01*
X0190000Y0257300D02*
X0190000Y0237700D01*
X0190000Y0234300D02*
X0190000Y0233641D01*
X0191568Y0233637D02*
X0170381Y0233694D01*
X0169774Y0234300D01*
X0194008Y0234300D01*
X0194008Y0231896D01*
X0192767Y0233137D01*
X0192272Y0233635D01*
X0192269Y0233635D01*
X0192267Y0233637D01*
X0191568Y0233637D01*
X0196500Y0236000D02*
X0166000Y0236000D01*
X0170000Y0237700D02*
X0170000Y0242096D01*
X0170000Y0234300D02*
X0170000Y0234074D01*
X0170000Y0229926D02*
X0170000Y0229700D01*
X0179200Y0224300D02*
X0185882Y0224300D01*
X0192832Y0217350D01*
X0180587Y0217350D01*
X0179650Y0216413D01*
X0179200Y0215963D01*
X0179200Y0224300D01*
X0180000Y0224300D02*
X0180000Y0216763D01*
X0179200Y0219500D02*
X0190682Y0219500D01*
X0190000Y0220182D02*
X0190000Y0217350D01*
X0185000Y0217350D02*
X0185000Y0224300D01*
X0173800Y0219500D02*
X0158700Y0219500D01*
X0155300Y0219500D02*
X0155200Y0219500D01*
X0155200Y0214500D02*
X0155300Y0214500D01*
X0158700Y0214500D02*
X0173800Y0214500D01*
X0160000Y0204426D02*
X0160000Y0155900D01*
X0155000Y0157137D02*
X0155000Y0205096D01*
X0154404Y0204500D02*
X0159926Y0204500D01*
X0160400Y0199500D02*
X0149404Y0199500D01*
X0150000Y0200096D02*
X0150000Y0162137D01*
X0152637Y0159500D02*
X0170373Y0159500D01*
X0170000Y0159873D02*
X0170000Y0154137D01*
X0180000Y0167127D02*
X0180000Y0169202D01*
X0179702Y0169500D02*
X0179100Y0169500D01*
X0179702Y0179500D02*
X0172600Y0179500D01*
X0172600Y0189500D02*
X0173796Y0189500D01*
X0173800Y0194500D02*
X0172600Y0194500D01*
X0172600Y0199500D02*
X0173800Y0199500D01*
X0160400Y0194500D02*
X0144404Y0194500D01*
X0145000Y0195096D02*
X0145000Y0163900D01*
X0140000Y0163900D02*
X0140000Y0190015D01*
X0139496Y0189500D02*
X0160400Y0189500D01*
X0160400Y0184500D02*
X0134602Y0184500D01*
X0135000Y0184907D02*
X0135000Y0174187D01*
X0134881Y0174306D02*
X0134881Y0175073D01*
X0134442Y0176132D01*
X0133632Y0176942D01*
X0132573Y0177381D01*
X0131427Y0177381D01*
X0130368Y0176942D01*
X0129558Y0176132D01*
X0129119Y0175073D01*
X0129119Y0173927D01*
X0129558Y0172868D01*
X0130368Y0172058D01*
X0131427Y0171619D01*
X0132100Y0171619D01*
X0132100Y0169674D01*
X0131558Y0169132D01*
X0131119Y0168073D01*
X0131119Y0166927D01*
X0131558Y0165868D01*
X0132368Y0165058D01*
X0133427Y0164619D01*
X0134573Y0164619D01*
X0135632Y0165058D01*
X0136442Y0165868D01*
X0136881Y0166927D01*
X0136881Y0168073D01*
X0136442Y0169132D01*
X0135900Y0169674D01*
X0135900Y0173287D01*
X0134881Y0174306D01*
X0134881Y0174500D02*
X0160400Y0174500D01*
X0163373Y0169500D02*
X0136074Y0169500D01*
X0131926Y0169500D02*
X0102200Y0169500D01*
X0105000Y0169800D02*
X0105000Y0163900D01*
X0110000Y0163900D02*
X0110000Y0169800D01*
X0115000Y0169800D02*
X0115000Y0163900D01*
X0120000Y0163900D02*
X0120000Y0169800D01*
X0118000Y0173500D02*
X0140500Y0196500D01*
X0130000Y0179798D02*
X0130000Y0176574D01*
X0129119Y0174500D02*
X0124815Y0174500D01*
X0125000Y0174689D02*
X0125000Y0163900D01*
X0130000Y0163900D02*
X0130000Y0172426D01*
X0129708Y0179500D02*
X0160400Y0179500D01*
X0135000Y0164796D02*
X0135000Y0163900D01*
X0094800Y0179500D02*
X0093904Y0179500D01*
X0090000Y0178596D02*
X0090000Y0177637D01*
X0089096Y0179500D02*
X0088137Y0179500D01*
X0085000Y0182637D02*
X0085000Y0183596D01*
X0084096Y0184500D02*
X0083137Y0184500D01*
X0080000Y0187637D02*
X0080000Y0188596D01*
X0079096Y0189500D02*
X0078137Y0189500D01*
X0064600Y0189500D02*
X0063713Y0189500D01*
X0060000Y0193617D02*
X0060000Y0250383D01*
X0055000Y0249534D02*
X0055000Y0194466D01*
X0049010Y0194500D02*
X0064600Y0194500D01*
X0064600Y0199500D02*
X0049036Y0199500D01*
X0042600Y0199500D02*
X0041600Y0199500D01*
X0041600Y0194500D02*
X0042600Y0194500D01*
X0042600Y0204500D02*
X0041600Y0204500D01*
X0041600Y0209500D02*
X0042600Y0209500D01*
X0049088Y0209500D02*
X0064600Y0209500D01*
X0064600Y0204500D02*
X0049062Y0204500D01*
X0049115Y0214500D02*
X0064600Y0214500D01*
X0064600Y0219500D02*
X0049141Y0219500D01*
X0042600Y0219500D02*
X0041600Y0219500D01*
X0041600Y0214500D02*
X0042600Y0214500D01*
X0042600Y0224500D02*
X0041600Y0224500D01*
X0041600Y0229500D02*
X0042600Y0229500D01*
X0049193Y0229500D02*
X0064600Y0229500D01*
X0064600Y0224500D02*
X0049167Y0224500D01*
X0049219Y0234500D02*
X0064600Y0234500D01*
X0042600Y0234500D02*
X0041600Y0234500D01*
X0041600Y0239500D02*
X0042600Y0239500D01*
X0042600Y0244500D02*
X0041600Y0244500D01*
X0041600Y0249500D02*
X0042600Y0249500D01*
X0042600Y0254500D02*
X0041600Y0254500D01*
X0041600Y0259500D02*
X0042600Y0259500D01*
X0042600Y0264500D02*
X0041600Y0264500D01*
X0041600Y0269500D02*
X0042600Y0269500D01*
X0158700Y0229500D02*
X0158800Y0229500D01*
X0196404Y0229500D02*
X0209007Y0229500D01*
X0210000Y0229881D02*
X0210000Y0257300D01*
X0205000Y0257300D02*
X0205000Y0245746D01*
X0205000Y0242285D02*
X0205000Y0241085D01*
X0205000Y0237624D02*
X0205000Y0237372D01*
X0201614Y0239500D02*
X0200414Y0239500D01*
X0200000Y0241085D02*
X0200000Y0242285D01*
X0200414Y0244500D02*
X0201614Y0244500D01*
X0200000Y0245746D02*
X0200000Y0257300D01*
X0195000Y0257300D02*
X0195000Y0245746D01*
X0200000Y0237624D02*
X0200000Y0237372D01*
X0196689Y0235811D02*
X0196500Y0236000D01*
X0196689Y0235811D02*
X0201014Y0233811D01*
X0200000Y0230250D02*
X0200000Y0229498D01*
X0205000Y0229498D02*
X0205000Y0230250D01*
X0208019Y0234500D02*
X0212800Y0234500D01*
X0218200Y0234500D02*
X0218400Y0234500D01*
X0212800Y0229500D02*
X0211993Y0229500D01*
X0205000Y0222376D02*
X0205000Y0221624D01*
X0230000Y0216796D02*
X0230000Y0215318D01*
X0230818Y0214500D02*
X0231682Y0214500D01*
X0171096Y0254500D02*
X0164200Y0254500D01*
X0170000Y0253404D02*
X0170000Y0257426D01*
X0230000Y0305900D02*
X0230000Y0312900D01*
X0092196Y0174500D02*
X0091400Y0174500D01*
X0238900Y0144500D02*
X0243300Y0144500D01*
X0243300Y0139500D02*
X0238900Y0139500D01*
X0238309Y0134500D02*
X0241373Y0134500D01*
X0245725Y0124500D02*
X0269900Y0124500D01*
X0265000Y0124900D02*
X0265000Y0123600D01*
X0260000Y0123600D02*
X0260000Y0124900D01*
X0260000Y0119400D02*
X0260000Y0118600D01*
X0262100Y0119500D02*
X0262900Y0119500D01*
X0252521Y0119500D02*
X0241011Y0119500D01*
X0240000Y0118428D02*
X0240000Y0115479D01*
X0240000Y0113521D02*
X0240000Y0108184D01*
X0240500Y0105500D02*
X0253500Y0105500D01*
X0250000Y0103800D02*
X0250000Y0101296D01*
X0245000Y0101200D02*
X0245000Y0103800D01*
X0240000Y0102816D02*
X0240000Y0101904D01*
X0240000Y0097800D02*
X0240000Y0097700D01*
X0245000Y0097700D02*
X0245000Y0097800D01*
X0245000Y0112200D02*
X0245000Y0112800D01*
X0245000Y0116200D02*
X0245000Y0123731D01*
X0260000Y0133100D02*
X0260000Y0134900D01*
X0265000Y0134900D02*
X0265000Y0133100D01*
X0269600Y0129500D02*
X0269900Y0129500D01*
X0260600Y0064500D02*
X0257399Y0064500D01*
X0269900Y0062787D02*
X0269900Y0062787D01*
X0180000Y0016200D02*
X0180000Y0015800D01*
X0177390Y0019500D02*
X0160515Y0019500D01*
X0155000Y0029015D02*
X0155000Y0030237D01*
X0155485Y0029500D02*
X0154263Y0029500D01*
X0145485Y0029500D02*
X0140515Y0029500D01*
X0140000Y0030015D02*
X0140000Y0031400D01*
X0145000Y0031400D02*
X0145000Y0029015D01*
X0145000Y0034600D02*
X0145000Y0034900D01*
X0145000Y0038100D02*
X0145000Y0039796D01*
X0143926Y0044500D02*
X0141493Y0044500D01*
X0145000Y0045204D02*
X0145000Y0045300D01*
X0155000Y0045300D02*
X0155000Y0043100D01*
X0155000Y0039900D02*
X0155000Y0039381D01*
X0150000Y0039900D02*
X0150000Y0038100D01*
X0135000Y0038100D02*
X0135000Y0045300D01*
X0141993Y0054500D02*
X0161119Y0054500D01*
X0160000Y0053700D02*
X0160000Y0058800D01*
X0155000Y0058800D02*
X0155000Y0053700D01*
X0155000Y0050300D02*
X0155000Y0048700D01*
X0160000Y0048700D02*
X0160000Y0050300D01*
X0166300Y0044500D02*
X0177800Y0044500D01*
X0175000Y0040100D02*
X0175000Y0052300D01*
X0175000Y0055700D02*
X0175000Y0058800D01*
X0098300Y0029500D02*
X0097700Y0029500D01*
X0050000Y0073700D02*
X0050000Y0076300D01*
D29*
X0049000Y0080000D02*
X0055500Y0080000D01*
X0055500Y0100500D01*
X0067500Y0112500D01*
X0088913Y0112500D01*
X0103350Y0127063D01*
X0106000Y0123500D02*
X0109000Y0126500D01*
X0109000Y0129000D01*
X0106000Y0123500D02*
X0106000Y0109000D01*
X0109500Y0103000D02*
X0117000Y0110500D01*
X0117000Y0111500D01*
X0109500Y0103000D02*
X0109500Y0097000D01*
X0121500Y0092500D02*
X0130500Y0100500D01*
X0154500Y0100500D01*
X0169000Y0115500D01*
X0134000Y0139000D02*
X0134000Y0139500D01*
X0134000Y0139000D02*
X0128500Y0133500D01*
X0104000Y0133500D01*
X0093000Y0122500D01*
X0093000Y0120500D01*
X0088000Y0115500D01*
X0066500Y0115500D01*
X0051000Y0100000D01*
X0049000Y0100000D01*
X0049000Y0110000D02*
X0055000Y0110000D01*
X0064000Y0119000D01*
X0087500Y0119000D01*
X0090000Y0121500D01*
X0090000Y0123500D01*
X0103000Y0136500D01*
X0120500Y0136500D01*
X0126000Y0142000D01*
X0122000Y0143500D02*
X0118000Y0143500D01*
X0116800Y0142500D01*
X0101000Y0142500D01*
X0084000Y0125500D01*
X0080500Y0125500D01*
X0078500Y0123500D01*
X0078500Y0123100D01*
X0083000Y0128500D02*
X0073000Y0128500D01*
X0070500Y0126000D01*
X0070500Y0123100D01*
X0062500Y0123100D02*
X0062500Y0126500D01*
X0067500Y0131500D01*
X0080500Y0131500D01*
X0087000Y0138000D01*
X0085500Y0141500D02*
X0078500Y0134500D01*
X0049000Y0134500D01*
X0049000Y0147500D01*
X0053000Y0151500D01*
X0053000Y0167500D01*
X0047000Y0173500D01*
X0047500Y0269000D01*
X0052000Y0273500D01*
X0071500Y0273500D01*
X0075000Y0277000D01*
X0075000Y0288000D01*
X0078000Y0291000D01*
X0110500Y0291000D01*
X0117500Y0298500D01*
X0117500Y0304500D01*
X0120500Y0307500D01*
X0177500Y0307500D01*
X0180500Y0304500D01*
X0180500Y0287500D01*
X0184000Y0292500D02*
X0184000Y0304500D01*
X0178500Y0310000D01*
X0118500Y0310000D01*
X0115000Y0306000D01*
X0115000Y0299500D01*
X0109500Y0294000D01*
X0077000Y0294000D01*
X0072000Y0289000D01*
X0072000Y0278500D01*
X0070000Y0276500D01*
X0050500Y0276500D01*
X0044500Y0270500D01*
X0044500Y0173500D01*
X0043000Y0172000D01*
X0043000Y0141000D01*
X0044500Y0139500D01*
X0053000Y0139500D02*
X0055000Y0137500D01*
X0077000Y0137500D01*
X0084500Y0145000D01*
X0094500Y0145000D01*
X0099500Y0145000D02*
X0110500Y0145000D01*
X0111000Y0146000D01*
X0118500Y0139500D02*
X0102000Y0139500D01*
X0086500Y0124000D01*
X0086500Y0123100D01*
X0083000Y0128500D02*
X0099500Y0145000D01*
X0090500Y0141500D02*
X0085500Y0141500D01*
X0118500Y0139500D02*
X0119000Y0140000D01*
X0134000Y0167500D02*
X0134000Y0172500D01*
X0132000Y0174500D01*
X0252000Y0099500D02*
X0262500Y0089000D01*
X0262500Y0079000D02*
X0262500Y0062000D01*
X0268000Y0062000D01*
X0269500Y0060500D01*
X0269700Y0055900D01*
X0250000Y0055500D02*
X0250000Y0059500D01*
X0246260Y0063240D01*
X0246260Y0067000D01*
X0243500Y0067000D01*
X0240000Y0063500D01*
X0250000Y0015500D02*
X0250500Y0015000D01*
X0256000Y0015000D01*
X0121500Y0092500D02*
X0110500Y0081500D01*
X0110500Y0070000D01*
X0049000Y0070000D01*
X0125500Y0282500D02*
X0125500Y0292000D01*
X0134500Y0301000D01*
X0161000Y0288000D02*
X0161500Y0287500D01*
X0162750Y0288750D01*
X0167750Y0288750D01*
X0170500Y0291500D01*
X0175000Y0291500D01*
X0175000Y0295000D01*
X0178000Y0298000D01*
X0177000Y0298000D01*
X0188500Y0302000D02*
X0190750Y0304000D01*
X0247250Y0304000D01*
D30*
X0222000Y0268500D02*
X0214500Y0261000D01*
X0180000Y0261000D01*
X0220000Y0247500D02*
X0220000Y0232000D01*
X0226000Y0226000D01*
X0226000Y0222500D01*
X0229000Y0219500D02*
X0229000Y0226000D01*
X0223500Y0231500D01*
X0223500Y0250500D01*
X0222500Y0215100D02*
X0214100Y0215100D01*
X0212600Y0213200D01*
X0212600Y0207200D01*
X0210800Y0205600D01*
X0207800Y0205400D01*
X0206200Y0204300D01*
X0197500Y0204300D01*
X0197500Y0200400D01*
X0222500Y0200400D01*
X0222500Y0215100D01*
X0222500Y0214195D02*
X0213385Y0214195D01*
X0212600Y0213196D02*
X0222500Y0213196D01*
X0222500Y0212198D02*
X0212600Y0212198D01*
X0212600Y0211199D02*
X0222500Y0211199D01*
X0222500Y0210201D02*
X0212600Y0210201D01*
X0212600Y0209202D02*
X0222500Y0209202D01*
X0222500Y0208204D02*
X0212600Y0208204D01*
X0212600Y0207205D02*
X0222500Y0207205D01*
X0222500Y0206207D02*
X0211483Y0206207D01*
X0207521Y0205208D02*
X0222500Y0205208D01*
X0222500Y0204210D02*
X0197500Y0204210D01*
X0197500Y0203211D02*
X0222500Y0203211D01*
X0222500Y0202213D02*
X0197500Y0202213D01*
X0197500Y0201214D02*
X0222500Y0201214D01*
X0201250Y0208250D02*
X0195000Y0208250D01*
X0193750Y0207000D01*
X0188750Y0207000D01*
X0187500Y0205750D01*
X0187500Y0202000D01*
X0186250Y0200750D01*
X0183750Y0200750D01*
X0182500Y0202000D01*
X0182500Y0204500D01*
X0180000Y0207000D01*
X0180000Y0214500D01*
X0181250Y0215750D01*
X0192500Y0215750D01*
X0196250Y0212000D01*
X0201250Y0212000D01*
X0201250Y0208250D01*
X0201250Y0209202D02*
X0180000Y0209202D01*
X0180000Y0208204D02*
X0194954Y0208204D01*
X0193955Y0207205D02*
X0180000Y0207205D01*
X0180793Y0206207D02*
X0187957Y0206207D01*
X0187500Y0205208D02*
X0181792Y0205208D01*
X0182500Y0204210D02*
X0187500Y0204210D01*
X0187500Y0203211D02*
X0182500Y0203211D01*
X0182500Y0202213D02*
X0187500Y0202213D01*
X0186714Y0201214D02*
X0183286Y0201214D01*
X0180000Y0210201D02*
X0201250Y0210201D01*
X0201250Y0211199D02*
X0180000Y0211199D01*
X0180000Y0212198D02*
X0196052Y0212198D01*
X0195054Y0213196D02*
X0180000Y0213196D01*
X0180000Y0214195D02*
X0194055Y0214195D01*
X0193057Y0215193D02*
X0180693Y0215193D01*
X0133750Y0239500D02*
X0131750Y0236500D01*
X0131750Y0229000D01*
X0130000Y0228250D01*
X0123750Y0228250D01*
X0120000Y0232000D01*
X0115000Y0232000D01*
X0115000Y0235750D01*
X0121250Y0235750D01*
X0122500Y0237000D01*
X0127500Y0237000D01*
X0128750Y0238250D01*
X0128750Y0242000D01*
X0130000Y0243250D01*
X0132500Y0243250D01*
X0133750Y0242000D01*
X0133750Y0239500D01*
X0133522Y0239158D02*
X0128750Y0239158D01*
X0128750Y0240156D02*
X0133750Y0240156D01*
X0133750Y0241155D02*
X0128750Y0241155D01*
X0128903Y0242153D02*
X0133597Y0242153D01*
X0132598Y0243152D02*
X0129902Y0243152D01*
X0128659Y0238159D02*
X0132856Y0238159D01*
X0132190Y0237161D02*
X0127661Y0237161D01*
X0131750Y0236162D02*
X0121662Y0236162D01*
X0120000Y0239700D02*
X0111300Y0239700D01*
X0109700Y0238600D01*
X0106700Y0238400D01*
X0104900Y0236800D01*
X0104900Y0230800D01*
X0103400Y0228900D01*
X0095000Y0228900D01*
X0095000Y0243600D01*
X0120000Y0243600D01*
X0120000Y0239700D01*
X0120000Y0240156D02*
X0095000Y0240156D01*
X0095000Y0239158D02*
X0110511Y0239158D01*
X0106429Y0238159D02*
X0095000Y0238159D01*
X0095000Y0237161D02*
X0105306Y0237161D01*
X0104900Y0236162D02*
X0095000Y0236162D01*
X0095000Y0235164D02*
X0104900Y0235164D01*
X0104900Y0234165D02*
X0095000Y0234165D01*
X0095000Y0233167D02*
X0104900Y0233167D01*
X0104900Y0232168D02*
X0095000Y0232168D01*
X0095000Y0231170D02*
X0104900Y0231170D01*
X0104403Y0230171D02*
X0095000Y0230171D01*
X0095000Y0229172D02*
X0103615Y0229172D01*
X0115000Y0232168D02*
X0131750Y0232168D01*
X0131750Y0231170D02*
X0120830Y0231170D01*
X0121829Y0230171D02*
X0131750Y0230171D01*
X0131750Y0229172D02*
X0122828Y0229172D01*
X0115000Y0233167D02*
X0131750Y0233167D01*
X0131750Y0234165D02*
X0115000Y0234165D01*
X0115000Y0235164D02*
X0131750Y0235164D01*
X0120000Y0241155D02*
X0095000Y0241155D01*
X0095000Y0242153D02*
X0120000Y0242153D01*
X0120000Y0243152D02*
X0095000Y0243152D01*
X0160000Y0071500D02*
X0193500Y0071500D01*
X0210000Y0061500D02*
X0211500Y0060000D01*
X0211500Y0055000D01*
X0202500Y0046000D01*
X0201500Y0046000D01*
X0199000Y0052500D02*
X0192500Y0046000D01*
X0191500Y0046000D01*
X0199000Y0052500D02*
X0206000Y0052500D01*
X0208500Y0055000D01*
X0208500Y0059000D01*
X0253500Y0067000D02*
X0253500Y0072500D01*
X0253500Y0067000D02*
X0253740Y0067000D01*
X0165500Y0031500D02*
X0165000Y0031500D01*
X0158500Y0036000D02*
X0158500Y0040500D01*
X0157500Y0041500D01*
X0147000Y0041500D01*
X0146000Y0042500D01*
X0155000Y0036500D02*
X0134000Y0036500D01*
X0133000Y0035500D01*
X0133000Y0018000D01*
X0131000Y0016000D01*
X0128500Y0016000D01*
X0128000Y0016500D01*
X0128000Y0026500D02*
X0118500Y0036000D01*
X0118500Y0038000D01*
X0136000Y0031500D02*
X0136000Y0028500D01*
X0138000Y0026500D01*
X0136000Y0031500D02*
X0137500Y0033000D01*
X0151500Y0033000D01*
X0152000Y0029500D02*
X0148000Y0029500D01*
X0148000Y0026500D01*
X0152000Y0029500D02*
X0158500Y0036000D01*
D31*
X0196200Y0054000D03*
X0250000Y0096000D03*
X0252000Y0099500D03*
X0253500Y0105500D03*
X0253500Y0110500D03*
X0253500Y0117000D03*
X0242500Y0114500D03*
X0244000Y0109500D03*
X0240500Y0105500D03*
X0236000Y0103500D03*
X0231000Y0103500D03*
X0235500Y0129900D03*
X0190000Y0137000D03*
X0165000Y0157500D03*
X0160000Y0157500D03*
X0138500Y0149500D03*
X0148000Y0135500D03*
X0151500Y0132000D03*
X0174500Y0110000D03*
X0269700Y0055900D03*
X0127000Y0170000D03*
X0134000Y0205500D03*
X0131300Y0209000D03*
X0239500Y0191000D03*
X0177000Y0298000D03*
X0176500Y0302000D03*
X0188500Y0302000D03*
X0129500Y0301500D03*
D32*
X0185000Y0247500D02*
X0190815Y0241685D01*
X0201014Y0241685D01*
X0263500Y0242500D02*
X0273000Y0233500D01*
X0273000Y0059000D01*
X0273000Y0053000D02*
X0273000Y0037000D01*
X0164000Y0037000D01*
D33*
X0197000Y0141500D02*
X0215000Y0141500D01*
X0220000Y0141500D01*
X0197000Y0141500D02*
X0186000Y0152500D01*
X0173500Y0165000D01*
X0173000Y0168500D01*
X0166500Y0175000D01*
X0166500Y0206500D01*
D34*
X0164000Y0047000D02*
X0164000Y0037000D01*
D35*
X0247250Y0304000D03*
X0069000Y0304500D03*
D36*
X0100000Y0266500D02*
X0070000Y0236500D01*
X0070000Y0190000D01*
X0086000Y0174000D01*
X0086000Y0171000D01*
X0083500Y0168500D01*
X0083500Y0166500D01*
X0091500Y0158500D01*
X0146000Y0158500D01*
X0154000Y0150500D01*
X0166000Y0150500D01*
X0176000Y0140500D01*
X0188000Y0129000D01*
X0225500Y0129000D01*
X0233500Y0137000D01*
X0233500Y0156500D01*
M02*
